<?xml version="1.0" encoding="UTF-8" standalone="no"?>
<!-- Created with Inkscape (http://www.inkscape.org/) -->

<svg
   width="32.669781mm"
   height="49.922642mm"
   viewBox="0 0 32.669781 49.922642"
   version="1.1"
   id="svg1"
   inkscape:version="1.3.2 (091e20e, 2023-11-25)"
   sodipodi:docname="ankylosauridTracks.svg"
   inkscape:export-filename="ankylosauridTracks.png"
   inkscape:export-xdpi="96"
   inkscape:export-ydpi="96"
   xmlns:inkscape="http://www.inkscape.org/namespaces/inkscape"
   xmlns:sodipodi="http://sodipodi.sourceforge.net/DTD/sodipodi-0.dtd"
   xmlns="http://www.w3.org/2000/svg"
   xmlns:svg="http://www.w3.org/2000/svg">
  <sodipodi:namedview
     id="namedview1"
     pagecolor="#ffffff"
     bordercolor="#000000"
     borderopacity="0.25"
     inkscape:showpageshadow="2"
     inkscape:pageopacity="0.0"
     inkscape:pagecheckerboard="0"
     inkscape:deskcolor="#d1d1d1"
     inkscape:document-units="mm"
     inkscape:zoom="0.73985504"
     inkscape:cx="91.909896"
     inkscape:cy="282.48777"
     inkscape:window-width="1272"
     inkscape:window-height="449"
     inkscape:window-x="171"
     inkscape:window-y="25"
     inkscape:window-maximized="0"
     inkscape:current-layer="layer1" />
  <defs
     id="defs1" />
  <g
     inkscape:label="Layer 1"
     inkscape:groupmode="layer"
     id="layer1"
     transform="translate(-27.256308,-85.032006)">
    <path
       style="fill:#000000;stroke-width:0.264583"
       d="m 29.012853,125.73551 c 0.152741,-1.08729 0.244128,-1.28468 0.888634,-1.91945 l 0.718392,-0.70753 0.110562,-1.89218 0.11056,-1.89216 0.625413,-0.50901 c 0.343987,-0.27995 0.904444,-0.55687 1.245496,-0.61534 0.341052,-0.0585 0.900197,-0.24673 1.242533,-0.41837 0.727526,-0.36473 2.515824,-0.3901 2.784626,-0.0395 0.0947,0.12364 0.219594,0.47564 0.277448,0.78235 0.174307,0.92421 0.617415,1.19947 1.949968,1.2113 1.112953,0.01 1.202084,-0.0217 1.909455,-0.67599 0.713553,-0.66 1.04515,-0.76988 2.117816,-0.70154 0.710403,0.0452 1.340712,0.77709 1.322453,1.53553 -0.01213,0.50419 -0.135842,0.7053 -0.673366,1.09457 -0.362127,0.26232 -0.976473,0.7494 -1.36513,1.08248 l -0.706649,0.6056 0.335791,0.43564 c 0.315143,0.40896 0.378021,0.42316 1.024766,0.23183 0.378934,-0.1121 1.403532,-0.20275 2.276882,-0.20142 1.836858,0.003 2.420023,0.29278 2.694044,1.33977 0.228025,0.87128 -0.109305,1.41931 -1.184592,1.92429 -0.740562,0.34779 -1.146768,0.41302 -2.388979,0.38363 l -1.496726,-0.0354 -0.115556,0.52654 c -0.12821,0.5841 0.201774,1.15172 0.676194,1.16312 0.157383,0.004 0.458213,0.13374 0.668581,0.28868 0.210353,0.15503 0.782704,0.33903 1.271914,0.40894 0.775216,0.11081 0.976639,0.23108 1.568324,0.93679 0.907302,1.08214 0.954988,1.83865 0.177084,2.80922 -0.422845,0.52761 -0.539115,0.57232 -1.430303,0.55093 -0.612646,-0.0147 -1.207286,-0.15388 -1.614009,-0.37764 -0.841102,-0.46263 -3.40991,-0.96932 -6.268835,-1.23627 -1.258719,-0.11756 -2.485747,-0.26909 -2.726716,-0.33685 -0.240959,-0.0677 -0.874054,-0.15577 -1.406818,-0.19562 -2.895589,-0.21678 -3.407928,-0.33605 -3.993348,-0.93055 -0.885897,-0.89964 -1.015145,-1.85501 -0.625839,-4.62638 z m 1.403094,3.37542 c 0.236219,0.42624 0.592256,0.80142 0.817402,0.86128 0.219381,0.0583 1.469933,0.1395 2.779009,0.18034 2.904321,0.0906 5.906151,0.41012 7.264132,0.77323 1.003317,0.26827 1.015884,0.26678 1.371338,-0.16341 0.197263,-0.2388 0.36032,-0.49753 0.362152,-0.57506 0.0019,-0.0775 -0.328445,-0.37529 -0.733932,-0.66188 -0.975365,-0.68917 -1.233785,-1.26876 -0.967649,-2.17021 0.111865,-0.37873 0.451605,-0.94195 0.755071,-1.25154 0.677288,-0.69112 0.637606,-1.38132 -0.08058,-1.39858 -1.277527,-0.0307 -1.920165,-1.00607 -1.687718,-2.56149 0.179985,-1.2044 0.0939,-1.27031 -1.715926,-1.31385 -1.188825,-0.0286 -1.418203,-0.0836 -1.578856,-0.37852 -0.103412,-0.18978 -0.430754,-0.63191 -0.727488,-0.98247 -0.537427,-0.6348 -0.542946,-0.63669 -1.400353,-0.46433 -0.930997,0.18715 -1.845058,0.46467 -2.551469,0.77469 -0.427143,0.18744 -0.451451,0.27714 -0.580858,2.1428 -0.122227,1.76165 -0.182858,2.0127 -0.636802,2.63477 -0.275933,0.3782 -0.509804,0.8816 -0.519562,1.11879 -0.0098,0.23716 -0.137259,0.86501 -0.28321,1.39524 -0.353687,1.28487 -0.359434,1.18334 0.115415,2.0402 z m 11.945289,-8.63127 c 0.379022,0.009 0.478125,-0.41525 0.20379,-0.87305 -0.129263,-0.2158 -0.192455,-0.18464 -0.343038,0.16819 -0.266808,0.62456 -0.252804,0.69543 0.139248,0.70486 z m 3.418655,4.81766 c 0.290211,-0.0934 0.530219,-0.27581 0.533301,-0.40539 0.0072,-0.29888 -0.830655,-0.42993 -1.380374,-0.21592 l -0.419084,0.16315 0.369238,0.31397 c 0.297911,0.25328 0.471181,0.28116 0.896899,0.14411 z m -1.056781,6.51927 c 0.691654,0.72582 1.878809,-0.15659 1.26161,-0.93775 -0.207459,-0.26263 -1.235887,-0.3842 -1.458123,-0.17242 -0.23017,0.21943 -0.133916,0.76343 0.196515,1.11015 z m 4.51125,-7.53675 c 0.248985,-0.56645 0.538048,-1.11134 0.64249,-1.2108 0.28808,-0.27459 0.241537,-0.72936 -0.145712,-1.4233 -0.483859,-0.86707 -0.356206,-1.50923 0.395206,-1.98813 0.55702,-0.35502 0.80598,-0.38331 2.924113,-0.33237 2.970266,0.0715 3.175451,0.1834 2.789235,1.52172 -0.14617,0.50651 -0.483259,1.32731 -0.749105,1.82403 -0.435644,0.81464 -0.461284,0.95237 -0.258467,1.40529 0.174923,0.39067 0.361441,0.51553 0.83975,0.56215 0.338188,0.0329 1.261149,0.24396 2.051042,0.46883 1.921547,0.54703 2.237627,0.8984 2.200398,2.44615 -0.02759,1.1471 -0.03158,1.15576 -0.837697,1.81777 -0.445498,0.36584 -0.899461,0.66323 -1.008828,0.66087 -0.109385,-0.002 -0.284147,0.0936 -0.388409,0.21324 -0.137997,0.15846 -0.05402,0.40876 0.309131,0.92107 0.892973,1.25975 0.56354,2.17404 -1.040425,2.88753 -1.498073,0.66637 -2.422553,0.86075 -4.26931,0.89762 -1.874513,0.0374 -2.597957,-0.25276 -3.087057,-1.23843 -0.262822,-0.52962 -0.298497,-1.04911 -0.239761,-3.49109 0.06089,-2.53198 0.02945,-2.94715 -0.267848,-3.53538 -0.429576,-0.84998 -0.412103,-1.14772 0.141276,-2.40678 z m 1.27691,2.13014 c 0.301839,0.48048 0.330462,0.83999 0.270141,3.39149 -0.03712,1.56971 0.007,3.06517 0.0981,3.32322 l 0.165594,0.46919 2.162159,-0.0499 c 1.769461,-0.0408 2.3,-0.11842 2.921107,-0.42726 0.45517,-0.22633 0.761946,-0.50201 0.766423,-0.68876 0.0041,-0.17128 -0.385213,-0.6983 -0.865192,-1.17121 -0.803316,-0.79213 -0.857452,-0.8972 -0.679964,-1.33225 0.112697,-0.27611 0.376631,-0.51385 0.635221,-0.57225 0.738112,-0.16649 0.8947,-0.48822 0.563793,-1.1585 -0.159361,-0.32282 -0.332422,-0.85722 -0.384612,-1.18756 -0.09926,-0.6284 -0.151228,-0.67436 -1.372151,-1.21366 -0.41509,-0.18333 -0.902933,-0.53148 -1.084141,-0.77361 -0.474551,-0.6341 -0.407172,-1.94125 0.148936,-2.88915 0.320974,-0.54721 0.400299,-0.85215 0.297909,-1.14595 -0.12855,-0.36884 -0.249488,-0.403 -1.537043,-0.43397 -1.630901,-0.0392 -1.644756,-0.0249 -1.53882,1.59294 0.07086,1.08376 -0.0182,1.4327 -0.615949,2.41354 -0.366108,0.60065 -0.349855,1.21951 0.04861,1.85377 z m 7.252032,1.44656 c 0.183832,0.35032 0.257169,0.37149 0.649318,0.18763 0.606137,-0.2842 0.634345,-0.63312 0.09983,-1.23578 -0.526551,-0.59365 -0.749503,-0.45957 -0.940072,0.56541 -0.009,0.0484 0.07694,0.26554 0.1909,0.48274 z"
       id="path1-7-8-2-4" />
    <path
       style="fill:#000000;stroke-width:0.264583"
       d="m 28.02227,98.987432 c 0.364734,1.035608 0.493352,1.211028 1.250669,1.705818 l 0.844101,0.55154 0.482567,1.83293 0.482561,1.83294 0.713711,0.37531 c 0.392581,0.20635 0.996688,0.36703 1.342599,0.35681 0.345873,-0.0101 0.931233,0.0634 1.300719,0.16437 0.785156,0.21416 2.543289,-0.11513 2.737438,-0.51197 0.06841,-0.13991 0.121218,-0.50969 0.117257,-0.82177 -0.01189,-0.94044 0.368036,-1.29789 1.671913,-1.57301 1.08903,-0.22979 1.182637,-0.21649 2.005449,0.28503 0.829962,0.50588 1.176741,0.548 2.214713,0.26886 0.687429,-0.18485 1.160543,-1.02688 0.992664,-1.76672 -0.111589,-0.49184 -0.272625,-0.66452 -0.876491,-0.93981 -0.4069,-0.18546 -1.105381,-0.54151 -1.552227,-0.79117 l -0.812491,-0.453849 0.24298,-0.493458 c 0.228063,-0.463178 0.286872,-0.489551 0.958668,-0.429891 0.393631,0.03494 1.415922,-0.07883 2.271763,-0.25283 1.800029,-0.365966 2.314321,-0.76558 2.375878,-1.846079 0.05122,-0.899175 -0.387841,-1.369659 -1.541735,-1.652023 -0.794703,-0.194516 -1.205803,-0.178093 -2.417675,0.09637 l -1.460151,0.330702 -0.217412,-0.493289 c -0.241189,-0.547216 -0.02997,-1.168863 0.432833,-1.273871 0.153504,-0.03478 0.422719,-0.221672 0.598267,-0.415219 0.17574,-0.193348 0.700209,-0.487113 1.165922,-0.652386 0.738009,-0.261886 0.911657,-0.41966 1.3521,-1.228438 0.675388,-1.240195 0.572523,-1.991185 -0.38197,-2.788751 -0.518828,-0.433591 -0.641628,-0.454442 -1.510999,-0.257187 -0.597634,0.135597 -1.153016,0.389556 -1.507452,0.689343 -0.732963,0.61987 -3.150874,1.62452 -5.900551,2.451578 -1.210619,0.364124 -2.383422,0.755365 -2.60625,0.869427 -0.22285,0.114011 -0.825971,0.325546 -1.340346,0.469977 -2.79556,0.784992 -3.274164,1.003346 -3.730458,1.701868 -0.690498,1.057059 -0.62825,2.019152 0.301426,4.6588 z m 0.707871,-3.586234 c 0.147247,-0.464533 0.422055,-0.902712 0.630891,-1.005931 0.203502,-0.100596 1.413314,-0.427458 2.68847,-0.726345 2.829047,-0.663149 5.7084,-1.569993 6.96775,-2.194487 0.930454,-0.461406 0.943057,-0.462421 1.376573,-0.111018 0.240623,0.195055 0.451556,0.416483 0.468706,0.492093 0.01715,0.07555 -0.247722,0.432855 -0.588564,0.793932 -0.819824,0.868435 -0.958522,1.487683 -0.519366,2.318702 0.184515,0.349183 0.628959,0.834053 0.987645,1.077511 0.800665,0.543432 0.898187,1.227959 0.197594,1.386916 -1.246221,0.282766 -1.683274,1.365916 -1.147822,2.844649 0.414608,1.145 0.34325,1.22664 -1.422228,1.62723 -1.159688,0.26313 -1.373668,0.3624 -1.472816,0.6833 -0.06384,0.20644 -0.297277,0.7046 -0.518821,1.10691 -0.401203,0.72858 -0.40632,0.73148 -1.280874,0.73208 -0.949636,7.1e-4 -1.900516,-0.0906 -2.654279,-0.2548 -0.455769,-0.0993 -0.497336,-0.18243 -0.993145,-1.98563 -0.468153,-1.70269 -0.577279,-1.93678 -1.145266,-2.456799 -0.345266,-0.316161 -0.674053,-0.7634 -0.730582,-0.993918 -0.05652,-0.230534 -0.305614,-0.820783 -0.55354,-1.311663 -0.6008,-1.189581 -0.586359,-1.088902 -0.29033,-2.022738 z m 13.416271,6.098542 c 0.369737,-0.0839 0.55077,0.31255 0.372434,0.81549 -0.08408,0.23708 -0.151853,0.21927 -0.369634,-0.0966 -0.385047,-0.55947 -0.385329,-0.6317 -0.0029,-0.71847 z m 2.39841,-5.398593 c 0.302957,0.03417 0.574313,0.165442 0.602951,0.291935 0.06614,0.291549 -0.729227,0.585705 -1.31042,0.484628 l -0.443077,-0.07704 0.299828,-0.380809 c 0.241944,-0.307187 0.406247,-0.368824 0.850679,-0.318681 z m -2.325148,-6.181514 c 0.534502,-0.84824 1.872674,-0.21807 1.422165,0.669696 -0.151478,0.298432 -1.1355,0.621019 -1.39524,0.457346 -0.26904,-0.169561 -0.282238,-0.721866 -0.02691,-1.127076 z m 5.912616,6.495755 c 0.356066,0.506029 0.747221,0.982954 0.869237,1.059848 0.336686,0.212186 0.380999,0.667184 0.138638,1.423987 -0.302841,0.945634 -0.05073,1.549877 0.780571,1.870717 0.61621,0.23788 0.865846,0.2164 2.932081,-0.25246 2.897481,-0.657433 3.076477,-0.80774 2.433225,-2.043269 -0.243444,-0.467591 -0.736209,-1.205526 -1.095022,-1.639852 -0.588382,-0.712209 -0.640512,-0.842344 -0.531275,-1.326439 0.09421,-0.417534 0.252364,-0.576807 0.712186,-0.716924 0.324972,-0.09922 1.187991,-0.488533 1.917814,-0.865176 1.775431,-0.916226 2.015774,-1.323173 1.673201,-2.832977 -0.253897,-1.119015 -0.259515,-1.126706 -1.180641,-1.616222 -0.508801,-0.270949 -1.01288,-0.472216 -1.119586,-0.448319 -0.106723,0.02387 -0.297045,-0.03554 -0.42291,-0.132224 -0.166679,-0.127923 -0.133801,-0.38999 0.12087,-0.964001 0.626219,-1.411481 0.12248,-2.242558 -1.590894,-2.624747 -1.600277,-0.35696 -2.544937,-0.364684 -4.362515,-0.03561 -1.844902,0.334014 -2.496652,0.761566 -2.781187,1.824449 -0.152854,0.571162 -0.08512,1.08744 0.455371,3.469565 0.560412,2.469943 0.611681,2.883129 0.43659,3.518531 -0.253005,0.918155 -0.176995,1.20655 0.614442,2.331309 z m 0.830433,-2.340595 c 0.200855,-0.530669 0.157834,-0.888743 -0.405892,-3.377916 -0.346807,-1.531383 -0.59927,-3.006033 -0.561027,-3.277004 l 0.06953,-0.492659 2.129325,-0.378684 c 1.74258,-0.309903 2.277989,-0.338755 2.9479,-0.158843 0.490879,0.132088 0.846185,0.341411 0.887494,0.52362 0.03791,0.16707 -0.239524,0.760697 -0.61654,1.319157 -0.631174,0.935088 -0.663096,1.049059 -0.40306,1.440405 0.165047,0.248404 0.470762,0.429254 0.735873,0.435258 0.756479,0.01724 0.973585,0.301657 0.781813,1.024102 -0.09244,0.347936 -0.156346,0.906017 -0.142165,1.240165 0.02696,0.635601 -0.01487,0.690929 -1.10503,1.461048 -0.370587,0.261835 -0.77999,0.699544 -0.909775,0.972691 -0.339791,0.715435 -0.01524,1.983447 0.717339,2.80265 0.422889,0.472876 0.560915,0.756162 0.518648,1.064402 -0.05306,0.386989 -0.164902,0.444362 -1.420867,0.729348 -1.590941,0.360982 -1.60735,0.349667 -1.82359,-1.256929 -0.144876,-1.076379 -0.301177,-1.400826 -1.08108,-2.244061 -0.477634,-0.516421 -0.584117,-1.126261 -0.318957,-1.826798 z m 6.822743,-2.852128 c 0.110927,-0.379745 0.17862,-0.415034 0.59939,-0.312344 0.650374,0.158707 0.747007,0.495229 0.34226,1.19165 -0.398715,0.68607 -0.643813,0.598705 -1.033329,-0.368319 -0.01831,-0.04555 0.02285,-0.275512 0.09166,-0.510966 z"
       id="path1-6-5-2-1" />
  </g>
</svg>
