<?xml version="1.0" encoding="UTF-8" standalone="no"?>
<!-- Created with Inkscape (http://www.inkscape.org/) -->

<svg
   width="210mm"
   height="297mm"
   viewBox="0 0 210 297"
   version="1.1"
   id="svg1"
   inkscape:version="1.3.2 (091e20e, 2023-11-25)"
   sodipodi:docname="dinosaurTrackways-predatorPreyNoInteraction.svg"
   inkscape:export-filename="dinosaurTrackways-predatorPreyNoInteraction.png"
   inkscape:export-xdpi="96"
   inkscape:export-ydpi="96"
   xmlns:inkscape="http://www.inkscape.org/namespaces/inkscape"
   xmlns:sodipodi="http://sodipodi.sourceforge.net/DTD/sodipodi-0.dtd"
   xmlns="http://www.w3.org/2000/svg"
   xmlns:svg="http://www.w3.org/2000/svg">
  <sodipodi:namedview
     id="namedview1"
     pagecolor="#ffffff"
     bordercolor="#000000"
     borderopacity="0.25"
     inkscape:showpageshadow="2"
     inkscape:pageopacity="0.0"
     inkscape:pagecheckerboard="0"
     inkscape:deskcolor="#d1d1d1"
     inkscape:document-units="mm"
     inkscape:zoom="0.55223563"
     inkscape:cx="363.97507"
     inkscape:cy="548.67883"
     inkscape:window-width="1272"
     inkscape:window-height="449"
     inkscape:window-x="171"
     inkscape:window-y="25"
     inkscape:window-maximized="0"
     inkscape:current-layer="layer1" />
  <defs
     id="defs1">
    <inkscape:path-effect
       effect="fill_between_many"
       method="originald"
       linkedpaths="#path1,0,1|"
       id="path-effect1" />
    <inkscape:path-effect
       effect="fill_between_many"
       method="originald"
       linkedpaths="#path1-63,0,1|#path1-8,0,1|"
       id="path-effect2" />
    <inkscape:path-effect
       effect="fill_between_many"
       method="originald"
       linkedpaths="#path1-63,0,1|"
       id="path-effect3" />
    <inkscape:path-effect
       effect="fill_between_many"
       method="originald"
       linkedpaths="#path1-8,0,1|"
       id="path-effect4" />
    <inkscape:path-effect
       effect="fill_between_many"
       method="originald"
       linkedpaths="#path1-3,0,1"
       id="path-effect1-7"
       is_visible="true"
       lpeversion="0"
       join="true"
       close="true"
       autoreverse="true" />
    <inkscape:path-effect
       effect="fill_between_many"
       method="originald"
       linkedpaths="#path1-63-9,0,1"
       id="path-effect3-6"
       is_visible="true"
       lpeversion="0"
       join="true"
       close="true"
       autoreverse="true" />
    <inkscape:path-effect
       effect="fill_between_many"
       method="originald"
       linkedpaths="#path1-8-1,0,1"
       id="path-effect4-2"
       is_visible="true"
       lpeversion="0"
       join="true"
       close="true"
       autoreverse="true" />
    <inkscape:path-effect
       effect="fill_between_many"
       method="originald"
       linkedpaths="#path1-4,0,1"
       id="path-effect1-3"
       is_visible="true"
       lpeversion="0"
       join="true"
       close="true"
       autoreverse="true" />
    <inkscape:path-effect
       effect="fill_between_many"
       method="originald"
       linkedpaths="#path1-63-1,0,1"
       id="path-effect3-65"
       is_visible="true"
       lpeversion="0"
       join="true"
       close="true"
       autoreverse="true" />
    <inkscape:path-effect
       effect="fill_between_many"
       method="originald"
       linkedpaths="#path1-8-8,0,1"
       id="path-effect4-5"
       is_visible="true"
       lpeversion="0"
       join="true"
       close="true"
       autoreverse="true" />
  </defs>
  <g
     inkscape:label="Layer 1"
     inkscape:groupmode="layer"
     id="layer1">
    <path
       style="fill:#000000;stroke-width:0.264583"
       d="m 92.963895,244.1168 c 0.196928,-0.10401 0.488669,-0.0417 0.825401,0.17641 0.424564,0.27496 0.538577,0.28086 0.61701,0.0318 0.05294,-0.16799 0.280375,-0.91227 0.505446,-1.65395 0.515511,-1.69871 1.193844,-2.54296 2.219486,-2.76233 1.049738,-0.22453 1.370776,0.10526 1.891809,1.94343 0.456069,1.60903 0.96511,2.50689 1.483783,2.61718 0.59461,0.12643 1.17071,-0.0608 1.81978,-0.5915 1.10159,-0.90065 2.24119,-0.3854 2.09494,0.94719 -0.22072,2.01129 -1.4021,4.79191 -2.46614,5.80457 -0.81585,0.77648 -1.12857,1.49742 -1.06948,2.46562 0.0248,0.40583 -0.002,0.81025 -0.0592,0.89872 -0.0571,0.0886 0.0415,0.35849 0.21954,0.60003 0.17804,0.24154 0.32501,0.68273 0.3266,0.98043 0.003,0.4968 -0.0423,0.56912 -0.54739,0.88052 -0.66935,0.41267 -3.454065,0.87549 -3.824465,0.63562 -0.146684,-0.095 -0.388913,-0.74832 -0.538286,-1.45186 -0.14936,-0.70351 -0.366579,-1.62436 -0.482713,-2.04629 -0.116129,-0.42195 -0.183723,-0.87275 -0.150219,-1.0018 0.0335,-0.12904 -0.192278,-0.49308 -0.501756,-0.809 -0.447231,-0.45654 -0.726539,-0.60929 -1.361379,-0.74449 -1.084086,-0.23092 -1.396718,-0.62509 -1.692876,-2.13437 -0.432227,-2.20282 -0.121606,-4.35727 0.690041,-4.78594 z"
       id="path1-0" />
    <path
       style="fill:#000000;stroke-width:0.264583"
       d="m 103.28541,177.28816 c 0.19693,-0.10401 0.48867,-0.0417 0.8254,0.17641 0.42456,0.27497 0.53858,0.28087 0.61701,0.0318 0.0529,-0.16799 0.28037,-0.91227 0.50545,-1.65395 0.51551,-1.69871 1.19384,-2.54295 2.21948,-2.76233 1.04974,-0.22453 1.37078,0.10526 1.89181,1.94343 0.45607,1.60903 0.96511,2.50689 1.48379,2.61718 0.59461,0.12643 1.17071,-0.0608 1.81978,-0.5915 1.10159,-0.90065 2.24118,-0.3854 2.09494,0.9472 -0.22073,2.01128 -1.40211,4.7919 -2.46614,5.80457 -0.81586,0.77647 -1.12857,1.49741 -1.06949,2.46562 0.0248,0.40583 -0.002,0.81025 -0.0592,0.89872 -0.0571,0.0886 0.0415,0.35848 0.21955,0.60002 0.17804,0.24155 0.32501,0.68274 0.3266,0.98043 0.003,0.4968 -0.0423,0.56912 -0.54739,0.88053 -0.66935,0.41266 -3.45407,0.87548 -3.82447,0.63562 -0.14668,-0.095 -0.38891,-0.74833 -0.53828,-1.45186 -0.14936,-0.70352 -0.36658,-1.62436 -0.48272,-2.0463 -0.11613,-0.42195 -0.18372,-0.87275 -0.15022,-1.00179 0.0335,-0.12905 -0.19228,-0.49309 -0.50176,-0.80901 -0.44723,-0.45654 -0.72653,-0.60928 -1.36137,-0.74449 -1.08409,-0.23092 -1.39672,-0.62509 -1.69288,-2.13437 -0.43223,-2.20282 -0.12161,-4.35727 0.69004,-4.78593 z"
       id="path1-0-6" />
    <path
       style="fill:#000000;stroke-width:0.264583"
       d="m 100.1039,127.86091 c 0.19693,-0.10401 0.48867,-0.0417 0.8254,0.17641 0.42456,0.27497 0.53858,0.28087 0.61701,0.0318 0.0529,-0.16799 0.28037,-0.91227 0.50545,-1.65395 0.51551,-1.69871 1.19384,-2.54295 2.21948,-2.76233 1.04974,-0.22453 1.37078,0.10526 1.89181,1.94343 0.45607,1.60903 0.96511,2.50689 1.48379,2.61718 0.59461,0.12643 1.17071,-0.0608 1.81978,-0.5915 1.10159,-0.90065 2.24118,-0.3854 2.09494,0.9472 -0.22073,2.01128 -1.40211,4.7919 -2.46614,5.80457 -0.81586,0.77647 -1.12857,1.49741 -1.06949,2.46562 0.0248,0.40583 -0.002,0.81025 -0.0592,0.89872 -0.0571,0.0886 0.0415,0.35848 0.21955,0.60002 0.17804,0.24155 0.32501,0.68274 0.3266,0.98043 0.003,0.4968 -0.0423,0.56912 -0.54739,0.88053 -0.66935,0.41266 -3.45407,0.87548 -3.82447,0.63562 -0.14668,-0.095 -0.38891,-0.74833 -0.53828,-1.45186 -0.14936,-0.70352 -0.36658,-1.62436 -0.48272,-2.0463 -0.11613,-0.42195 -0.18372,-0.87275 -0.15022,-1.00179 0.0335,-0.12905 -0.19228,-0.49309 -0.50176,-0.80901 -0.44723,-0.45654 -0.72653,-0.60928 -1.36137,-0.74449 -1.08409,-0.23092 -1.39672,-0.62509 -1.69288,-2.13437 -0.43223,-2.20282 -0.12161,-4.35727 0.69004,-4.78593 z"
       id="path1-0-6-2" />
    <path
       style="fill:#000000;stroke-width:0.264583"
       d="m 132.77253,268.11995 c 0.5338,-0.48614 0.94679,-0.50081 1.42209,-0.0505 0.56216,0.5326 1.04131,0.73919 1.47999,0.63809 0.32855,-0.0757 0.36204,-0.15907 0.44429,-1.10569 0.10765,-1.23921 0.74903,-2.76008 1.37258,-3.25473 0.86697,-0.68768 1.71306,-0.46489 2.6513,0.69815 0.72392,0.89737 1.06673,1.70175 1.41083,3.31032 0.14479,0.6769 0.37552,1.28127 0.51272,1.34302 0.13717,0.0618 0.84191,0.11784 1.56606,0.12463 1.54062,0.0144 1.86596,0.12959 2.19225,0.77608 0.21913,0.4342 0.17557,0.65073 -0.47281,2.35019 -0.9096,2.38415 -1.15743,2.7592 -1.86929,2.82925 -0.53981,0.0531 -0.59709,0.1198 -1.41591,1.64852 -0.46933,0.87626 -1.0277,2.11117 -1.24074,2.74428 -0.21313,0.63308 -0.51681,1.31458 -0.67506,1.51435 -0.3341,0.42283 -1.60162,0.55027 -2.30833,0.23216 -0.28363,-0.12771 -0.67577,-0.11822 -1.01966,0.0246 -0.57354,0.23821 -1.09884,0.11657 -1.38804,-0.32141 -0.0943,-0.14291 -0.0246,-0.689 0.16444,-1.28836 0.41027,-1.30052 0.27337,-1.73964 -0.77498,-2.4855 -1.6867,-1.20003 -3.19851,-4.4984 -2.81046,-6.13168 0.0757,-0.31913 0.0892,-0.8384 0.0297,-1.15399 -0.12254,-0.64998 0.29414,-2.04605 0.72881,-2.44193 z"
       id="path1-6" />
    <path
       style="fill:#000000;stroke-width:0.264583"
       d="m 128.28979,210.69969 c 0.53381,-0.48614 0.9468,-0.50081 1.4221,-0.0505 0.56215,0.53261 1.04131,0.7392 1.47999,0.63809 0.32854,-0.0757 0.36204,-0.15907 0.44429,-1.10568 0.10765,-1.23922 0.74903,-2.76008 1.37258,-3.25473 0.86696,-0.68769 1.71306,-0.46489 2.6513,0.69815 0.72391,0.89736 1.06672,1.70174 1.41083,3.31031 0.14479,0.6769 0.37551,1.28127 0.51272,1.34302 0.13716,0.0618 0.84191,0.11784 1.56606,0.12463 1.54062,0.0144 1.86596,0.1296 2.19224,0.77608 0.21914,0.43421 0.17558,0.65073 -0.4728,2.3502 -0.9096,2.38415 -1.15743,2.7592 -1.86929,2.82924 -0.53981,0.0531 -0.5971,0.1198 -1.41591,1.64853 -0.46933,0.87625 -1.0277,2.11117 -1.24074,2.74427 -0.21314,0.63308 -0.51681,1.31458 -0.67506,1.51436 -0.33411,0.42282 -1.60162,0.55026 -2.30833,0.23215 -0.28363,-0.1277 -0.67578,-0.11822 -1.01967,0.0246 -0.57353,0.2382 -1.09884,0.11656 -1.38803,-0.32142 -0.0943,-0.14291 -0.0246,-0.689 0.16444,-1.28836 0.41027,-1.30052 0.27337,-1.73964 -0.77498,-2.4855 -1.6867,-1.20003 -3.19852,-4.4984 -2.81046,-6.13167 0.0757,-0.31914 0.0892,-0.8384 0.0297,-1.15399 -0.12254,-0.64999 0.29413,-2.04605 0.7288,-2.44194 z"
       id="path1-6-1" />
    <path
       style="fill:#000000;stroke-width:0.264583"
       d="m 136.24512,162.82596 c 0.5338,-0.48614 0.94679,-0.50081 1.42209,-0.0505 0.56216,0.53261 1.04131,0.73919 1.47999,0.63809 0.32855,-0.0757 0.36204,-0.15907 0.44429,-1.10568 0.10765,-1.23922 0.74903,-2.76008 1.37258,-3.25473 0.86697,-0.68769 1.71306,-0.46489 2.6513,0.69815 0.72392,0.89736 1.06673,1.70174 1.41083,3.31031 0.14479,0.6769 0.37552,1.28127 0.51272,1.34302 0.13717,0.0618 0.84191,0.11784 1.56606,0.12463 1.54062,0.0144 1.86596,0.1296 2.19224,0.77608 0.21914,0.43421 0.17558,0.65073 -0.4728,2.3502 -0.9096,2.38415 -1.15743,2.7592 -1.86929,2.82924 -0.53981,0.0531 -0.59709,0.1198 -1.41591,1.64853 -0.46933,0.87625 -1.0277,2.11117 -1.24074,2.74427 -0.21313,0.63308 -0.51681,1.31458 -0.67506,1.51436 -0.3341,0.42282 -1.60162,0.55026 -2.30833,0.23215 -0.28363,-0.1277 -0.67577,-0.11822 -1.01966,0.0246 -0.57354,0.23821 -1.09884,0.11657 -1.38804,-0.32141 -0.0943,-0.14291 -0.0246,-0.689 0.16444,-1.28836 0.41027,-1.30052 0.27337,-1.73964 -0.77498,-2.4855 -1.6867,-1.20003 -3.19851,-4.4984 -2.81046,-6.13167 0.0757,-0.31914 0.0892,-0.8384 0.0297,-1.15399 -0.12254,-0.64999 0.29414,-2.04605 0.72881,-2.44194 z"
       id="path1-6-1-1" />
    <path
       style="fill:#000000;stroke-width:0.264583"
       d="m 104.03328,86.397652 c 0.22233,-0.01301 0.46198,0.164637 0.67799,0.502718 0.27237,0.426226 0.37369,0.478863 0.54831,0.284728 0.11779,-0.130944 0.63334,-0.713954 1.14564,-1.295588 1.17335,-1.33215 2.14064,-1.819224 3.16493,-1.593663 1.04837,0.230857 1.2038,0.664064 0.91591,2.552836 -0.25201,1.65332 -0.16099,2.681421 0.26529,2.996808 0.48869,0.361558 1.09057,0.430004 1.90125,0.216137 1.37584,-0.362932 2.1993,0.578392 1.51377,1.730447 -1.03467,1.738813 -3.26249,3.779478 -4.6506,4.259907 -1.06434,0.368392 -1.6478,0.89482 -1.9954,1.800399 -0.14568,0.379594 -0.33772,0.736515 -0.42645,0.793311 -0.0887,0.05696 -0.11086,0.343438 -0.049,0.637053 0.0619,0.293615 0.0127,0.756035 -0.10924,1.027605 -0.20322,0.45334 -0.27443,0.50038 -0.86316,0.57436 -0.7802,0.0981 -3.50621,-0.63521 -3.74384,-1.007048 -0.0941,-0.147264 -0.0437,-0.842214 0.11203,-1.544376 0.15573,-0.702128 0.3398,-1.630171 0.40904,-2.06228 0.0692,-0.432126 0.19462,-0.870384 0.2786,-0.973934 0.084,-0.103541 0.0294,-0.528425 -0.12123,-0.944218 -0.21772,-0.600866 -0.40856,-0.855659 -0.93023,-1.241875 -0.89082,-0.659565 -1.01191,-1.147873 -0.65573,-2.644126 0.51987,-2.183798 1.6957,-4.01562 2.61203,-4.069239 z"
       id="path1-0-2" />
    <path
       style="fill:#000000;stroke-width:0.264583"
       d="m 129.73347,31.744571 c 0.20085,0.09621 0.3246,0.367654 0.35001,0.768043 0.0321,0.504809 0.0953,0.599904 0.34203,0.514523 0.16644,-0.05759 0.89975,-0.318269 1.62954,-0.579323 1.67149,-0.597905 2.75367,-0.556009 3.54087,0.137087 0.8057,0.709385 0.73207,1.163705 -0.43395,2.677227 -1.02067,1.324846 -1.43858,2.268577 -1.21817,2.750877 0.25267,0.552902 0.74624,0.904083 1.55916,1.109261 1.37964,0.348254 1.64468,1.570505 0.48722,2.246904 -1.74694,1.020876 -4.68408,1.728477 -6.13131,1.477127 -1.10967,-0.192728 -1.87501,-0.01442 -2.61748,0.609819 -0.31119,0.26168 -0.65197,0.481078 -0.75711,0.487838 -0.10518,0.0069 -0.26321,0.246886 -0.35114,0.533786 -0.0879,0.286896 -0.35475,0.667769 -0.59291,0.846386 -0.39724,0.298363 -0.48231,0.305062 -1.03332,0.08489 -0.7302,-0.291786 -2.76085,-2.252737 -2.78885,-2.693127 -0.011,-0.174397 0.36937,-0.758167 0.84545,-1.297247 0.47608,-0.539067 1.0863,-1.2621 1.35601,-1.606741 0.26972,-0.34464 0.59154,-0.667478 0.71513,-0.717445 0.12362,-0.04997 0.28151,-0.448181 0.35088,-0.884953 0.10026,-0.631183 0.0566,-0.946503 -0.21302,-1.536949 -0.46035,-1.008295 -0.33,-1.494213 0.70582,-2.631196 1.5118,-1.65943 3.42728,-2.693395 4.25509,-2.296847 z"
       id="path1-0-6-4" />
    <path
       style="fill:#000000;stroke-width:0.264583"
       d="m 179.84368,-3.4699254 c 0.161,0.1538606 0.19428,0.4503211 0.094,0.8387839 -0.12636,0.4897921 -0.0958,0.5998184 0.16521,0.5953353 0.1761,-0.00302 0.95411,-0.022917 1.72889,-0.044266 1.77453,-0.048892 2.79012,0.3272151 3.32297,1.23061832 0.54537,0.92463465 0.33421,1.33358196 -1.24441,2.40983468 -1.38183,0.9420849 -2.07232,1.7092293 -2.01269,2.2361437 0.0684,0.6040458 0.42835,1.0912165 1.13727,1.5388499 1.20312,0.7597331 1.07522,2.0038339 -0.23512,2.2870677 -1.97769,0.4274768 -4.98931,0.1873358 -6.28678,-0.5012942 -0.99484,-0.5280142 -1.7777,-0.5963616 -2.6774,-0.2337483 -0.3771,0.1520232 -0.76918,0.2546626 -0.87122,0.2284159 -0.10212,-0.026126 -0.3269,0.1528713 -0.49963,0.3982435 -0.1727,0.2453777 -0.54469,0.5244715 -0.82657,0.6202378 -0.47029,0.1601502 -0.55323,0.1400823 -1.00854,-0.2404148 -0.60338,-0.5042485 -1.92413,-2.9991378 -1.8139,-3.426426 0.0437,-0.1691813 0.58669,-0.605851 1.20672,-0.9703015 0.62002,-0.3644382 1.42471,-0.8620509 1.78816,-1.1058177 0.36347,-0.2437627 0.76968,-0.4506129 0.90267,-0.4597008 0.13303,-0.00908 0.40685,-0.3385139 0.60851,-0.7321058 0.29144,-0.56877902 0.34792,-0.88205552 0.27513,-1.52705378 -0.12423,-1.10142952 0.15066,-1.52278482 1.48852,-2.28159952 1.95261,-1.1074868 4.09457,-1.4950311 4.75817,-0.860875 z"
       id="path1-0-6-4-9" />
    <path
       style="fill:#000000;stroke-width:0.264583"
       d="m 142.50613,114.11683 c 0.5338,-0.48614 0.94679,-0.50081 1.42209,-0.0505 0.56216,0.5326 1.04131,0.73919 1.47999,0.63809 0.32855,-0.0757 0.36204,-0.15907 0.44429,-1.10569 0.10765,-1.23921 0.74903,-2.76008 1.37258,-3.25473 0.86697,-0.68768 1.71306,-0.46489 2.6513,0.69815 0.72392,0.89737 1.06673,1.70175 1.41083,3.31032 0.14479,0.6769 0.37552,1.28127 0.51272,1.34302 0.13717,0.0618 0.84191,0.11784 1.56606,0.12463 1.54062,0.0144 1.86596,0.12959 2.19225,0.77608 0.21913,0.4342 0.17557,0.65073 -0.47281,2.35019 -0.9096,2.38415 -1.15743,2.7592 -1.86929,2.82925 -0.53981,0.0531 -0.59709,0.1198 -1.41591,1.64852 -0.46933,0.87626 -1.0277,2.11117 -1.24074,2.74428 -0.21313,0.63308 -0.51681,1.31458 -0.67506,1.51435 -0.3341,0.42283 -1.60162,0.55027 -2.30833,0.23216 -0.28363,-0.12771 -0.67577,-0.11822 -1.01966,0.0246 -0.57354,0.23821 -1.09884,0.11657 -1.38804,-0.32141 -0.0943,-0.14291 -0.0246,-0.689 0.16444,-1.28836 0.41027,-1.30052 0.27337,-1.73964 -0.77498,-2.4855 -1.6867,-1.20003 -3.19851,-4.4984 -2.81046,-6.13168 0.0757,-0.31913 0.0892,-0.8384 0.0297,-1.15399 -0.12254,-0.64998 0.29414,-2.04605 0.72881,-2.44193 z"
       id="path1-6-8" />
    <path
       style="fill:#000000;stroke-width:0.264583"
       d="m 152.71395,74.527283 c 0.70174,-0.169808 1.07097,0.01579 1.2714,0.639101 0.23704,0.737222 0.55798,1.148654 0.99127,1.27079 0.3245,0.09149 0.39394,0.03448 0.92096,-0.756143 0.68991,-1.035026 1.98323,-2.060559 2.76777,-2.194706 1.09076,-0.186466 1.7257,0.415514 1.98961,1.886333 0.20362,1.134829 0.11771,2.004982 -0.35351,3.581008 -0.19831,0.663199 -0.2864,1.304084 -0.19575,1.424173 0.0906,0.120109 0.6817,0.50792 1.3135,0.861864 1.34415,0.75297 1.57411,1.010338 1.54958,1.734074 -0.0165,0.486095 -0.15873,0.655044 -1.54402,1.833848 -1.94338,1.653718 -2.34095,1.863531 -2.99889,1.582871 -0.49891,-0.212838 -0.58121,-0.181874 -2.03391,0.765296 -0.83266,0.542908 -1.91577,1.357571 -2.40684,1.810403 -0.49114,0.452768 -1.08494,0.904494 -1.31973,1.003648 -0.49619,0.210244 -1.66899,-0.287095 -2.13589,-0.905675 -0.18737,-0.248287 -0.53583,-0.42842 -0.90604,-0.468427 -0.61743,-0.06671 -1.01966,-0.425826 -1.0628,-0.94889 -0.014,-0.170643 0.30952,-0.616053 0.76333,-1.05083 0.98475,-0.943361 1.07571,-1.394242 0.51477,-2.55212 -0.90251,-1.862929 -0.64331,-5.481997 0.48187,-6.727842 0.21975,-0.243498 0.48112,-0.692386 0.5806,-0.997741 0.20488,-0.628907 1.24116,-1.652977 1.8126,-1.791281 z"
       id="path1-6-1-3" />
    <path
       style="fill:#000000;stroke-width:0.264583"
       d="m 181.76938,41.845845 c 0.72172,0.01973 1.02952,0.295482 1.05985,0.949522 0.0359,0.77357 0.23797,1.254633 0.6242,1.485905 0.28925,0.173225 0.37119,0.136362 1.08673,-0.488801 0.93672,-0.818427 2.45333,-1.469793 3.24563,-1.393969 1.10156,0.105467 1.55684,0.852613 1.42667,2.341241 -0.10042,1.148577 -0.41104,1.965929 -1.27826,3.363724 -0.36494,0.588197 -0.61766,1.183705 -0.5616,1.323325 0.056,0.139635 0.52504,0.668608 1.0422,1.175544 1.10028,1.078469 1.25487,1.387043 1.04181,2.079142 -0.1431,0.464846 -0.3246,0.590684 -1.97009,1.365914 -2.30841,1.087553 -2.74703,1.18602 -3.3086,0.742972 -0.42583,-0.335976 -0.51335,-0.327619 -2.16329,0.206401 -0.94572,0.3061 -2.20427,0.80895 -2.79672,1.117503 -0.5925,0.308476 -1.28383,0.58907 -1.53638,0.623332 -0.53391,0.07308 -1.53571,-0.713831 -1.82447,-1.433033 -0.11587,-0.288666 -0.40504,-0.553699 -0.75189,-0.689188 -0.57847,-0.225959 -0.8727,-0.677804 -0.77747,-1.193938 0.0311,-0.168367 0.45994,-0.513591 1.0117,-0.814468 1.1973,-0.652801 1.40308,-1.064169 1.16467,-2.328489 -0.38358,-2.034182 0.81364,-5.459309 2.22561,-6.367315 0.27581,-0.17751 0.64554,-0.542362 0.82145,-0.811046 0.36232,-0.553378 1.63048,-1.270587 2.21819,-1.254539 z"
       id="path1-6-1-1-9"
       inkscape:transform-center-x="25.392995"
       inkscape:transform-center-y="-15.33162" />
    <path
       inkscape:original-d="M 0,0"
       inkscape:path-effect="#path-effect1"
       d="m -4.1364461,21.137529 c 1.3876208,-0.767656 5.2767293,-1.021074 6.2579889,-0.407784 0.1248082,0.07801 0.8266987,0.0085 1.5597555,-0.154561 1.1303294,-0.25135 1.5314516,-0.240672 2.640144,0.07029 1.9275072,0.54064 2.8252868,0.711329 3.159621,0.600736 0.4111863,-0.136027 1.1404127,0.349837 1.0698117,0.71274 -0.319216,1.640401 -3.3004092,3.640402 -4.4010075,2.952524 -0.2577063,-0.161067 -1.4547664,-0.0397 -1.4557039,0.147589 -4.561e-4,0.08733 1.1187175,0.799321 2.4870308,1.582234 5.2509866,3.004502 5.5345596,3.247975 6.0275526,5.175148 0.391223,1.529343 0.317878,1.645638 -0.930873,1.47618 -0.553654,-0.07514 -1.210228,-0.110416 -1.459056,-0.07839 C 9.8231127,33.342421 9.0874163,33.176324 7.8925035,32.553556 7.2067536,32.196187 6.3034733,31.777412 5.8851741,31.622991 5.46684,31.468606 4.446781,30.956337 3.6183218,30.48468 1.4977578,29.277422 1.2388877,29.500404 2.5058833,31.442875 c 1.447661,2.219444 1.4249503,5.218492 -0.043345,5.723944 L 1.9376182,37.347517 1.0114284,36.379493 C 0.50202662,35.847081 -0.03968578,35.206951 -0.19238419,34.956985 -0.34507731,34.707011 -0.80509625,34.293058 -1.2146364,34.037094 -1.624185,33.781125 -1.9988891,33.429952 -2.0472839,33.256686 -2.2916197,32.382133 -3.0450965,31.397656 -4.1186432,30.55027 -5.7911246,29.230139 -6.67666,27.759597 -6.2297472,27.044541 c 0.058724,-0.09396 0.048294,-0.376799 -0.023179,-0.628535 -0.1675757,-0.590256 0.230912,-1.219304 0.9030265,-1.425589 l 0.5296909,-0.162539 -0.2308513,-0.565204 c -0.7283984,-1.783394 -0.57727,-2.299801 0.9146229,-3.12514 z"
       id="path2" />
    <path
       style="fill:#000000"
       d="m 40.96347,142.93249 c -1.38641,-0.76984 -3.66254,-3.93348 -3.66254,-5.09063 0,-0.14718 -0.43098,-0.70552 -0.95774,-1.24075 -0.81222,-0.8253 -1.01576,-1.17111 -1.33967,-2.27609 -0.56312,-1.92106 -0.8942,-2.77284 -1.16518,-2.99774 -0.33328,-0.27659 -0.30776,-1.15248 0.0374,-1.28495 1.56024,-0.59872 4.83627,0.86932 4.83627,2.1672 0,0.3039 0.73736,1.25468 0.89668,1.15621 0.0743,-0.0459 0.0849,-1.37231 0.0236,-2.94758 -0.23522,-6.04521 -0.17905,-6.41472 1.1939,-7.85418 1.08953,-1.14231 1.22702,-1.14175 1.74516,0.007 0.22972,0.50932 0.54779,1.08479 0.70683,1.27882 0.63642,0.77642 0.88549,1.48832 0.99069,2.83167 0.0604,0.77092 0.18402,1.75885 0.27477,2.19541 0.0908,0.43657 0.19703,1.57308 0.23615,2.52559 0.10015,2.43808 0.42644,2.53942 1.40214,0.4355 1.11482,-2.40392 3.67004,-3.97416 4.87686,-2.99694 l 0.43144,0.34936 -0.33,1.29846 c -0.1815,0.71415 -0.43722,1.51279 -0.56826,1.77476 -0.13105,0.26197 -0.23827,0.87146 -0.23827,1.35441 0,0.48296 -0.0992,0.98683 -0.22048,1.1197 -0.61212,0.67071 -1.04761,1.83143 -1.19721,3.19091 -0.23305,2.11793 -1.01073,3.64825 -1.85396,3.64825 -0.1108,0 -0.34512,0.15875 -0.52071,0.35278 -0.41172,0.45494 -1.15635,0.45042 -1.6875,-0.0102 l -0.41857,-0.36303 -0.35694,0.49532 c -1.12626,1.56288 -1.64427,1.70842 -3.13486,0.88073 z m 2.14021,-1.68016 c 0.73989,-1.15302 1.27481,-1.38883 2.07691,-0.91558 1.34386,0.7929 2.31526,-0.23221 2.52975,-2.6696 0.0788,-0.89549 0.21762,-1.45078 0.41103,-1.6442 0.16063,-0.16063 0.29487,-0.50466 0.29831,-0.76452 0.003,-0.25986 0.11968,-0.67091 0.25833,-0.91344 0.13864,-0.24254 0.25489,-0.85851 0.25833,-1.36882 0.005,-0.77419 0.11103,-1.07692 0.63892,-1.82796 0.65306,-0.92912 0.62796,-1.35691 -0.0667,-1.13644 -0.31024,0.0985 -0.63122,0.39538 -1.84032,1.70237 -0.16731,0.18085 -0.35809,0.54354 -0.42395,0.80598 -0.13989,0.55735 -1.81952,2.35664 -2.19226,2.34843 -0.92799,-0.0205 -1.4097,-1.2809 -1.58203,-4.13953 -0.20356,-3.37676 -1.15202,-6.79246 -1.8854,-6.78986 -0.88716,0.003 -1.26189,2.97744 -0.65991,5.23785 0.19766,0.7422 0.23784,1.36162 0.14644,2.25756 -0.0693,0.6791 -0.10595,1.45829 -0.0815,1.73154 0.23322,2.60479 -2.43017,2.43289 -3.37917,-0.21811 -0.42164,-1.17781 -1.44318,-1.94967 -1.93262,-1.46023 -0.43351,0.43351 0.65518,3.37824 1.62117,4.38505 0.38738,0.40374 0.78558,0.91968 0.88489,1.14653 0.0993,0.22684 0.33354,0.65057 0.5205,0.94161 0.43049,0.67013 1.24233,2.31095 1.24233,2.51089 0,0.14095 0.30403,0.41651 1.41111,1.27898 0.73009,0.56877 1.13517,0.45311 1.74581,-0.4985 z"
       id="path1"
       transform="rotate(122.00553,52.165695,69.536786)" />
    <path
       inkscape:original-d="M 0,0"
       inkscape:path-effect="#path-effect2"
       d="M 0,0"
       id="path3" />
    <path
       inkscape:original-d="M 0,0"
       inkscape:path-effect="#path-effect3"
       d="m 8.536999,75.030995 c 0.2798175,1.560925 2.536763,4.73828 3.631661,5.112705 0.139268,0.04763 0.52811,0.636083 0.8641,1.307692 0.518087,1.035571 0.779433,1.340056 1.72016,2.004084 1.635499,1.154433 2.334327,1.743316 2.459446,2.072491 0.153911,0.404831 0.990895,0.664115 1.227924,0.38039 1.071364,-1.282573 0.742343,-4.857382 -0.485714,-5.277344 -0.287553,-0.09833 -0.948592,-1.103675 -0.803867,-1.222561 0.06748,-0.05544 1.325955,0.363713 2.796644,0.931432 5.643883,2.178645 6.011689,2.24506 7.817962,1.411744 1.433401,-0.661293 1.47736,-0.791568 0.558066,-1.65354 -0.407587,-0.382164 -0.84918,-0.869331 -0.981311,-1.082597 -0.528719,-0.853414 -1.121728,-1.319437 -2.35877,-1.853651 -0.709905,-0.306598 -1.604683,-0.743244 -1.988392,-0.970372 -0.383702,-0.22718 -1.424698,-0.695442 -2.313304,-1.040671 -2.274511,-0.883665 -2.264821,-1.225193 0.04163,-1.467625 2.635322,-0.276998 4.947892,-2.186663 4.41374,-3.644763 l -0.190998,-0.52126 -1.335387,-0.107902 c -0.734458,-0.05934 -1.572879,-0.0758 -1.863158,-0.03658 -0.290281,0.03923 -0.901675,-0.05653 -1.358643,-0.212801 -0.456977,-0.156276 -0.96584,-0.22545 -1.130806,-0.153688 -0.832693,0.362162 -2.071884,0.398647 -3.406633,0.100305 -2.0794,-0.464797 -3.779032,-0.224127 -4.05188,0.573739 -0.03585,0.104839 -0.26188,0.275187 -0.502289,0.378546 -0.563689,0.242359 -0.800353,0.948397 -0.536381,1.600018 l 0.208067,0.513517 -0.584173,0.177458 c -1.8432163,0.559961 -2.1485424,1.00301 -1.8476977,2.681229 z"
       id="path4" />
    <path
       style="fill:#000000"
       d="m 68.768353,58.270843 c 1.559681,0.28667 5.327577,-0.709495 6.062947,-1.602931 0.09354,-0.113641 0.781118,-0.270844 1.527969,-0.349339 1.151594,-0.121048 1.528509,-0.258699 2.480816,-0.90601 1.65562,-1.125387 2.452553,-1.572646 2.804702,-1.574084 0.433098,-0.0018 0.970022,-0.694248 0.78771,-1.015877 -0.824176,-1.453805 -4.28654,-2.40225 -5.111344,-1.400157 -0.193128,0.234643 -1.366666,0.500148 -1.427099,0.32287 -0.02819,-0.08266 0.806553,-1.113515 1.854967,-2.290825 4.023349,-4.518027 4.214803,-4.839022 4.069525,-6.82294 -0.115288,-1.574375 -0.2218,-1.661318 -1.351887,-1.103645 -0.501039,0.247258 -1.112334,0.489446 -1.358434,0.538187 -0.984796,0.195027 -1.629516,0.586401 -2.56444,1.556749 -0.536553,0.556846 -1.259835,1.241061 -1.607338,1.520457 -0.347548,0.279371 -1.151822,1.089362 -1.787351,1.799929 -1.626728,1.818797 -1.943059,1.689685 -1.359353,-0.554811 0.666939,-2.564536 -0.308059,-5.400762 -1.860869,-5.413185 l -0.555133,-0.0044 -0.570379,1.212257 c -0.313706,0.666738 -0.623802,1.445879 -0.689108,1.731423 -0.0653,0.285549 -0.369845,0.824275 -0.676759,1.197161 -0.306923,0.372891 -0.550539,0.824973 -0.541338,1.004636 0.04638,0.906857 -0.355014,2.079805 -1.103458,3.22453 -1.166008,1.783358 -1.53808,3.459136 -0.887023,3.995009 0.08555,0.07041 0.165583,0.341894 0.177849,0.603292 0.02877,0.612908 0.606577,1.08263 1.309402,1.064532 l 0.553884,-0.0143 -0.03919,0.609272 c -0.123621,1.922426 0.183844,2.363994 1.860726,2.672205 z m -0.584714,-2.657357 c 0.161475,-1.360447 -0.101677,-1.882458 -1.021732,-2.026796 -1.541482,-0.241826 -1.640016,-1.650666 -0.256688,-3.668857 0.508243,-0.741486 0.753947,-1.258446 0.727533,-1.530697 -0.02194,-0.226103 0.09305,-0.577039 0.255528,-0.779862 0.162822,-0.202548 0.333958,-0.594067 0.381034,-0.869437 0.04709,-0.275372 0.348783,-0.824839 0.670429,-1.221036 0.488136,-0.600932 0.598658,-0.90205 0.66836,-1.817402 0.08623,-1.132395 0.377469,-1.44674 0.773707,-0.835059 0.176939,0.273209 0.236101,0.706414 0.339054,2.483925 0.01425,0.245961 -0.06894,0.647234 -0.184868,0.891717 -0.246187,0.519232 -0.09279,2.97587 0.200216,3.206407 0.729529,0.57391 1.902442,-0.09312 3.85216,-2.190752 2.303101,-2.477836 5.206086,-4.512352 5.770677,-4.044281 0.683069,0.56611 -0.917858,3.100815 -2.819139,4.46352 -0.624283,0.447439 -1.048948,0.900159 -1.547748,1.649999 -0.378062,0.568373 -0.84494,1.193278 -1.037469,1.388716 -1.835411,1.862951 0.330232,3.422811 2.747668,1.979062 1.074048,-0.641435 2.353296,-0.588198 2.420154,0.100736 0.05922,0.61021 -2.652738,2.191973 -4.038408,2.355445 -0.555673,0.06555 -1.191003,0.210848 -1.411844,0.322888 -0.220825,0.11204 -0.670965,0.29034 -1.000272,0.39624 -0.758249,0.243831 -2.427814,0.994784 -2.554876,1.149157 -0.08957,0.108828 -0.499434,0.128377 -1.902311,0.09074 -0.925156,-0.02483 -1.164417,-0.371553 -1.031144,-1.494355 z"
       id="path1-63"
       transform="rotate(69.422137,26.555303,23.176305)" />
    <path
       inkscape:original-d="M 0,0"
       inkscape:path-effect="#path-effect4"
       d="m 64.148093,56.442907 c 1.369014,-0.800367 5.251014,-1.146003 6.246551,-0.556169 0.126629,0.07502 0.826666,-0.01116 1.555648,-0.191531 1.124046,-0.278102 1.52531,-0.276945 2.641068,0.0076 1.939794,0.494749 2.841372,0.644086 3.172988,0.52559 0.407851,-0.145723 1.148392,0.322676 1.086423,0.687153 -0.2802,1.647514 -3.213094,3.717695 -4.329705,3.056127 -0.261456,-0.154906 -1.455299,-0.0052 -1.451792,0.182092 0.0016,0.08732 1.13737,0.772549 2.523876,1.522771 5.320804,2.879051 5.610075,3.115726 6.148661,5.030658 0.427404,1.519629 0.356839,1.637631 -0.895581,1.497853 -0.555281,-0.06198 -1.212507,-0.08166 -1.460505,-0.04374 -0.992383,0.151771 -1.731814,0.0032 -2.941168,-0.591059 -0.694038,-0.340995 -1.607001,-0.738218 -2.028847,-0.88267 -0.42188,-0.144414 -1.453808,-0.632332 -2.293226,-1.084198 -2.148615,-1.156597 -2.402121,-0.927535 -1.089388,0.984323 1.499921,2.184467 1.548383,5.183209 0.09249,5.723361 L 70.605103,72.50418 69.656202,71.558406 C 69.13431,71.038232 68.57756,70.411138 68.418973,70.164866 68.260394,69.918584 67.790678,69.515665 67.37518,69.269491 66.959672,69.023313 66.576741,68.68113 66.524247,68.509062 c -0.265021,-0.868509 -1.041646,-1.83483 -2.134998,-2.656502 -1.703337,-1.280072 -2.623519,-2.729185 -2.1937,-3.454646 0.05648,-0.09533 0.03934,-0.377837 -0.03809,-0.627807 -0.181537,-0.586112 0.201914,-1.22444 0.868944,-1.446615 l 0.525686,-0.17506 -0.244202,-0.559566 c -0.770513,-1.765606 -0.631682,-2.285454 0.840206,-3.145963 z"
       id="path5" />
    <path
       style="fill:#000000"
       d="m 73.732164,4.8075063 c -0.298116,-1.557534 0.670352,-5.33264402 1.558364,-6.074555 0.112948,-0.09437 0.265101,-0.783086 0.338109,-1.530493 0.112588,-1.152451 0.247467,-1.530368 0.887766,-2.487402 1.1132,-1.66384 1.554594,-2.464037 1.553445,-2.816186 -0.0014,-0.4331 0.687106,-0.975095 1.010066,-0.795149 1.459819,0.813477 2.433664,4.268783 1.437654,5.100923 -0.233216,0.194847 -0.490096,1.370302 -0.31238,1.429432 0.08286,0.02759 1.107562,-0.814708 2.277141,-1.87174 4.488359,-4.056418 4.807939,-4.250225 6.792871,-4.119521 1.575179,0.103723 1.662901,0.209594 1.113543,1.343746 -0.243573,0.502842 -0.481264,1.115898 -0.528196,1.36235 -0.187792,0.986201 -0.574421,1.633778 -1.537875,2.575803 -0.552888,0.54063 -1.231779,1.268912 -1.508616,1.618457 -0.276813,0.349589 -1.080875,1.15978898 -1.786761,1.80051498 -1.806802,1.64004002 -1.67537,1.95541402 0.564778,1.35524302 2.55957,-0.685755 5.40288,0.268389 5.426706,1.821066 l 0.0085,0.555085 -1.208036,0.579266 c -0.664417,0.318595 -1.441259,0.634403 -1.726315,0.701804 -0.285062,0.06739 -0.821537,0.375888 -1.192159,0.685533 -0.370629,0.309652 -0.820908,0.556582 -1.000633,0.548701 -0.907175,-0.03972 -2.077142,0.370278 -3.216341,1.127108 -1.774747,1.179073 -3.447746,1.563441 -3.988386,0.916336 -0.07104,-0.08503 -0.343101,-0.163066 -0.604583,-0.173413 -0.613102,-0.02427 -1.087055,-0.59861 -1.074118,-1.301549 l 0.01023,-0.553974 -0.608968,0.04366 c -1.92148,0.13774 -2.365293,-0.166474 -2.68581,-1.841048 z m 2.661579,0.565184 c 1.359226,-0.171462 1.883155,0.08785 2.034246,1.00682 0.253139,1.539666 1.662638,1.627878 3.670643,0.229739 0.737733,-0.513675 1.252875,-0.763168 1.525313,-0.738755 0.226258,0.02028 0.57634,-0.09728 0.777965,-0.261248 0.201343,-0.164308 0.591598,-0.338312 0.866615,-0.387409 0.275018,-0.04911 0.822255,-0.354831 1.216079,-0.679378 0.597329,-0.492538 0.897629,-0.605265 1.812445,-0.681688 1.13173,-0.09454 1.443929,-0.388083 0.829354,-0.779819 -0.274502,-0.174928 -0.708129,-0.230907 -2.486348,-0.320804 -0.246058,-0.01244 -0.64671,0.07369 -0.890336,0.191412 -0.517409,0.249994 -2.975107,0.114645 -3.20779,-0.176664 -0.579253,-0.725295 0.07914,-1.90307502 2.162403,-3.868144 2.460856,-2.321236 4.473999,-5.239084 4.001794,-5.800222 -0.571108,-0.678894 -3.09399,0.940605 -4.442696,2.851842 -0.442843,0.627551 -0.892432,1.055529 -1.638589,1.559823 -0.565582,0.382225 -1.187041,0.85368 -1.38106,1.047638 -1.849419,1.84904598 -3.425143,-0.305087 -1.999186,-2.73306 0.63353,-1.078728 0.570901,-2.357552 -0.118507,-2.419348 -0.610628,-0.05473 -2.172434,2.668763 -2.325725,4.055596 -0.06146,0.55614 -0.202096,1.19252 -0.312511,1.414178 -0.110413,0.22164298 -0.285405,0.67307798 -0.388883,1.00315398 -0.238256,0.76002 -0.976928,2.43505402 -1.130365,2.56324602 -0.108167,0.09037 -0.124705,0.500363 -0.07677,1.902926 0.03162,0.924949 0.380096,1.161657 1.501887,1.020142 z"
       id="path1-8"
       transform="rotate(70.523667,32.424931,23.847604)" />
    <path
       inkscape:original-d="M 0,0"
       inkscape:path-effect="#path-effect1-7"
       d="m -4.1364444,21.137531 c 1.3876208,-0.767655 5.2767293,-1.021074 6.257989,-0.407783 0.1248082,0.07801 0.8266987,0.0085 1.5597555,-0.154562 1.1303294,-0.25135 1.5314516,-0.240672 2.6401439,0.07029 1.9275073,0.54064 2.8252869,0.71133 3.1596211,0.600737 0.4111862,-0.136028 1.1404129,0.349836 1.0698119,0.71274 -0.319216,1.640401 -3.3004095,3.640401 -4.4010077,2.952524 -0.2577063,-0.161068 -1.4547665,-0.0397 -1.455704,0.147589 -4.56e-4,0.08733 1.1187176,0.799321 2.4870308,1.582233 5.2509869,3.004502 5.5345599,3.247975 6.0275519,5.175148 0.391224,1.529344 0.317879,1.645638 -0.930872,1.47618 -0.553654,-0.07514 -1.210228,-0.110415 -1.459056,-0.07839 C 9.8231145,33.342424 9.0874181,33.176327 7.8925053,32.553559 7.2067554,32.196189 6.3034751,31.777415 5.8851759,31.622993 5.4668418,31.468609 4.4467828,30.95634 3.6183235,30.484682 c -2.120564,-1.207258 -2.379434,-0.984275 -1.1124384,0.958195 1.447661,2.219444 1.4249503,5.218492 -0.043345,5.723944 L 1.93762,37.34752 1.0114302,36.379495 c -0.50940181,-0.532411 -1.05111421,-1.172541 -1.20381262,-1.422507 -0.15269312,-0.249974 -0.61271205,-0.663927 -1.02225218,-0.919891 -0.4095486,-0.255969 -0.7842527,-0.607142 -0.8326475,-0.780409 -0.2443358,-0.874553 -0.9978126,-1.85903 -2.0713593,-2.706416 -1.6724815,-1.320131 -2.5580169,-2.790673 -2.111104,-3.505729 0.058724,-0.09396 0.048294,-0.376798 -0.02318,-0.628534 -0.1675757,-0.590256 0.230912,-1.219305 0.9030264,-1.425589 l 0.5296909,-0.16254 -0.2308512,-0.565204 c -0.7283984,-1.783393 -0.57727,-2.299801 0.9146229,-3.12514 z"
       id="path2-0"
       transform="translate(68.000624,75.657273)" />
    <path
       style="fill:#000000"
       d="m 40.96347,142.93249 c -1.38641,-0.76984 -3.66254,-3.93348 -3.66254,-5.09063 0,-0.14718 -0.43098,-0.70552 -0.95774,-1.24075 -0.81222,-0.8253 -1.01576,-1.17111 -1.33967,-2.27609 -0.56312,-1.92106 -0.8942,-2.77284 -1.16518,-2.99774 -0.33328,-0.27659 -0.30776,-1.15248 0.0374,-1.28495 1.56024,-0.59872 4.83627,0.86932 4.83627,2.1672 0,0.3039 0.73736,1.25468 0.89668,1.15621 0.0743,-0.0459 0.0849,-1.37231 0.0236,-2.94758 -0.23522,-6.04521 -0.17905,-6.41472 1.1939,-7.85418 1.08953,-1.14231 1.22702,-1.14175 1.74516,0.007 0.22972,0.50932 0.54779,1.08479 0.70683,1.27882 0.63642,0.77642 0.88549,1.48832 0.99069,2.83167 0.0604,0.77092 0.18402,1.75885 0.27477,2.19541 0.0908,0.43657 0.19703,1.57308 0.23615,2.52559 0.10015,2.43808 0.42644,2.53942 1.40214,0.4355 1.11482,-2.40392 3.67004,-3.97416 4.87686,-2.99694 l 0.43144,0.34936 -0.33,1.29846 c -0.1815,0.71415 -0.43722,1.51279 -0.56826,1.77476 -0.13105,0.26197 -0.23827,0.87146 -0.23827,1.35441 0,0.48296 -0.0992,0.98683 -0.22048,1.1197 -0.61212,0.67071 -1.04761,1.83143 -1.19721,3.19091 -0.23305,2.11793 -1.01073,3.64825 -1.85396,3.64825 -0.1108,0 -0.34512,0.15875 -0.52071,0.35278 -0.41172,0.45494 -1.15635,0.45042 -1.6875,-0.0102 l -0.41857,-0.36303 -0.35694,0.49532 c -1.12626,1.56288 -1.64427,1.70842 -3.13486,0.88073 z m 2.14021,-1.68016 c 0.73989,-1.15302 1.27481,-1.38883 2.07691,-0.91558 1.34386,0.7929 2.31526,-0.23221 2.52975,-2.6696 0.0788,-0.89549 0.21762,-1.45078 0.41103,-1.6442 0.16063,-0.16063 0.29487,-0.50466 0.29831,-0.76452 0.003,-0.25986 0.11968,-0.67091 0.25833,-0.91344 0.13864,-0.24254 0.25489,-0.85851 0.25833,-1.36882 0.005,-0.77419 0.11103,-1.07692 0.63892,-1.82796 0.65306,-0.92912 0.62796,-1.35691 -0.0667,-1.13644 -0.31024,0.0985 -0.63122,0.39538 -1.84032,1.70237 -0.16731,0.18085 -0.35809,0.54354 -0.42395,0.80598 -0.13989,0.55735 -1.81952,2.35664 -2.19226,2.34843 -0.92799,-0.0205 -1.4097,-1.2809 -1.58203,-4.13953 -0.20356,-3.37676 -1.15202,-6.79246 -1.8854,-6.78986 -0.88716,0.003 -1.26189,2.97744 -0.65991,5.23785 0.19766,0.7422 0.23784,1.36162 0.14644,2.25756 -0.0693,0.6791 -0.10595,1.45829 -0.0815,1.73154 0.23322,2.60479 -2.43017,2.43289 -3.37917,-0.21811 -0.42164,-1.17781 -1.44318,-1.94967 -1.93262,-1.46023 -0.43351,0.43351 0.65518,3.37824 1.62117,4.38505 0.38738,0.40374 0.78558,0.91968 0.88489,1.14653 0.0993,0.22684 0.33354,0.65057 0.5205,0.94161 0.43049,0.67013 1.24233,2.31095 1.24233,2.51089 0,0.14095 0.30403,0.41651 1.41111,1.27898 0.73009,0.56877 1.13517,0.45311 1.74581,-0.4985 z"
       id="path1-3"
       transform="rotate(122.00553,65.199638,126.20996)" />
    <path
       inkscape:original-d="M 0,0"
       inkscape:path-effect="#path-effect3-6"
       d="m 8.5370026,75.030998 c 0.2798175,1.560925 2.5367624,4.73828 3.6316614,5.112705 0.139267,0.04763 0.52811,0.636083 0.8641,1.307692 0.518086,1.035571 0.779433,1.340055 1.720159,2.004084 1.6355,1.154433 2.334327,1.743315 2.459447,2.07249 0.15391,0.404832 0.990895,0.664116 1.227924,0.38039 1.071364,-1.282573 0.742342,-4.857382 -0.485715,-5.277344 -0.287552,-0.09833 -0.948592,-1.103674 -0.803866,-1.222561 0.06748,-0.05545 1.325955,0.363713 2.796644,0.931433 5.643882,2.178644 6.011689,2.24506 7.817961,1.411743 1.433401,-0.661293 1.47736,-0.791568 0.558066,-1.653539 -0.407587,-0.382164 -0.84918,-0.869332 -0.98131,-1.082598 -0.52872,-0.853413 -1.121728,-1.319437 -2.358771,-1.853651 -0.709904,-0.306598 -1.604682,-0.743243 -1.988392,-0.970372 -0.383702,-0.227179 -1.424698,-0.695441 -2.313303,-1.040671 -2.274512,-0.883664 -2.264822,-1.225192 0.04163,-1.467625 2.635323,-0.276997 4.947892,-2.186663 4.413741,-3.644763 L 24.945976,69.517152 23.61059,69.40925 c -0.734459,-0.05934 -1.572879,-0.0758 -1.863158,-0.03658 -0.290281,0.03923 -0.901676,-0.05653 -1.358644,-0.2128 -0.456976,-0.156276 -0.965839,-0.225451 -1.130805,-0.153689 -0.832694,0.362163 -2.071884,0.398647 -3.406633,0.100305 -2.079401,-0.464796 -3.779032,-0.224126 -4.05188,0.573739 -0.03585,0.104839 -0.261881,0.275187 -0.502289,0.378547 -0.56369,0.242359 -0.800354,0.948397 -0.536382,1.600017 l 0.208067,0.513518 -0.584172,0.177457 c -1.8432167,0.559961 -2.1485429,1.003011 -1.8476982,2.68123 z"
       id="path4-9"
       transform="translate(68.000624,75.657273)" />
    <path
       style="fill:#000000"
       d="m 68.768353,58.270843 c 1.559681,0.28667 5.327577,-0.709495 6.062947,-1.602931 0.09354,-0.113641 0.781118,-0.270844 1.527969,-0.349339 1.151594,-0.121048 1.528509,-0.258699 2.480816,-0.90601 1.65562,-1.125387 2.452553,-1.572646 2.804702,-1.574084 0.433098,-0.0018 0.970022,-0.694248 0.78771,-1.015877 -0.824176,-1.453805 -4.28654,-2.40225 -5.111344,-1.400157 -0.193128,0.234643 -1.366666,0.500148 -1.427099,0.32287 -0.02819,-0.08266 0.806553,-1.113515 1.854967,-2.290825 4.023349,-4.518027 4.214803,-4.839022 4.069525,-6.82294 -0.115288,-1.574375 -0.2218,-1.661318 -1.351887,-1.103645 -0.501039,0.247258 -1.112334,0.489446 -1.358434,0.538187 -0.984796,0.195027 -1.629516,0.586401 -2.56444,1.556749 -0.536553,0.556846 -1.259835,1.241061 -1.607338,1.520457 -0.347548,0.279371 -1.151822,1.089362 -1.787351,1.799929 -1.626728,1.818797 -1.943059,1.689685 -1.359353,-0.554811 0.666939,-2.564536 -0.308059,-5.400762 -1.860869,-5.413185 l -0.555133,-0.0044 -0.570379,1.212257 c -0.313706,0.666738 -0.623802,1.445879 -0.689108,1.731423 -0.0653,0.285549 -0.369845,0.824275 -0.676759,1.197161 -0.306923,0.372891 -0.550539,0.824973 -0.541338,1.004636 0.04638,0.906857 -0.355014,2.079805 -1.103458,3.22453 -1.166008,1.783358 -1.53808,3.459136 -0.887023,3.995009 0.08555,0.07041 0.165583,0.341894 0.177849,0.603292 0.02877,0.612908 0.606577,1.08263 1.309402,1.064532 l 0.553884,-0.0143 -0.03919,0.609272 c -0.123621,1.922426 0.183844,2.363994 1.860726,2.672205 z m -0.584714,-2.657357 c 0.161475,-1.360447 -0.101677,-1.882458 -1.021732,-2.026796 -1.541482,-0.241826 -1.640016,-1.650666 -0.256688,-3.668857 0.508243,-0.741486 0.753947,-1.258446 0.727533,-1.530697 -0.02194,-0.226103 0.09305,-0.577039 0.255528,-0.779862 0.162822,-0.202548 0.333958,-0.594067 0.381034,-0.869437 0.04709,-0.275372 0.348783,-0.824839 0.670429,-1.221036 0.488136,-0.600932 0.598658,-0.90205 0.66836,-1.817402 0.08623,-1.132395 0.377469,-1.44674 0.773707,-0.835059 0.176939,0.273209 0.236101,0.706414 0.339054,2.483925 0.01425,0.245961 -0.06894,0.647234 -0.184868,0.891717 -0.246187,0.519232 -0.09279,2.97587 0.200216,3.206407 0.729529,0.57391 1.902442,-0.09312 3.85216,-2.190752 2.303101,-2.477836 5.206086,-4.512352 5.770677,-4.044281 0.683069,0.56611 -0.917858,3.100815 -2.819139,4.46352 -0.624283,0.447439 -1.048948,0.900159 -1.547748,1.649999 -0.378062,0.568373 -0.84494,1.193278 -1.037469,1.388716 -1.835411,1.862951 0.330232,3.422811 2.747668,1.979062 1.074048,-0.641435 2.353296,-0.588198 2.420154,0.100736 0.05922,0.61021 -2.652738,2.191973 -4.038408,2.355445 -0.555673,0.06555 -1.191003,0.210848 -1.411844,0.322888 -0.220825,0.11204 -0.670965,0.29034 -1.000272,0.39624 -0.758249,0.243831 -2.427814,0.994784 -2.554876,1.149157 -0.08957,0.108828 -0.499434,0.128377 -1.902311,0.09074 -0.925156,-0.02483 -1.164417,-0.371553 -1.031144,-1.494355 z"
       id="path1-63-9"
       transform="rotate(69.422137,5.946669,110.08737)" />
    <path
       inkscape:original-d="M 0,0"
       inkscape:path-effect="#path-effect4-2"
       d="m 64.14809,56.442904 c 1.369014,-0.800366 5.251013,-1.146002 6.24655,-0.556169 0.126629,0.07502 0.826667,-0.01116 1.555649,-0.191531 1.124046,-0.278102 1.525309,-0.276945 2.641068,0.0076 1.939794,0.494749 2.841372,0.644086 3.172987,0.52559 0.407851,-0.145723 1.148393,0.322676 1.086424,0.687153 -0.2802,1.647515 -3.213094,3.717695 -4.329706,3.056127 -0.261456,-0.154905 -1.455299,-0.0052 -1.451792,0.182093 0.0016,0.08732 1.137371,0.772548 2.523877,1.52277 5.320804,2.879052 5.610075,3.115726 6.148661,5.030658 0.427404,1.519629 0.356839,1.637631 -0.895582,1.497854 -0.55528,-0.06198 -1.212507,-0.08167 -1.460505,-0.04374 -0.992383,0.15177 -1.731814,0.0032 -2.941168,-0.591059 -0.694037,-0.340996 -1.607,-0.738219 -2.028847,-0.88267 -0.421879,-0.144415 -1.453807,-0.632333 -2.293225,-1.084198 -2.148615,-1.156598 -2.402122,-0.927535 -1.089388,0.984322 1.499921,2.184467 1.548383,5.183209 0.09249,5.723361 l -0.520489,0.193089 -0.9489,-0.945774 c -0.521893,-0.520173 -1.078643,-1.147268 -1.23723,-1.39354 -0.158578,-0.246282 -0.628294,-0.649201 -1.043793,-0.895374 -0.415507,-0.246178 -0.798439,-0.588361 -0.850932,-0.76043 -0.265021,-0.868509 -1.041646,-1.834829 -2.134999,-2.656502 -1.703337,-1.280071 -2.623518,-2.729185 -2.1937,-3.454645 0.05648,-0.09533 0.03934,-0.377838 -0.03809,-0.627808 -0.181538,-0.586112 0.201914,-1.22444 0.868944,-1.446615 l 0.525686,-0.17506 -0.244202,-0.559565 C 62.537371,57.823257 62.676203,57.303409 64.148091,56.4429 Z"
       id="path5-9"
       transform="translate(68.000624,75.657273)" />
    <path
       style="fill:#000000"
       d="m 73.732164,4.8075063 c -0.298116,-1.557534 0.670352,-5.33264402 1.558364,-6.074555 0.112948,-0.09437 0.265101,-0.783086 0.338109,-1.530493 0.112588,-1.152451 0.247467,-1.530368 0.887766,-2.487402 1.1132,-1.66384 1.554594,-2.464037 1.553445,-2.816186 -0.0014,-0.4331 0.687106,-0.975095 1.010066,-0.795149 1.459819,0.813477 2.433664,4.268783 1.437654,5.100923 -0.233216,0.194847 -0.490096,1.370302 -0.31238,1.429432 0.08286,0.02759 1.107562,-0.814708 2.277141,-1.87174 4.488359,-4.056418 4.807939,-4.250225 6.792871,-4.119521 1.575179,0.103723 1.662901,0.209594 1.113543,1.343746 -0.243573,0.502842 -0.481264,1.115898 -0.528196,1.36235 -0.187792,0.986201 -0.574421,1.633778 -1.537875,2.575803 -0.552888,0.54063 -1.231779,1.268912 -1.508616,1.618457 -0.276813,0.349589 -1.080875,1.15978898 -1.786761,1.80051498 -1.806802,1.64004002 -1.67537,1.95541402 0.564778,1.35524302 2.55957,-0.685755 5.40288,0.268389 5.426706,1.821066 l 0.0085,0.555085 -1.208036,0.579266 c -0.664417,0.318595 -1.441259,0.634403 -1.726315,0.701804 -0.285062,0.06739 -0.821537,0.375888 -1.192159,0.685533 -0.370629,0.309652 -0.820908,0.556582 -1.000633,0.548701 -0.907175,-0.03972 -2.077142,0.370278 -3.216341,1.127108 -1.774747,1.179073 -3.447746,1.563441 -3.988386,0.916336 -0.07104,-0.08503 -0.343101,-0.163066 -0.604583,-0.173413 -0.613102,-0.02427 -1.087055,-0.59861 -1.074118,-1.301549 l 0.01023,-0.553974 -0.608968,0.04366 c -1.92148,0.13774 -2.365293,-0.166474 -2.68581,-1.841048 z m 2.661579,0.565184 c 1.359226,-0.171462 1.883155,0.08785 2.034246,1.00682 0.253139,1.539666 1.662638,1.627878 3.670643,0.229739 0.737733,-0.513675 1.252875,-0.763168 1.525313,-0.738755 0.226258,0.02028 0.57634,-0.09728 0.777965,-0.261248 0.201343,-0.164308 0.591598,-0.338312 0.866615,-0.387409 0.275018,-0.04911 0.822255,-0.354831 1.216079,-0.679378 0.597329,-0.492538 0.897629,-0.605265 1.812445,-0.681688 1.13173,-0.09454 1.443929,-0.388083 0.829354,-0.779819 -0.274502,-0.174928 -0.708129,-0.230907 -2.486348,-0.320804 -0.246058,-0.01244 -0.64671,0.07369 -0.890336,0.191412 -0.517409,0.249994 -2.975107,0.114645 -3.20779,-0.176664 -0.579253,-0.725295 0.07914,-1.90307502 2.162403,-3.868144 2.460856,-2.321236 4.473999,-5.239084 4.001794,-5.800222 -0.571108,-0.678894 -3.09399,0.940605 -4.442696,2.851842 -0.442843,0.627551 -0.892432,1.055529 -1.638589,1.559823 -0.565582,0.382225 -1.187041,0.85368 -1.38106,1.047638 -1.849419,1.84904598 -3.425143,-0.305087 -1.999186,-2.73306 0.63353,-1.078728 0.570901,-2.357552 -0.118507,-2.419348 -0.610628,-0.05473 -2.172434,2.668763 -2.325725,4.055596 -0.06146,0.55614 -0.202096,1.19252 -0.312511,1.414178 -0.110413,0.22164298 -0.285405,0.67307798 -0.388883,1.00315398 -0.238256,0.76002 -0.976928,2.43505402 -1.130365,2.56324602 -0.108167,0.09037 -0.124705,0.500363 -0.07677,1.902926 0.03162,0.924949 0.380096,1.161657 1.501887,1.020142 z"
       id="path1-8-1"
       transform="rotate(70.523667,12.922409,109.76449)" />
    <path
       inkscape:original-d="M 0,0"
       inkscape:path-effect="#path-effect1-3"
       d="m -4.1364435,21.137527 c 1.3876208,-0.767656 5.2767293,-1.021074 6.2579889,-0.407784 0.1248082,0.07801 0.8266987,0.0085 1.5597555,-0.154561 1.1303294,-0.251351 1.5314517,-0.240672 2.640144,0.07029 1.9275072,0.54064 2.8252868,0.711329 3.159621,0.600736 0.4111863,-0.136027 1.1404131,0.349836 1.0698121,0.71274 -0.319217,1.640401 -3.3004096,3.640402 -4.4010079,2.952524 -0.2577063,-0.161067 -1.4547664,-0.0397 -1.4557039,0.147589 -4.561e-4,0.08733 1.1187176,0.799321 2.4870308,1.582234 5.250986,3.004502 5.53456,3.247975 6.027552,5.175147 0.391224,1.529344 0.317879,1.645638 -0.930872,1.476181 C 11.724223,33.217489 11.067649,33.182211 10.81882,33.21424 9.8231154,33.342419 9.0874189,33.176322 7.8925061,32.553554 7.2067563,32.196185 6.3034759,31.77741 5.8851768,31.622989 5.4668426,31.468604 4.4467836,30.956335 3.6183244,30.484678 1.4977604,29.277419 1.2388903,29.500402 2.505886,31.442873 c 1.4476609,2.219444 1.4249502,5.218492 -0.043345,5.723944 L 1.9376208,37.347515 1.0114311,36.379491 C 0.50202924,35.847079 -0.03968316,35.206949 -0.19238157,34.956983 -0.34507469,34.707009 -0.80509363,34.293056 -1.2146338,34.037092 -1.6241824,33.781123 -1.9988865,33.42995 -2.0472813,33.256684 c -0.2443357,-0.874553 -0.9978126,-1.85903 -2.0713593,-2.706417 -1.6724814,-1.32013 -2.5580168,-2.790672 -2.111104,-3.505729 0.058724,-0.09396 0.048294,-0.376798 -0.02318,-0.628534 -0.1675756,-0.590256 0.230912,-1.219304 0.9030265,-1.425589 l 0.5296909,-0.162539 -0.2308513,-0.565205 c -0.7283984,-1.783393 -0.57727,-2.2998 0.914623,-3.125139 z"
       id="path2-1"
       transform="translate(133.64521,154.23843)" />
    <path
       style="fill:#000000"
       d="m 40.96347,142.93249 c -1.38641,-0.76984 -3.66254,-3.93348 -3.66254,-5.09063 0,-0.14718 -0.43098,-0.70552 -0.95774,-1.24075 -0.81222,-0.8253 -1.01576,-1.17111 -1.33967,-2.27609 -0.56312,-1.92106 -0.8942,-2.77284 -1.16518,-2.99774 -0.33328,-0.27659 -0.30776,-1.15248 0.0374,-1.28495 1.56024,-0.59872 4.83627,0.86932 4.83627,2.1672 0,0.3039 0.73736,1.25468 0.89668,1.15621 0.0743,-0.0459 0.0849,-1.37231 0.0236,-2.94758 -0.23522,-6.04521 -0.17905,-6.41472 1.1939,-7.85418 1.08953,-1.14231 1.22702,-1.14175 1.74516,0.007 0.22972,0.50932 0.54779,1.08479 0.70683,1.27882 0.63642,0.77642 0.88549,1.48832 0.99069,2.83167 0.0604,0.77092 0.18402,1.75885 0.27477,2.19541 0.0908,0.43657 0.19703,1.57308 0.23615,2.52559 0.10015,2.43808 0.42644,2.53942 1.40214,0.4355 1.11482,-2.40392 3.67004,-3.97416 4.87686,-2.99694 l 0.43144,0.34936 -0.33,1.29846 c -0.1815,0.71415 -0.43722,1.51279 -0.56826,1.77476 -0.13105,0.26197 -0.23827,0.87146 -0.23827,1.35441 0,0.48296 -0.0992,0.98683 -0.22048,1.1197 -0.61212,0.67071 -1.04761,1.83143 -1.19721,3.19091 -0.23305,2.11793 -1.01073,3.64825 -1.85396,3.64825 -0.1108,0 -0.34512,0.15875 -0.52071,0.35278 -0.41172,0.45494 -1.15635,0.45042 -1.6875,-0.0102 l -0.41857,-0.36303 -0.35694,0.49532 c -1.12626,1.56288 -1.64427,1.70842 -3.13486,0.88073 z m 2.14021,-1.68016 c 0.73989,-1.15302 1.27481,-1.38883 2.07691,-0.91558 1.34386,0.7929 2.31526,-0.23221 2.52975,-2.6696 0.0788,-0.89549 0.21762,-1.45078 0.41103,-1.6442 0.16063,-0.16063 0.29487,-0.50466 0.29831,-0.76452 0.003,-0.25986 0.11968,-0.67091 0.25833,-0.91344 0.13864,-0.24254 0.25489,-0.85851 0.25833,-1.36882 0.005,-0.77419 0.11103,-1.07692 0.63892,-1.82796 0.65306,-0.92912 0.62796,-1.35691 -0.0667,-1.13644 -0.31024,0.0985 -0.63122,0.39538 -1.84032,1.70237 -0.16731,0.18085 -0.35809,0.54354 -0.42395,0.80598 -0.13989,0.55735 -1.81952,2.35664 -2.19226,2.34843 -0.92799,-0.0205 -1.4097,-1.2809 -1.58203,-4.13953 -0.20356,-3.37676 -1.15202,-6.79246 -1.8854,-6.78986 -0.88716,0.003 -1.26189,2.97744 -0.65991,5.23785 0.19766,0.7422 0.23784,1.36162 0.14644,2.25756 -0.0693,0.6791 -0.10595,1.45829 -0.0815,1.73154 0.23322,2.60479 -2.43017,2.43289 -3.37917,-0.21811 -0.42164,-1.17781 -1.44318,-1.94967 -1.93262,-1.46023 -0.43351,0.43351 0.65518,3.37824 1.62117,4.38505 0.38738,0.40374 0.78558,0.91968 0.88489,1.14653 0.0993,0.22684 0.33354,0.65057 0.5205,0.94161 0.43049,0.67013 1.24233,2.31095 1.24233,2.51089 0,0.14095 0.30403,0.41651 1.41111,1.27898 0.73009,0.56877 1.13517,0.45311 1.74581,-0.4985 z"
       id="path1-4"
       transform="rotate(122.00553,76.245288,183.69216)" />
    <path
       inkscape:original-d="M 0,0"
       inkscape:path-effect="#path-effect3-65"
       d="m 8.5370056,75.030994 c 0.2798175,1.560925 2.5367624,4.73828 3.6316614,5.112705 0.139267,0.04763 0.52811,0.636083 0.8641,1.307692 0.518086,1.035571 0.779433,1.340056 1.720159,2.004084 1.6355,1.154433 2.334327,1.743316 2.459447,2.07249 0.15391,0.404832 0.990895,0.664116 1.227924,0.380391 1.071364,-1.282574 0.742342,-4.857382 -0.485715,-5.277344 -0.287552,-0.09833 -0.948592,-1.103675 -0.803866,-1.222562 0.06748,-0.05544 1.325955,0.363713 2.796644,0.931433 5.643882,2.178645 6.011689,2.24506 7.817961,1.411744 1.433401,-0.661294 1.47736,-0.791568 0.558066,-1.65354 -0.407587,-0.382164 -0.84918,-0.869331 -0.98131,-1.082597 -0.52872,-0.853414 -1.121728,-1.319438 -2.358771,-1.853651 -0.709904,-0.306598 -1.604682,-0.743244 -1.988392,-0.970373 -0.383702,-0.227179 -1.424698,-0.695441 -2.313303,-1.04067 -2.274512,-0.883665 -2.264822,-1.225193 0.04163,-1.467625 2.635323,-0.276998 4.947892,-2.186663 4.413741,-3.644763 l -0.190999,-0.52126 -1.335386,-0.107902 c -0.734459,-0.05934 -1.572879,-0.0758 -1.863158,-0.03658 -0.290281,0.03923 -0.901676,-0.05653 -1.358644,-0.212801 -0.456976,-0.156276 -0.965839,-0.22545 -1.130805,-0.153689 -0.832694,0.362163 -2.071884,0.398648 -3.406634,0.100306 -2.0794,-0.464797 -3.779031,-0.224127 -4.051879,0.573739 -0.03585,0.104839 -0.261881,0.275187 -0.502289,0.378546 -0.56369,0.242359 -0.800354,0.948397 -0.536382,1.600018 l 0.208067,0.513517 -0.584172,0.177458 c -1.8432167,0.559961 -2.1485429,1.00301 -1.8476982,2.681229 z"
       id="path4-7"
       transform="translate(133.64521,154.23843)" />
    <path
       style="fill:#000000"
       d="m 68.768353,58.270843 c 1.559681,0.28667 5.327577,-0.709495 6.062947,-1.602931 0.09354,-0.113641 0.781118,-0.270844 1.527969,-0.349339 1.151594,-0.121048 1.528509,-0.258699 2.480816,-0.90601 1.65562,-1.125387 2.452553,-1.572646 2.804702,-1.574084 0.433098,-0.0018 0.970022,-0.694248 0.78771,-1.015877 -0.824176,-1.453805 -4.28654,-2.40225 -5.111344,-1.400157 -0.193128,0.234643 -1.366666,0.500148 -1.427099,0.32287 -0.02819,-0.08266 0.806553,-1.113515 1.854967,-2.290825 4.023349,-4.518027 4.214803,-4.839022 4.069525,-6.82294 -0.115288,-1.574375 -0.2218,-1.661318 -1.351887,-1.103645 -0.501039,0.247258 -1.112334,0.489446 -1.358434,0.538187 -0.984796,0.195027 -1.629516,0.586401 -2.56444,1.556749 -0.536553,0.556846 -1.259835,1.241061 -1.607338,1.520457 -0.347548,0.279371 -1.151822,1.089362 -1.787351,1.799929 -1.626728,1.818797 -1.943059,1.689685 -1.359353,-0.554811 0.666939,-2.564536 -0.308059,-5.400762 -1.860869,-5.413185 l -0.555133,-0.0044 -0.570379,1.212257 c -0.313706,0.666738 -0.623802,1.445879 -0.689108,1.731423 -0.0653,0.285549 -0.369845,0.824275 -0.676759,1.197161 -0.306923,0.372891 -0.550539,0.824973 -0.541338,1.004636 0.04638,0.906857 -0.355014,2.079805 -1.103458,3.22453 -1.166008,1.783358 -1.53808,3.459136 -0.887023,3.995009 0.08555,0.07041 0.165583,0.341894 0.177849,0.603292 0.02877,0.612908 0.606577,1.08263 1.309402,1.064532 l 0.553884,-0.0143 -0.03919,0.609272 c -0.123621,1.922426 0.183844,2.363994 1.860726,2.672205 z m -0.584714,-2.657357 c 0.161475,-1.360447 -0.101677,-1.882458 -1.021732,-2.026796 -1.541482,-0.241826 -1.640016,-1.650666 -0.256688,-3.668857 0.508243,-0.741486 0.753947,-1.258446 0.727533,-1.530697 -0.02194,-0.226103 0.09305,-0.577039 0.255528,-0.779862 0.162822,-0.202548 0.333958,-0.594067 0.381034,-0.869437 0.04709,-0.275372 0.348783,-0.824839 0.670429,-1.221036 0.488136,-0.600932 0.598658,-0.90205 0.66836,-1.817402 0.08623,-1.132395 0.377469,-1.44674 0.773707,-0.835059 0.176939,0.273209 0.236101,0.706414 0.339054,2.483925 0.01425,0.245961 -0.06894,0.647234 -0.184868,0.891717 -0.246187,0.519232 -0.09279,2.97587 0.200216,3.206407 0.729529,0.57391 1.902442,-0.09312 3.85216,-2.190752 2.303101,-2.477836 5.206086,-4.512352 5.770677,-4.044281 0.683069,0.56611 -0.917858,3.100815 -2.819139,4.46352 -0.624283,0.447439 -1.048948,0.900159 -1.547748,1.649999 -0.378062,0.568373 -0.84494,1.193278 -1.037469,1.388716 -1.835411,1.862951 0.330232,3.422811 2.747668,1.979062 1.074048,-0.641435 2.353296,-0.588198 2.420154,0.100736 0.05922,0.61021 -2.652738,2.191973 -4.038408,2.355445 -0.555673,0.06555 -1.191003,0.210848 -1.411844,0.322888 -0.220825,0.11204 -0.670965,0.29034 -1.000272,0.39624 -0.758249,0.243831 -2.427814,0.994784 -2.554876,1.149157 -0.08957,0.108828 -0.499434,0.128377 -1.902311,0.09074 -0.925156,-0.02483 -1.164417,-0.371553 -1.031144,-1.494355 z"
       id="path1-63-1"
       transform="rotate(69.422137,-17.950421,196.7598)" />
    <path
       inkscape:original-d="M 0,0"
       inkscape:path-effect="#path-effect4-5"
       d="m 64.148098,56.442905 c 1.369014,-0.800367 5.251014,-1.146003 6.246551,-0.556169 0.126629,0.07502 0.826667,-0.01116 1.555648,-0.191531 1.124046,-0.278102 1.52531,-0.276945 2.641068,0.0076 1.939794,0.494749 2.841372,0.644086 3.172988,0.52559 0.407851,-0.145723 1.148392,0.322676 1.086423,0.687153 -0.2802,1.647514 -3.213094,3.717695 -4.329705,3.056127 -0.261456,-0.154906 -1.455299,-0.0052 -1.451792,0.182092 0.0016,0.08732 1.13737,0.772549 2.523876,1.522771 5.320804,2.879051 5.610075,3.115726 6.148661,5.030658 0.427404,1.519629 0.356839,1.637631 -0.895581,1.497853 -0.555281,-0.06198 -1.212507,-0.08167 -1.460505,-0.04374 -0.992383,0.151771 -1.731814,0.0032 -2.941168,-0.591059 -0.694038,-0.340995 -1.607001,-0.738218 -2.028847,-0.88267 -0.42188,-0.144414 -1.453808,-0.632332 -2.293226,-1.084198 -2.148615,-1.156597 -2.402121,-0.927535 -1.089388,0.984323 1.499921,2.184467 1.548383,5.183209 0.09249,5.723361 l -0.520488,0.193089 -0.9489,-0.945774 c -0.521893,-0.520174 -1.078643,-1.147268 -1.23723,-1.393541 -0.158579,-0.246281 -0.628294,-0.6492 -1.043793,-0.895374 -0.415508,-0.246178 -0.798439,-0.588361 -0.850933,-0.760429 -0.26502,-0.868509 -1.041646,-1.83483 -2.134998,-2.656502 -1.703337,-1.280072 -2.623519,-2.729186 -2.1937,-3.454646 0.05648,-0.09532 0.03934,-0.377837 -0.03809,-0.627807 -0.181538,-0.586112 0.201914,-1.22444 0.868943,-1.446615 l 0.525686,-0.17506 -0.244202,-0.559566 C 62.53738,57.823258 62.676211,57.30341 64.148099,56.442901 Z"
       id="path5-3"
       transform="translate(133.64521,154.23843)" />
    <path
       style="fill:#000000"
       d="m 73.732164,4.8075063 c -0.298116,-1.557534 0.670352,-5.33264402 1.558364,-6.074555 0.112948,-0.09437 0.265101,-0.783086 0.338109,-1.530493 0.112588,-1.152451 0.247467,-1.530368 0.887766,-2.487402 1.1132,-1.66384 1.554594,-2.464037 1.553445,-2.816186 -0.0014,-0.4331 0.687106,-0.975095 1.010066,-0.795149 1.459819,0.813477 2.433664,4.268783 1.437654,5.100923 -0.233216,0.194847 -0.490096,1.370302 -0.31238,1.429432 0.08286,0.02759 1.107562,-0.814708 2.277141,-1.87174 4.488359,-4.056418 4.807939,-4.250225 6.792871,-4.119521 1.575179,0.103723 1.662901,0.209594 1.113543,1.343746 -0.243573,0.502842 -0.481264,1.115898 -0.528196,1.36235 -0.187792,0.986201 -0.574421,1.633778 -1.537875,2.575803 -0.552888,0.54063 -1.231779,1.268912 -1.508616,1.618457 -0.276813,0.349589 -1.080875,1.15978898 -1.786761,1.80051498 -1.806802,1.64004002 -1.67537,1.95541402 0.564778,1.35524302 2.55957,-0.685755 5.40288,0.268389 5.426706,1.821066 l 0.0085,0.555085 -1.208036,0.579266 c -0.664417,0.318595 -1.441259,0.634403 -1.726315,0.701804 -0.285062,0.06739 -0.821537,0.375888 -1.192159,0.685533 -0.370629,0.309652 -0.820908,0.556582 -1.000633,0.548701 -0.907175,-0.03972 -2.077142,0.370278 -3.216341,1.127108 -1.774747,1.179073 -3.447746,1.563441 -3.988386,0.916336 -0.07104,-0.08503 -0.343101,-0.163066 -0.604583,-0.173413 -0.613102,-0.02427 -1.087055,-0.59861 -1.074118,-1.301549 l 0.01023,-0.553974 -0.608968,0.04366 c -1.92148,0.13774 -2.365293,-0.166474 -2.68581,-1.841048 z m 2.661579,0.565184 c 1.359226,-0.171462 1.883155,0.08785 2.034246,1.00682 0.253139,1.539666 1.662638,1.627878 3.670643,0.229739 0.737733,-0.513675 1.252875,-0.763168 1.525313,-0.738755 0.226258,0.02028 0.57634,-0.09728 0.777965,-0.261248 0.201343,-0.164308 0.591598,-0.338312 0.866615,-0.387409 0.275018,-0.04911 0.822255,-0.354831 1.216079,-0.679378 0.597329,-0.492538 0.897629,-0.605265 1.812445,-0.681688 1.13173,-0.09454 1.443929,-0.388083 0.829354,-0.779819 -0.274502,-0.174928 -0.708129,-0.230907 -2.486348,-0.320804 -0.246058,-0.01244 -0.64671,0.07369 -0.890336,0.191412 -0.517409,0.249994 -2.975107,0.114645 -3.20779,-0.176664 -0.579253,-0.725295 0.07914,-1.90307502 2.162403,-3.868144 2.460856,-2.321236 4.473999,-5.239084 4.001794,-5.800222 -0.571108,-0.678894 -3.09399,0.940605 -4.442696,2.851842 -0.442843,0.627551 -0.892432,1.055529 -1.638589,1.559823 -0.565582,0.382225 -1.187041,0.85368 -1.38106,1.047638 -1.849419,1.84904598 -3.425143,-0.305087 -1.999186,-2.73306 0.63353,-1.078728 0.570901,-2.357552 -0.118507,-2.419348 -0.610628,-0.05473 -2.172434,2.668763 -2.325725,4.055596 -0.06146,0.55614 -0.202096,1.19252 -0.312511,1.414178 -0.110413,0.22164298 -0.285405,0.67307798 -0.388883,1.00315398 -0.238256,0.76002 -0.976928,2.43505402 -1.130365,2.56324602 -0.108167,0.09037 -0.124705,0.500363 -0.07677,1.902926 0.03162,0.924949 0.380096,1.161657 1.501887,1.020142 z"
       id="path1-8-8"
       transform="rotate(70.523667,-9.8258222,195.4772)" />
  </g>
</svg>
