<?xml version="1.0" encoding="UTF-8" standalone="no"?>
<!-- Created with Inkscape (http://www.inkscape.org/) -->

<svg
   width="210mm"
   height="297mm"
   viewBox="0 0 210 297"
   version="1.1"
   id="svg1"
   inkscape:version="1.3.2 (091e20e, 2023-11-25)"
   sodipodi:docname="dinosaurTrackways-squishedTurtle.svg"
   inkscape:export-filename="../../../documents/Kaia's Palaeontology Presentation/centres-trackway/dinosaurTrackways-squishedTurtle.png"
   inkscape:export-xdpi="96"
   inkscape:export-ydpi="96"
   xmlns:inkscape="http://www.inkscape.org/namespaces/inkscape"
   xmlns:sodipodi="http://sodipodi.sourceforge.net/DTD/sodipodi-0.dtd"
   xmlns="http://www.w3.org/2000/svg"
   xmlns:svg="http://www.w3.org/2000/svg">
  <sodipodi:namedview
     id="namedview1"
     pagecolor="#ffffff"
     bordercolor="#000000"
     borderopacity="0.25"
     inkscape:showpageshadow="2"
     inkscape:pageopacity="0.0"
     inkscape:pagecheckerboard="0"
     inkscape:deskcolor="#d1d1d1"
     inkscape:document-units="mm"
     inkscape:zoom="0.6132877"
     inkscape:cx="303.28343"
     inkscape:cy="593.52242"
     inkscape:window-width="1440"
     inkscape:window-height="847"
     inkscape:window-x="0"
     inkscape:window-y="25"
     inkscape:window-maximized="1"
     inkscape:current-layer="layer1" />
  <defs
     id="defs1" />
  <g
     inkscape:label="Layer 1"
     inkscape:groupmode="layer"
     id="layer1">
    <path
       style="fill:#000000;stroke-width:0.264583"
       d="m 49.482784,244.40718 c -0.445,-1.00374 -0.471746,-1.21961 -0.260108,-2.09912 l 0.235904,-0.98032 -0.906212,-1.66474 -0.906204,-1.66472 0.261897,-0.76265 c 0.144055,-0.41946 0.473475,-0.95076 0.732097,-1.18065 0.258605,-0.22992 0.633787,-0.68524 0.833685,-1.01188 0.424838,-0.69414 1.929544,-1.66084 2.343036,-1.50528 0.14574,0.0549 0.437806,0.28771 0.649024,0.51751 0.636443,0.69245 1.158087,0.69192 2.295565,-0.002 0.950089,-0.57973 1.008999,-0.65375 1.263687,-1.58305 0.256918,-0.93742 0.480341,-1.20596 1.427064,-1.71488 0.626961,-0.3371 1.548865,-0.0489 1.934222,0.60458 0.256181,0.43443 0.257452,0.67054 0.0069,1.28509 -0.168772,0.41409 -0.432865,1.15228 -0.58676,1.64045 l -0.279808,0.88759 0.515306,0.19234 c 0.483677,0.18061 0.54456,0.15943 0.992469,-0.34481 0.262435,-0.29544 1.084321,-0.91392 1.826424,-1.37439 1.560924,-0.96828 2.209139,-1.0305 2.995123,-0.28652 0.65407,0.61912 0.657355,1.26264 0.01142,2.25965 -0.444858,0.68665 -0.755217,0.95672 -1.825283,1.58831 l -1.289304,0.76101 0.180194,0.50806 c 0.199873,0.56362 0.780005,0.87107 1.188773,0.63001 0.135719,-0.0798 0.45967,-0.12865 0.720144,-0.1083 0.26051,0.0204 0.843637,-0.12588 1.295885,-0.32509 0.716659,-0.31565 0.951216,-0.32001 1.826495,-0.0336 1.342164,0.43911 1.782482,1.05612 1.635081,2.2912 -0.0801,0.67138 -0.155176,0.77079 -0.923025,1.22365 -0.527854,0.31132 -1.106214,0.50745 -1.569751,0.53246 -0.958538,0.0518 -3.407039,0.97937 -5.975116,2.26377 -1.130681,0.56547 -2.252412,1.08535 -2.492787,1.15519 -0.240336,0.0699 -0.824327,0.32973 -1.297661,0.57748 -2.572686,1.34637 -3.070656,1.51591 -3.881838,1.32064 -1.227537,-0.2955 -1.842198,-1.03822 -2.976457,-3.59664 z m 2.975113,2.12387 c 0.42581,0.237 0.926348,0.36732 1.149116,0.29914 0.217049,-0.0665 1.321579,-0.65848 2.454459,-1.31569 2.513409,-1.45811 5.230585,-2.77341 6.57531,-3.18289 0.99352,-0.30255 1.003401,-0.31045 1.077784,-0.86352 0.04125,-0.30698 0.04292,-0.6128 0.0035,-0.67958 -0.03935,-0.0668 -0.477173,-0.145 -0.972869,-0.17398 -1.192248,-0.0695 -1.717954,-0.42498 -1.968469,-1.33089 -0.105206,-0.38064 -0.114473,-1.03833 -0.02048,-1.46153 0.209685,-0.94467 -0.188792,-1.50962 -0.807594,-1.14469 -1.100739,0.64915 -2.161795,0.16079 -2.78655,-1.28248 -0.483767,-1.11756 -0.591682,-1.12802 -2.151083,-0.20844 -1.024329,0.60405 -1.24812,0.6786 -1.540375,0.51314 -0.188092,-0.10645 -0.699656,-0.30877 -1.136839,-0.44953 -0.79174,-0.25485 -0.797424,-0.25354 -1.434193,0.34595 -0.691424,0.65093 -1.320708,1.36963 -1.756537,2.00616 -0.263541,0.38488 -0.236767,0.47388 0.639431,2.12606 0.827321,1.56009 0.908537,1.80526 0.851959,2.57327 -0.03436,0.4669 0.03317,1.01785 0.150247,1.22436 0.117027,0.20651 0.340661,0.80686 0.497002,1.33412 0.37884,1.27768 0.3203,1.19453 1.176281,1.67096 z m 5.578675,-13.64064 c 0.326514,-0.19268 0.186416,-0.60521 -0.288431,-0.84885 -0.22379,-0.11488 -0.260966,-0.055 -0.202317,0.32408 0.1036,0.67121 0.152945,0.72398 0.490748,0.52477 z m 5.448419,2.28293 c 0.197,-0.23267 0.304338,-0.51437 0.238467,-0.626 -0.151854,-0.25753 -0.932386,0.074 -1.285941,0.54626 l -0.269537,0.36 0.479394,0.0714 c 0.386767,0.0576 0.548594,-0.0103 0.837558,-0.35169 z m 2.5485,6.09285 c 0.970772,0.2506 1.512188,-1.12593 0.575373,-1.46286 -0.314923,-0.11331 -1.252225,0.32704 -1.328953,0.62428 -0.07942,0.30793 0.289811,0.71887 0.753571,0.83856 z m -0.153714,-8.78239 c -0.08802,-0.61246 -0.130617,-1.2278 -0.09452,-1.36744 0.09943,-0.38536 -0.180442,-0.74682 -0.875951,-1.13125 -0.869026,-0.48033 -1.100059,-1.09294 -0.715286,-1.89663 0.285225,-0.59578 0.481619,-0.75138 2.306659,-1.82763 2.559295,-1.50917 2.792622,-1.52262 3.172097,-0.18238 0.143619,0.50724 0.291275,1.38219 0.328124,1.94438 0.06074,0.92181 0.111763,1.05228 0.523319,1.32957 0.354975,0.2392 0.579305,0.24661 1.009989,0.0334 0.304482,-0.15081 1.199549,-0.45945 1.988952,-0.68603 1.920352,-0.55121 2.374386,-0.41999 3.160811,0.9136 0.582854,0.98837 0.584043,0.99783 0.249609,1.98588 -0.184834,0.54602 -0.413031,1.03842 -0.507122,1.09422 -0.09392,0.0561 -0.191746,0.22963 -0.217023,0.3863 -0.0334,0.20746 0.170183,0.37556 0.749238,0.61853 1.423872,0.59746 1.627439,1.54773 0.642907,3.00116 -0.919542,1.35747 -1.601612,2.01109 -3.149867,3.01846 -1.571536,1.02248 -2.339037,1.15852 -3.275196,0.58027 -0.503033,-0.31069 -0.807883,-0.73284 -2.048677,-2.83692 -1.286532,-2.18162 -1.532651,-2.51745 -2.095928,-2.85967 -0.813912,-0.49452 -0.956443,-0.75651 -1.152119,-2.11783 z m 2.209828,1.13343 c 0.510183,0.24836 0.724493,0.53842 2.021825,2.73631 0.798124,1.35217 1.625971,2.59837 1.839694,2.76929 l 0.388556,0.31078 1.809117,-1.18512 c 1.480559,-0.96985 1.889918,-1.31615 2.253955,-1.9066 0.266779,-0.4327 0.381501,-0.82887 0.286599,-0.98977 -0.08705,-0.14757 -0.696084,-0.38921 -1.353492,-0.53698 -1.100611,-0.24788 -1.2021,-0.30846 -1.281364,-0.77159 -0.05026,-0.29396 0.04814,-0.63528 0.236799,-0.82153 0.5386,-0.53144 0.501487,-0.88733 -0.133687,-1.28145 -0.305904,-0.18982 -0.735263,-0.55201 -0.954162,-0.80486 -0.416391,-0.48099 -0.484798,-0.49254 -1.806294,-0.30507 -0.449272,0.0637 -1.047417,0.026 -1.329219,-0.0837 -0.737994,-0.28748 -1.37166,-1.43276 -1.400563,-2.53136 -0.01674,-0.63418 -0.110566,-0.93498 -0.352768,-1.13027 -0.30407,-0.24517 -0.424791,-0.21025 -1.534185,0.44397 -1.405216,0.8287 -1.40942,0.84816 -0.464415,2.16558 0.632952,0.88257 0.741772,1.22586 0.752735,2.37444 0.0067,0.7034 0.347548,1.22017 1.021035,1.548 z m 6.920912,-2.60489 c 0.341212,0.20023 0.414658,0.17944 0.650384,-0.18391 0.364352,-0.56162 0.203884,-0.87273 -0.568397,-1.10183 -0.760758,-0.22566 -0.87916,0.006 -0.499207,0.97684 0.01794,0.0458 0.205661,0.18475 0.4172,0.30891 z"
       id="path1-7-8-2-4" />
    <path
       style="fill:#000000;stroke-width:0.264583"
       d="m -1.3201288,241.85393 c 0.85697701,0.68638 1.05887801,0.76732 1.96328601,0.78709 l 1.00807499,0.0221 1.378414,1.30095 1.378414,1.30097 0.804243,-0.0586 c 0.44233,-0.0323 1.04009,-0.2152 1.328337,-0.4067 0.288279,-0.19138 0.824047,-0.43837 1.191075,-0.54793 0.779721,-0.23318 2.098189,-1.44194 2.053264,-1.88144 -0.01587,-0.15492 -0.166482,-0.49675 -0.334787,-0.75958 -0.507143,-0.79207 -0.37354,-1.29632 0.5879328,-2.21901 0.803044,-0.77065 0.889538,-0.80884 1.853104,-0.81797 0.971939,-0.009 1.288587,-0.15673 2.022205,-0.9423 0.485871,-0.52025 0.442468,-1.48511 -0.09107,-2.02445 -0.354681,-0.35855 -0.582654,-0.42003 -1.240784,-0.33456 -0.443444,0.0576 -1.224578,0.12452 -1.735865,0.14875 l -0.9296088,0.0441 -0.05454,-0.54733 c -0.0512,-0.51374 -0.01521,-0.56721 0.5866188,-0.87162 0.352606,-0.17842 1.160351,-0.81525 1.794908,-1.41533 1.334648,-1.26204 1.560033,-1.87309 1.041215,-2.82288 -0.43176,-0.7904 -1.053148,-0.95774 -2.181942,-0.58758 -0.777445,0.2549 -1.1177558,0.48611 -2.0014518,1.35965 l -1.064761,1.05247 -0.445282,-0.30386 c -0.493971,-0.33707 -0.643218,-0.97642 -0.305838,-1.31017 0.111919,-0.11067 0.241694,-0.4116 0.288423,-0.66869 0.047,-0.25702 0.336967,-0.78359 0.644963,-1.17004 0.488097,-0.61238 0.552118,-0.8381 0.498559,-1.75746 -0.08213,-1.40979 -0.566376,-1.99295 -1.798198,-2.16554 -0.669606,-0.0939 -0.784873,-0.0467 -1.418638,0.58028 -0.435678,0.43097 -0.772925,0.9401 -0.915364,1.38192 -0.294605,0.91361 -1.816222,3.04441 -3.71334199,5.1998 -0.835266,0.94895 -1.624096,1.90094 -1.752969,2.11554 -0.12892301,0.21457 -0.52912201,0.71291 -0.88944801,1.10738 -1.958306,2.14392 -2.249191,2.58225 -2.267358,3.4164 -0.02749,1.2623 0.533846,2.04613 2.718192,3.79561 z m -1.294506,-3.41854 c -0.120517,-0.47217 -0.118819,-0.98939 0.0039,-1.18739 0.119591,-0.19295 0.973865,-1.10985 1.89839301,-2.03754 2.05112999,-2.05819 4.01616699,-4.34984 4.75518399,-5.54559 0.546014,-0.88346 0.556173,-0.89098 1.109917,-0.8218 0.307363,0.0384 0.60346,0.1149 0.65798,0.17003 0.05446,0.055 0.01848,0.49838 -0.08003,0.98505 -0.236972,1.17052 -0.02742,1.76952 0.7846,2.24288 0.341189,0.1989 0.974752,0.37561 1.407922,0.39272 0.966915,0.0382 1.411496,0.56771 0.900766,1.07294 -0.90849,0.8987 -0.707035,2.0492 0.529074,3.02152 0.9571318,0.75288 0.9397038,0.8599 -0.347315,2.13307 -0.845406,0.83631 -0.97459,1.03367 -0.889153,1.35849 0.05491,0.20899 0.120037,0.75527 0.144597,1.21389 0.04449,0.83055 0.04168,0.83571 -0.700429,1.29845 -0.805786,0.50251 -1.661263,0.92756 -2.387928,1.18656 -0.439393,0.15659 -0.518616,0.10799 -1.892558,-1.16073 -1.297342,-1.19801 -1.513704,-1.33906 -2.270722,-1.48031 -0.46020199,-0.0859 -0.97569299,-0.29181 -1.14551799,-0.45762 -0.169822,-0.16583 -0.693246,-0.53525 -1.16315801,-0.82093 -1.138755,-0.69231 -1.073289,-0.61449 -1.315541,-1.56369 z m 14.6125388,-1.91372 c 0.269532,-0.26664 0.632749,-0.0258 0.747175,0.49544 0.05393,0.2457 -0.01302,0.2664 -0.364844,0.11335 -0.622568,-0.27143 -0.660983,-0.3326 -0.382194,-0.60838 z m -0.817264,-5.85059 c 0.275261,-0.13108 0.574989,-0.16308 0.666153,-0.0708 0.21024,0.21254 -0.309493,0.88263 -0.856295,1.104 l -0.416832,0.16882 0.05326,-0.48175 c 0.04303,-0.38865 0.149933,-0.52782 0.553724,-0.72014 z m -5.2409568,-4.01867 c 0.0054,-1.00259 1.474487,-1.17489 1.561254,-0.18314 0.02914,0.33341 -0.635722,1.12733 -0.942724,1.12567 -0.31801,-0.002 -0.62112,-0.46363 -0.618533,-0.94256 z m 8.4524998,2.38936 c 0.569721,0.24139 1.15385,0.43952 1.29807,0.44031 0.397966,0.002 0.676065,0.36502 0.870311,1.13557 0.242705,0.96282 0.776089,1.34253 1.651367,1.17553 0.648836,-0.12374 0.849404,-0.27392 2.355657,-1.764 2.112242,-2.08952 2.184757,-2.31171 0.985678,-3.0206 -0.453798,-0.26827 -1.262136,-0.63428 -1.796289,-0.81334 -0.875909,-0.29363 -0.988946,-0.37656 -1.152068,-0.84524 -0.140705,-0.40425 -0.09062,-0.62305 0.225668,-0.98503 0.223444,-0.25597 0.750303,-1.0426 1.170796,-1.74807 1.022938,-1.71617 1.011884,-2.18866 -0.0769,-3.2893 -0.806971,-0.81576 -0.815804,-0.81932 -1.856483,-0.74803 -0.575133,0.0389 -1.109431,0.13446 -1.187384,0.21115 -0.07797,0.0767 -0.270928,0.12686 -0.428902,0.11126 -0.209106,-0.0205 -0.319706,-0.26035 -0.406892,-0.88223 -0.2144,-1.52921 -1.081276,-1.96847 -2.737784,-1.38735 -1.547164,0.54276 -2.353187,1.03548 -3.7222238,2.27549 -1.389633,1.25863 -1.716941,1.96605 -1.39672,3.01874 0.172114,0.56565 0.502483,0.96813 2.2203318,2.70468 1.781175,1.80058 2.043081,2.12425 2.23027,2.75619 0.270493,0.91316 0.487442,1.11781 1.753772,1.65434 z m -0.5321,-2.42587 c -0.109965,-0.55665 -0.335736,-0.83789 -2.129894,-2.65305 -1.103787,-1.11671 -2.0975008,-2.23513 -2.2082508,-2.48537 l -0.20136,-0.45498 1.6074748,-1.44688 c 1.315507,-1.18409 1.754776,-1.49156 2.418562,-1.69289 0.486528,-0.14731 0.898785,-0.15741 1.030156,-0.0246 0.120483,0.12179 0.198715,0.77237 0.173822,1.44571 -0.04159,1.12741 -0.0085,1.24103 0.419133,1.43582 0.271398,0.12364 0.626508,0.11559 0.854737,-0.0194 0.651277,-0.38522 0.985927,-0.25848 1.204964,0.45617 0.105417,0.34422 0.346127,0.85176 0.534773,1.12793 0.358819,0.52533 0.352553,0.5944 -0.165871,1.82435 -0.176213,0.41814 -0.292419,1.0061 -0.258228,1.30657 0.08967,0.78693 1.035371,1.69184 2.090239,2.00008 0.608928,0.17793 0.875822,0.34546 1.002854,0.62947 0.159492,0.35657 0.09487,0.46438 -0.820714,1.37013 -1.159787,1.14729 -1.179695,1.14637 -2.212397,-0.10321 -0.691885,-0.83719 -0.996052,-1.03001 -2.103795,-1.33364 -0.678414,-0.18595 -1.091126,-0.64738 -1.236283,-1.38222 z m 4.284503,-6.02723 c -0.106535,-0.381 -0.06772,-0.44673 0.343752,-0.58195 0.63599,-0.20901 0.895889,0.0256 0.92037,0.83072 0.02413,0.79315 -0.230113,0.84852 -1.071877,0.23347 -0.03964,-0.029 -0.126217,-0.24596 -0.19225,-0.48221 z"
       id="path1-6-5-2-1" />
    <path
       style="fill:#000000;stroke-width:0.264583"
       d="m 103.25942,204.99789 c -0.445,-1.00374 -0.47175,-1.21961 -0.26011,-2.09912 l 0.2359,-0.98032 -0.90621,-1.66474 -0.9062,-1.66472 0.2619,-0.76265 c 0.14405,-0.41946 0.47347,-0.95076 0.73209,-1.18065 0.25861,-0.22992 0.63379,-0.68524 0.83369,-1.01188 0.42483,-0.69414 1.92954,-1.66084 2.34303,-1.50528 0.14574,0.0549 0.43781,0.28771 0.64903,0.51751 0.63644,0.69245 1.15808,0.69192 2.29556,-0.002 0.95009,-0.57973 1.009,-0.65375 1.26369,-1.58305 0.25691,-0.93742 0.48034,-1.20596 1.42706,-1.71488 0.62696,-0.3371 1.54887,-0.0489 1.93422,0.60458 0.25618,0.43443 0.25745,0.67054 0.007,1.28509 -0.16877,0.41409 -0.43286,1.15228 -0.58676,1.64045 l -0.27981,0.88759 0.51531,0.19234 c 0.48368,0.18061 0.54456,0.15943 0.99247,-0.34481 0.26243,-0.29544 1.08432,-0.91392 1.82642,-1.37439 1.56093,-0.96828 2.20914,-1.0305 2.99513,-0.28652 0.65407,0.61912 0.65735,1.26264 0.0114,2.25965 -0.44486,0.68665 -0.75522,0.95672 -1.82529,1.58831 l -1.2893,0.76101 0.18019,0.50806 c 0.19988,0.56362 0.78001,0.87107 1.18878,0.63001 0.13572,-0.0798 0.45967,-0.12865 0.72014,-0.1083 0.26051,0.0204 0.84364,-0.12588 1.29589,-0.32509 0.71665,-0.31565 0.95121,-0.32001 1.82649,-0.0336 1.34216,0.43911 1.78248,1.05612 1.63508,2.2912 -0.0801,0.67138 -0.15517,0.77079 -0.92302,1.22365 -0.52786,0.31132 -1.10622,0.50745 -1.56975,0.53246 -0.95854,0.0518 -3.40704,0.97937 -5.97512,2.26377 -1.13068,0.56547 -2.25241,1.08535 -2.49279,1.15519 -0.24033,0.0699 -0.82432,0.32973 -1.29766,0.57748 -2.57268,1.34637 -3.07065,1.51591 -3.88184,1.32064 -1.22753,-0.2955 -1.84219,-1.03822 -2.97645,-3.59664 z m 2.97511,2.12387 c 0.42581,0.237 0.92635,0.36732 1.14912,0.29914 0.21704,-0.0665 1.32157,-0.65848 2.45445,-1.31569 2.51341,-1.45811 5.23059,-2.77341 6.57531,-3.18289 0.99352,-0.30255 1.00341,-0.31045 1.07779,-0.86352 0.0412,-0.30698 0.0429,-0.6128 0.003,-0.67958 -0.0393,-0.0668 -0.47717,-0.145 -0.97287,-0.17398 -1.19225,-0.0695 -1.71795,-0.42498 -1.96847,-1.33089 -0.10521,-0.38064 -0.11447,-1.03833 -0.0205,-1.46153 0.20969,-0.94467 -0.18879,-1.50962 -0.80759,-1.14469 -1.10074,0.64915 -2.1618,0.16079 -2.78655,-1.28248 -0.48377,-1.11756 -0.59169,-1.12802 -2.15109,-0.20844 -1.02433,0.60405 -1.24812,0.6786 -1.54037,0.51314 -0.18809,-0.10645 -0.69966,-0.30877 -1.13684,-0.44953 -0.79174,-0.25485 -0.79742,-0.25354 -1.43419,0.34595 -0.69143,0.65093 -1.32071,1.36963 -1.75654,2.00616 -0.26354,0.38488 -0.23677,0.47388 0.63943,2.12606 0.82732,1.56009 0.90854,1.80526 0.85196,2.57327 -0.0344,0.4669 0.0332,1.01785 0.15025,1.22436 0.11702,0.20651 0.34066,0.80686 0.497,1.33412 0.37884,1.27768 0.3203,1.19453 1.17628,1.67096 z m 5.57867,-13.64064 c 0.32652,-0.19268 0.18642,-0.60521 -0.28843,-0.84885 -0.22379,-0.11488 -0.26096,-0.055 -0.20231,0.32408 0.1036,0.67121 0.15294,0.72398 0.49074,0.52477 z m 5.44842,2.28293 c 0.197,-0.23267 0.30434,-0.51437 0.23847,-0.626 -0.15185,-0.25753 -0.93239,0.074 -1.28594,0.54626 l -0.26954,0.36 0.4794,0.0714 c 0.38676,0.0576 0.54859,-0.0103 0.83755,-0.35169 z m 2.5485,6.09285 c 0.97077,0.2506 1.51219,-1.12593 0.57538,-1.46286 -0.31493,-0.11331 -1.25223,0.32704 -1.32896,0.62428 -0.0794,0.30793 0.28981,0.71887 0.75357,0.83856 z m -0.15371,-8.78239 c -0.088,-0.61246 -0.13062,-1.2278 -0.0945,-1.36744 0.0994,-0.38536 -0.18044,-0.74682 -0.87595,-1.13125 -0.86903,-0.48033 -1.10006,-1.09294 -0.71529,-1.89663 0.28523,-0.59578 0.48162,-0.75138 2.30666,-1.82763 2.5593,-1.50917 2.79262,-1.52262 3.1721,-0.18238 0.14362,0.50724 0.29127,1.38219 0.32812,1.94438 0.0607,0.92181 0.11176,1.05228 0.52332,1.32957 0.35498,0.2392 0.57931,0.24661 1.00999,0.0334 0.30448,-0.15081 1.19955,-0.45945 1.98895,-0.68603 1.92035,-0.55121 2.37439,-0.41999 3.16081,0.9136 0.58286,0.98837 0.58405,0.99783 0.24961,1.98588 -0.18483,0.54602 -0.41303,1.03842 -0.50712,1.09422 -0.0939,0.0561 -0.19175,0.22963 -0.21702,0.3863 -0.0334,0.20746 0.17018,0.37556 0.74924,0.61853 1.42387,0.59746 1.62743,1.54773 0.6429,3.00116 -0.91954,1.35747 -1.60161,2.01109 -3.14987,3.01846 -1.57153,1.02248 -2.33903,1.15852 -3.27519,0.58027 -0.50303,-0.31069 -0.80788,-0.73284 -2.04868,-2.83692 -1.28653,-2.18162 -1.53265,-2.51745 -2.09593,-2.85967 -0.81391,-0.49452 -0.95644,-0.75651 -1.15211,-2.11783 z m 2.20983,1.13343 c 0.51018,0.24836 0.72449,0.53842 2.02182,2.73631 0.79813,1.35217 1.62597,2.59837 1.8397,2.76929 l 0.38855,0.31078 1.80912,-1.18512 c 1.48056,-0.96985 1.88992,-1.31615 2.25395,-1.9066 0.26678,-0.4327 0.38151,-0.82887 0.2866,-0.98977 -0.0871,-0.14757 -0.69608,-0.38921 -1.35349,-0.53698 -1.10061,-0.24788 -1.2021,-0.30846 -1.28136,-0.77159 -0.0503,-0.29396 0.0481,-0.63528 0.2368,-0.82153 0.5386,-0.53144 0.50148,-0.88733 -0.13369,-1.28145 -0.3059,-0.18982 -0.73526,-0.55201 -0.95416,-0.80486 -0.41639,-0.48099 -0.4848,-0.49254 -1.8063,-0.30507 -0.44927,0.0637 -1.04741,0.026 -1.32922,-0.0837 -0.73799,-0.28748 -1.37166,-1.43276 -1.40056,-2.53136 -0.0167,-0.63418 -0.11056,-0.93498 -0.35277,-1.13027 -0.30407,-0.24517 -0.42479,-0.21025 -1.53418,0.44397 -1.40522,0.8287 -1.40942,0.84816 -0.46442,2.16558 0.63296,0.88257 0.74178,1.22586 0.75274,2.37444 0.007,0.7034 0.34755,1.22017 1.02103,1.548 z m 6.92091,-2.60489 c 0.34121,0.20023 0.41466,0.17944 0.65038,-0.18391 0.36436,-0.56162 0.20389,-0.87273 -0.56839,-1.10183 -0.76076,-0.22566 -0.87916,0.006 -0.49921,0.97684 0.0179,0.0458 0.20566,0.18475 0.4172,0.30891 z"
       id="path1-7-8-2-4-3" />
    <path
       style="fill:#000000;stroke-width:0.264583"
       d="m 52.456505,202.44464 c 0.856977,0.68638 1.058878,0.76732 1.963286,0.78709 l 1.008075,0.0221 1.378414,1.30095 1.378414,1.30097 0.804243,-0.0586 c 0.44233,-0.0323 1.04009,-0.2152 1.328337,-0.4067 0.288279,-0.19138 0.824047,-0.43837 1.191075,-0.54793 0.779721,-0.23318 2.098189,-1.44194 2.053264,-1.88144 -0.01587,-0.15492 -0.166482,-0.49675 -0.334787,-0.75958 -0.507143,-0.79207 -0.37354,-1.29632 0.587933,-2.21901 0.803044,-0.77065 0.889538,-0.80884 1.853104,-0.81797 0.971939,-0.009 1.288587,-0.15673 2.022205,-0.9423 0.485871,-0.52025 0.442468,-1.48511 -0.09107,-2.02445 -0.354681,-0.35855 -0.582654,-0.42003 -1.240784,-0.33456 -0.443444,0.0576 -1.224578,0.12452 -1.735865,0.14875 l -0.929609,0.0441 -0.05454,-0.54733 c -0.0512,-0.51374 -0.01521,-0.56721 0.586619,-0.87162 0.352606,-0.17842 1.160351,-0.81525 1.794908,-1.41533 1.334648,-1.26204 1.560033,-1.87309 1.041215,-2.82288 -0.43176,-0.7904 -1.053148,-0.95774 -2.181942,-0.58758 -0.777445,0.2549 -1.117756,0.48611 -2.001452,1.35965 l -1.064761,1.05247 -0.445282,-0.30386 c -0.493971,-0.33707 -0.643218,-0.97642 -0.305838,-1.31017 0.111919,-0.11067 0.241694,-0.4116 0.288423,-0.66869 0.047,-0.25702 0.336967,-0.78359 0.644963,-1.17004 0.488097,-0.61238 0.552118,-0.8381 0.498559,-1.75746 -0.08213,-1.40979 -0.566376,-1.99295 -1.798198,-2.16554 -0.669606,-0.0939 -0.784873,-0.0467 -1.418638,0.58028 -0.435678,0.43097 -0.772925,0.9401 -0.915364,1.38192 -0.294605,0.91361 -1.816222,3.04441 -3.713342,5.1998 -0.835266,0.94895 -1.624096,1.90094 -1.752969,2.11554 -0.128923,0.21457 -0.529122,0.71291 -0.889448,1.10738 -1.958306,2.14392 -2.249191,2.58225 -2.267358,3.4164 -0.02749,1.2623 0.533846,2.04613 2.718192,3.79561 z m -1.294506,-3.41854 c -0.120517,-0.47217 -0.118819,-0.98939 0.0039,-1.18739 0.119591,-0.19295 0.973865,-1.10985 1.898393,-2.03754 2.05113,-2.05819 4.016167,-4.34984 4.755184,-5.54559 0.546014,-0.88346 0.556173,-0.89098 1.109917,-0.8218 0.307363,0.0384 0.60346,0.1149 0.65798,0.17003 0.05446,0.055 0.01848,0.49838 -0.08003,0.98505 -0.236972,1.17052 -0.02742,1.76952 0.7846,2.24288 0.341189,0.1989 0.974752,0.37561 1.407922,0.39272 0.966915,0.0382 1.411496,0.56771 0.900766,1.07294 -0.90849,0.8987 -0.707035,2.0492 0.529074,3.02152 0.957132,0.75288 0.939704,0.8599 -0.347315,2.13307 -0.845406,0.83631 -0.97459,1.03367 -0.889153,1.35849 0.05491,0.20899 0.120037,0.75527 0.144597,1.21389 0.04449,0.83055 0.04168,0.83571 -0.700429,1.29845 -0.805786,0.50251 -1.661263,0.92756 -2.387928,1.18656 -0.439393,0.15659 -0.518616,0.10799 -1.892558,-1.16073 -1.297342,-1.19801 -1.513704,-1.33906 -2.270722,-1.48031 -0.460202,-0.0859 -0.975693,-0.29181 -1.145518,-0.45762 -0.169822,-0.16583 -0.693246,-0.53525 -1.163158,-0.82093 -1.138755,-0.69231 -1.073289,-0.61449 -1.315541,-1.56369 z m 14.612539,-1.91372 c 0.269532,-0.26664 0.632749,-0.0258 0.747175,0.49544 0.05393,0.2457 -0.01302,0.2664 -0.364844,0.11335 -0.622568,-0.27143 -0.660983,-0.3326 -0.382194,-0.60838 z m -0.817264,-5.85059 c 0.275261,-0.13108 0.574989,-0.16308 0.666153,-0.0708 0.21024,0.21254 -0.309493,0.88263 -0.856295,1.104 l -0.416832,0.16882 0.05326,-0.48175 c 0.04303,-0.38865 0.149933,-0.52782 0.553724,-0.72014 z m -5.240957,-4.01867 c 0.0054,-1.00259 1.474487,-1.17489 1.561254,-0.18314 0.02914,0.33341 -0.635722,1.12733 -0.942724,1.12567 -0.31801,-0.002 -0.62112,-0.46363 -0.618533,-0.94256 z m 8.4525,2.38936 c 0.569721,0.24139 1.15385,0.43952 1.29807,0.44031 0.397966,0.002 0.676065,0.36502 0.870311,1.13557 0.242705,0.96282 0.776089,1.34253 1.651367,1.17553 0.648836,-0.12374 0.849404,-0.27392 2.355657,-1.764 2.112242,-2.08952 2.184757,-2.31171 0.985678,-3.0206 -0.453798,-0.26827 -1.262136,-0.63428 -1.796289,-0.81334 -0.875909,-0.29363 -0.988946,-0.37656 -1.152068,-0.84524 -0.140705,-0.40425 -0.09062,-0.62305 0.225668,-0.98503 0.223444,-0.25597 0.750303,-1.0426 1.170796,-1.74807 1.022938,-1.71617 1.011884,-2.18866 -0.0769,-3.2893 -0.806971,-0.81576 -0.815804,-0.81932 -1.856483,-0.74803 -0.575133,0.0389 -1.109431,0.13446 -1.187384,0.21115 -0.07797,0.0767 -0.270928,0.12686 -0.428902,0.11126 -0.209106,-0.0205 -0.319706,-0.26035 -0.406892,-0.88223 -0.2144,-1.52921 -1.081276,-1.96847 -2.737784,-1.38735 -1.547164,0.54276 -2.353187,1.03548 -3.722224,2.27549 -1.389633,1.25863 -1.716941,1.96605 -1.39672,3.01874 0.172114,0.56565 0.502483,0.96813 2.220332,2.70468 1.781175,1.80058 2.043081,2.12425 2.23027,2.75619 0.270493,0.91316 0.487442,1.11781 1.753772,1.65434 z m -0.5321,-2.42587 c -0.109965,-0.55665 -0.335736,-0.83789 -2.129894,-2.65305 -1.103787,-1.11671 -2.097501,-2.23513 -2.208251,-2.48537 l -0.20136,-0.45498 1.607475,-1.44688 c 1.315507,-1.18409 1.754776,-1.49156 2.418562,-1.69289 0.486528,-0.14731 0.898785,-0.15741 1.030156,-0.0246 0.120483,0.12179 0.198715,0.77237 0.173822,1.44571 -0.04159,1.12741 -0.0085,1.24103 0.419133,1.43582 0.271398,0.12364 0.626508,0.11559 0.854737,-0.0194 0.651277,-0.38522 0.985927,-0.25848 1.204964,0.45617 0.105417,0.34422 0.346127,0.85176 0.534773,1.12793 0.358819,0.52533 0.352553,0.5944 -0.165871,1.82435 -0.176213,0.41814 -0.292419,1.0061 -0.258228,1.30657 0.08967,0.78693 1.035371,1.69184 2.090239,2.00008 0.608928,0.17793 0.875822,0.34546 1.002854,0.62947 0.159492,0.35657 0.09487,0.46438 -0.820714,1.37013 -1.159787,1.14729 -1.179695,1.14637 -2.212397,-0.10321 -0.691885,-0.83719 -0.996052,-1.03001 -2.103795,-1.33364 -0.678414,-0.18595 -1.091126,-0.64738 -1.236283,-1.38222 z m 4.284503,-6.02723 c -0.106535,-0.381 -0.06772,-0.44673 0.343752,-0.58195 0.63599,-0.20901 0.895889,0.0256 0.92037,0.83072 0.02413,0.79315 -0.230113,0.84852 -1.071877,0.23347 -0.03964,-0.029 -0.126217,-0.24596 -0.19225,-0.48221 z"
       id="path1-6-5-2-1-9" />
    <path
       style="fill:#000000;stroke-width:0.264583"
       d="m 163.66557,163.7272 c -0.445,-1.00374 -0.47174,-1.21961 -0.2601,-2.09912 l 0.2359,-0.98032 -0.90621,-1.66474 -0.90621,-1.66472 0.2619,-0.76265 c 0.14406,-0.41946 0.47348,-0.95076 0.7321,-1.18065 0.2586,-0.22992 0.63378,-0.68524 0.83368,-1.01188 0.42484,-0.69414 1.92955,-1.66084 2.34304,-1.50528 0.14574,0.0549 0.4378,0.28771 0.64902,0.51751 0.63645,0.69245 1.15809,0.69192 2.29557,-0.002 0.95009,-0.57973 1.009,-0.65375 1.26368,-1.58305 0.25692,-0.93742 0.48035,-1.20596 1.42707,-1.71488 0.62696,-0.3371 1.54886,-0.0489 1.93422,0.60458 0.25618,0.43443 0.25745,0.67054 0.007,1.28509 -0.16877,0.41409 -0.43286,1.15228 -0.58676,1.64045 l -0.27981,0.88759 0.51531,0.19234 c 0.48368,0.18061 0.54456,0.15943 0.99247,-0.34481 0.26243,-0.29544 1.08432,-0.91392 1.82642,-1.37439 1.56093,-0.96828 2.20914,-1.0305 2.99512,-0.28652 0.65407,0.61912 0.65736,1.26264 0.0114,2.25965 -0.44485,0.68665 -0.75521,0.95672 -1.82528,1.58831 l -1.2893,0.76101 0.18019,0.50806 c 0.19987,0.56362 0.78001,0.87107 1.18877,0.63001 0.13572,-0.0798 0.45967,-0.12865 0.72015,-0.1083 0.26051,0.0204 0.84364,-0.12588 1.29588,-0.32509 0.71666,-0.31565 0.95122,-0.32001 1.8265,-0.0336 1.34216,0.43911 1.78248,1.05612 1.63508,2.2912 -0.0801,0.67138 -0.15518,0.77079 -0.92303,1.22365 -0.52785,0.31132 -1.10621,0.50745 -1.56975,0.53246 -0.95853,0.0518 -3.40704,0.97937 -5.97511,2.26377 -1.13068,0.56547 -2.25241,1.08535 -2.49279,1.15519 -0.24034,0.0699 -0.82433,0.32973 -1.29766,0.57748 -2.57269,1.34637 -3.07066,1.51591 -3.88184,1.32064 -1.22754,-0.2955 -1.8422,-1.03822 -2.97646,-3.59664 z m 2.97512,2.12387 c 0.42581,0.237 0.92634,0.36732 1.14911,0.29914 0.21705,-0.0665 1.32158,-0.65848 2.45446,-1.31569 2.51341,-1.45811 5.23059,-2.77341 6.57531,-3.18289 0.99352,-0.30255 1.0034,-0.31045 1.07779,-0.86352 0.0412,-0.30698 0.0429,-0.6128 0.004,-0.67958 -0.0394,-0.0668 -0.47718,-0.145 -0.97287,-0.17398 -1.19225,-0.0695 -1.71796,-0.42498 -1.96847,-1.33089 -0.10521,-0.38064 -0.11448,-1.03833 -0.0205,-1.46153 0.20968,-0.94467 -0.18879,-1.50962 -0.8076,-1.14469 -1.10074,0.64915 -2.16179,0.16079 -2.78655,-1.28248 -0.48376,-1.11756 -0.59168,-1.12802 -2.15108,-0.20844 -1.02433,0.60405 -1.24812,0.6786 -1.54037,0.51314 -0.1881,-0.10645 -0.69966,-0.30877 -1.13684,-0.44953 -0.79174,-0.25485 -0.79743,-0.25354 -1.4342,0.34595 -0.69142,0.65093 -1.3207,1.36963 -1.75653,2.00616 -0.26354,0.38488 -0.23677,0.47388 0.63943,2.12606 0.82732,1.56009 0.90853,1.80526 0.85196,2.57327 -0.0344,0.4669 0.0332,1.01785 0.15024,1.22436 0.11703,0.20651 0.34067,0.80686 0.49701,1.33412 0.37884,1.27768 0.3203,1.19453 1.17628,1.67096 z m 5.57867,-13.64064 c 0.32652,-0.19268 0.18642,-0.60521 -0.28843,-0.84885 -0.22379,-0.11488 -0.26097,-0.055 -0.20232,0.32408 0.1036,0.67121 0.15295,0.72398 0.49075,0.52477 z m 5.44842,2.28293 c 0.197,-0.23267 0.30434,-0.51437 0.23847,-0.626 -0.15186,-0.25753 -0.93239,0.074 -1.28594,0.54626 l -0.26954,0.36 0.47939,0.0714 c 0.38677,0.0576 0.5486,-0.0103 0.83756,-0.35169 z m 2.5485,6.09285 c 0.97077,0.2506 1.51219,-1.12593 0.57537,-1.46286 -0.31492,-0.11331 -1.25222,0.32704 -1.32895,0.62428 -0.0794,0.30793 0.28981,0.71887 0.75357,0.83856 z m -0.15371,-8.78239 c -0.088,-0.61246 -0.13062,-1.2278 -0.0945,-1.36744 0.0994,-0.38536 -0.18045,-0.74682 -0.87595,-1.13125 -0.86903,-0.48033 -1.10006,-1.09294 -0.71529,-1.89663 0.28522,-0.59578 0.48162,-0.75138 2.30666,-1.82763 2.55929,-1.50917 2.79262,-1.52262 3.1721,-0.18238 0.14361,0.50724 0.29127,1.38219 0.32812,1.94438 0.0607,0.92181 0.11176,1.05228 0.52332,1.32957 0.35497,0.2392 0.5793,0.24661 1.00999,0.0334 0.30448,-0.15081 1.19955,-0.45945 1.98895,-0.68603 1.92035,-0.55121 2.37439,-0.41999 3.16081,0.9136 0.58285,0.98837 0.58404,0.99783 0.24961,1.98588 -0.18483,0.54602 -0.41303,1.03842 -0.50712,1.09422 -0.0939,0.0561 -0.19175,0.22963 -0.21703,0.3863 -0.0334,0.20746 0.17019,0.37556 0.74924,0.61853 1.42387,0.59746 1.62744,1.54773 0.64291,3.00116 -0.91954,1.35747 -1.60161,2.01109 -3.14987,3.01846 -1.57153,1.02248 -2.33903,1.15852 -3.27519,0.58027 -0.50304,-0.31069 -0.80789,-0.73284 -2.04868,-2.83692 -1.28653,-2.18162 -1.53265,-2.51745 -2.09593,-2.85967 -0.81391,-0.49452 -0.95644,-0.75651 -1.15212,-2.11783 z m 2.20982,1.13343 c 0.51019,0.24836 0.7245,0.53842 2.02183,2.73631 0.79812,1.35217 1.62597,2.59837 1.83969,2.76929 l 0.38856,0.31078 1.80912,-1.18512 c 1.48056,-0.96985 1.88991,-1.31615 2.25395,-1.9066 0.26678,-0.4327 0.3815,-0.82887 0.2866,-0.98977 -0.0871,-0.14757 -0.69608,-0.38921 -1.35349,-0.53698 -1.10061,-0.24788 -1.2021,-0.30846 -1.28137,-0.77159 -0.0503,-0.29396 0.0481,-0.63528 0.2368,-0.82153 0.5386,-0.53144 0.50149,-0.88733 -0.13368,-1.28145 -0.30591,-0.18982 -0.73527,-0.55201 -0.95417,-0.80486 -0.41639,-0.48099 -0.48479,-0.49254 -1.80629,-0.30507 -0.44927,0.0637 -1.04742,0.026 -1.32922,-0.0837 -0.73799,-0.28748 -1.37166,-1.43276 -1.40056,-2.53136 -0.0167,-0.63418 -0.11057,-0.93498 -0.35277,-1.13027 -0.30407,-0.24517 -0.42479,-0.21025 -1.53418,0.44397 -1.40522,0.8287 -1.40942,0.84816 -0.46442,2.16558 0.63295,0.88257 0.74177,1.22586 0.75274,2.37444 0.007,0.7034 0.34754,1.22017 1.02103,1.548 z m 6.92092,-2.60489 c 0.34121,0.20023 0.41466,0.17944 0.65038,-0.18391 0.36435,-0.56162 0.20388,-0.87273 -0.5684,-1.10183 -0.76075,-0.22566 -0.87916,0.006 -0.4992,0.97684 0.0179,0.0458 0.20566,0.18475 0.4172,0.30891 z"
       id="path1-7-8-2-4-2" />
    <path
       style="fill:#000000;stroke-width:0.264583"
       d="m 112.86266,161.17395 c 0.85698,0.68638 1.05888,0.76732 1.96329,0.78709 l 1.00807,0.0221 1.37842,1.30095 1.37841,1.30097 0.80424,-0.0586 c 0.44233,-0.0323 1.04009,-0.2152 1.32834,-0.4067 0.28828,-0.19138 0.82405,-0.43837 1.19108,-0.54793 0.77972,-0.23318 2.09818,-1.44194 2.05326,-1.88144 -0.0159,-0.15492 -0.16648,-0.49675 -0.33479,-0.75958 -0.50714,-0.79207 -0.37354,-1.29632 0.58794,-2.21901 0.80304,-0.77065 0.88953,-0.80884 1.8531,-0.81797 0.97194,-0.009 1.28859,-0.15673 2.0222,-0.9423 0.48587,-0.52025 0.44247,-1.48511 -0.0911,-2.02445 -0.35468,-0.35855 -0.58265,-0.42003 -1.24078,-0.33456 -0.44344,0.0576 -1.22458,0.12452 -1.73587,0.14875 l -0.9296,0.0441 -0.0545,-0.54733 c -0.0512,-0.51374 -0.0152,-0.56721 0.58661,-0.87162 0.35261,-0.17842 1.16036,-0.81525 1.79491,-1.41533 1.33465,-1.26204 1.56004,-1.87309 1.04122,-2.82288 -0.43176,-0.7904 -1.05315,-0.95774 -2.18194,-0.58758 -0.77745,0.2549 -1.11776,0.48611 -2.00146,1.35965 l -1.06476,1.05247 -0.44528,-0.30386 c -0.49397,-0.33707 -0.64322,-0.97642 -0.30584,-1.31017 0.11192,-0.11067 0.2417,-0.4116 0.28843,-0.66869 0.047,-0.25702 0.33696,-0.78359 0.64496,-1.17004 0.4881,-0.61238 0.55212,-0.8381 0.49856,-1.75746 -0.0821,-1.40979 -0.56638,-1.99295 -1.7982,-2.16554 -0.66961,-0.0939 -0.78487,-0.0467 -1.41864,0.58028 -0.43568,0.43097 -0.77292,0.9401 -0.91536,1.38192 -0.29461,0.91361 -1.81622,3.04441 -3.71334,5.1998 -0.83527,0.94895 -1.6241,1.90094 -1.75297,2.11554 -0.12893,0.21457 -0.52912,0.71291 -0.88945,1.10738 -1.95831,2.14392 -2.24919,2.58225 -2.26736,3.4164 -0.0275,1.2623 0.53385,2.04613 2.71819,3.79561 z m -1.2945,-3.41854 c -0.12052,-0.47217 -0.11882,-0.98939 0.004,-1.18739 0.11959,-0.19295 0.97386,-1.10985 1.89839,-2.03754 2.05113,-2.05819 4.01617,-4.34984 4.75518,-5.54559 0.54602,-0.88346 0.55618,-0.89098 1.10992,-0.8218 0.30736,0.0384 0.60346,0.1149 0.65798,0.17003 0.0545,0.055 0.0185,0.49838 -0.08,0.98505 -0.23697,1.17052 -0.0274,1.76952 0.7846,2.24288 0.34119,0.1989 0.97475,0.37561 1.40792,0.39272 0.96692,0.0382 1.4115,0.56771 0.90077,1.07294 -0.90849,0.8987 -0.70704,2.0492 0.52907,3.02152 0.95713,0.75288 0.93971,0.8599 -0.34731,2.13307 -0.84541,0.83631 -0.97459,1.03367 -0.88916,1.35849 0.0549,0.20899 0.12004,0.75527 0.1446,1.21389 0.0445,0.83055 0.0417,0.83571 -0.70043,1.29845 -0.80578,0.50251 -1.66126,0.92756 -2.38793,1.18656 -0.43939,0.15659 -0.51861,0.10799 -1.89255,-1.16073 -1.29735,-1.19801 -1.51371,-1.33906 -2.27073,-1.48031 -0.4602,-0.0859 -0.97569,-0.29181 -1.14551,-0.45762 -0.16983,-0.16583 -0.69325,-0.53525 -1.16316,-0.82093 -1.13876,-0.69231 -1.07329,-0.61449 -1.31554,-1.56369 z m 14.61253,-1.91372 c 0.26954,-0.26664 0.63275,-0.0258 0.74718,0.49544 0.0539,0.2457 -0.013,0.2664 -0.36485,0.11335 -0.62256,-0.27143 -0.66098,-0.3326 -0.38219,-0.60838 z m -0.81726,-5.85059 c 0.27526,-0.13108 0.57499,-0.16308 0.66615,-0.0708 0.21024,0.21254 -0.30949,0.88263 -0.85629,1.104 l -0.41683,0.16882 0.0533,-0.48175 c 0.043,-0.38865 0.14993,-0.52782 0.55372,-0.72014 z m -5.24096,-4.01867 c 0.005,-1.00259 1.47449,-1.17489 1.56126,-0.18314 0.0291,0.33341 -0.63572,1.12733 -0.94273,1.12567 -0.31801,-0.002 -0.62112,-0.46363 -0.61853,-0.94256 z m 8.4525,2.38936 c 0.56972,0.24139 1.15385,0.43952 1.29807,0.44031 0.39797,0.002 0.67607,0.36502 0.87031,1.13557 0.24271,0.96282 0.77609,1.34253 1.65137,1.17553 0.64884,-0.12374 0.8494,-0.27392 2.35566,-1.764 2.11224,-2.08952 2.18475,-2.31171 0.98568,-3.0206 -0.4538,-0.26827 -1.26214,-0.63428 -1.79629,-0.81334 -0.87591,-0.29363 -0.98895,-0.37656 -1.15207,-0.84524 -0.14071,-0.40425 -0.0906,-0.62305 0.22567,-0.98503 0.22344,-0.25597 0.7503,-1.0426 1.17079,-1.74807 1.02294,-1.71617 1.01189,-2.18866 -0.0769,-3.2893 -0.80697,-0.81576 -0.8158,-0.81932 -1.85648,-0.74803 -0.57513,0.0389 -1.10943,0.13446 -1.18738,0.21115 -0.078,0.0767 -0.27093,0.12686 -0.42891,0.11126 -0.2091,-0.0205 -0.3197,-0.26035 -0.40689,-0.88223 -0.2144,-1.52921 -1.08127,-1.96847 -2.73778,-1.38735 -1.54717,0.54276 -2.35319,1.03548 -3.72223,2.27549 -1.38963,1.25863 -1.71694,1.96605 -1.39672,3.01874 0.17212,0.56565 0.50249,0.96813 2.22034,2.70468 1.78117,1.80058 2.04308,2.12425 2.23027,2.75619 0.27049,0.91316 0.48744,1.11781 1.75377,1.65434 z m -0.5321,-2.42587 c -0.10996,-0.55665 -0.33573,-0.83789 -2.12989,-2.65305 -1.10379,-1.11671 -2.0975,-2.23513 -2.20825,-2.48537 l -0.20136,-0.45498 1.60747,-1.44688 c 1.31551,-1.18409 1.75478,-1.49156 2.41856,-1.69289 0.48653,-0.14731 0.89879,-0.15741 1.03016,-0.0246 0.12048,0.12179 0.19872,0.77237 0.17382,1.44571 -0.0416,1.12741 -0.008,1.24103 0.41914,1.43582 0.27139,0.12364 0.6265,0.11559 0.85473,-0.0194 0.65128,-0.38522 0.98593,-0.25848 1.20497,0.45617 0.10541,0.34422 0.34612,0.85176 0.53477,1.12793 0.35882,0.52533 0.35255,0.5944 -0.16587,1.82435 -0.17621,0.41814 -0.29242,1.0061 -0.25823,1.30657 0.0897,0.78693 1.03537,1.69184 2.09024,2.00008 0.60893,0.17793 0.87582,0.34546 1.00285,0.62947 0.1595,0.35657 0.0949,0.46438 -0.82071,1.37013 -1.15979,1.14729 -1.1797,1.14637 -2.2124,-0.10321 -0.69188,-0.83719 -0.99605,-1.03001 -2.10379,-1.33364 -0.67842,-0.18595 -1.09113,-0.64738 -1.23629,-1.38222 z m 4.28451,-6.02723 c -0.10654,-0.381 -0.0677,-0.44673 0.34375,-0.58195 0.63599,-0.20901 0.89589,0.0256 0.92037,0.83072 0.0241,0.79315 -0.23012,0.84852 -1.07188,0.23347 -0.0396,-0.029 -0.12622,-0.24596 -0.19225,-0.48221 z"
       id="path1-6-5-2-1-7" />
    <path
       style="fill:#000000;stroke-width:0.264583"
       d="m 222.82516,120.64286 c -0.445,-1.00374 -0.47174,-1.21961 -0.2601,-2.09912 l 0.2359,-0.98032 -0.90621,-1.66474 -0.90621,-1.66472 0.2619,-0.76265 c 0.14406,-0.41946 0.47348,-0.95076 0.7321,-1.18065 0.2586,-0.22992 0.63378,-0.68524 0.83368,-1.01188 0.42484,-0.69414 1.92955,-1.66084 2.34304,-1.50528 0.14574,0.0549 0.4378,0.28771 0.64902,0.51751 0.63645,0.69245 1.15809,0.69192 2.29557,-0.002 0.95009,-0.57973 1.009,-0.65375 1.26368,-1.58305 0.25692,-0.93742 0.48035,-1.20596 1.42707,-1.71488 0.62696,-0.3371 1.54886,-0.0489 1.93422,0.60458 0.25618,0.43443 0.25745,0.67054 0.007,1.28509 -0.16877,0.41409 -0.43286,1.15228 -0.58676,1.64045 l -0.27981,0.88759 0.51531,0.19234 c 0.48368,0.18061 0.54456,0.15943 0.99247,-0.34481 0.26243,-0.29544 1.08432,-0.91392 1.82642,-1.37439 1.56093,-0.96828 2.20914,-1.0305 2.99512,-0.28652 0.65407,0.61912 0.65736,1.26264 0.0114,2.25965 -0.44485,0.68665 -0.75521,0.95672 -1.82528,1.58831 l -1.2893,0.76101 0.18019,0.50806 c 0.19987,0.56362 0.78001,0.87107 1.18877,0.63001 0.13572,-0.0798 0.45967,-0.12865 0.72015,-0.1083 0.26051,0.0204 0.84364,-0.12588 1.29588,-0.32509 0.71666,-0.31565 0.95122,-0.32001 1.8265,-0.0336 1.34216,0.43911 1.78248,1.05612 1.63508,2.2912 -0.0801,0.67138 -0.15518,0.77079 -0.92303,1.22365 -0.52785,0.31132 -1.10621,0.50745 -1.56975,0.53246 -0.95853,0.0518 -3.40704,0.97937 -5.97511,2.26377 -1.13068,0.56547 -2.25241,1.08535 -2.49279,1.15519 -0.24034,0.0699 -0.82433,0.32973 -1.29766,0.57748 -2.57269,1.34637 -3.07066,1.51591 -3.88184,1.32064 -1.22754,-0.2955 -1.8422,-1.03822 -2.97646,-3.59664 z m 2.97512,2.12387 c 0.42581,0.237 0.92634,0.36732 1.14911,0.29914 0.21705,-0.0665 1.32158,-0.65848 2.45446,-1.31569 2.51341,-1.45811 5.23059,-2.77341 6.57531,-3.18289 0.99352,-0.30255 1.0034,-0.31045 1.07779,-0.86352 0.0412,-0.30698 0.0429,-0.6128 0.004,-0.67958 -0.0394,-0.0668 -0.47718,-0.145 -0.97287,-0.17398 -1.19225,-0.0695 -1.71796,-0.42498 -1.96847,-1.33089 -0.10521,-0.38064 -0.11448,-1.03833 -0.0205,-1.46153 0.20968,-0.94467 -0.18879,-1.50962 -0.8076,-1.14469 -1.10074,0.64915 -2.16179,0.16079 -2.78655,-1.28248 -0.48376,-1.11756 -0.59168,-1.12802 -2.15108,-0.20844 -1.02433,0.60405 -1.24812,0.6786 -1.54037,0.51314 -0.1881,-0.10645 -0.69966,-0.30877 -1.13684,-0.44953 -0.79174,-0.25485 -0.79743,-0.25354 -1.4342,0.34595 -0.69142,0.65093 -1.3207,1.36963 -1.75653,2.00616 -0.26354,0.38488 -0.23677,0.47388 0.63943,2.12606 0.82732,1.56009 0.90853,1.80526 0.85196,2.57327 -0.0344,0.4669 0.0332,1.01785 0.15024,1.22436 0.11703,0.20651 0.34066,0.80686 0.49701,1.33412 0.37884,1.27768 0.3203,1.19453 1.17628,1.67096 z m 5.57867,-13.64064 c 0.32652,-0.19268 0.18642,-0.60521 -0.28843,-0.84885 -0.22379,-0.11488 -0.26097,-0.055 -0.20232,0.32408 0.1036,0.67121 0.15295,0.72398 0.49075,0.52477 z m 5.44842,2.28293 c 0.197,-0.23267 0.30434,-0.51437 0.23847,-0.626 -0.15186,-0.25753 -0.93239,0.074 -1.28594,0.54626 l -0.26954,0.36 0.47939,0.0714 c 0.38677,0.0576 0.5486,-0.0103 0.83756,-0.35169 z m 2.5485,6.09285 c 0.97077,0.2506 1.51219,-1.12593 0.57537,-1.46286 -0.31492,-0.11331 -1.25222,0.32704 -1.32895,0.62428 -0.0794,0.30793 0.28981,0.71887 0.75357,0.83856 z m -0.15371,-8.78239 c -0.088,-0.61246 -0.13062,-1.2278 -0.0945,-1.36744 0.0994,-0.38536 -0.18045,-0.74682 -0.87595,-1.13125 -0.86903,-0.48033 -1.10006,-1.09294 -0.71529,-1.89663 0.28522,-0.59578 0.48162,-0.75138 2.30666,-1.82763 2.55929,-1.50917 2.79262,-1.52262 3.1721,-0.18238 0.14361,0.50724 0.29127,1.38219 0.32812,1.94438 0.0607,0.92181 0.11176,1.05228 0.52332,1.32957 0.35497,0.2392 0.5793,0.24661 1.00999,0.0334 0.30448,-0.15081 1.19955,-0.45945 1.98895,-0.68603 1.92035,-0.55121 2.37439,-0.41999 3.16081,0.9136 0.58285,0.98837 0.58404,0.99783 0.24961,1.98588 -0.18483,0.54602 -0.41303,1.03842 -0.50712,1.09422 -0.0939,0.0561 -0.19175,0.22963 -0.21703,0.3863 -0.0334,0.20746 0.17019,0.37556 0.74924,0.61853 1.42387,0.59746 1.62744,1.54773 0.64291,3.00116 -0.91954,1.35747 -1.60161,2.01109 -3.14987,3.01846 -1.57153,1.02248 -2.33903,1.15852 -3.27519,0.58027 -0.50304,-0.31069 -0.80789,-0.73284 -2.04868,-2.83692 -1.28653,-2.18162 -1.53265,-2.51745 -2.09593,-2.85967 -0.81391,-0.49452 -0.95644,-0.75651 -1.15212,-2.11783 z m 2.20982,1.13343 c 0.51019,0.24836 0.7245,0.53842 2.02183,2.73631 0.79812,1.35217 1.62597,2.59837 1.83969,2.76929 l 0.38856,0.31078 1.80912,-1.18512 c 1.48056,-0.96985 1.88991,-1.31615 2.25395,-1.9066 0.26678,-0.4327 0.3815,-0.82887 0.2866,-0.98977 -0.0871,-0.14757 -0.69608,-0.38921 -1.35349,-0.53698 -1.10061,-0.24788 -1.2021,-0.30846 -1.28137,-0.77159 -0.0503,-0.29396 0.0481,-0.63528 0.2368,-0.82153 0.5386,-0.53144 0.50149,-0.88733 -0.13368,-1.28145 -0.30591,-0.18982 -0.73527,-0.55201 -0.95417,-0.80486 -0.41639,-0.48099 -0.48479,-0.49254 -1.80629,-0.30507 -0.44927,0.0637 -1.04742,0.026 -1.32922,-0.0837 -0.73799,-0.28748 -1.37166,-1.43276 -1.40056,-2.53136 -0.0167,-0.63418 -0.11057,-0.93498 -0.35277,-1.13027 -0.30407,-0.24517 -0.42479,-0.21025 -1.53418,0.44397 -1.40522,0.8287 -1.40942,0.84816 -0.46442,2.16558 0.63295,0.88257 0.74177,1.22586 0.75274,2.37444 0.007,0.7034 0.34754,1.22017 1.02103,1.548 z m 6.92092,-2.60489 c 0.34121,0.20023 0.41465,0.17944 0.65038,-0.18391 0.36435,-0.56162 0.20388,-0.87273 -0.5684,-1.10183 -0.76075,-0.22566 -0.87916,0.006 -0.4992,0.97684 0.0179,0.0458 0.20566,0.18475 0.4172,0.30891 z"
       id="path1-7-8-2-4-0" />
    <path
       style="fill:#000000;stroke-width:0.264583"
       d="m 172.02225,118.08961 c 0.85698,0.68638 1.05888,0.76732 1.96329,0.78709 l 1.00807,0.0221 1.37842,1.30095 1.37841,1.30097 0.80424,-0.0586 c 0.44233,-0.0323 1.04009,-0.2152 1.32834,-0.4067 0.28828,-0.19138 0.82405,-0.43837 1.19108,-0.54793 0.77972,-0.23318 2.09818,-1.44194 2.05326,-1.88144 -0.0159,-0.15492 -0.16648,-0.49675 -0.33479,-0.75958 -0.50714,-0.79207 -0.37354,-1.29632 0.58793,-2.21901 0.80305,-0.77065 0.88954,-0.80884 1.85311,-0.81797 0.97194,-0.009 1.28859,-0.15673 2.0222,-0.9423 0.48587,-0.52025 0.44247,-1.48511 -0.0911,-2.02445 -0.35468,-0.35855 -0.58265,-0.42003 -1.24078,-0.33456 -0.44344,0.0576 -1.22458,0.12452 -1.73587,0.14875 l -0.9296,0.0441 -0.0545,-0.54733 c -0.0512,-0.51374 -0.0152,-0.56721 0.58661,-0.87162 0.35261,-0.17842 1.16036,-0.81525 1.79491,-1.41533 1.33465,-1.26204 1.56004,-1.87309 1.04122,-2.82288 -0.43176,-0.7904 -1.05315,-0.95774 -2.18194,-0.58758 -0.77745,0.2549 -1.11776,0.48611 -2.00146,1.35965 l -1.06476,1.05247 -0.44528,-0.30386 c -0.49397,-0.33707 -0.64322,-0.97642 -0.30584,-1.31017 0.11192,-0.11067 0.2417,-0.4116 0.28843,-0.66869 0.047,-0.25702 0.33696,-0.78359 0.64496,-1.17004 0.4881,-0.61238 0.55212,-0.8381 0.49856,-1.75746 -0.0821,-1.40979 -0.56638,-1.99295 -1.7982,-2.16554 -0.66961,-0.0939 -0.78487,-0.0467 -1.41864,0.58028 -0.43568,0.43097 -0.77292,0.9401 -0.91536,1.38192 -0.29461,0.91361 -1.81622,3.04441 -3.71334,5.1998 -0.83527,0.94895 -1.6241,1.90094 -1.75297,2.11554 -0.12893,0.21457 -0.52912,0.71291 -0.88945,1.10738 -1.95831,2.14392 -2.24919,2.58225 -2.26736,3.4164 -0.0275,1.2623 0.53385,2.04613 2.71819,3.79561 z m -1.2945,-3.41854 c -0.12052,-0.47217 -0.11882,-0.98939 0.004,-1.18739 0.11959,-0.19295 0.97386,-1.10985 1.89839,-2.03754 2.05113,-2.05819 4.01617,-4.34984 4.75518,-5.54559 0.54602,-0.88346 0.55618,-0.89098 1.10992,-0.8218 0.30736,0.0384 0.60346,0.1149 0.65798,0.17003 0.0545,0.055 0.0185,0.49838 -0.08,0.98505 -0.23697,1.17052 -0.0274,1.76952 0.7846,2.24288 0.34119,0.1989 0.97475,0.37561 1.40792,0.39272 0.96692,0.0382 1.4115,0.56771 0.90077,1.07294 -0.90849,0.8987 -0.70704,2.0492 0.52907,3.02152 0.95713,0.75288 0.9397,0.8599 -0.34731,2.13307 -0.84541,0.83631 -0.97459,1.03367 -0.88916,1.35849 0.0549,0.20899 0.12004,0.75527 0.1446,1.21389 0.0445,0.83055 0.0417,0.83571 -0.70043,1.29845 -0.80578,0.50251 -1.66126,0.92756 -2.38793,1.18656 -0.43939,0.15659 -0.51861,0.10799 -1.89255,-1.16073 -1.29735,-1.19801 -1.51371,-1.33906 -2.27073,-1.48031 -0.4602,-0.0859 -0.97569,-0.29181 -1.14551,-0.45762 -0.16983,-0.16583 -0.69325,-0.53525 -1.16316,-0.82093 -1.13876,-0.69231 -1.07329,-0.61449 -1.31554,-1.56369 z m 14.61253,-1.91372 c 0.26954,-0.26664 0.63275,-0.0258 0.74718,0.49544 0.0539,0.2457 -0.013,0.2664 -0.36485,0.11335 -0.62256,-0.27143 -0.66098,-0.3326 -0.38219,-0.60838 z m -0.81726,-5.85059 c 0.27526,-0.13108 0.57499,-0.16308 0.66615,-0.0708 0.21024,0.21254 -0.30949,0.88263 -0.85629,1.104 l -0.41683,0.16882 0.0533,-0.48175 c 0.043,-0.38865 0.14993,-0.52782 0.55372,-0.72014 z m -5.24096,-4.01867 c 0.005,-1.00259 1.47449,-1.17489 1.56126,-0.18314 0.0291,0.33341 -0.63572,1.12733 -0.94273,1.12567 -0.31801,-0.002 -0.62112,-0.46363 -0.61853,-0.94256 z m 8.4525,2.38936 c 0.56972,0.24139 1.15385,0.43952 1.29807,0.44031 0.39797,0.002 0.67607,0.36502 0.87031,1.13557 0.24271,0.96282 0.77609,1.34253 1.65137,1.17553 0.64884,-0.12374 0.8494,-0.27392 2.35566,-1.764 2.11224,-2.08952 2.18475,-2.31171 0.98568,-3.0206 -0.4538,-0.26827 -1.26214,-0.63428 -1.79629,-0.81334 -0.87591,-0.29363 -0.98895,-0.37656 -1.15207,-0.84524 -0.14071,-0.40425 -0.0906,-0.62305 0.22567,-0.98503 0.22344,-0.25597 0.7503,-1.042599 1.17079,-1.748069 1.02294,-1.71617 1.01189,-2.18866 -0.0769,-3.2893 -0.80697,-0.81576 -0.8158,-0.81932 -1.85648,-0.74803 -0.57513,0.0389 -1.10943,0.13446 -1.18738,0.21115 -0.078,0.0767 -0.27093,0.12686 -0.42891,0.11126 -0.2091,-0.0205 -0.3197,-0.26035 -0.40689,-0.88223 -0.2144,-1.52921 -1.08127,-1.96847 -2.73778,-1.38735 -1.54717,0.54276 -2.35319,1.03548 -3.72223,2.27549 -1.38963,1.25863 -1.71694,1.96605 -1.39672,3.01874 0.17212,0.56565 0.50249,0.96813 2.22034,2.704679 1.78117,1.80058 2.04308,2.12425 2.23027,2.75619 0.27049,0.91316 0.48744,1.11781 1.75377,1.65434 z m -0.5321,-2.42587 c -0.10996,-0.55665 -0.33573,-0.83789 -2.12989,-2.65305 -1.10379,-1.116709 -2.0975,-2.235129 -2.20825,-2.485369 l -0.20136,-0.45498 1.60747,-1.44688 c 1.31551,-1.18409 1.75478,-1.49156 2.41856,-1.69289 0.48653,-0.14731 0.89879,-0.15741 1.03016,-0.0246 0.12048,0.12179 0.19872,0.77237 0.17382,1.44571 -0.0416,1.12741 -0.008,1.24103 0.41914,1.43582 0.27139,0.12364 0.6265,0.11559 0.85473,-0.0194 0.65128,-0.38522 0.98593,-0.25848 1.20497,0.45617 0.10541,0.34422 0.34612,0.85176 0.53477,1.12793 0.35882,0.52533 0.35255,0.5944 -0.16587,1.824349 -0.17621,0.41814 -0.29242,1.0061 -0.25823,1.30657 0.0897,0.78693 1.03537,1.69184 2.09024,2.00008 0.60893,0.17793 0.87582,0.34546 1.00285,0.62947 0.1595,0.35657 0.0949,0.46438 -0.82071,1.37013 -1.15979,1.14729 -1.1797,1.14637 -2.2124,-0.10321 -0.69188,-0.83719 -0.99605,-1.03001 -2.10379,-1.33364 -0.67842,-0.18595 -1.09113,-0.64738 -1.23629,-1.38222 z m 4.28451,-6.027229 c -0.10654,-0.381 -0.0677,-0.44673 0.34375,-0.58195 0.63599,-0.20901 0.89589,0.0256 0.92037,0.83072 0.0241,0.79315 -0.23012,0.84852 -1.07188,0.23347 -0.0396,-0.029 -0.12622,-0.24596 -0.19225,-0.48221 z"
       id="path1-6-5-2-1-2" />
    <g
       transform="matrix(0.00276234,0,0,-0.00300919,98.552775,215.92996)"
       fill="#000000"
       stroke="none"
       id="g2">
      <path
         d="m 3579,8525 c -218,-46 -269,-61 -460,-133 l -214,-82 H 2602 2300 L 1997,8126 C 1830,8025 1584,7869 1449,7779 1315,7689 1060,7521 882,7404 L 559,7193 353,6899 C 240,6737 141,6596 134,6585 119,6562 10,6220 10,6196 c 0,-8 52,-201 115,-427 l 115,-411 103,-147 c 81,-115 135,-208 251,-437 l 148,-290 268,-290 267,-290 266,-186 265,-187 487,-141 488,-141 215,-177 c 119,-97 360,-295 536,-440 l 321,-263 477,-247 476,-247 99,-243 100,-242 -34,-228 -34,-227 48,-199 c 26,-109 53,-204 59,-210 6,-7 96,-30 199,-51 l 188,-40 51,-62 51,-62 -3,-143 c -2,-86 0,-139 5,-133 5,6 39,51 76,100 l 66,91 21,124 c 11,69 22,129 23,134 6,21 189,-212 267,-340 l 85,-139 8,95 c 5,52 6,202 3,333 l -5,238 92,-64 92,-65 30,-201 c 16,-110 32,-201 35,-201 12,0 81,260 100,373 17,110 18,127 4,249 l -15,131 28,29 c 15,15 31,28 37,28 6,0 46,-35 89,-77 l 79,-78 -7,60 c -4,33 -38,195 -76,360 -62,271 -75,315 -134,455 -36,85 -84,214 -106,286 l -39,130 v 336 336 l 98,41 c 53,23 103,41 111,41 8,0 38,-7 67,-17 51,-16 56,-15 191,11 103,21 174,43 281,86 l 142,59 148,128 c 81,70 225,202 319,293 l 173,165 337,70 338,70 90,63 c 86,60 94,69 153,167 l 62,104 10,248 c 6,136 15,293 20,348 16,169 24,145 -114,316 -101,125 -145,169 -227,234 l -103,79 -115,22 c -104,20 -237,61 -228,70 2,2 82,-12 178,-31 l 175,-35 120,13 c 65,8 122,13 126,11 3,-2 27,-43 53,-91 45,-82 142,-221 156,-222 4,-1 19,29 35,65 l 28,65 -12,111 c -6,62 -10,114 -8,116 7,6 169,-30 183,-40 20,-16 130,-209 179,-315 l 47,-103 h 59 58 l -6,28 c -27,122 -89,349 -109,400 -14,34 -25,65 -25,68 0,9 66,-34 157,-101 99,-72 173,-172 210,-282 l 25,-73 h 44 44 v 88 89 l -84,179 c -120,256 -119,251 -124,445 l -4,167 -76,128 -77,129 -178,62 c -172,60 -181,65 -280,141 -56,43 -195,145 -308,225 l -206,147 h -144 -144 l -160,172 -160,171 -342,228 -343,229 -642,310 -642,311 -541,140 -540,141 -445,64 c -245,35 -456,65 -470,67 -14,2 -136,-20 -271,-48 z M 7855,5443 c 80,-36 144,-68 142,-69 -6,-7 -301,114 -305,125 -6,19 13,13 163,-56 z"
         id="path1" />
    </g>
  </g>
</svg>
