<?xml version="1.0" encoding="UTF-8" standalone="no"?>
<!-- Created with Inkscape (http://www.inkscape.org/) -->

<svg
   width="210mm"
   height="297mm"
   viewBox="0 0 210 297"
   version="1.1"
   id="svg1"
   inkscape:version="1.3.2 (091e20e, 2023-11-25)"
   sodipodi:docname="dinosaurTrackways-theropodRestingTraces.svg"
   xmlns:inkscape="http://www.inkscape.org/namespaces/inkscape"
   xmlns:sodipodi="http://sodipodi.sourceforge.net/DTD/sodipodi-0.dtd"
   xmlns="http://www.w3.org/2000/svg"
   xmlns:svg="http://www.w3.org/2000/svg">
  <sodipodi:namedview
     id="namedview1"
     pagecolor="#ffffff"
     bordercolor="#000000"
     borderopacity="0.25"
     inkscape:showpageshadow="2"
     inkscape:pageopacity="0.0"
     inkscape:pagecheckerboard="0"
     inkscape:deskcolor="#d1d1d1"
     inkscape:document-units="mm"
     inkscape:zoom="0.50169563"
     inkscape:cx="544.15463"
     inkscape:cy="564.08704"
     inkscape:window-width="1440"
     inkscape:window-height="847"
     inkscape:window-x="0"
     inkscape:window-y="25"
     inkscape:window-maximized="1"
     inkscape:current-layer="layer1" />
  <defs
     id="defs1">
    <inkscape:path-effect
       effect="fill_between_many"
       method="originald"
       linkedpaths="#path1,0,1|"
       id="path-effect1" />
    <inkscape:path-effect
       effect="fill_between_many"
       method="originald"
       linkedpaths="#path1-63,0,1|#path1-8,0,1|"
       id="path-effect2" />
    <inkscape:path-effect
       effect="fill_between_many"
       method="originald"
       linkedpaths="#path1-63,0,1|"
       id="path-effect3" />
    <inkscape:path-effect
       effect="fill_between_many"
       method="originald"
       linkedpaths="#path1-8,0,1|"
       id="path-effect4" />
    <inkscape:path-effect
       effect="fill_between_many"
       method="originald"
       linkedpaths="#path1-63-9,0,1"
       id="path-effect3-2"
       is_visible="true"
       lpeversion="0"
       join="true"
       close="true"
       autoreverse="true" />
    <inkscape:path-effect
       effect="fill_between_many"
       method="originald"
       linkedpaths="#path1-8-5,0,1"
       id="path-effect4-4"
       is_visible="true"
       lpeversion="0"
       join="true"
       close="true"
       autoreverse="true" />
    <inkscape:path-effect
       effect="fill_between_many"
       method="originald"
       linkedpaths="#path1-3,0,1|"
       id="path-effect5" />
    <inkscape:path-effect
       effect="fill_between_many"
       method="originald"
       linkedpaths="#path1-3-6,0,1"
       id="path-effect5-7"
       is_visible="true"
       lpeversion="0"
       join="true"
       close="true"
       autoreverse="true" />
    <inkscape:path-effect
       effect="fill_between_many"
       method="originald"
       linkedpaths="#path1-63-4,0,1"
       id="path-effect3-4"
       is_visible="true"
       lpeversion="0"
       join="true"
       close="true"
       autoreverse="true" />
    <inkscape:path-effect
       effect="fill_between_many"
       method="originald"
       linkedpaths="#path1-8-0,0,1"
       id="path-effect4-7"
       is_visible="true"
       lpeversion="0"
       join="true"
       close="true"
       autoreverse="true" />
    <inkscape:path-effect
       effect="fill_between_many"
       method="originald"
       linkedpaths="#path1-63-3,0,1"
       id="path-effect3-9"
       is_visible="true"
       lpeversion="0"
       join="true"
       close="true"
       autoreverse="true" />
  </defs>
  <g
     inkscape:label="Layer 1"
     inkscape:groupmode="layer"
     id="layer1">
    <path
       inkscape:original-d="M 0,0"
       inkscape:path-effect="#path-effect1"
       d="m 3.4653915,53.55897 c 0.011042,-1.585769 1.6964369,-5.099859 2.7119749,-5.654547 0.1291681,-0.07055 0.4125852,-0.716433 0.6298077,-1.435294 0.3349566,-1.108434 0.540878,-1.452831 1.3553621,-2.266781 1.4160253,-1.415079 2.0048588,-2.113948 2.0723398,-2.459573 0.08298,-0.425078 0.863912,-0.822545 1.145626,-0.583127 1.27336,1.082298 1.555367,4.661123 0.416321,5.28327 -0.266709,0.145677 -0.747674,1.248562 -0.584883,1.341182 0.0759,0.04321 1.245064,-0.583316 2.598168,-1.392231 5.192643,-3.104247 5.543858,-3.232079 7.46529,-2.717165 1.524788,0.408619 1.590203,0.529551 0.830411,1.534943 -0.336872,0.445753 -0.689446,1.000753 -0.783494,1.233339 -0.37633,0.930717 -0.881714,1.49056 -2.010236,2.22683 -0.647622,0.422554 -1.455391,1.004617 -1.795023,1.293529 -0.339617,0.28896 -1.286119,0.926984 -2.103309,1.417909 -2.0917,1.256604 -2.024228,1.591541 0.289923,1.439306 2.644125,-0.173947 5.247061,1.315859 4.967931,2.843426 l -0.09979,0.546108 -1.297742,0.332812 c -0.713756,0.183044 -1.537239,0.341453 -1.829964,0.352027 -0.29273,0.01056 -0.879028,0.20863 -1.302874,0.440135 -0.423856,0.23151 -0.913614,0.385984 -1.08836,0.343238 -0.882052,-0.215699 -2.109479,-0.04149 -3.374297,0.47889 C 9.7081197,58.967911 7.9922939,59.018973 7.5880857,58.278937 7.534973,58.181697 7.2833279,58.052151 7.028873,57.991059 6.4322477,57.847804 6.079271,57.192135 6.2289099,56.505186 L 6.3468678,55.96382 5.7410634,55.887997 C 3.8295681,55.648746 3.4535276,55.263896 3.4654002,53.558965 Z"
       id="path2"
       transform="rotate(67.014101,31.007233,24.414176)" />
    <path
       style="fill:#000000"
       d="m 40.96347,142.93249 c -1.38641,-0.76984 -3.66254,-3.93348 -3.66254,-5.09063 0,-0.14718 -0.43098,-0.70552 -0.95774,-1.24075 -0.81222,-0.8253 -1.01576,-1.17111 -1.33967,-2.27609 -0.56312,-1.92106 -0.8942,-2.77284 -1.16518,-2.99774 -0.33328,-0.27659 -0.30776,-1.15248 0.0374,-1.28495 1.56024,-0.59872 4.83627,0.86932 4.83627,2.1672 0,0.3039 0.73736,1.25468 0.89668,1.15621 0.0743,-0.0459 0.0849,-1.37231 0.0236,-2.94758 -0.23522,-6.04521 -0.17905,-6.41472 1.1939,-7.85418 1.08953,-1.14231 1.22702,-1.14175 1.74516,0.007 0.22972,0.50932 0.54779,1.08479 0.70683,1.27882 0.63642,0.77642 0.88549,1.48832 0.99069,2.83167 0.0604,0.77092 0.18402,1.75885 0.27477,2.19541 0.0908,0.43657 0.19703,1.57308 0.23615,2.52559 0.10015,2.43808 0.42644,2.53942 1.40214,0.4355 1.11482,-2.40392 3.67004,-3.97416 4.87686,-2.99694 l 0.43144,0.34936 -0.33,1.29846 c -0.1815,0.71415 -0.43722,1.51279 -0.56826,1.77476 -0.13105,0.26197 -0.23827,0.87146 -0.23827,1.35441 0,0.48296 -0.0992,0.98683 -0.22048,1.1197 -0.61212,0.67071 -1.04761,1.83143 -1.19721,3.19091 -0.23305,2.11793 -1.01073,3.64825 -1.85396,3.64825 -0.1108,0 -0.34512,0.15875 -0.52071,0.35278 -0.41172,0.45494 -1.15635,0.45042 -1.6875,-0.0102 l -0.41857,-0.36303 -0.35694,0.49532 c -1.12626,1.56288 -1.64427,1.70842 -3.13486,0.88073 z m 2.14021,-1.68016 c 0.73989,-1.15302 1.27481,-1.38883 2.07691,-0.91558 1.34386,0.7929 2.31526,-0.23221 2.52975,-2.6696 0.0788,-0.89549 0.21762,-1.45078 0.41103,-1.6442 0.16063,-0.16063 0.29487,-0.50466 0.29831,-0.76452 0.003,-0.25986 0.11968,-0.67091 0.25833,-0.91344 0.13864,-0.24254 0.25489,-0.85851 0.25833,-1.36882 0.005,-0.77419 0.11103,-1.07692 0.63892,-1.82796 0.65306,-0.92912 0.62796,-1.35691 -0.0667,-1.13644 -0.31024,0.0985 -0.63122,0.39538 -1.84032,1.70237 -0.16731,0.18085 -0.35809,0.54354 -0.42395,0.80598 -0.13989,0.55735 -1.81952,2.35664 -2.19226,2.34843 -0.92799,-0.0205 -1.4097,-1.2809 -1.58203,-4.13953 -0.20356,-3.37676 -1.15202,-6.79246 -1.8854,-6.78986 -0.88716,0.003 -1.26189,2.97744 -0.65991,5.23785 0.19766,0.7422 0.23784,1.36162 0.14644,2.25756 -0.0693,0.6791 -0.10595,1.45829 -0.0815,1.73154 0.23322,2.60479 -2.43017,2.43289 -3.37917,-0.21811 -0.42164,-1.17781 -1.44318,-1.94967 -1.93262,-1.46023 -0.43351,0.43351 0.65518,3.37824 1.62117,4.38505 0.38738,0.40374 0.78558,0.91968 0.88489,1.14653 0.0993,0.22684 0.33354,0.65057 0.5205,0.94161 0.43049,0.67013 1.24233,2.31095 1.24233,2.51089 0,0.14095 0.30403,0.41651 1.41111,1.27898 0.73009,0.56877 1.13517,0.45311 1.74581,-0.4985 z"
       id="path1"
       transform="rotate(128.37069,49.2379,65.187502)" />
    <path
       inkscape:original-d="M 0,0"
       inkscape:path-effect="#path-effect2"
       d="M 0,0"
       id="path3"
       transform="rotate(67.014101,31.007233,24.414176)" />
    <path
       inkscape:original-d="M 0,0"
       inkscape:path-effect="#path-effect3"
       d="m 67.508541,57.443957 c 1.497708,0.521204 5.373458,0.111386 6.236494,-0.659435 0.109778,-0.09804 0.813289,-0.148536 1.563374,-0.112201 1.156583,0.05601 1.550083,-0.02254 2.589978,-0.517027 1.807896,-0.859699 2.663723,-1.180174 3.011971,-1.127884 0.428305,0.06428 1.064561,-0.538174 0.933438,-0.883847 -0.592793,-1.562501 -3.869987,-3.027941 -4.837983,-2.163375 -0.226657,0.202442 -1.42696,0.285848 -1.459647,0.101427 -0.01525,-0.08599 0.966953,-0.977469 2.182668,-1.981096 4.66538,-3.851511 4.903553,-4.139549 5.062569,-6.122413 0.126189,-1.573539 0.03418,-1.67571 -1.167739,-1.296927 -0.532889,0.167945 -1.173971,0.314063 -1.424626,0.324697 -1.00302,0.04254 -1.69989,0.331001 -2.771876,1.147398 -0.615207,0.468494 -1.434386,1.034386 -1.820437,1.257511 -0.386092,0.223093 -1.304499,0.900936 -2.04097,1.506257 -1.885104,1.549402 -2.178042,1.373553 -1.258827,-0.755653 1.050287,-2.432807 0.519288,-5.384559 -1.013459,-5.633676 l -0.547967,-0.08902 -0.748603,1.111077 c -0.411729,0.611089 -0.837034,1.333817 -0.945128,1.60606 -0.108089,0.272248 -0.491239,0.758221 -0.851436,1.079932 -0.360206,0.321716 -0.669925,0.731351 -0.688235,0.910315 -0.09248,0.903321 -0.668079,2.001323 -1.582363,3.0185 -1.424369,1.584649 -2.047684,3.18407 -1.485977,3.812975 0.07381,0.08263 0.111499,0.363149 0.08375,0.623359 -0.06505,0.610125 0.434353,1.162481 1.131716,1.251792 l 0.549584,0.07035 -0.13166,0.596166 c -0.415389,1.881078 -0.178871,2.364376 1.431382,2.924744 z"
       id="path4"
       transform="rotate(67.014101,31.007233,24.414176)" />
    <path
       style="fill:#000000"
       d="m 68.768353,58.270843 c 1.559681,0.28667 5.327577,-0.709495 6.062947,-1.602931 0.09354,-0.113641 0.781118,-0.270844 1.527969,-0.349339 1.151594,-0.121048 1.528509,-0.258699 2.480816,-0.90601 1.65562,-1.125387 2.452553,-1.572646 2.804702,-1.574084 0.433098,-0.0018 0.970022,-0.694248 0.78771,-1.015877 -0.824176,-1.453805 -4.28654,-2.40225 -5.111344,-1.400157 -0.193128,0.234643 -1.366666,0.500148 -1.427099,0.32287 -0.02819,-0.08266 0.806553,-1.113515 1.854967,-2.290825 4.023349,-4.518027 4.214803,-4.839022 4.069525,-6.82294 -0.115288,-1.574375 -0.2218,-1.661318 -1.351887,-1.103645 -0.501039,0.247258 -1.112334,0.489446 -1.358434,0.538187 -0.984796,0.195027 -1.629516,0.586401 -2.56444,1.556749 -0.536553,0.556846 -1.259835,1.241061 -1.607338,1.520457 -0.347548,0.279371 -1.151822,1.089362 -1.787351,1.799929 -1.626728,1.818797 -1.943059,1.689685 -1.359353,-0.554811 0.666939,-2.564536 -0.308059,-5.400762 -1.860869,-5.413185 l -0.555133,-0.0044 -0.570379,1.212257 c -0.313706,0.666738 -0.623802,1.445879 -0.689108,1.731423 -0.0653,0.285549 -0.369845,0.824275 -0.676759,1.197161 -0.306923,0.372891 -0.550539,0.824973 -0.541338,1.004636 0.04638,0.906857 -0.355014,2.079805 -1.103458,3.22453 -1.166008,1.783358 -1.53808,3.459136 -0.887023,3.995009 0.08555,0.07041 0.165583,0.341894 0.177849,0.603292 0.02877,0.612908 0.606577,1.08263 1.309402,1.064532 l 0.553884,-0.0143 -0.03919,0.609272 c -0.123621,1.922426 0.183844,2.363994 1.860726,2.672205 z m -0.584714,-2.657357 c 0.161475,-1.360447 -0.101677,-1.882458 -1.021732,-2.026796 -1.541482,-0.241826 -1.640016,-1.650666 -0.256688,-3.668857 0.508243,-0.741486 0.753947,-1.258446 0.727533,-1.530697 -0.02194,-0.226103 0.09305,-0.577039 0.255528,-0.779862 0.162822,-0.202548 0.333958,-0.594067 0.381034,-0.869437 0.04709,-0.275372 0.348783,-0.824839 0.670429,-1.221036 0.488136,-0.600932 0.598658,-0.90205 0.66836,-1.817402 0.08623,-1.132395 0.377469,-1.44674 0.773707,-0.835059 0.176939,0.273209 0.236101,0.706414 0.339054,2.483925 0.01425,0.245961 -0.06894,0.647234 -0.184868,0.891717 -0.246187,0.519232 -0.09279,2.97587 0.200216,3.206407 0.729529,0.57391 1.902442,-0.09312 3.85216,-2.190752 2.303101,-2.477836 5.206086,-4.512352 5.770677,-4.044281 0.683069,0.56611 -0.917858,3.100815 -2.819139,4.46352 -0.624283,0.447439 -1.048948,0.900159 -1.547748,1.649999 -0.378062,0.568373 -0.84494,1.193278 -1.037469,1.388716 -1.835411,1.862951 0.330232,3.422811 2.747668,1.979062 1.074048,-0.641435 2.353296,-0.588198 2.420154,0.100736 0.05922,0.61021 -2.652738,2.191973 -4.038408,2.355445 -0.555673,0.06555 -1.191003,0.210848 -1.411844,0.322888 -0.220825,0.11204 -0.670965,0.29034 -1.000272,0.39624 -0.758249,0.243831 -2.427814,0.994784 -2.554876,1.149157 -0.08957,0.108828 -0.499434,0.128377 -1.902311,0.09074 -0.925156,-0.02483 -1.164417,-0.371553 -1.031144,-1.494355 z"
       id="path1-63"
       transform="rotate(75.78729,33.687823,29.95722)" />
    <path
       inkscape:original-d="M 0,0"
       inkscape:path-effect="#path-effect3-9"
       d="m 67.508536,57.443961 c 1.497708,0.521204 5.373458,0.111386 6.236494,-0.659435 0.109778,-0.09804 0.813289,-0.148536 1.563374,-0.112201 1.156582,0.05601 1.550082,-0.02254 2.589977,-0.517027 1.807897,-0.859699 2.663724,-1.180174 3.011972,-1.127884 0.428305,0.06428 1.064561,-0.538174 0.933438,-0.883847 -0.592793,-1.562502 -3.869987,-3.027941 -4.837984,-2.163375 -0.226656,0.202441 -1.42696,0.285848 -1.459647,0.101427 -0.01525,-0.08599 0.966954,-0.977469 2.182669,-1.981096 4.66538,-3.851511 4.903553,-4.139549 5.062568,-6.122413 0.12619,-1.573539 0.03418,-1.67571 -1.167738,-1.296927 -0.532889,0.167945 -1.173971,0.314063 -1.424626,0.324697 -1.00302,0.04254 -1.69989,0.331001 -2.771876,1.147398 -0.615208,0.468494 -1.434386,1.034386 -1.820437,1.257511 -0.386093,0.223093 -1.304499,0.900936 -2.04097,1.506257 -1.885105,1.549402 -2.178042,1.373553 -1.258827,-0.755653 1.050287,-2.432807 0.519288,-5.384559 -1.013459,-5.633676 l -0.547967,-0.08902 -0.748603,1.111078 c -0.411729,0.611089 -0.837034,1.333817 -0.945128,1.60606 -0.108089,0.272248 -0.491239,0.758221 -0.851436,1.079932 -0.360206,0.321715 -0.669925,0.731351 -0.688235,0.910315 -0.09248,0.903321 -0.668079,2.001323 -1.582363,3.0185 -1.42437,1.584649 -2.047684,3.18407 -1.485977,3.812975 0.07381,0.08263 0.111499,0.363149 0.08375,0.623359 -0.06505,0.610125 0.434353,1.16248 1.131715,1.251791 l 0.549585,0.07035 -0.13166,0.596166 c -0.415389,1.881078 -0.178871,2.364376 1.431382,2.924744 z"
       id="path4-1"
       transform="rotate(67.014101,21.244339,226.28023)" />
    <path
       style="fill:#000000"
       d="m 68.768353,58.270843 c 1.559681,0.28667 5.327577,-0.709495 6.062947,-1.602931 0.09354,-0.113641 0.781118,-0.270844 1.527969,-0.349339 1.151594,-0.121048 1.528509,-0.258699 2.480816,-0.90601 1.65562,-1.125387 2.452553,-1.572646 2.804702,-1.574084 0.433098,-0.0018 0.970022,-0.694248 0.78771,-1.015877 -0.824176,-1.453805 -4.28654,-2.40225 -5.111344,-1.400157 -0.193128,0.234643 -1.366666,0.500148 -1.427099,0.32287 -0.02819,-0.08266 0.806553,-1.113515 1.854967,-2.290825 4.023349,-4.518027 4.214803,-4.839022 4.069525,-6.82294 -0.115288,-1.574375 -0.2218,-1.661318 -1.351887,-1.103645 -0.501039,0.247258 -1.112334,0.489446 -1.358434,0.538187 -0.984796,0.195027 -1.629516,0.586401 -2.56444,1.556749 -0.536553,0.556846 -1.259835,1.241061 -1.607338,1.520457 -0.347548,0.279371 -1.151822,1.089362 -1.787351,1.799929 -1.626728,1.818797 -1.943059,1.689685 -1.359353,-0.554811 0.666939,-2.564536 -0.308059,-5.400762 -1.860869,-5.413185 l -0.555133,-0.0044 -0.570379,1.212257 c -0.313706,0.666738 -0.623802,1.445879 -0.689108,1.731423 -0.0653,0.285549 -0.369845,0.824275 -0.676759,1.197161 -0.306923,0.372891 -0.550539,0.824973 -0.541338,1.004636 0.04638,0.906857 -0.355014,2.079805 -1.103458,3.22453 -1.166008,1.783358 -1.53808,3.459136 -0.887023,3.995009 0.08555,0.07041 0.165583,0.341894 0.177849,0.603292 0.02877,0.612908 0.606577,1.08263 1.309402,1.064532 l 0.553884,-0.0143 -0.03919,0.609272 c -0.123621,1.922426 0.183844,2.363994 1.860726,2.672205 z m -0.584714,-2.657357 c 0.161475,-1.360447 -0.101677,-1.882458 -1.021732,-2.026796 -1.541482,-0.241826 -1.640016,-1.650666 -0.256688,-3.668857 0.508243,-0.741486 0.753947,-1.258446 0.727533,-1.530697 -0.02194,-0.226103 0.09305,-0.577039 0.255528,-0.779862 0.162822,-0.202548 0.333958,-0.594067 0.381034,-0.869437 0.04709,-0.275372 0.348783,-0.824839 0.670429,-1.221036 0.488136,-0.600932 0.598658,-0.90205 0.66836,-1.817402 0.08623,-1.132395 0.377469,-1.44674 0.773707,-0.835059 0.176939,0.273209 0.236101,0.706414 0.339054,2.483925 0.01425,0.245961 -0.06894,0.647234 -0.184868,0.891717 -0.246187,0.519232 -0.09279,2.97587 0.200216,3.206407 0.729529,0.57391 1.902442,-0.09312 3.85216,-2.190752 2.303101,-2.477836 5.206086,-4.512352 5.770677,-4.044281 0.683069,0.56611 -0.917858,3.100815 -2.819139,4.46352 -0.624283,0.447439 -1.048948,0.900159 -1.547748,1.649999 -0.378062,0.568373 -0.84494,1.193278 -1.037469,1.388716 -1.835411,1.862951 0.330232,3.422811 2.747668,1.979062 1.074048,-0.641435 2.353296,-0.588198 2.420154,0.100736 0.05922,0.61021 -2.652738,2.191973 -4.038408,2.355445 -0.555673,0.06555 -1.191003,0.210848 -1.411844,0.322888 -0.220825,0.11204 -0.670965,0.29034 -1.000272,0.39624 -0.758249,0.243831 -2.427814,0.994784 -2.554876,1.149157 -0.08957,0.108828 -0.499434,0.128377 -1.902311,0.09074 -0.925156,-0.02483 -1.164417,-0.371553 -1.031144,-1.494355 z"
       id="path1-63-3"
       transform="rotate(75.78729,38.815986,211.53367)" />
    <path
       inkscape:original-d="M 0,0"
       inkscape:path-effect="#path-effect4"
       d="m 79.243848,3.5402476 c -0.02659,-1.5855845 1.57494,-5.1386798 2.577029,-5.7173103 0.127459,-0.073602 0.395469,-0.7260213 0.595571,-1.4498351 0.308559,-1.1160693 0.506251,-1.4652565 1.30119,-2.2983045 1.382047,-1.4482827 1.954131,-2.1609283 2.013391,-2.5080573 0.07289,-0.4269237 0.84415,-0.8428142 1.131465,-0.6101482 1.298685,1.0517762 1.665537,4.6229011 0.541576,5.2719029 -0.263176,0.1519651 -0.717835,1.2659524 -0.552892,1.3546837 0.0769,0.041391 1.230872,-0.6126975 2.564398,-1.4534934 5.117518,-3.226594 5.4656,-3.3627236 7.39871,-2.8935512 1.534055,0.3723207 1.602322,0.4916671 0.866602,1.5148049 -0.3262,0.453621 -0.665505,1.016832 -0.754007,1.2515843 -0.354138,0.9393852 -0.846095,1.5110637 -1.956827,2.2739057 -0.637412,0.4378034 -1.431142,1.03886995 -1.763822,1.33576047 -0.332665,0.29693799 -1.26376,0.95724279 -2.069069,1.46742103 -2.061292,1.3058865 -1.985892,1.6391281 0.323994,1.4320214 2.639254,-0.2366436 5.27681,1.1909766 5.034007,2.7247369 l -0.08682,0.5483192 -1.28948,0.3635128 c -0.709211,0.1999312 -1.528704,0.3778365 -1.821096,0.3953534 -0.292395,0.017505 -0.873828,0.2294303 -1.292062,0.4709283 -0.418242,0.2415037 -0.904197,0.4075552 -1.079908,0.3689691 -0.886923,-0.194707 -2.10987,0.00857 -3.361984,0.5588254 C 85.613156,8.7995231 83.899026,8.8912867 83.47737,8.1610518 83.421965,8.0650985 83.167317,7.9415617 82.911483,7.8865253 82.311627,7.7574713 81.943191,7.1103598 82.076487,6.4200534 L 82.181569,5.8760408 81.574135,5.8146194 C 79.6575,5.6207957 79.272433,5.2449771 79.243845,3.5402449 Z"
       id="path5"
       transform="rotate(67.014101,31.007233,24.414176)" />
    <path
       style="fill:#000000"
       d="m 73.732164,4.8075063 c -0.298116,-1.557534 0.670352,-5.33264402 1.558364,-6.074555 0.112948,-0.09437 0.265101,-0.783086 0.338109,-1.530493 0.112588,-1.152451 0.247467,-1.530368 0.887766,-2.487402 1.1132,-1.66384 1.554594,-2.464037 1.553445,-2.816186 -0.0014,-0.4331 0.687106,-0.975095 1.010066,-0.795149 1.459819,0.813477 2.433664,4.268783 1.437654,5.100923 -0.233216,0.194847 -0.490096,1.370302 -0.31238,1.429432 0.08286,0.02759 1.107562,-0.814708 2.277141,-1.87174 4.488359,-4.056418 4.807939,-4.250225 6.792871,-4.119521 1.575179,0.103723 1.662901,0.209594 1.113543,1.343746 -0.243573,0.502842 -0.481264,1.115898 -0.528196,1.36235 -0.187792,0.986201 -0.574421,1.633778 -1.537875,2.575803 -0.552888,0.54063 -1.231779,1.268912 -1.508616,1.618457 -0.276813,0.349589 -1.080875,1.15978898 -1.786761,1.80051498 -1.806802,1.64004002 -1.67537,1.95541402 0.564778,1.35524302 2.55957,-0.685755 5.40288,0.268389 5.426706,1.821066 l 0.0085,0.555085 -1.208036,0.579266 c -0.664417,0.318595 -1.441259,0.634403 -1.726315,0.701804 -0.285062,0.06739 -0.821537,0.375888 -1.192159,0.685533 -0.370629,0.309652 -0.820908,0.556582 -1.000633,0.548701 -0.907175,-0.03972 -2.077142,0.370278 -3.216341,1.127108 -1.774747,1.179073 -3.447746,1.563441 -3.988386,0.916336 -0.07104,-0.08503 -0.343101,-0.163066 -0.604583,-0.173413 -0.613102,-0.02427 -1.087055,-0.59861 -1.074118,-1.301549 l 0.01023,-0.553974 -0.608968,0.04366 c -1.92148,0.13774 -2.365293,-0.166474 -2.68581,-1.841048 z m 2.661579,0.565184 c 1.359226,-0.171462 1.883155,0.08785 2.034246,1.00682 0.253139,1.539666 1.662638,1.627878 3.670643,0.229739 0.737733,-0.513675 1.252875,-0.763168 1.525313,-0.738755 0.226258,0.02028 0.57634,-0.09728 0.777965,-0.261248 0.201343,-0.164308 0.591598,-0.338312 0.866615,-0.387409 0.275018,-0.04911 0.822255,-0.354831 1.216079,-0.679378 0.597329,-0.492538 0.897629,-0.605265 1.812445,-0.681688 1.13173,-0.09454 1.443929,-0.388083 0.829354,-0.779819 -0.274502,-0.174928 -0.708129,-0.230907 -2.486348,-0.320804 -0.246058,-0.01244 -0.64671,0.07369 -0.890336,0.191412 -0.517409,0.249994 -2.975107,0.114645 -3.20779,-0.176664 -0.579253,-0.725295 0.07914,-1.90307502 2.162403,-3.868144 2.460856,-2.321236 4.473999,-5.239084 4.001794,-5.800222 -0.571108,-0.678894 -3.09399,0.940605 -4.442696,2.851842 -0.442843,0.627551 -0.892432,1.055529 -1.638589,1.559823 -0.565582,0.382225 -1.187041,0.85368 -1.38106,1.047638 -1.849419,1.84904598 -3.425143,-0.305087 -1.999186,-2.73306 0.63353,-1.078728 0.570901,-2.357552 -0.118507,-2.419348 -0.610628,-0.05473 -2.172434,2.668763 -2.325725,4.055596 -0.06146,0.55614 -0.202096,1.19252 -0.312511,1.414178 -0.110413,0.22164298 -0.285405,0.67307798 -0.388883,1.00315398 -0.238256,0.76002 -0.976928,2.43505402 -1.130365,2.56324602 -0.108167,0.09037 -0.124705,0.500363 -0.07677,1.902926 0.03162,0.924949 0.380096,1.161657 1.501887,1.020142 z"
       id="path1-8"
       transform="rotate(76.88882,36.212205,29.796042)" />
    <path
       inkscape:original-d="M 0,0"
       inkscape:path-effect="#path-effect3-2"
       d="m 95.643987,41.908175 c 1.430276,0.684905 5.373453,0.111386 6.236493,-0.659435 0.10978,-0.09804 0.81329,-0.148537 1.56337,-0.112201 1.15659,0.05601 1.55009,-0.02254 2.58998,-0.517027 1.8079,-0.859699 2.66373,-1.180174 3.01197,-1.127884 0.42831,0.06428 1.06457,-0.538175 0.93344,-0.883847 -0.59279,-1.562502 -3.86999,-3.027941 -4.83798,-2.163375 -0.22666,0.202441 -1.42696,0.285848 -1.45965,0.101427 -0.0153,-0.08599 0.96695,-0.977469 2.18267,-1.981097 4.66538,-3.85151 4.90355,-4.139548 5.06257,-6.122412 0.12619,-1.573539 0.0342,-1.67571 -1.16774,-1.296927 -0.53289,0.167945 -1.17397,0.314062 -1.42463,0.324697 -1.00302,0.04254 -1.69989,0.331001 -2.77187,1.147398 -0.61521,0.468494 -1.43439,1.034386 -1.82044,1.257511 -0.38609,0.223093 -1.3045,0.900936 -2.04097,1.506256 -1.885103,1.549403 -2.178041,1.373554 -1.25883,-0.755652 1.05029,-2.432807 0.51929,-5.384559 -1.013455,-5.633676 l -0.547967,-0.08902 -0.748603,1.111078 c -0.411729,0.611089 -0.837034,1.333817 -0.945128,1.60606 -0.108089,0.272248 -0.491239,0.758221 -0.851436,1.079932 -0.360206,0.321715 -0.669925,0.731351 -0.688235,0.910315 -0.09248,0.903321 -0.668079,2.001323 -1.582363,3.018499 -1.42437,1.584649 -2.047684,3.184071 -1.485977,3.812976 0.07381,0.08263 0.446783,0.583312 0.264928,1.206826 -0.171802,0.58904 -7.994522,7.553553 -8.387009,8.466591 l -0.201156,1.231761 1.244935,0.225976 c 0.982131,0.178274 7.892725,-6.742357 9.430478,-6.005985 z"
       id="path4-3"
       transform="rotate(67.014101,21.790702,76.193281)" />
    <path
       style="fill:#000000"
       d="m 68.768353,58.270843 c 1.518006,0.458741 5.327577,-0.709495 6.062947,-1.602931 0.09354,-0.113641 0.781118,-0.270844 1.527969,-0.349339 1.151594,-0.121048 1.528509,-0.258699 2.480816,-0.90601 1.65562,-1.125387 2.452553,-1.572646 2.804702,-1.574084 0.433098,-0.0018 0.970022,-0.694248 0.78771,-1.015877 -0.824176,-1.453805 -4.28654,-2.40225 -5.111344,-1.400157 -0.193128,0.234643 -1.366666,0.500148 -1.427099,0.32287 -0.02819,-0.08266 0.806553,-1.113515 1.854967,-2.290825 4.023349,-4.518027 4.214803,-4.839022 4.069525,-6.82294 -0.115288,-1.574375 -0.2218,-1.661318 -1.351887,-1.103645 -0.501039,0.247258 -1.112334,0.489446 -1.358434,0.538187 -0.984796,0.195027 -1.629516,0.586401 -2.56444,1.556749 -0.536553,0.556846 -1.259835,1.241061 -1.607338,1.520457 -0.347548,0.279371 -1.151822,1.089362 -1.787351,1.799929 -1.626728,1.818797 -1.943059,1.689685 -1.359353,-0.554811 0.666939,-2.564536 -0.308059,-5.400762 -1.860869,-5.413185 l -0.555133,-0.0044 -0.570379,1.212257 c -0.313706,0.666738 -0.623802,1.445879 -0.689108,1.731423 -0.0653,0.285549 -0.369845,0.824275 -0.676759,1.197161 -0.306923,0.372891 -0.550539,0.824973 -0.541338,1.004636 0.04638,0.906857 -0.355014,2.079805 -1.103458,3.22453 -1.166008,1.783358 -1.53808,3.459136 -0.887023,3.995009 0.08555,0.07041 0.530525,0.508343 0.445898,1.152299 -0.07995,0.608352 -6.748892,8.684527 -6.997527,9.646745 l -0.01093,1.248031 1.264836,0.03345 c 0.997831,0.02639 6.772012,-7.867296 8.404087,-7.374083 z m -0.584714,-2.657357 c 0.161475,-1.360447 -0.101677,-1.882458 -1.021732,-2.026796 -1.541482,-0.241826 -1.640016,-1.650666 -0.256688,-3.668857 0.508243,-0.741486 0.753947,-1.258446 0.727533,-1.530697 -0.02194,-0.226103 0.09305,-0.577039 0.255528,-0.779862 0.162822,-0.202548 0.333958,-0.594067 0.381034,-0.869437 0.04709,-0.275372 0.348783,-0.824839 0.670429,-1.221036 0.488136,-0.600932 0.598658,-0.90205 0.66836,-1.817402 0.08623,-1.132395 0.377469,-1.44674 0.773707,-0.835059 0.176939,0.273209 0.236101,0.706414 0.339054,2.483925 0.01425,0.245961 -0.06894,0.647234 -0.184868,0.891717 -0.246187,0.519232 -0.09279,2.97587 0.200216,3.206407 0.729529,0.57391 1.902442,-0.09312 3.85216,-2.190752 2.303101,-2.477836 5.206086,-4.512352 5.770677,-4.044281 0.683069,0.56611 -0.917858,3.100815 -2.819139,4.46352 -0.624283,0.447439 -1.048948,0.900159 -1.547748,1.649999 -0.378062,0.568373 -0.84494,1.193278 -1.037469,1.388716 -1.835411,1.862951 0.330232,3.422811 2.747668,1.979062 1.074048,-0.641435 2.353296,-0.588198 2.420154,0.100736 0.05922,0.61021 -2.652738,2.191973 -4.038408,2.355445 -0.555673,0.06555 -1.191003,0.210848 -1.411844,0.322888 -0.220825,0.11204 -0.670965,0.29034 -1.000272,0.39624 -0.758249,0.243831 -2.427814,0.994784 -2.554876,1.149157 -0.08957,0.108828 -0.499434,0.128377 -1.902311,0.09074 -0.925156,-0.02483 -1.164417,-0.371553 -1.031144,-1.494355 z"
       id="path1-63-9"
       transform="rotate(75.78729,28.890166,103.15727)"
       sodipodi:nodetypes="ssssscssssssscssccssscsssccssssssscscscsscscsscsssssssss" />
    <path
       inkscape:original-d="M 0,0"
       inkscape:path-effect="#path-effect4-4"
       d="m 78.137216,3.6094666 c -0.594412,-1.4701908 1.574939,-5.1386797 2.577029,-5.7173102 0.127458,-0.073602 0.395468,-0.7260214 0.595571,-1.4498351 0.308559,-1.1160694 0.50625,-1.4652566 1.301189,-2.2983045 1.382047,-1.4482828 1.954132,-2.1609283 2.013391,-2.5080573 0.0729,-0.4269238 0.84415,-0.8428142 1.131466,-0.6101483 1.298685,1.0517763 1.665537,4.6229012 0.541575,5.271903 -0.263176,0.1519651 -0.717834,1.2659523 -0.552892,1.3546836 0.0769,0.041391 1.230872,-0.6126974 2.564399,-1.4534933 5.117517,-3.2265941 5.4656,-3.3627236 7.39871,-2.8935513 1.534055,0.3723208 1.602321,0.4916672 0.866601,1.514805 -0.326199,0.453621 -0.665504,1.016832 -0.754006,1.2515842 -0.354138,0.9393853 -0.846095,1.5110638 -1.956828,2.2739058 -0.637412,0.4378034 -1.431141,1.03886992 -1.763822,1.33576044 -0.332665,0.29693799 -1.263759,0.95724279 -2.069069,1.46742096 -2.061292,1.3058865 -1.985892,1.6391282 0.323995,1.4320215 2.639253,-0.2366436 5.276809,1.1909766 5.034007,2.7247369 l -0.08682,0.5483191 -1.28948,0.3635128 c -0.709211,0.1999313 -1.528703,0.3778365 -1.821095,0.3953535 -0.292396,0.017505 -0.873829,0.2294302 -1.292063,0.4709283 -0.418241,0.2415037 -0.904197,0.4075551 -1.079907,0.368969 -0.886924,-0.194707 -2.10987,0.00857 -3.361984,0.5588255 -1.950659,0.857246 -3.66479,0.9490096 -4.086445,0.2187746 -0.05541,-0.095953 -0.310053,-0.21949 -0.565887,-0.2745265 -0.599857,-0.129054 -9.932219,6.2784417 -11.386513,6.4581767 l -1.199846,-0.464036 -0.698793,-1.47677 C 67.987395,11.34819 79.056715,5.8837161 78.417637,4.303049 Z"
       id="path5-0"
       transform="rotate(67.014101,21.790702,76.193281)" />
    <path
       style="fill:#000000"
       d="m 73.732164,4.8075063 c -0.837735,-1.3464718 0.670352,-5.33264402 1.558364,-6.074555 0.112948,-0.09437 0.265101,-0.783086 0.338109,-1.530493 0.112588,-1.152451 0.247467,-1.530368 0.887766,-2.487402 1.1132,-1.66384 1.554594,-2.464037 1.553445,-2.816186 -0.0014,-0.4331 0.687106,-0.975095 1.010066,-0.795149 1.459819,0.813477 2.433664,4.268783 1.437654,5.100923 -0.233216,0.194847 -0.490096,1.370302 -0.31238,1.429432 0.08286,0.02759 1.107562,-0.814708 2.277141,-1.87174 4.488359,-4.056418 4.807939,-4.250225 6.792871,-4.119521 1.575179,0.103723 1.662901,0.209594 1.113543,1.343746 -0.243573,0.502842 -0.481264,1.115898 -0.528196,1.36235 -0.187792,0.986201 -0.574421,1.633778 -1.537875,2.575803 -0.552888,0.54063 -1.231779,1.268912 -1.508616,1.618457 -0.276813,0.349589 -1.080875,1.15978898 -1.786761,1.80051498 -1.806802,1.64004002 -1.67537,1.95541402 0.564778,1.35524302 2.55957,-0.685755 5.40288,0.268389 5.426706,1.821066 l 0.0085,0.555085 -1.208036,0.579266 c -0.664417,0.318595 -1.441259,0.634403 -1.726315,0.701804 -0.285062,0.06739 -0.821537,0.375888 -1.192159,0.685533 -0.370629,0.309652 -0.820908,0.556582 -1.000633,0.548701 -0.907175,-0.03972 -2.077142,0.370278 -3.216341,1.127108 -1.774747,1.179073 -3.447746,1.563441 -3.988386,0.916336 -0.07104,-0.08503 -0.343101,-0.163066 -0.604583,-0.173413 -0.613102,-0.02427 -8.708356,7.8887467 -10.110282,8.3152227 L 66.718895,16.524244 65.777196,15.189191 C 65.05986,14.172219 75.028062,6.890374 74.127377,5.4427225 Z m 2.661579,0.565184 c 1.359226,-0.171462 1.883155,0.08785 2.034246,1.00682 0.253139,1.539666 1.662638,1.627878 3.670643,0.229739 0.737733,-0.513675 1.252875,-0.763168 1.525313,-0.738755 0.226258,0.02028 0.57634,-0.09728 0.777965,-0.261248 0.201343,-0.164308 0.591598,-0.338312 0.866615,-0.387409 0.275018,-0.04911 0.822255,-0.354831 1.216079,-0.679378 0.597329,-0.492538 0.897629,-0.605265 1.812445,-0.681688 1.13173,-0.09454 1.443929,-0.388083 0.829354,-0.779819 -0.274502,-0.174928 -0.708129,-0.230907 -2.486348,-0.320804 -0.246058,-0.01244 -0.64671,0.07369 -0.890336,0.191412 -0.517409,0.249994 -2.975107,0.114645 -3.20779,-0.176664 -0.579253,-0.725295 0.07914,-1.90307502 2.162403,-3.868144 2.460856,-2.321236 4.473999,-5.239084 4.001794,-5.800222 -0.571108,-0.678894 -3.09399,0.940605 -4.442696,2.851842 -0.442843,0.627551 -0.892432,1.055529 -1.638589,1.559823 -0.565582,0.382225 -1.187041,0.85368 -1.38106,1.047638 -1.849419,1.84904598 -3.425143,-0.305087 -1.999186,-2.73306 0.63353,-1.078728 0.570901,-2.357552 -0.118507,-2.419348 -0.610628,-0.05473 -2.172434,2.668763 -2.325725,4.055596 -0.06146,0.55614 -0.202096,1.19252 -0.312511,1.414178 -0.110413,0.22164298 -0.285405,0.67307798 -0.388883,1.00315398 -0.238256,0.76002 -0.976928,2.43505402 -1.130365,2.56324602 -0.108167,0.09037 -0.124705,0.500363 -0.07677,1.902926 0.03162,0.924949 0.380096,1.161657 1.501887,1.020142 z"
       id="path1-8-5"
       transform="rotate(76.88882,32.392922,75.494836)"
       sodipodi:nodetypes="ssssscssssssscssscssscsssccssssssscscscsscscsscsssssssss" />
    <path
       inkscape:original-d="M 0,0"
       inkscape:path-effect="#path-effect5"
       d="m 155.89375,134.82127 c -0.4358,-0.57246 -0.82916,-0.89471 -1.18848,-0.97363 -0.94516,-0.2076 -1.24693,-0.81314 -1.24693,-2.50212 0,-1.58081 0.13191,-1.94139 1.0885,-2.97537 0.44508,-0.48109 0.47792,-0.59825 0.32101,-1.14536 -0.40791,-1.42228 -0.021,-1.90729 1.76325,-2.21036 1.08802,-0.18481 1.42746,-0.17792 2.17543,0.0442 1.21681,0.36135 1.73695,0.72953 1.67211,1.18358 -0.0353,0.24691 -0.2592,0.43711 -0.6703,0.56929 -0.63586,0.20446 -1.00833,0.94803 -0.47488,0.94803 0.14037,0 0.83455,0.13083 1.54262,0.29073 l 1.28741,0.29073 -0.40337,0.32663 c -0.22185,0.17965 -0.50133,0.32663 -0.62107,0.32663 -0.11974,0 -0.35741,0.15437 -0.52816,0.34305 -0.24529,0.27104 -0.28727,0.52097 -0.20002,1.19063 0.0607,0.46616 0.15484,1.48257 0.20912,2.25868 l 0.0987,1.41111 -0.6453,0.74965 -0.6453,0.74966 -1.44146,-0.01 -1.44147,-0.0101 z"
       id="path6"
       transform="rotate(130.09892,151.66194,123.25104)" />
    <path
       style="fill:#000000;stroke-width:0.264583"
       d="m 155.89375,134.82127 c -0.4358,-0.57246 -0.82916,-0.89471 -1.18848,-0.97363 -0.94516,-0.2076 -1.24693,-0.81314 -1.24693,-2.50212 0,-1.58081 0.13191,-1.94139 1.0885,-2.97537 0.44508,-0.48109 0.47792,-0.59825 0.32101,-1.14536 -0.40791,-1.42228 -0.021,-1.90729 1.76325,-2.21036 1.08802,-0.18481 1.42746,-0.17792 2.17543,0.0442 1.21681,0.36135 1.73695,0.72953 1.67211,1.18358 -0.0353,0.24691 -0.2592,0.43711 -0.6703,0.56929 -0.63586,0.20446 -1.00833,0.94803 -0.47488,0.94803 0.14037,0 0.83455,0.13083 1.54262,0.29073 l 1.28741,0.29073 -0.40337,0.32663 c -0.22185,0.17965 -0.50133,0.32663 -0.62107,0.32663 -0.11974,0 -0.35741,0.15437 -0.52816,0.34305 -0.24529,0.27104 -0.28727,0.52097 -0.20002,1.19063 0.0607,0.46616 0.15484,1.48257 0.20912,2.25868 l 0.0987,1.41111 -0.6453,0.74965 -0.6453,0.74966 -1.44146,-0.01 -1.44147,-0.0101 z m 3.86053,-0.0503 c 0.29937,-0.3153 0.59805,-0.7517 0.66373,-0.96978 0.0657,-0.21808 -0.05,-1.2704 -0.25708,-2.33848 l -0.37651,-1.94196 0.55177,-0.46429 c 0.70784,-0.59561 0.50698,-0.79298 -0.80699,-0.79298 -0.56652,0 -1.08582,-0.0345 -1.154,-0.0766 -0.0682,-0.0421 0.0478,-0.39778 0.25772,-0.79032 0.26477,-0.49512 0.53135,-0.74489 0.87041,-0.81552 0.97657,-0.20343 0.74513,-0.63541 -0.58854,-1.09848 -0.8137,-0.28253 -1.13178,-0.30638 -2.10507,-0.15785 -1.71173,0.26123 -2.06798,0.7268 -1.48753,1.94402 l 0.27634,0.57951 -0.79507,0.82978 c -0.89652,0.93566 -1.14988,1.62647 -1.07892,2.94173 0.0585,1.08463 0.4954,1.85683 0.97896,1.73037 0.33662,-0.088 1.31643,0.82477 1.7451,1.62574 0.17217,0.32171 0.35957,0.36838 1.47926,0.36838 1.21723,0 1.30965,-0.029 1.82642,-0.57326 z"
       id="path1-3"
       sodipodi:nodetypes="ssssssssssscssssscccccsssscsssssssscsssssss"
       transform="rotate(130.09892,151.66194,123.25104)" />
    <path
       inkscape:original-d="M 0,0"
       inkscape:path-effect="#path-effect5-7"
       d="m 155.89375,134.82127 c -0.4358,-0.57246 -0.82916,-0.89471 -1.18848,-0.97363 -0.94516,-0.2076 -1.24693,-0.81314 -1.24693,-2.50212 0,-1.58081 0.13191,-1.94139 1.0885,-2.97537 0.44508,-0.48109 0.47792,-0.59825 0.32101,-1.14536 -0.40791,-1.42228 -0.021,-1.90729 1.76325,-2.21036 1.08802,-0.18481 1.42746,-0.17792 2.17543,0.0442 1.21681,0.36135 1.73695,0.72953 1.67211,1.18358 -0.0353,0.24691 -0.2592,0.43711 -0.6703,0.56929 -0.63586,0.20446 -1.00833,0.94803 -0.47488,0.94803 0.14037,0 0.83455,0.13083 1.54262,0.29073 l 1.28741,0.29073 -0.40337,0.32663 c -0.22185,0.17965 -0.50133,0.32663 -0.62107,0.32663 -0.11974,0 -0.35741,0.15437 -0.52816,0.34305 -0.24529,0.27104 -0.28727,0.52097 -0.20002,1.19063 0.0607,0.46616 0.15484,1.48257 0.20912,2.25868 l 0.0987,1.41111 -0.6453,0.74965 -0.6453,0.74966 -1.44146,-0.01 -1.44147,-0.0101 z"
       id="path6-3"
       transform="matrix(0.52231024,-0.85275554,-0.85275554,-0.52231024,153.64211,348.40356)" />
    <path
       style="fill:#000000;stroke-width:0.264583"
       d="m 155.89375,134.82127 c -0.4358,-0.57246 -0.82916,-0.89471 -1.18848,-0.97363 -0.94516,-0.2076 -1.24693,-0.81314 -1.24693,-2.50212 0,-1.58081 0.13191,-1.94139 1.0885,-2.97537 0.44508,-0.48109 0.47792,-0.59825 0.32101,-1.14536 -0.40791,-1.42228 -0.021,-1.90729 1.76325,-2.21036 1.08802,-0.18481 1.42746,-0.17792 2.17543,0.0442 1.21681,0.36135 1.73695,0.72953 1.67211,1.18358 -0.0353,0.24691 -0.2592,0.43711 -0.6703,0.56929 -0.63586,0.20446 -1.00833,0.94803 -0.47488,0.94803 0.14037,0 0.83455,0.13083 1.54262,0.29073 l 1.28741,0.29073 -0.40337,0.32663 c -0.22185,0.17965 -0.50133,0.32663 -0.62107,0.32663 -0.11974,0 -0.35741,0.15437 -0.52816,0.34305 -0.24529,0.27104 -0.28727,0.52097 -0.20002,1.19063 0.0607,0.46616 0.15484,1.48257 0.20912,2.25868 l 0.0987,1.41111 -0.6453,0.74965 -0.6453,0.74966 -1.44146,-0.01 -1.44147,-0.0101 z m 3.86053,-0.0503 c 0.29937,-0.3153 0.59805,-0.7517 0.66373,-0.96978 0.0657,-0.21808 -0.05,-1.2704 -0.25708,-2.33848 l -0.37651,-1.94196 0.55177,-0.46429 c 0.70784,-0.59561 0.50698,-0.79298 -0.80699,-0.79298 -0.56652,0 -1.08582,-0.0345 -1.154,-0.0766 -0.0682,-0.0421 0.0478,-0.39778 0.25772,-0.79032 0.26477,-0.49512 0.53135,-0.74489 0.87041,-0.81552 0.97657,-0.20343 0.74513,-0.63541 -0.58854,-1.09848 -0.8137,-0.28253 -1.13178,-0.30638 -2.10507,-0.15785 -1.71173,0.26123 -2.06798,0.7268 -1.48753,1.94402 l 0.27634,0.57951 -0.79507,0.82978 c -0.89652,0.93566 -1.14988,1.62647 -1.07892,2.94173 0.0585,1.08463 0.4954,1.85683 0.97896,1.73037 0.33662,-0.088 1.31643,0.82477 1.7451,1.62574 0.17217,0.32171 0.35957,0.36838 1.47926,0.36838 1.21723,0 1.30965,-0.029 1.82642,-0.57326 z"
       id="path1-3-6"
       sodipodi:nodetypes="ssssssssssscssssscccccsssscsssssssscsssssss"
       transform="matrix(0.52231024,-0.85275554,-0.85275554,-0.52231024,153.64211,348.40356)" />
    <path
       inkscape:original-d="M 0,0"
       inkscape:path-effect="#path-effect3-4"
       d="m 67.508541,57.443957 c 1.497708,0.521204 5.373458,0.111387 6.236494,-0.659435 0.109778,-0.09804 0.813289,-0.148536 1.563374,-0.112201 1.156583,0.05601 1.550083,-0.02254 2.589978,-0.517027 1.807896,-0.859699 2.663723,-1.180174 3.011971,-1.127884 0.428305,0.06428 1.064562,-0.538174 0.933439,-0.883847 -0.592794,-1.562501 -3.869988,-3.027941 -4.837984,-2.163374 -0.226657,0.202441 -1.42696,0.285847 -1.459647,0.101426 -0.01525,-0.08599 0.966953,-0.977469 2.182668,-1.981096 4.66538,-3.851511 4.903553,-4.139549 5.062569,-6.122413 0.12619,-1.573539 0.03418,-1.67571 -1.167738,-1.296927 -0.53289,0.167945 -1.173972,0.314063 -1.424627,0.324697 -1.00302,0.04254 -1.69989,0.331001 -2.771876,1.147398 -0.615207,0.468494 -1.434386,1.034386 -1.820437,1.257511 -0.386092,0.223093 -1.304499,0.900936 -2.04097,1.506257 -1.885104,1.549402 -2.178042,1.373553 -1.258827,-0.755653 1.050288,-2.432807 0.519288,-5.384559 -1.013459,-5.633676 l -0.547967,-0.08902 -0.748603,1.111077 c -0.411729,0.61109 -0.837034,1.333818 -0.945128,1.60606 -0.108089,0.272248 -0.491239,0.758221 -0.851436,1.079932 -0.360206,0.321716 -0.669925,0.731351 -0.688234,0.910315 -0.09248,0.903321 -0.66808,2.001323 -1.582364,3.0185 -1.424369,1.584649 -2.047683,3.18407 -1.485977,3.812975 0.07381,0.08263 0.111499,0.363149 0.08375,0.623359 -0.06505,0.610125 0.434353,1.162481 1.131716,1.251792 l 0.549584,0.07035 -0.131659,0.596166 c -0.41539,1.881078 -0.178872,2.364376 1.431381,2.924744 z"
       id="path4-38"
       transform="rotate(67.014101,22.74397,152.29871)" />
    <path
       style="fill:#000000"
       d="m 68.768353,58.270843 c 1.559681,0.28667 5.327577,-0.709495 6.062947,-1.602931 0.09354,-0.113641 0.781118,-0.270844 1.527969,-0.349339 1.151594,-0.121048 1.528509,-0.258699 2.480816,-0.90601 1.65562,-1.125387 2.452553,-1.572646 2.804702,-1.574084 0.433098,-0.0018 0.970022,-0.694248 0.78771,-1.015877 -0.824176,-1.453805 -4.28654,-2.40225 -5.111344,-1.400157 -0.193128,0.234643 -1.366666,0.500148 -1.427099,0.32287 -0.02819,-0.08266 0.806553,-1.113515 1.854967,-2.290825 4.023349,-4.518027 4.214803,-4.839022 4.069525,-6.82294 -0.115288,-1.574375 -0.2218,-1.661318 -1.351887,-1.103645 -0.501039,0.247258 -1.112334,0.489446 -1.358434,0.538187 -0.984796,0.195027 -1.629516,0.586401 -2.56444,1.556749 -0.536553,0.556846 -1.259835,1.241061 -1.607338,1.520457 -0.347548,0.279371 -1.151822,1.089362 -1.787351,1.799929 -1.626728,1.818797 -1.943059,1.689685 -1.359353,-0.554811 0.666939,-2.564536 -0.308059,-5.400762 -1.860869,-5.413185 l -0.555133,-0.0044 -0.570379,1.212257 c -0.313706,0.666738 -0.623802,1.445879 -0.689108,1.731423 -0.0653,0.285549 -0.369845,0.824275 -0.676759,1.197161 -0.306923,0.372891 -0.550539,0.824973 -0.541338,1.004636 0.04638,0.906857 -0.355014,2.079805 -1.103458,3.22453 -1.166008,1.783358 -1.53808,3.459136 -0.887023,3.995009 0.08555,0.07041 0.165583,0.341894 0.177849,0.603292 0.02877,0.612908 0.606577,1.08263 1.309402,1.064532 l 0.553884,-0.0143 -0.03919,0.609272 c -0.123621,1.922426 0.183844,2.363994 1.860726,2.672205 z m -0.584714,-2.657357 c 0.161475,-1.360447 -0.101677,-1.882458 -1.021732,-2.026796 -1.541482,-0.241826 -1.640016,-1.650666 -0.256688,-3.668857 0.508243,-0.741486 0.753947,-1.258446 0.727533,-1.530697 -0.02194,-0.226103 0.09305,-0.577039 0.255528,-0.779862 0.162822,-0.202548 0.333958,-0.594067 0.381034,-0.869437 0.04709,-0.275372 0.348783,-0.824839 0.670429,-1.221036 0.488136,-0.600932 0.598658,-0.90205 0.66836,-1.817402 0.08623,-1.132395 0.377469,-1.44674 0.773707,-0.835059 0.176939,0.273209 0.236101,0.706414 0.339054,2.483925 0.01425,0.245961 -0.06894,0.647234 -0.184868,0.891717 -0.246187,0.519232 -0.09279,2.97587 0.200216,3.206407 0.729529,0.57391 1.902442,-0.09312 3.85216,-2.190752 2.303101,-2.477836 5.206086,-4.512352 5.770677,-4.044281 0.683069,0.56611 -0.917858,3.100815 -2.819139,4.46352 -0.624283,0.447439 -1.048948,0.900159 -1.547748,1.649999 -0.378062,0.568373 -0.84494,1.193278 -1.037469,1.388716 -1.835411,1.862951 0.330232,3.422811 2.747668,1.979062 1.074048,-0.641435 2.353296,-0.588198 2.420154,0.100736 0.05922,0.61021 -2.652738,2.191973 -4.038408,2.355445 -0.555673,0.06555 -1.191003,0.210848 -1.411844,0.322888 -0.220825,0.11204 -0.670965,0.29034 -1.000272,0.39624 -0.758249,0.243831 -2.427814,0.994784 -2.554876,1.149157 -0.08957,0.108828 -0.499434,0.128377 -1.902311,0.09074 -0.925156,-0.02483 -1.164417,-0.371553 -1.031144,-1.494355 z"
       id="path1-63-4"
       transform="rotate(75.78729,35.074027,145.13093)" />
    <path
       inkscape:original-d="M 0,0"
       inkscape:path-effect="#path-effect4-7"
       d="m 79.243849,3.5402471 c -0.02659,-1.5855845 1.574939,-5.1386798 2.577029,-5.7173103 0.127459,-0.073602 0.395468,-0.7260213 0.595571,-1.4498351 0.308559,-1.1160693 0.50625,-1.4652565 1.301189,-2.2983044 1.382048,-1.4482828 1.954132,-2.1609284 2.013391,-2.5080574 0.07289,-0.4269237 0.84415,-0.8428142 1.131466,-0.6101482 1.298685,1.0517762 1.665537,4.6229011 0.541575,5.2719029 -0.263176,0.1519651 -0.717834,1.2659524 -0.552891,1.3546837 0.0769,0.041391 1.230871,-0.6126975 2.564398,-1.4534934 5.117517,-3.226594 5.4656,-3.3627236 7.39871,-2.8935512 1.534055,0.3723207 1.602321,0.4916671 0.866601,1.5148049 -0.326199,0.4536211 -0.665504,1.016832 -0.754006,1.2515843 -0.354138,0.9393852 -0.846095,1.5110637 -1.956828,2.2739057 -0.637412,0.4378034 -1.431141,1.03886997 -1.763822,1.33576049 -0.332664,0.29693799 -1.263759,0.95724278 -2.069068,1.46742101 -2.061293,1.3058865 -1.985893,1.6391281 0.323994,1.4320215 2.639253,-0.2366437 5.276809,1.1909766 5.034007,2.7247368 l -0.08682,0.5483192 -1.28948,0.3635128 C 94.409654,6.3481316 93.590162,6.5260369 93.29777,6.5435538 93.005374,6.5610589 92.423941,6.7729841 92.005708,7.0144821 91.587466,7.2559858 91.10151,7.4220373 90.9258,7.3834512 90.038876,7.1887442 88.81593,7.3920253 87.563816,7.9422767 85.613157,8.7995226 83.899026,8.8912862 83.477371,8.1610513 83.421965,8.065098 83.167318,7.9415612 82.911484,7.8865248 82.311627,7.7574708 81.943192,7.1103593 82.076487,6.4200529 L 82.181569,5.8760403 81.574136,5.8146189 C 79.6575,5.6207952 79.272434,5.2449767 79.243845,3.5402444 Z"
       id="path5-8"
       transform="rotate(67.014101,22.74397,152.29871)" />
    <path
       style="fill:#000000"
       d="m 73.732164,4.8075063 c -0.298116,-1.557534 0.670352,-5.33264402 1.558364,-6.074555 0.112948,-0.09437 0.265101,-0.783086 0.338109,-1.530493 0.112588,-1.152451 0.247467,-1.530368 0.887766,-2.487402 1.1132,-1.66384 1.554594,-2.464037 1.553445,-2.816186 -0.0014,-0.4331 0.687106,-0.975095 1.010066,-0.795149 1.459819,0.813477 2.433664,4.268783 1.437654,5.100923 -0.233216,0.194847 -0.490096,1.370302 -0.31238,1.429432 0.08286,0.02759 1.107562,-0.814708 2.277141,-1.87174 4.488359,-4.056418 4.807939,-4.250225 6.792871,-4.119521 1.575179,0.103723 1.662901,0.209594 1.113543,1.343746 -0.243573,0.502842 -0.481264,1.115898 -0.528196,1.36235 -0.187792,0.986201 -0.574421,1.633778 -1.537875,2.575803 -0.552888,0.54063 -1.231779,1.268912 -1.508616,1.618457 -0.276813,0.349589 -1.080875,1.15978898 -1.786761,1.80051498 -1.806802,1.64004002 -1.67537,1.95541402 0.564778,1.35524302 2.55957,-0.685755 5.40288,0.268389 5.426706,1.821066 l 0.0085,0.555085 -1.208036,0.579266 c -0.664417,0.318595 -1.441259,0.634403 -1.726315,0.701804 -0.285062,0.06739 -0.821537,0.375888 -1.192159,0.685533 -0.370629,0.309652 -0.820908,0.556582 -1.000633,0.548701 -0.907175,-0.03972 -2.077142,0.370278 -3.216341,1.127108 -1.774747,1.179073 -3.447746,1.563441 -3.988386,0.916336 -0.07104,-0.08503 -0.343101,-0.163066 -0.604583,-0.173413 -0.613102,-0.02427 -1.087055,-0.59861 -1.074118,-1.301549 l 0.01023,-0.553974 -0.608968,0.04366 c -1.92148,0.13774 -2.365293,-0.166474 -2.68581,-1.841048 z m 2.661579,0.565184 c 1.359226,-0.171462 1.883155,0.08785 2.034246,1.00682 0.253139,1.539666 1.662638,1.627878 3.670643,0.229739 0.737733,-0.513675 1.252875,-0.763168 1.525313,-0.738755 0.226258,0.02028 0.57634,-0.09728 0.777965,-0.261248 0.201343,-0.164308 0.591598,-0.338312 0.866615,-0.387409 0.275018,-0.04911 0.822255,-0.354831 1.216079,-0.679378 0.597329,-0.492538 0.897629,-0.605265 1.812445,-0.681688 1.13173,-0.09454 1.443929,-0.388083 0.829354,-0.779819 -0.274502,-0.174928 -0.708129,-0.230907 -2.486348,-0.320804 -0.246058,-0.01244 -0.64671,0.07369 -0.890336,0.191412 -0.517409,0.249994 -2.975107,0.114645 -3.20779,-0.176664 -0.579253,-0.725295 0.07914,-1.90307502 2.162403,-3.868144 2.460856,-2.321236 4.473999,-5.239084 4.001794,-5.800222 -0.571108,-0.678894 -3.09399,0.940605 -4.442696,2.851842 -0.442843,0.627551 -0.892432,1.055529 -1.638589,1.559823 -0.565582,0.382225 -1.187041,0.85368 -1.38106,1.047638 -1.849419,1.84904598 -3.425143,-0.305087 -1.999186,-2.73306 0.63353,-1.078728 0.570901,-2.357552 -0.118507,-2.419348 -0.610628,-0.05473 -2.172434,2.668763 -2.325725,4.055596 -0.06146,0.55614 -0.202096,1.19252 -0.312511,1.414178 -0.110413,0.22164298 -0.285405,0.67307798 -0.388883,1.00315398 -0.238256,0.76002 -0.976928,2.43505402 -1.130365,2.56324602 -0.108167,0.09037 -0.124705,0.500363 -0.07677,1.902926 0.03162,0.924949 0.380096,1.161657 1.501887,1.020142 z"
       id="path1-8-0"
       transform="rotate(76.88882,38.675149,143.55141)" />
  </g>
</svg>
