<?xml version="1.0" encoding="UTF-8" standalone="no"?>
<!-- Created with Inkscape (http://www.inkscape.org/) -->

<svg
   width="210mm"
   height="297mm"
   viewBox="0 0 210 297"
   version="1.1"
   id="svg1"
   inkscape:version="1.3.2 (091e20e, 2023-11-25)"
   sodipodi:docname="dinosaurTrackways-predatorPreyInteraction.svg"
   inkscape:export-filename="dinosaurTrackways-predatorPreyInteraction.png"
   inkscape:export-xdpi="96"
   inkscape:export-ydpi="96"
   xmlns:inkscape="http://www.inkscape.org/namespaces/inkscape"
   xmlns:sodipodi="http://sodipodi.sourceforge.net/DTD/sodipodi-0.dtd"
   xmlns="http://www.w3.org/2000/svg"
   xmlns:svg="http://www.w3.org/2000/svg">
  <sodipodi:namedview
     id="namedview1"
     pagecolor="#ffffff"
     bordercolor="#000000"
     borderopacity="0.25"
     inkscape:showpageshadow="2"
     inkscape:pageopacity="0.0"
     inkscape:pagecheckerboard="0"
     inkscape:deskcolor="#d1d1d1"
     inkscape:document-units="mm"
     inkscape:zoom="0.93775296"
     inkscape:cx="309.24989"
     inkscape:cy="450.01191"
     inkscape:window-width="1440"
     inkscape:window-height="847"
     inkscape:window-x="0"
     inkscape:window-y="25"
     inkscape:window-maximized="1"
     inkscape:current-layer="layer1" />
  <defs
     id="defs1">
    <inkscape:path-effect
       effect="fill_between_many"
       method="originald"
       linkedpaths="#path1,0,1|"
       id="path-effect1" />
    <inkscape:path-effect
       effect="fill_between_many"
       method="originald"
       linkedpaths="#path1-63,0,1|#path1-8,0,1|"
       id="path-effect2" />
    <inkscape:path-effect
       effect="fill_between_many"
       method="originald"
       linkedpaths="#path1-63,0,1|"
       id="path-effect3" />
    <inkscape:path-effect
       effect="fill_between_many"
       method="originald"
       linkedpaths="#path1-8,0,1|"
       id="path-effect4" />
    <inkscape:path-effect
       effect="fill_between_many"
       method="originald"
       linkedpaths="#path1-82,0,1|"
       id="path-effect5" />
    <inkscape:path-effect
       effect="fill_between_many"
       method="originald"
       linkedpaths="#path1-82-6,0,1|"
       id="path-effect6" />
    <inkscape:path-effect
       effect="fill_between_many"
       method="originald"
       linkedpaths="#path1-82-6-0,0,1"
       id="path-effect6-8"
       is_visible="true"
       lpeversion="0"
       join="true"
       close="true"
       autoreverse="true" />
    <inkscape:path-effect
       effect="fill_between_many"
       method="originald"
       linkedpaths="#path1-82-6-8,0,1"
       id="path-effect6-5"
       is_visible="true"
       lpeversion="0"
       join="true"
       close="true"
       autoreverse="true" />
    <inkscape:path-effect
       effect="fill_between_many"
       method="originald"
       linkedpaths="#path1-82-63,0,1"
       id="path-effect5-5"
       is_visible="true"
       lpeversion="0"
       join="true"
       close="true"
       autoreverse="true" />
    <inkscape:path-effect
       effect="fill_between_many"
       method="originald"
       linkedpaths="#path1-82-64,0,1"
       id="path-effect5-4"
       is_visible="true"
       lpeversion="0"
       join="true"
       close="true"
       autoreverse="true" />
    <inkscape:path-effect
       effect="fill_between_many"
       method="originald"
       linkedpaths="#path1-82-0,0,1"
       id="path-effect5-3"
       is_visible="true"
       lpeversion="0"
       join="true"
       close="true"
       autoreverse="true" />
    <inkscape:path-effect
       effect="fill_between_many"
       method="originald"
       linkedpaths="#path1-82-6-8-6,0,1"
       id="path-effect6-5-9"
       is_visible="true"
       lpeversion="0"
       join="true"
       close="true"
       autoreverse="true" />
  </defs>
  <g
     inkscape:label="Layer 1"
     inkscape:groupmode="layer"
     id="layer1">
    <path
       style="fill:#000000;stroke-width:0.264583"
       d="m 64.054501,263.6685 c 0.12001,-0.18761 0.40455,-0.27726 0.80503,-0.25364 0.50495,0.0298 0.60704,-0.0213 0.55244,-0.27663 -0.0368,-0.17225 -0.20604,-0.93188 -0.37605,-1.68808 -0.38937,-1.73198 -0.21567,-2.80096 0.56835,-3.49765 0.80244,-0.71306 1.24437,-0.58451 2.60422,0.75755 1.19033,1.17478 2.07598,1.70477 2.58158,1.5449 0.57961,-0.18328 0.98841,-0.63032 1.29131,-1.41208 0.51408,-1.3268 1.75955,-1.44064 2.28958,-0.20927 0.79997,1.8585 1.1437,4.86006 0.71754,6.26578 -0.32676,1.07785 -0.24322,1.85924 0.28571,2.67235 0.2217,0.34082 0.39801,0.70576 0.3918,0.81098 -0.006,0.10522 0.21291,0.29138 0.48692,0.41369 0.27401,0.12231 0.61946,0.43362 0.76767,0.6918 0.24734,0.43086 0.24391,0.51594 -0.0419,1.03596 -0.37874,0.68911 -2.57293,2.46517 -3.01345,2.43919 -0.17446,-0.0103 -0.7074,-0.45916 -1.18433,-0.9975 -0.47691,-0.53833 -1.12004,-1.23225 -1.42917,-1.54202 -0.30913,-0.30978 -0.59027,-0.6686 -0.62477,-0.79738 -0.0345,-0.12878 -0.41046,-0.33411 -0.83549,-0.45629 -0.61422,-0.17657 -0.93253,-0.17169 -1.55147,0.0238 -1.05695,0.3338 -1.52332,0.1451 -2.52534,-1.02177 -1.46245,-1.70308 -2.25483,-3.73046 -1.76019,-4.50367 z"
       id="path1-0" />
    <path
       style="fill:#000000;stroke-width:0.264583"
       d="m 41.086889,199.31718 c 0.12001,-0.18761 0.40455,-0.27726 0.80503,-0.25364 0.50495,0.0298 0.60704,-0.0213 0.55244,-0.27663 -0.0368,-0.17225 -0.20604,-0.93188 -0.37605,-1.68808 -0.38937,-1.73198 -0.21567,-2.80096 0.56835,-3.49765 0.80244,-0.71306 1.24437,-0.58451 2.60422,0.75755 1.19033,1.17478 2.07598,1.70477 2.581584,1.5449 0.57961,-0.18328 0.98841,-0.63032 1.29131,-1.41208 0.51408,-1.3268 1.75955,-1.44064 2.28958,-0.20927 0.79997,1.8585 1.1437,4.86006 0.71754,6.26578 -0.32676,1.07785 -0.24322,1.85924 0.28571,2.67235 0.2217,0.34082 0.39801,0.70576 0.3918,0.81098 -0.006,0.10522 0.21291,0.29138 0.48692,0.41369 0.27401,0.12231 0.61946,0.43362 0.76767,0.6918 0.24734,0.43086 0.24391,0.51594 -0.0419,1.03596 -0.37874,0.68911 -2.57293,2.46517 -3.01345,2.43919 -0.17446,-0.0103 -0.7074,-0.45916 -1.18433,-0.9975 -0.47691,-0.53833 -1.12004,-1.23225 -1.42917,-1.54202 -0.30913,-0.30978 -0.59027,-0.6686 -0.624774,-0.79738 -0.0345,-0.12878 -0.41046,-0.33411 -0.83549,-0.45629 -0.61422,-0.17657 -0.93253,-0.17169 -1.55147,0.0238 -1.05695,0.3338 -1.52332,0.1451 -2.52534,-1.02177 -1.46245,-1.70308 -2.25483,-3.73046 -1.76019,-4.50367 z"
       id="path1-0-6" />
    <path
       style="fill:#000000;stroke-width:0.264583"
       d="m 108.95917,60.174718 c 0.71814,-0.0746 1.05928,0.15863 1.1747,0.80311 0.1365,0.76226 0.39962,1.21285 0.81273,1.39176 0.30936,0.13403 0.38581,0.0868 1.01368,-0.62642 0.82192,-0.93365 2.24058,-1.77733 3.036,-1.80552 1.1059,-0.0392 1.65478,0.64219 1.71995,2.13508 0.0503,1.15187 -0.15103,2.00276 -0.82846,3.50176 -0.28508,0.63078 -0.45794,1.25417 -0.38414,1.38528 0.0738,0.13113 0.60779,0.59439 1.18666,1.02952 1.23158,0.92571 1.42513,1.21145 1.30419,1.92544 -0.0812,0.47954 -0.24476,0.62798 -1.77503,1.61128 -2.14678,1.37944 -2.5688,1.53429 -3.18338,1.16831 -0.46604,-0.27754 -0.55172,-0.25784 -2.11787,0.48688 -0.8977,0.42688 -2.07988,1.08963 -2.62701,1.47286 -0.54719,0.38314 -1.196,0.75153 -1.44192,0.81845 -0.51981,0.14212 -1.61572,-0.50735 -1.99585,-1.18273 -0.15254,-0.27109 -0.47383,-0.49612 -0.83539,-0.58519 -0.60301,-0.14855 -0.95368,-0.55815 -0.9266,-1.08229 0.009,-0.171 0.38897,-0.56923 0.89679,-0.9395 1.10189,-0.80344 1.25223,-1.23814 0.8509,-2.46055 -0.64571,-1.96674 0.0944,-5.5188 1.37583,-6.60327 0.25033,-0.21194 0.56922,-0.62197 0.70858,-0.91131 0.28702,-0.59592 1.45075,-1.47247 2.03554,-1.53324 z"
       id="path1-6-1-1-0" />
    <path
       style="fill:#000000;stroke-width:0.264583"
       d="m 185.94352,-14.991554 c 0.71814,-0.0746 1.05928,0.15863 1.1747,0.80311 0.1365,0.76226 0.39962,1.21285 0.81273,1.39176 0.30936,0.13403 0.38581,0.0868 1.01368,-0.62642 0.82192,-0.93365 2.24058,-1.77733 3.036,-1.80552 1.1059,-0.0392 1.65478,0.64219 1.71995,2.13508 0.0503,1.15187 -0.15103,2.00276 -0.82846,3.5017601 -0.28508,0.63078 -0.45794,1.25417 -0.38414,1.38528 0.0738,0.13113 0.60779,0.59439 1.18666,1.02952 1.23158,0.92571 1.42513,1.21145 1.30419,1.92544 -0.0812,0.47954 -0.24476,0.62798 -1.77503,1.61128 -2.14678,1.37944 -2.5688,1.53429 -3.18338,1.16831 -0.46604,-0.27754 -0.55172,-0.25784 -2.11787,0.48688 -0.8977,0.42688 -2.07988,1.08963003 -2.62701,1.47286003 -0.54719,0.38314 -1.196,0.75153 -1.44192,0.81845 -0.51981,0.14212 -1.61572,-0.50735 -1.99585,-1.18273 -0.15254,-0.27109003 -0.47383,-0.49612003 -0.83539,-0.58519003 -0.60301,-0.14855 -0.95368,-0.55815 -0.9266,-1.08229 0.009,-0.171 0.38897,-0.56923 0.89679,-0.9395 1.10189,-0.80344 1.25223,-1.23814 0.8509,-2.46055 -0.64571,-1.96674 0.0944,-5.5188001 1.37583,-6.6032701 0.25033,-0.21194 0.56922,-0.62197 0.70858,-0.91131 0.28702,-0.59592 1.45075,-1.47247 2.03554,-1.53324 z"
       id="path1-6-1-1-0-3" />
    <path
       style="fill:#000000;stroke-width:0.264583"
       d="m 110.52303,264.91514 c 0.22459,-0.68618 0.57662,-0.90263 1.21218,-0.74534 0.75171,0.18606 1.27042,0.12945 1.60217,-0.17486 0.24849,-0.22786 0.23649,-0.31694 -0.15884,-1.18098 -0.51755,-1.1311 -0.70971,-2.77045 -0.41124,-3.50829 0.41501,-1.02582 1.26092,-1.24931 2.65073,-0.70032 1.07233,0.42359 1.76727,0.95425 2.85997,2.18385 0.45981,0.51743 0.9586,0.92938 1.10841,0.91543 0.1498,-0.0139 0.79051,-0.31273 1.4238,-0.66398 1.34732,-0.7473 1.68714,-0.80757 2.28983,-0.40611 0.40478,0.26964 0.47368,0.47948 0.74784,2.27765 0.38461,2.52262 0.354,2.97111 -0.23071,3.38314 -0.44339,0.31244 -0.46033,0.39871 -0.41865,2.13241 0.0239,0.99374 0.14724,2.3434 0.27417,2.99922 0.12683,0.65584 0.19878,1.39846 0.15965,1.6503 -0.0821,0.5326 -1.12187,1.26861 -1.89354,1.34044 -0.30972,0.0288 -0.64617,0.23046 -0.87488,0.52432 -0.38144,0.49009 -0.8984,0.64336 -1.36599,0.40499 -0.15253,-0.0778 -0.36125,-0.58722 -0.49238,-1.20186 -0.28453,-1.33369 -0.6202,-1.64816 -1.90004,-1.77994 -2.05914,-0.21202 -5.00107,-2.33567 -5.46904,-3.94787 -0.0915,-0.31498 -0.33594,-0.77331 -0.54335,-1.0185 -0.42718,-0.50499 -0.75326,-1.92495 -0.57039,-2.48372 z"
       id="path1-6" />
    <path
       style="fill:#000000;stroke-width:0.264583"
       d="m 78.30328,217.17555 c 0.22459,-0.68618 0.57662,-0.90263 1.21218,-0.74534 0.75171,0.18606 1.27042,0.12945 1.60217,-0.17486 0.24849,-0.22786 0.23649,-0.31694 -0.15884,-1.18098 -0.51755,-1.1311 -0.70971,-2.77045 -0.41124,-3.50829 0.41501,-1.02582 1.26092,-1.24931 2.65073,-0.70032 1.07233,0.42359 1.76727,0.95425 2.85997,2.18385 0.45981,0.51743 0.9586,0.92938 1.10841,0.91543 0.1498,-0.0139 0.79051,-0.31273 1.4238,-0.66398 1.34732,-0.7473 1.68714,-0.80757 2.28983,-0.40611 0.40478,0.26964 0.47368,0.47948 0.74784,2.27765 0.38461,2.52262 0.354,2.97111 -0.23071,3.38314 -0.44339,0.31244 -0.46033,0.39871 -0.41865,2.13241 0.0239,0.99374 0.14724,2.3434 0.27417,2.99922 0.12683,0.65584 0.19878,1.39846 0.15965,1.6503 -0.0821,0.5326 -1.12187,1.26861 -1.89354,1.34044 -0.30972,0.0288 -0.64617,0.23046 -0.87488,0.52432 -0.38144,0.49009 -0.8984,0.64336 -1.36599,0.40499 -0.15253,-0.0778 -0.36125,-0.58722 -0.49238,-1.20186 -0.28453,-1.33369 -0.6202,-1.64816 -1.90004,-1.77994 -2.05914,-0.21202 -5.00107,-2.33567 -5.46904,-3.94787 -0.0915,-0.31498 -0.33594,-0.77331 -0.54335,-1.0185 -0.42718,-0.50499 -0.75326,-1.92495 -0.57039,-2.48372 z"
       id="path1-6-1" />
    <path
       style="fill:#000000;stroke-width:0.264583"
       d="m 61.611963,171.60603 c 0.22459,-0.68618 0.57662,-0.90263 1.21218,-0.74534 0.75171,0.18606 1.27042,0.12945 1.60217,-0.17486 0.24849,-0.22786 0.23649,-0.31694 -0.15884,-1.18098 -0.51755,-1.1311 -0.70971,-2.77045 -0.41124,-3.50829 0.41501,-1.02582 1.26092,-1.24931 2.65073,-0.70032 1.07233,0.42359 1.76727,0.95425 2.85997,2.18385 0.45981,0.51743 0.9586,0.92938 1.10841,0.91543 0.1498,-0.0139 0.79051,-0.31273 1.4238,-0.66398 1.34732,-0.7473 1.68714,-0.80757 2.28983,-0.40611 0.40478,0.26964 0.47368,0.47948 0.74784,2.27765 0.38461,2.52262 0.354,2.97111 -0.23071,3.38314 -0.44339,0.31244 -0.46033,0.39871 -0.41865,2.13241 0.0239,0.99374 0.14724,2.3434 0.27417,2.99922 0.12683,0.65584 0.19878,1.39846 0.15965,1.6503 -0.0821,0.5326 -1.12187,1.26861 -1.89354,1.34044 -0.30972,0.0288 -0.64617,0.23046 -0.87488,0.52432 -0.38144,0.49009 -0.8984,0.64336 -1.36599,0.40499 -0.15253,-0.0778 -0.36125,-0.58722 -0.49238,-1.20186 -0.28453,-1.33369 -0.6202,-1.64816 -1.90004,-1.77994 -2.05914,-0.21202 -5.00107,-2.33567 -5.46904,-3.94787 -0.0915,-0.31498 -0.33594,-0.77331 -0.54335,-1.0185 -0.42718,-0.50499 -0.75326,-1.92495 -0.57039,-2.48372 z"
       id="path1-6-1-1" />
    <path
       style="fill:#000000;stroke-width:0.264583"
       d="m 88.400563,120.92086 c 0.71665,-0.0877 1.716698,-1.06946 1.843928,-0.42721 0.855489,-0.19723 0.633797,-0.18611 1.050117,-0.0148 0.31177,0.12833 0.44482,-0.52676 1.39434,-0.56285 1.106824,-0.0421 0.948595,0.69991 1.743365,0.65714 1.10499,-0.0595 1.66627,0.61174 1.75882,2.10318 0.0714,1.15076 3.699179,0.79182 3.049339,2.30298 -0.27345,0.63592 1.311558,-0.22507 1.251748,0.98923 0.38545,0.89213 -1.165167,0.81268 -0.578407,1.23712 1.248347,0.90297 -2.19301,2.57182 -2.30084,3.28791 -0.0724,0.48095 0.806824,0.97905 -0.705156,1.99024 -2.12113,1.41858 -1.673127,1.21895 -2.287751,1.58486 -1.183063,0.70432 -0.216646,0.43398 -1.768876,1.2073 -0.88973,0.44327 -2.232899,1.47427 -2.772909,1.86746 -0.54007,0.39311 -3.262068,-0.96005 -3.506718,-0.88863 -0.51712,0.15163 -1.62476,-0.47764 -2.01721,-1.14593 -0.15749,-0.26825 -0.48285,-0.48734 -0.84599,-0.56978 -0.60562,-0.13746 -0.96375,-0.54056 -0.94629,-1.06511 0.006,-0.17112 0.753547,-0.38224 0.829049,-1.00615 0.130129,-1.07531 -1.137618,-1.7645 -0.90662,-3.02971 0.371793,-2.03636 1.755621,-4.91528 3.017131,-6.02306 0.24639,-0.21649 0.55772,-0.63231 0.69175,-0.92415 0.27604,-0.60108 1.4235,-1.49882 2.00707,-1.5703 z"
       id="path1-6-1-1-3"
       sodipodi:nodetypes="cccscsscssssscccscsscscc" />
    <path
       style="fill:#000000;stroke-width:0.264583"
       d="m 177.50082,44.78034 c 0.71665,-0.0877 1.06201,0.13919 1.18924,0.78144 0.15044,0.75963 0.42179,1.20533 0.83811,1.37663 0.31177,0.12833 0.38734,0.0797 1.00202,-0.64491 0.80466,-0.94856 2.20761,-1.81812 3.00238,-1.86089 1.10499,-0.0595 1.66627,0.61174 1.75882,2.10318 0.0714,1.15076 -0.11428,2.00519 -0.76412,3.51635 -0.27345,0.63592 -0.43486,1.26237 -0.35866,1.39211 0.0761,0.12975 0.61858,0.58314 1.20534,1.00758 1.24835,0.90297 1.44711,1.18511 1.33928,1.9012 -0.0724,0.48095 -0.23321,0.63237 -1.74519,1.64356 -2.12113,1.41858 -2.54023,1.58114 -3.16142,1.22649 -0.47104,-0.26894 -0.55635,-0.24768 -2.10858,0.52564 -0.88973,0.44327 -2.05956,1.12759 -2.59957,1.52078 -0.54007,0.39311 -1.182,0.77334 -1.42665,0.84476 -0.51712,0.15163 -1.62476,-0.47764 -2.01721,-1.14593 -0.15749,-0.26825 -0.48285,-0.48734 -0.84599,-0.56978 -0.60562,-0.13746 -0.96375,-0.54056 -0.94629,-1.06511 0.006,-0.17112 0.37848,-0.57627 0.87941,-0.95579 1.08698,-0.82351 1.22933,-1.26089 0.80564,-2.47574 -0.68167,-1.95457 -0.007,-5.51961 1.25451,-6.62739 0.24639,-0.21649 0.55772,-0.63231 0.69175,-0.92415 0.27604,-0.60108 1.4235,-1.49882 2.00707,-1.5703 z"
       id="path1-6-1-1-3-3" />
    <path
       inkscape:original-d="M 0,0"
       inkscape:path-effect="#path-effect1"
       d="m 3.4653932,53.558972 c 0.011042,-1.585769 1.6964366,-5.099859 2.7119746,-5.654547 0.1291681,-0.07055 0.4125852,-0.716433 0.6298076,-1.435294 0.3349565,-1.108434 0.5408779,-1.452831 1.3553619,-2.266781 1.4160252,-1.415079 2.0048587,-2.113948 2.0723397,-2.459573 0.08298,-0.425079 0.863912,-0.822546 1.145626,-0.583127 1.27336,1.082297 1.555367,4.661122 0.416321,5.28327 -0.266708,0.145677 -0.747673,1.248561 -0.584883,1.341182 0.0759,0.0432 1.245064,-0.583317 2.598168,-1.392232 5.192643,-3.104247 5.543858,-3.232078 7.46529,-2.717165 1.524788,0.408619 1.590203,0.529551 0.830411,1.534942 -0.336871,0.445753 -0.689446,1.000754 -0.783494,1.23334 -0.376329,0.930717 -0.881713,1.49056 -2.010236,2.22683 -0.647622,0.422554 -1.455391,1.004617 -1.795023,1.293529 -0.339617,0.288961 -1.286119,0.926984 -2.103308,1.417909 -2.0917,1.256605 -2.024229,1.591541 0.289922,1.439306 2.644125,-0.173947 5.247062,1.315859 4.967932,2.843426 l -0.09979,0.546108 -1.297742,0.332812 c -0.713756,0.183045 -1.537239,0.341453 -1.829964,0.352027 -0.29273,0.01056 -0.879028,0.20863 -1.302874,0.440135 -0.423855,0.231511 -0.913614,0.385984 -1.08836,0.343239 -0.882052,-0.215699 -2.109479,-0.0415 -3.374297,0.478889 C 9.7081218,58.967913 7.992296,59.018975 7.5880878,58.278939 7.5349751,58.181699 7.28333,58.052153 7.0288751,57.991061 6.4322498,57.847806 6.079273,57.192137 6.2289119,56.505188 L 6.3468698,55.963822 5.7410654,55.887999 C 3.82957,55.648748 3.4535295,55.263898 3.465402,53.558967 Z"
       id="path2" />
    <path
       style="fill:#000000"
       d="m 40.96347,142.93249 c -1.38641,-0.76984 -3.66254,-3.93348 -3.66254,-5.09063 0,-0.14718 -0.43098,-0.70552 -0.95774,-1.24075 -0.81222,-0.8253 -1.01576,-1.17111 -1.33967,-2.27609 -0.56312,-1.92106 -0.8942,-2.77284 -1.16518,-2.99774 -0.33328,-0.27659 -0.30776,-1.15248 0.0374,-1.28495 1.56024,-0.59872 4.83627,0.86932 4.83627,2.1672 0,0.3039 0.73736,1.25468 0.89668,1.15621 0.0743,-0.0459 0.0849,-1.37231 0.0236,-2.94758 -0.23522,-6.04521 -0.17905,-6.41472 1.1939,-7.85418 1.08953,-1.14231 1.22702,-1.14175 1.74516,0.007 0.22972,0.50932 0.54779,1.08479 0.70683,1.27882 0.63642,0.77642 0.88549,1.48832 0.99069,2.83167 0.0604,0.77092 0.18402,1.75885 0.27477,2.19541 0.0908,0.43657 0.19703,1.57308 0.23615,2.52559 0.10015,2.43808 0.42644,2.53942 1.40214,0.4355 1.11482,-2.40392 3.67004,-3.97416 4.87686,-2.99694 l 0.43144,0.34936 -0.33,1.29846 c -0.1815,0.71415 -0.43722,1.51279 -0.56826,1.77476 -0.13105,0.26197 -0.23827,0.87146 -0.23827,1.35441 0,0.48296 -0.0992,0.98683 -0.22048,1.1197 -0.61212,0.67071 -1.04761,1.83143 -1.19721,3.19091 -0.23305,2.11793 -1.01073,3.64825 -1.85396,3.64825 -0.1108,0 -0.34512,0.15875 -0.52071,0.35278 -0.41172,0.45494 -1.15635,0.45042 -1.6875,-0.0102 l -0.41857,-0.36303 -0.35694,0.49532 c -1.12626,1.56288 -1.64427,1.70842 -3.13486,0.88073 z m 2.14021,-1.68016 c 0.73989,-1.15302 1.27481,-1.38883 2.07691,-0.91558 1.34386,0.7929 2.31526,-0.23221 2.52975,-2.6696 0.0788,-0.89549 0.21762,-1.45078 0.41103,-1.6442 0.16063,-0.16063 0.29487,-0.50466 0.29831,-0.76452 0.003,-0.25986 0.11968,-0.67091 0.25833,-0.91344 0.13864,-0.24254 0.25489,-0.85851 0.25833,-1.36882 0.005,-0.77419 0.11103,-1.07692 0.63892,-1.82796 0.65306,-0.92912 0.62796,-1.35691 -0.0667,-1.13644 -0.31024,0.0985 -0.63122,0.39538 -1.84032,1.70237 -0.16731,0.18085 -0.35809,0.54354 -0.42395,0.80598 -0.13989,0.55735 -1.81952,2.35664 -2.19226,2.34843 -0.92799,-0.0205 -1.4097,-1.2809 -1.58203,-4.13953 -0.20356,-3.37676 -1.15202,-6.79246 -1.8854,-6.78986 -0.88716,0.003 -1.26189,2.97744 -0.65991,5.23785 0.19766,0.7422 0.23784,1.36162 0.14644,2.25756 -0.0693,0.6791 -0.10595,1.45829 -0.0815,1.73154 0.23322,2.60479 -2.43017,2.43289 -3.37917,-0.21811 -0.42164,-1.17781 -1.44318,-1.94967 -1.93262,-1.46023 -0.43351,0.43351 0.65518,3.37824 1.62117,4.38505 0.38738,0.40374 0.78558,0.91968 0.88489,1.14653 0.0993,0.22684 0.33354,0.65057 0.5205,0.94161 0.43049,0.67013 1.24233,2.31095 1.24233,2.51089 0,0.14095 0.30403,0.41651 1.41111,1.27898 0.73009,0.56877 1.13517,0.45311 1.74581,-0.4985 z"
       id="path1"
       transform="rotate(61.356585,97.540506,66.641482)" />
    <path
       inkscape:original-d="M 0,0"
       inkscape:path-effect="#path-effect2"
       d="M 0,0"
       id="path3" />
    <path
       inkscape:original-d="M 0,0"
       inkscape:path-effect="#path-effect3"
       d="m 67.508541,57.443958 c 1.497709,0.521204 5.373458,0.111386 6.236494,-0.659435 0.109779,-0.09804 0.813289,-0.148537 1.563374,-0.112201 1.156583,0.05601 1.550083,-0.02254 2.589978,-0.517027 1.807897,-0.859699 2.663723,-1.180174 3.011971,-1.127884 0.428305,0.06428 1.064562,-0.538175 0.933439,-0.883847 -0.592794,-1.562502 -3.869988,-3.027941 -4.837984,-2.163375 -0.226657,0.202441 -1.42696,0.285848 -1.459647,0.101427 -0.01525,-0.08599 0.966953,-0.977469 2.182668,-1.981097 4.66538,-3.85151 4.903553,-4.139548 5.062569,-6.122413 0.12619,-1.573538 0.03418,-1.67571 -1.167738,-1.296926 -0.532889,0.167945 -1.173971,0.314062 -1.424626,0.324697 -1.00302,0.04254 -1.699891,0.331001 -2.771877,1.147398 -0.615207,0.468494 -1.434385,1.034386 -1.820437,1.257511 -0.386092,0.223093 -1.304498,0.900936 -2.04097,1.506256 -1.885104,1.549403 -2.178041,1.373554 -1.258827,-0.755652 1.050288,-2.432807 0.519288,-5.384559 -1.013459,-5.633677 l -0.547966,-0.08902 -0.748604,1.111077 c -0.411728,0.61109 -0.837033,1.333818 -0.945127,1.60606 -0.108089,0.272249 -0.491239,0.758221 -0.851436,1.079933 -0.360207,0.321715 -0.669926,0.731351 -0.688235,0.910315 -0.09248,0.903321 -0.668079,2.001323 -1.582364,3.018499 -1.424369,1.584649 -2.047683,3.184071 -1.485977,3.812975 0.07381,0.08263 0.111499,0.363149 0.08375,0.62336 -0.06505,0.610125 0.434354,1.16248 1.131716,1.251791 l 0.549585,0.07035 -0.13166,0.596166 c -0.41539,1.881078 -0.178872,2.364375 1.431381,2.924744 z"
       id="path4" />
    <path
       style="fill:#000000"
       d="m 68.768353,58.270843 c 1.559681,0.28667 5.327577,-0.709495 6.062947,-1.602931 0.09354,-0.113641 0.781118,-0.270844 1.527969,-0.349339 1.151594,-0.121048 1.528509,-0.258699 2.480816,-0.90601 1.65562,-1.125387 2.452553,-1.572646 2.804702,-1.574084 0.433098,-0.0018 0.970022,-0.694248 0.78771,-1.015877 -0.824176,-1.453805 -4.28654,-2.40225 -5.111344,-1.400157 -0.193128,0.234643 -1.366666,0.500148 -1.427099,0.32287 -0.02819,-0.08266 0.806553,-1.113515 1.854967,-2.290825 4.023349,-4.518027 4.214803,-4.839022 4.069525,-6.82294 -0.115288,-1.574375 -0.2218,-1.661318 -1.351887,-1.103645 -0.501039,0.247258 -1.112334,0.489446 -1.358434,0.538187 -0.984796,0.195027 -1.629516,0.586401 -2.56444,1.556749 -0.536553,0.556846 -1.259835,1.241061 -1.607338,1.520457 -0.347548,0.279371 -1.151822,1.089362 -1.787351,1.799929 -1.626728,1.818797 -1.943059,1.689685 -1.359353,-0.554811 0.666939,-2.564536 -0.308059,-5.400762 -1.860869,-5.413185 l -0.555133,-0.0044 -0.570379,1.212257 c -0.313706,0.666738 -0.623802,1.445879 -0.689108,1.731423 -0.0653,0.285549 -0.369845,0.824275 -0.676759,1.197161 -0.306923,0.372891 -0.550539,0.824973 -0.541338,1.004636 0.04638,0.906857 -0.355014,2.079805 -1.103458,3.22453 -1.166008,1.783358 -1.53808,3.459136 -0.887023,3.995009 0.08555,0.07041 0.165583,0.341894 0.177849,0.603292 0.02877,0.612908 0.606577,1.08263 1.309402,1.064532 l 0.553884,-0.0143 -0.03919,0.609272 c -0.123621,1.922426 0.183844,2.363994 1.860726,2.672205 z m -0.584714,-2.657357 c 0.161475,-1.360447 -0.101677,-1.882458 -1.021732,-2.026796 -1.541482,-0.241826 -1.640016,-1.650666 -0.256688,-3.668857 0.508243,-0.741486 0.753947,-1.258446 0.727533,-1.530697 -0.02194,-0.226103 0.09305,-0.577039 0.255528,-0.779862 0.162822,-0.202548 0.333958,-0.594067 0.381034,-0.869437 0.04709,-0.275372 0.348783,-0.824839 0.670429,-1.221036 0.488136,-0.600932 0.598658,-0.90205 0.66836,-1.817402 0.08623,-1.132395 0.377469,-1.44674 0.773707,-0.835059 0.176939,0.273209 0.236101,0.706414 0.339054,2.483925 0.01425,0.245961 -0.06894,0.647234 -0.184868,0.891717 -0.246187,0.519232 -0.09279,2.97587 0.200216,3.206407 0.729529,0.57391 1.902442,-0.09312 3.85216,-2.190752 2.303101,-2.477836 5.206086,-4.512352 5.770677,-4.044281 0.683069,0.56611 -0.917858,3.100815 -2.819139,4.46352 -0.624283,0.447439 -1.048948,0.900159 -1.547748,1.649999 -0.378062,0.568373 -0.84494,1.193278 -1.037469,1.388716 -1.835411,1.862951 0.330232,3.422811 2.747668,1.979062 1.074048,-0.641435 2.353296,-0.588198 2.420154,0.100736 0.05922,0.61021 -2.652738,2.191973 -4.038408,2.355445 -0.555673,0.06555 -1.191003,0.210848 -1.411844,0.322888 -0.220825,0.11204 -0.670965,0.29034 -1.000272,0.39624 -0.758249,0.243831 -2.427814,0.994784 -2.554876,1.149157 -0.08957,0.108828 -0.499434,0.128377 -1.902311,0.09074 -0.925156,-0.02483 -1.164417,-0.371553 -1.031144,-1.494355 z"
       id="path1-63"
       transform="rotate(8.7731896,73.528098,49.645926)" />
    <path
       inkscape:original-d="M 0,0"
       inkscape:path-effect="#path-effect4"
       d="m 79.243849,3.5402486 c -0.02659,-1.5855845 1.57494,-5.1386797 2.57703,-5.7173102 0.127458,-0.073602 0.395468,-0.7260213 0.595571,-1.4498351 0.308559,-1.1160693 0.50625,-1.4652565 1.301189,-2.2983045 1.382047,-1.4482827 1.954132,-2.1609283 2.013391,-2.5080573 0.0729,-0.4269237 0.84415,-0.8428142 1.131466,-0.6101482 1.298685,1.0517762 1.665537,4.6229012 0.541575,5.2719029 -0.263176,0.1519651 -0.717834,1.2659524 -0.552892,1.3546837 0.0769,0.041391 1.230872,-0.6126975 2.564399,-1.4534934 5.117517,-3.2265939 5.4656,-3.3627235 7.39871,-2.8935511 1.534055,0.3723208 1.602321,0.4916671 0.866601,1.5148049 -0.326199,0.4536211 -0.665504,1.016832 -0.754006,1.2515843 -0.354138,0.9393852 -0.846095,1.5110637 -1.956828,2.2739057 -0.637412,0.4378034 -1.431141,1.03886995 -1.763822,1.33576047 -0.332665,0.29693798 -1.263759,0.95724277 -2.069069,1.46742093 -2.061292,1.3058865 -1.985892,1.6391281 0.323995,1.4320215 2.639253,-0.2366436 5.276809,1.1909767 5.034007,2.7247369 l -0.08682,0.5483192 -1.28948,0.3635128 C 94.409655,6.3481333 93.590162,6.5260386 93.297771,6.5435555 93.005375,6.5610606 92.423942,6.7729858 92.005708,7.0144838 91.587467,7.2559875 91.101511,7.4220389 90.9258,7.3834528 90.038877,7.1887458 88.81593,7.3920269 87.563816,7.9422783 85.613158,8.7995242 83.899027,8.8912878 83.477372,8.1610529 83.421966,8.0650996 83.167318,7.9415628 82.911485,7.8865264 82.311628,7.7574723 81.943193,7.1103608 82.076488,6.4200544 L 82.18157,5.8760419 81.574136,5.8146205 C 79.657501,5.6207967 79.272434,5.2449782 79.243846,3.540246 Z"
       id="path5" />
    <path
       style="fill:#000000"
       d="m 73.732164,4.8075063 c -0.298116,-1.557534 0.670352,-5.33264402 1.558364,-6.074555 0.112948,-0.09437 0.265101,-0.783086 0.338109,-1.530493 0.112588,-1.152451 0.247467,-1.530368 0.887766,-2.487402 1.1132,-1.66384 1.554594,-2.464037 1.553445,-2.816186 -0.0014,-0.4331 0.687106,-0.975095 1.010066,-0.795149 1.459819,0.813477 2.433664,4.268783 1.437654,5.100923 -0.233216,0.194847 -0.490096,1.370302 -0.31238,1.429432 0.08286,0.02759 1.107562,-0.814708 2.277141,-1.87174 4.488359,-4.056418 4.807939,-4.250225 6.792871,-4.119521 1.575179,0.103723 1.662901,0.209594 1.113543,1.343746 -0.243573,0.502842 -0.481264,1.115898 -0.528196,1.36235 -0.187792,0.986201 -0.574421,1.633778 -1.537875,2.575803 -0.552888,0.54063 -1.231779,1.268912 -1.508616,1.618457 -0.276813,0.349589 -1.080875,1.15978898 -1.786761,1.80051498 -1.806802,1.64004002 -1.67537,1.95541402 0.564778,1.35524302 2.55957,-0.685755 5.40288,0.268389 5.426706,1.821066 l 0.0085,0.555085 -1.208036,0.579266 c -0.664417,0.318595 -1.441259,0.634403 -1.726315,0.701804 -0.285062,0.06739 -0.821537,0.375888 -1.192159,0.685533 -0.370629,0.309652 -0.820908,0.556582 -1.000633,0.548701 -0.907175,-0.03972 -2.077142,0.370278 -3.216341,1.127108 -1.774747,1.179073 -3.447746,1.563441 -3.988386,0.916336 -0.07104,-0.08503 -0.343101,-0.163066 -0.604583,-0.173413 -0.613102,-0.02427 -1.087055,-0.59861 -1.074118,-1.301549 l 0.01023,-0.553974 -0.608968,0.04366 c -1.92148,0.13774 -2.365293,-0.166474 -2.68581,-1.841048 z m 2.661579,0.565184 c 1.359226,-0.171462 1.883155,0.08785 2.034246,1.00682 0.253139,1.539666 1.662638,1.627878 3.670643,0.229739 0.737733,-0.513675 1.252875,-0.763168 1.525313,-0.738755 0.226258,0.02028 0.57634,-0.09728 0.777965,-0.261248 0.201343,-0.164308 0.591598,-0.338312 0.866615,-0.387409 0.275018,-0.04911 0.822255,-0.354831 1.216079,-0.679378 0.597329,-0.492538 0.897629,-0.605265 1.812445,-0.681688 1.13173,-0.09454 1.443929,-0.388083 0.829354,-0.779819 -0.274502,-0.174928 -0.708129,-0.230907 -2.486348,-0.320804 -0.246058,-0.01244 -0.64671,0.07369 -0.890336,0.191412 -0.517409,0.249994 -2.975107,0.114645 -3.20779,-0.176664 -0.579253,-0.725295 0.07914,-1.90307502 2.162403,-3.868144 2.460856,-2.321236 4.473999,-5.239084 4.001794,-5.800222 -0.571108,-0.678894 -3.09399,0.940605 -4.442696,2.851842 -0.442843,0.627551 -0.892432,1.055529 -1.638589,1.559823 -0.565582,0.382225 -1.187041,0.85368 -1.38106,1.047638 -1.849419,1.84904598 -3.425143,-0.305087 -1.999186,-2.73306 0.63353,-1.078728 0.570901,-2.357552 -0.118507,-2.419348 -0.610628,-0.05473 -2.172434,2.668763 -2.325725,4.055596 -0.06146,0.55614 -0.202096,1.19252 -0.312511,1.414178 -0.110413,0.22164298 -0.285405,0.67307798 -0.388883,1.00315398 -0.238256,0.76002 -0.976928,2.43505402 -1.130365,2.56324602 -0.108167,0.09037 -0.124705,0.500363 -0.07677,1.902926 0.03162,0.924949 0.380096,1.161657 1.501887,1.020142 z"
       id="path1-8"
       transform="rotate(9.8747196,83.822767,36.07496)" />
    <path
       inkscape:original-d="M 0,0"
       inkscape:path-effect="#path-effect5"
       d="m 113.42394,250.61954 c 0.22834,-0.64614 0.18891,-1.67102 -0.0865,-2.24743 -0.11384,-0.23827 -0.31805,-0.88331 -0.45388,-1.43339 -0.2987,-1.21007 -1.1016,-2.33201 -2.35792,-3.295 -0.69094,-0.52961 -0.96631,-0.62072 -1.75266,-0.57993 -0.51311,0.0266 -1.28857,0.2183 -1.72323,0.42597 -1.75252,0.83727 -2.21558,2.32912 -1.39379,4.4904 0.61703,1.62282 1.1147,2.21142 2.16932,2.56569 0.67585,0.22704 0.87186,0.38881 1.13274,0.93486 0.46802,0.97962 0.84048,1.01857 2.70629,0.28302 1.48484,-0.58535 1.58516,-0.6506 1.7596,-1.14419 z"
       id="path6" />
    <path
       style="fill:#000000;stroke-width:0.264583"
       d="m 113.42394,250.61954 c 0.22834,-0.64614 0.18891,-1.67102 -0.0865,-2.24743 -0.11384,-0.23827 -0.31805,-0.88331 -0.45388,-1.43339 -0.2987,-1.21007 -1.1016,-2.33201 -2.35792,-3.295 -0.69094,-0.52961 -0.96631,-0.62072 -1.75266,-0.57993 -0.51311,0.0266 -1.28857,0.2183 -1.72323,0.42597 -1.75252,0.83727 -2.21558,2.32912 -1.39379,4.4904 0.61703,1.62282 1.1147,2.21142 2.16932,2.56569 0.67585,0.22704 0.87186,0.38881 1.13274,0.93486 0.46802,0.97962 0.84048,1.01857 2.70629,0.28302 1.48484,-0.58535 1.58516,-0.6506 1.7596,-1.14419 z m -2.66375,-0.0876 c -0.26338,0.0192 -0.53764,-0.19945 -0.94738,-0.75543 -0.52521,-0.71271 -0.63248,-0.77506 -1.20208,-0.69881 -0.85355,0.11427 -1.2643,-0.15195 -1.7262,-1.11876 -0.78971,-1.65295 -0.53122,-2.60513 0.89177,-3.28497 0.82556,-0.39442 1.66605,-0.29712 2.59521,0.30044 0.54616,0.35126 0.73482,0.61582 1.27187,1.78356 0.34678,0.75414 0.64905,1.6007 0.67162,1.88129 0.0887,1.10275 -0.49665,1.81533 -1.55481,1.89268 z"
       id="path1-82" />
    <path
       inkscape:original-d="M 0,0"
       inkscape:path-effect="#path-effect5-5"
       d="m 113.42394,250.61954 c 0.22834,-0.64614 0.18891,-1.67102 -0.0865,-2.24743 -0.11384,-0.23827 -0.31805,-0.88331 -0.45388,-1.43339 -0.2987,-1.21007 -1.1016,-2.33201 -2.35792,-3.295 -0.69094,-0.52961 -0.96631,-0.62072 -1.75266,-0.57993 -0.51311,0.0266 -1.28857,0.2183 -1.72323,0.42597 -1.75252,0.83727 -2.21558,2.32912 -1.39379,4.4904 0.61703,1.62282 1.1147,2.21142 2.16932,2.56569 0.67585,0.22704 0.87186,0.38881 1.13274,0.93486 0.46802,0.97962 0.84048,1.01857 2.70629,0.28302 1.48484,-0.58535 1.58516,-0.6506 1.7596,-1.14419 z"
       id="path6-3"
       transform="translate(-31.44315,-45.676073)" />
    <path
       style="fill:#000000;stroke-width:0.264583"
       d="m 113.42394,250.61954 c 0.22834,-0.64614 0.18891,-1.67102 -0.0865,-2.24743 -0.11384,-0.23827 -0.31805,-0.88331 -0.45388,-1.43339 -0.2987,-1.21007 -1.1016,-2.33201 -2.35792,-3.295 -0.69094,-0.52961 -0.96631,-0.62072 -1.75266,-0.57993 -0.51311,0.0266 -1.28857,0.2183 -1.72323,0.42597 -1.75252,0.83727 -2.21558,2.32912 -1.39379,4.4904 0.61703,1.62282 1.1147,2.21142 2.16932,2.56569 0.67585,0.22704 0.87186,0.38881 1.13274,0.93486 0.46802,0.97962 0.84048,1.01857 2.70629,0.28302 1.48484,-0.58535 1.58516,-0.6506 1.7596,-1.14419 z m -2.66375,-0.0876 c -0.26338,0.0192 -0.53764,-0.19945 -0.94738,-0.75543 -0.52521,-0.71271 -0.63248,-0.77506 -1.20208,-0.69881 -0.85355,0.11427 -1.2643,-0.15195 -1.7262,-1.11876 -0.78971,-1.65295 -0.53122,-2.60513 0.89177,-3.28497 0.82556,-0.39442 1.66605,-0.29712 2.59521,0.30044 0.54616,0.35126 0.73482,0.61582 1.27187,1.78356 0.34678,0.75414 0.64905,1.6007 0.67162,1.88129 0.0887,1.10275 -0.49665,1.81533 -1.55481,1.89268 z"
       id="path1-82-63"
       transform="translate(-31.44315,-45.676073)" />
    <path
       inkscape:original-d="M 0,0"
       inkscape:path-effect="#path-effect5-4"
       d="m 113.42394,250.61954 c 0.22834,-0.64614 0.18891,-1.67102 -0.0865,-2.24743 -0.11384,-0.23827 -0.31805,-0.88331 -0.45388,-1.43339 -0.2987,-1.21007 -1.1016,-2.33201 -2.35792,-3.295 -0.69094,-0.52961 -0.96631,-0.62072 -1.75266,-0.57993 -0.51311,0.0266 -1.28857,0.2183 -1.72323,0.42597 -1.75252,0.83727 -2.21558,2.32912 -1.39379,4.4904 0.61703,1.62282 1.1147,2.21142 2.16932,2.56569 0.67585,0.22704 0.87186,0.38881 1.13274,0.93486 0.46802,0.97962 0.84048,1.01857 2.70629,0.28302 1.48484,-0.58535 1.58516,-0.6506 1.7596,-1.14419 z"
       id="path6-4"
       transform="translate(-50.757733,-92.507323)" />
    <path
       style="fill:#000000;stroke-width:0.264583"
       d="m 113.42394,250.61954 c 0.22834,-0.64614 0.18891,-1.67102 -0.0865,-2.24743 -0.11384,-0.23827 -0.31805,-0.88331 -0.45388,-1.43339 -0.2987,-1.21007 -1.1016,-2.33201 -2.35792,-3.295 -0.69094,-0.52961 -0.96631,-0.62072 -1.75266,-0.57993 -0.51311,0.0266 -1.28857,0.2183 -1.72323,0.42597 -1.75252,0.83727 -2.21558,2.32912 -1.39379,4.4904 0.61703,1.62282 1.1147,2.21142 2.16932,2.56569 0.67585,0.22704 0.87186,0.38881 1.13274,0.93486 0.46802,0.97962 0.84048,1.01857 2.70629,0.28302 1.48484,-0.58535 1.58516,-0.6506 1.7596,-1.14419 z m -2.66375,-0.0876 c -0.26338,0.0192 -0.53764,-0.19945 -0.94738,-0.75543 -0.52521,-0.71271 -0.63248,-0.77506 -1.20208,-0.69881 -0.85355,0.11427 -1.2643,-0.15195 -1.7262,-1.11876 -0.78971,-1.65295 -0.53122,-2.60513 0.89177,-3.28497 0.82556,-0.39442 1.66605,-0.29712 2.59521,0.30044 0.54616,0.35126 0.73482,0.61582 1.27187,1.78356 0.34678,0.75414 0.64905,1.6007 0.67162,1.88129 0.0887,1.10275 -0.49665,1.81533 -1.55481,1.89268 z"
       id="path1-82-64"
       transform="translate(-50.757733,-92.507323)" />
    <path
       inkscape:original-d="M 0,0"
       inkscape:path-effect="#path-effect5-3"
       d="m 113.42394,250.61954 c 0.22834,-0.64614 0.18891,-1.67102 -0.0865,-2.24743 -0.11384,-0.23827 -0.31805,-0.88331 -0.45388,-1.43339 -0.2987,-1.21007 -1.1016,-2.33201 -2.35792,-3.295 -0.69094,-0.52961 -0.96631,-0.62072 -1.75266,-0.57993 -0.51311,0.0266 -1.28857,0.2183 -1.72323,0.42597 -1.75252,0.83727 -2.21558,2.32912 -1.39379,4.4904 0.61703,1.62282 1.1147,2.21142 2.16932,2.56569 0.67585,0.22704 0.87186,0.38881 1.13274,0.93486 0.46802,0.97962 0.84048,1.01857 2.70629,0.28302 1.48484,-0.58535 1.58516,-0.6506 1.7596,-1.14419 z"
       id="path6-40"
       transform="rotate(70.834501,299.81957,198.86325)" />
    <path
       style="fill:#000000;stroke-width:0.264583"
       d="m 113.42394,250.61954 c 0.22834,-0.64614 0.18891,-1.67102 -0.0865,-2.24743 -0.11384,-0.23827 -0.31805,-0.88331 -0.45388,-1.43339 -0.2987,-1.21007 -1.1016,-2.33201 -2.35792,-3.295 -0.69094,-0.52961 -0.96631,-0.62072 -1.75266,-0.57993 -0.51311,0.0266 -1.28857,0.2183 -1.72323,0.42597 -1.75252,0.83727 -2.21558,2.32912 -1.39379,4.4904 0.61703,1.62282 1.1147,2.21142 2.16932,2.56569 0.67585,0.22704 0.87186,0.38881 1.13274,0.93486 0.46802,0.97962 0.84048,1.01857 2.70629,0.28302 1.48484,-0.58535 1.58516,-0.6506 1.7596,-1.14419 z m -2.66375,-0.0876 c -0.26338,0.0192 -0.53764,-0.19945 -0.94738,-0.75543 -0.52521,-0.71271 -0.63248,-0.77506 -1.20208,-0.69881 -0.85355,0.11427 -1.2643,-0.15195 -1.7262,-1.11876 -0.78971,-1.65295 -0.53122,-2.60513 0.89177,-3.28497 0.82556,-0.39442 1.66605,-0.29712 2.59521,0.30044 0.54616,0.35126 0.73482,0.61582 1.27187,1.78356 0.34678,0.75414 0.64905,1.6007 0.67162,1.88129 0.0887,1.10275 -0.49665,1.81533 -1.55481,1.89268 z"
       id="path1-82-0"
       transform="rotate(70.834501,299.81957,198.86325)" />
    <path
       inkscape:original-d="M 0,0"
       inkscape:path-effect="#path-effect6"
       d="m 61.566188,251.762 c -0.665071,-0.16528 -1.498788,-0.76264 -1.828216,-1.30998 -0.136178,-0.22625 -0.562102,-0.75195 -0.946426,-1.16829 -0.845495,-0.91576 -1.339741,-2.20383 -1.451593,-3.78281 -0.06151,-0.86839 0.01411,-1.14841 0.481238,-1.78229 0.3048,-0.41362 0.891894,-0.9553 1.30462,-1.20372 1.664051,-1.00164 3.164281,-0.56649 4.515626,1.30976 1.014682,1.40879 1.231873,2.14836 0.946733,3.22373 -0.182724,0.68915 -0.155654,0.94185 0.156435,1.46034 0.559893,0.93017 0.387269,1.2625 -1.254275,2.41472 -1.306355,0.91697 -1.416068,0.96476 -1.924125,0.83852 z"
       id="path7" />
    <path
       style="fill:#000000;stroke-width:0.264583"
       d="m 61.566188,251.762 c -0.665071,-0.16528 -1.498788,-0.76264 -1.828216,-1.30998 -0.136178,-0.22625 -0.562102,-0.75195 -0.946426,-1.16829 -0.845495,-0.91576 -1.339741,-2.20383 -1.451593,-3.78281 -0.06151,-0.86839 0.01411,-1.14841 0.481238,-1.78229 0.3048,-0.41362 0.891894,-0.9553 1.30462,-1.20372 1.664051,-1.00164 3.164281,-0.56649 4.515626,1.30976 1.014682,1.40879 1.231873,2.14836 0.946733,3.22373 -0.182724,0.68915 -0.155654,0.94185 0.156435,1.46034 0.559893,0.93017 0.387269,1.2625 -1.254275,2.41472 -1.306355,0.91697 -1.416068,0.96476 -1.924125,0.83852 z m 1.393956,-2.27159 c 0.161084,-0.20926 0.129634,-0.5586 -0.108758,-1.2068 -0.305614,-0.83091 -0.298576,-0.95478 0.07878,-1.38821 0.565474,-0.6495 0.569491,-1.13896 0.01692,-2.05697 -0.944726,-1.56951 -1.881844,-1.87818 -3.233003,-1.06488 -0.78389,0.47184 -1.165581,1.22696 -1.178557,2.33161 -0.0076,0.64931 0.109299,0.95249 0.788191,2.04389 0.438465,0.70479 0.978584,1.42333 1.200353,1.59671 0.871577,0.68138 1.788728,0.58526 2.436076,-0.25535 z"
       id="path1-82-6" />
    <path
       inkscape:original-d="M 0,0"
       inkscape:path-effect="#path-effect6-8"
       d="m 61.566188,251.762 c -0.665071,-0.16528 -1.498788,-0.76264 -1.828216,-1.30998 -0.136178,-0.22625 -0.562102,-0.75195 -0.946426,-1.16829 -0.845495,-0.91576 -1.339741,-2.20383 -1.451593,-3.78281 -0.06151,-0.86839 0.01411,-1.14841 0.481238,-1.78229 0.3048,-0.41362 0.891894,-0.9553 1.30462,-1.20372 1.664051,-1.00164 3.164281,-0.56649 4.515626,1.30976 1.014682,1.40879 1.231873,2.14836 0.946733,3.22373 -0.182724,0.68915 -0.155654,0.94185 0.156435,1.46034 0.559893,0.93017 0.387269,1.2625 -1.254275,2.41472 -1.306355,0.91697 -1.416068,0.96476 -1.924125,0.83852 z"
       id="path7-6"
       transform="translate(-23.719407,-63.133057)" />
    <path
       style="fill:#000000;stroke-width:0.264583"
       d="m 61.566188,251.762 c -0.665071,-0.16528 -1.498788,-0.76264 -1.828216,-1.30998 -0.136178,-0.22625 -0.562102,-0.75195 -0.946426,-1.16829 -0.845495,-0.91576 -1.339741,-2.20383 -1.451593,-3.78281 -0.06151,-0.86839 0.01411,-1.14841 0.481238,-1.78229 0.3048,-0.41362 0.891894,-0.9553 1.30462,-1.20372 1.664051,-1.00164 3.164281,-0.56649 4.515626,1.30976 1.014682,1.40879 1.231873,2.14836 0.946733,3.22373 -0.182724,0.68915 -0.155654,0.94185 0.156435,1.46034 0.559893,0.93017 0.387269,1.2625 -1.254275,2.41472 -1.306355,0.91697 -1.416068,0.96476 -1.924125,0.83852 z m 1.393956,-2.27159 c 0.161084,-0.20926 0.129634,-0.5586 -0.108758,-1.2068 -0.305614,-0.83091 -0.298576,-0.95478 0.07878,-1.38821 0.565474,-0.6495 0.569491,-1.13896 0.01692,-2.05697 -0.944726,-1.56951 -1.881844,-1.87818 -3.233003,-1.06488 -0.78389,0.47184 -1.165581,1.22696 -1.178557,2.33161 -0.0076,0.64931 0.109299,0.95249 0.788191,2.04389 0.438465,0.70479 0.978584,1.42333 1.200353,1.59671 0.871577,0.68138 1.788728,0.58526 2.436076,-0.25535 z"
       id="path1-82-6-0"
       transform="translate(-23.719407,-63.133057)" />
    <path
       inkscape:original-d="M 0,0"
       inkscape:path-effect="#path-effect6-5"
       d="m 57.12223,249.60863 c -0.179537,-0.66136 -0.06383,-1.68045 0.253788,-2.23473 0.131288,-0.22912 0.383007,-0.85714 0.559472,-1.39557 0.388065,-1.18443 1.272366,-2.2434 2.596974,-3.11006 0.728496,-0.47663 1.009893,-0.54696 1.791017,-0.44767 0.509694,0.0648 1.268714,0.31375 1.686683,0.55324 1.685232,0.96558 2.035789,2.4878 1.055183,4.5818 -0.736283,1.57231 -1.276451,2.12218 -2.354543,2.39685 -0.690891,0.17603 -0.898416,0.32274 -1.199276,0.84782 -0.539741,0.94201 -0.914066,0.95308 -2.719853,0.0805 -1.437081,-0.69441 -1.532252,-0.76696 -1.669419,-1.27217 z"
       id="path7-2"
       transform="translate(63.857677,-195.42472)" />
    <path
       style="fill:#000000;stroke-width:0.264583"
       d="m 61.566188,251.762 c -0.665071,-0.16528 -1.498788,-0.76264 -1.828216,-1.30998 -0.136178,-0.22625 -0.562102,-0.75195 -0.946426,-1.16829 -0.845495,-0.91576 -1.339741,-2.20383 -1.451593,-3.78281 -0.06151,-0.86839 0.01411,-1.14841 0.481238,-1.78229 0.3048,-0.41362 0.891894,-0.9553 1.30462,-1.20372 1.664051,-1.00164 3.164281,-0.56649 4.515626,1.30976 1.014682,1.40879 1.231873,2.14836 0.946733,3.22373 -0.182724,0.68915 -0.155654,0.94185 0.156435,1.46034 0.559893,0.93017 0.387269,1.2625 -1.254275,2.41472 -1.306355,0.91697 -1.416068,0.96476 -1.924125,0.83852 z m 1.393956,-2.27159 c 0.161084,-0.20926 0.129634,-0.5586 -0.108758,-1.2068 -0.305614,-0.83091 -0.298576,-0.95478 0.07878,-1.38821 0.565474,-0.6495 0.569491,-1.13896 0.01692,-2.05697 -0.944726,-1.56951 -1.881844,-1.87818 -3.233003,-1.06488 -0.78389,0.47184 -1.165581,1.22696 -1.178557,2.33161 -0.0076,0.64931 0.109299,0.95249 0.788191,2.04389 0.438465,0.70479 0.978584,1.42333 1.200353,1.59671 0.871577,0.68138 1.788728,0.58526 2.436076,-0.25535 z"
       id="path1-82-6-8"
       transform="rotate(60.856164,259.46597,203.55026)" />
    <path
       inkscape:original-d="M 0,0"
       inkscape:path-effect="#path-effect6-5-9"
       d="m 57.12223,249.60863 c -0.179536,-0.66136 -0.06383,-1.68045 0.253789,-2.23473 0.131287,-0.22912 0.383007,-0.85714 0.559471,-1.39557 0.388065,-1.18443 1.272366,-2.2434 2.596975,-3.11006 0.728496,-0.47663 1.009892,-0.54696 1.791016,-0.44767 0.509695,0.0648 1.268715,0.31375 1.686684,0.55324 1.685231,0.96558 2.035789,2.4878 1.055182,4.58181 -0.736283,1.57231 -1.27645,2.12217 -2.354542,2.39684 -0.690891,0.17603 -0.898416,0.32274 -1.199277,0.84782 -0.53974,0.94201 -0.914066,0.95309 -2.719853,0.0805 -1.437081,-0.69441 -1.532251,-0.76696 -1.669419,-1.27217 z"
       id="path7-2-5"
       transform="translate(137.9604,-269.63372)" />
    <path
       style="fill:#000000;stroke-width:0.264583"
       d="m 61.566188,251.762 c -0.665071,-0.16528 -1.498788,-0.76264 -1.828216,-1.30998 -0.136178,-0.22625 -0.562102,-0.75195 -0.946426,-1.16829 -0.845495,-0.91576 -1.339741,-2.20383 -1.451593,-3.78281 -0.06151,-0.86839 0.01411,-1.14841 0.481238,-1.78229 0.3048,-0.41362 0.891894,-0.9553 1.30462,-1.20372 1.664051,-1.00164 3.164281,-0.56649 4.515626,1.30976 1.014682,1.40879 1.231873,2.14836 0.946733,3.22373 -0.182724,0.68915 -0.155654,0.94185 0.156435,1.46034 0.559893,0.93017 0.387269,1.2625 -1.254275,2.41472 -1.306355,0.91697 -1.416068,0.96476 -1.924125,0.83852 z m 1.393956,-2.27159 c 0.161084,-0.20926 0.129634,-0.5586 -0.108758,-1.2068 -0.305614,-0.83091 -0.298576,-0.95478 0.07878,-1.38821 0.565474,-0.6495 0.569491,-1.13896 0.01692,-2.05697 -0.944726,-1.56951 -1.881844,-1.87818 -3.233003,-1.06488 -0.78389,0.47184 -1.165581,1.22696 -1.178557,2.33161 -0.0076,0.64931 0.109299,0.95249 0.788191,2.04389 0.438465,0.70479 0.978584,1.42333 1.200353,1.59671 0.871577,0.68138 1.788728,0.58526 2.436076,-0.25535 z"
       id="path1-82-6-8-6"
       transform="rotate(60.856164,359.68946,229.52742)" />
  </g>
</svg>
