<?xml version="1.0" encoding="UTF-8" standalone="no"?>
<!-- Created with Inkscape (http://www.inkscape.org/) -->

<svg
   width="210mm"
   height="297mm"
   viewBox="0 0 210 297"
   version="1.1"
   id="svg1"
   inkscape:version="1.3.2 (091e20e, 2023-11-25)"
   sodipodi:docname="dinosaurTrackways-wateringHole.svg"
   inkscape:export-filename="dinosaurTrackways-wateringHole.png"
   inkscape:export-xdpi="96"
   inkscape:export-ydpi="96"
   xmlns:inkscape="http://www.inkscape.org/namespaces/inkscape"
   xmlns:sodipodi="http://sodipodi.sourceforge.net/DTD/sodipodi-0.dtd"
   xmlns="http://www.w3.org/2000/svg"
   xmlns:svg="http://www.w3.org/2000/svg">
  <sodipodi:namedview
     id="namedview1"
     pagecolor="#ffffff"
     bordercolor="#000000"
     borderopacity="0.25"
     inkscape:showpageshadow="2"
     inkscape:pageopacity="0.0"
     inkscape:pagecheckerboard="0"
     inkscape:deskcolor="#d1d1d1"
     inkscape:document-units="mm"
     inkscape:zoom="0.80028741"
     inkscape:cx="339.87789"
     inkscape:cy="518.5637"
     inkscape:window-width="1440"
     inkscape:window-height="847"
     inkscape:window-x="0"
     inkscape:window-y="25"
     inkscape:window-maximized="1"
     inkscape:current-layer="layer1" />
  <defs
     id="defs1">
    <linearGradient
       id="swatch5"
       inkscape:swatch="solid">
      <stop
         style="stop-color:#000000;stop-opacity:1;"
         offset="0"
         id="stop5" />
    </linearGradient>
    <inkscape:path-effect
       effect="fill_between_many"
       method="originald"
       linkedpaths="#path1,0,1|"
       id="path-effect1" />
    <inkscape:path-effect
       effect="fill_between_many"
       method="originald"
       linkedpaths="#path1-63,0,1|#path1-8,0,1|"
       id="path-effect2" />
    <inkscape:path-effect
       effect="fill_between_many"
       method="originald"
       linkedpaths="#path1-63,0,1|"
       id="path-effect3" />
    <inkscape:path-effect
       effect="fill_between_many"
       method="originald"
       linkedpaths="#path1-8,0,1|"
       id="path-effect4" />
    <inkscape:path-effect
       effect="fill_between_many"
       method="originald"
       linkedpaths="#path1-6-9,0,1|"
       id="path-effect5" />
    <inkscape:path-effect
       effect="fill_between_many"
       method="originald"
       linkedpaths="#path1-6-9-9,0,1"
       id="path-effect5-2"
       is_visible="true"
       lpeversion="0"
       join="true"
       close="true"
       autoreverse="true" />
    <inkscape:path-effect
       effect="fill_between_many"
       method="originald"
       linkedpaths="#path1-6-9-9-6,0,1"
       id="path-effect5-2-1"
       is_visible="true"
       lpeversion="0"
       join="true"
       close="true"
       autoreverse="true" />
    <inkscape:path-effect
       effect="fill_between_many"
       method="originald"
       linkedpaths="#path1-6-9-4,0,1"
       id="path-effect5-8"
       is_visible="true"
       lpeversion="0"
       join="true"
       close="true"
       autoreverse="true" />
    <inkscape:path-effect
       effect="fill_between_many"
       method="originald"
       linkedpaths="#path1-6-9-4-3,0,1"
       id="path-effect5-8-3"
       is_visible="true"
       lpeversion="0"
       join="true"
       close="true"
       autoreverse="true" />
  </defs>
  <g
     inkscape:label="Layer 1"
     inkscape:groupmode="layer"
     id="layer1">
    <path
       style="fill:none;fill-opacity:1;fill-rule:nonzero;stroke:#000000;stroke-width:1.665;stroke-dasharray:none;stroke-opacity:1"
       d="m 23.411523,204.22981 c 0.198772,0.10045 0.316763,0.37443 0.333767,0.77524 0.02143,0.50538 0.08259,0.60177 0.331084,0.52163 0.167652,-0.054 0.906266,-0.29924 1.641389,-0.54487 1.683718,-0.56256 2.764787,-0.49786 3.537198,0.21166 0.790572,0.7262 0.707375,1.17886 -0.490251,2.66749 -1.048355,1.30306 -1.486051,2.23777 -1.275858,2.7246 0.240965,0.55811 0.727065,0.91959 1.535449,1.14186 1.371992,0.37724 1.61122,1.60481 0.439783,2.25667 -1.768052,0.98386 -4.719452,1.62942 -6.161068,1.34763 -1.105373,-0.21606 -1.874311,-0.0539 -2.62975,0.55454 -0.316646,0.25504 -0.661884,0.46736 -0.767195,0.47182 -0.105288,0.005 -0.268342,0.2413 -0.362324,0.52626 -0.09394,0.285 -0.368754,0.66014 -0.610604,0.83371 -0.403636,0.28965 -0.48862,0.29485 -1.034888,0.0631 -0.723886,-0.3071 -2.712771,-2.31039 -2.731484,-2.75128 -0.0074,-0.1746 0.385257,-0.75021 0.872594,-1.27915 0.487335,-0.52891 1.112643,-1.23893 1.38956,-1.57781 0.276917,-0.33888 0.605467,-0.65487 0.730092,-0.70222 0.124596,-0.0474 0.290923,-0.44213 0.369449,-0.87736 0.113538,-0.62892 0.07649,-0.94511 -0.180611,-1.54111 -0.438989,-1.01776 -0.298427,-1.50082 0.761103,-2.61573 1.546423,-1.62721 3.483255,-2.6206 4.302532,-2.2067 z"
       id="path1-0-8" />
    <path
       inkscape:original-d="M 0,0"
       inkscape:path-effect="#path-effect5"
       d="m 67.056301,163.67948 c -0.184444,-0.69804 -0.0066,-1.07107 0.612373,-1.28448 0.732114,-0.2524 1.136745,-0.58185 1.249812,-1.0176 0.08473,-0.32632 0.02624,-0.39457 -0.775224,-0.90497 -1.049212,-0.66813 -2.101536,-1.93975 -2.252042,-2.72131 -0.209206,-1.08663 0.379375,-1.73401 1.844357,-2.02859 1.130337,-0.22728 2.002092,-0.15957 3.587613,0.27864 0.6672,0.18441 1.309784,0.25909 1.427958,0.16595 0.118183,-0.0931 0.493567,-0.69216 0.834233,-1.33121 0.724746,-1.35958 0.977236,-1.59488 1.701333,-1.58547 0.486324,0.006 0.658212,0.14501 1.865693,1.50537 1.69395,1.90842 1.91202,2.30152 1.64517,2.96517 -0.20235,0.50326 -0.16968,0.58488 0.80761,2.01748 0.5602,0.82114 1.39729,1.887 1.8603,2.3685 0.46293,0.48157 0.92695,1.06581 1.03099,1.29847 0.22057,0.49169 -0.25216,1.67463 -0.86086,2.15435 -0.24432,0.19252 -0.41713,0.54466 -0.44938,0.91563 -0.0538,0.6187 -0.40443,1.02834 -0.92648,1.0824 -0.17032,0.0176 -0.6224,-0.29656 -1.06654,-0.74121 -0.96373,-0.96484 -1.41641,-1.04636 -2.56233,-0.46134 -1.843662,0.94123 -5.46735,0.75767 -6.736435,-0.34124 -0.248033,-0.21465 -0.702306,-0.46652 -1.009666,-0.5596 -0.633053,-0.1917 -1.678546,-1.20637 -1.828748,-1.77479 z"
       id="path5"
       transform="rotate(117.11884,19.401176,193.0374)" />
    <path
       style="fill:#f3f3f3;fill-opacity:1;stroke:#000000;stroke-width:1.565;stroke-dasharray:none;stroke-opacity:1"
       d="m 67.217931,160.15554 c -0.184444,-0.69804 -0.0066,-1.07107 0.612373,-1.28448 0.732114,-0.2524 1.136745,-0.58185 1.249812,-1.0176 0.08473,-0.32632 0.02624,-0.39457 -0.775224,-0.90497 -1.049212,-0.66813 -2.101536,-1.93975 -2.252042,-2.72131 -0.209206,-1.08663 0.379375,-1.73401 1.844357,-2.02859 1.130337,-0.22728 2.002092,-0.15957 3.587613,0.27864 0.6672,0.18441 1.309784,0.25909 1.427958,0.16595 0.118183,-0.0931 0.493567,-0.69216 0.834233,-1.33121 0.724746,-1.35958 0.977236,-1.59488 1.701333,-1.58547 0.486324,0.006 0.658212,0.14501 1.865693,1.50537 1.69395,1.90842 1.91202,2.30152 1.64517,2.96517 -0.20235,0.50326 -0.16968,0.58488 0.80761,2.01748 0.5602,0.82114 1.39729,1.887 1.8603,2.3685 0.46293,0.48157 0.92695,1.06581 1.03099,1.29847 0.22057,0.49169 -0.25216,1.67463 -0.86086,2.15435 -0.24432,0.19252 -0.41713,0.54466 -0.44938,0.91563 -0.0538,0.6187 -0.40443,1.02834 -0.92648,1.0824 -0.17032,0.0176 -0.6224,-0.29656 -1.06654,-0.74121 -0.96373,-0.96484 -1.41641,-1.04636 -2.56233,-0.46134 -1.843662,0.94123 -5.46735,0.75767 -6.736435,-0.34124 -0.248033,-0.21465 -0.702306,-0.46652 -1.009666,-0.5596 -0.633053,-0.1917 -1.678546,-1.20637 -1.828748,-1.77479 z"
       id="path1-6-9"
       transform="rotate(117.11884,18.404765,191.22602)" />
    <path
       style="fill:none;fill-opacity:1;fill-rule:nonzero;stroke:#000000;stroke-width:1.665;stroke-dasharray:none;stroke-opacity:1"
       d="m 40.239988,165.29505 c 0.01746,-0.22203 0.226129,-0.4352 0.590472,-0.60311 0.459402,-0.2117 0.525354,-0.30488 0.35687,-0.50434 -0.113609,-0.1346 -0.620914,-0.72479 -1.127254,-1.31162 -1.159691,-1.34406 -1.510283,-2.36874 -1.147149,-3.3527 0.371669,-1.00709 0.822023,-1.10198 2.653888,-0.55922 1.603517,0.47513 2.634418,0.52517 3.004992,0.14589 0.424834,-0.43482 0.574691,-1.02177 0.473401,-1.85401 -0.171908,-1.41249 0.872918,-2.09987 1.920725,-1.26364 1.581464,1.26213 3.299238,3.74744 3.585883,5.18809 0.219792,1.10464 0.661751,1.75444 1.511449,2.22231 0.356163,0.1961 0.683661,0.43488 0.72777,0.53061 0.0446,0.0955 0.325113,0.15664 0.624418,0.13539 0.299326,-0.0213 0.750715,0.0905 1.003111,0.24835 0.42121,0.26344 0.458286,0.34009 0.451289,0.93344 -0.0093,0.78628 -1.107443,3.38683 -1.508215,3.57153 -0.158717,0.0731 -0.840306,-0.0716 -1.514667,-0.3216 -0.674332,-0.25004 -1.568597,-0.55895 -1.98724,-0.68647 -0.418642,-0.12752 -0.835711,-0.3115 -0.926832,-0.40882 -0.09116,-0.0973 -0.519478,-0.10127 -0.951933,-0.009 -0.624935,0.13375 -0.903384,0.28807 -1.357144,0.7522 -0.774883,0.79253 -1.27514,0.8459 -2.708838,0.289 -2.092497,-0.81284 -3.746857,-2.22749 -3.675002,-3.14256 z"
       id="path1-0-8-8" />
    <path
       inkscape:original-d="M 0,0"
       inkscape:path-effect="#path-effect5-8"
       d="m 56.006628,146.69252 c -0.184444,-0.69804 -0.0066,-1.07107 0.612373,-1.28448 0.732114,-0.2524 1.136745,-0.58185 1.249812,-1.0176 0.08473,-0.32632 0.02624,-0.39457 -0.775224,-0.90497 -1.049212,-0.66813 -2.101536,-1.93975 -2.252042,-2.72131 -0.209206,-1.08663 0.379375,-1.73401 1.844357,-2.02859 1.130337,-0.22728 2.002092,-0.15957 3.587613,0.27864 0.6672,0.18441 1.309784,0.25909 1.427958,0.16595 0.118183,-0.0931 0.493567,-0.69216 0.834233,-1.33121 0.724746,-1.35958 0.977236,-1.59488 1.701333,-1.58547 0.486324,0.006 0.658212,0.14501 1.865693,1.50537 1.69395,1.90842 1.91202,2.30152 1.64517,2.96517 -0.20235,0.50326 -0.16968,0.58488 0.80761,2.01748 0.5602,0.82114 1.39729,1.887 1.8603,2.3685 0.46293,0.48157 0.92695,1.06581 1.03099,1.29847 0.22057,0.49169 -0.25216,1.67463 -0.86086,2.15435 -0.24432,0.19252 -0.41713,0.54466 -0.44938,0.91563 -0.0538,0.6187 -0.40443,1.02834 -0.92648,1.0824 -0.17032,0.0176 -0.6224,-0.29656 -1.06654,-0.74121 -0.96373,-0.96484 -1.41641,-1.04636 -2.56233,-0.46134 -1.843662,0.94123 -5.46735,0.75767 -6.736435,-0.34124 -0.248033,-0.21465 -0.702306,-0.46652 -1.009666,-0.5596 -0.633053,-0.1917 -1.678546,-1.20637 -1.828748,-1.77479 z"
       id="path5-0"
       transform="rotate(4.8057326,359.99338,-44.938851)" />
    <path
       style="fill:#f3f3f3;fill-opacity:1;stroke:#000000;stroke-width:1.565;stroke-dasharray:none;stroke-opacity:1"
       d="m 67.217931,160.15554 c -0.184444,-0.69804 -0.0066,-1.07107 0.612373,-1.28448 0.732114,-0.2524 1.136745,-0.58185 1.249812,-1.0176 0.08473,-0.32632 0.02624,-0.39457 -0.775224,-0.90497 -1.049212,-0.66813 -2.101536,-1.93975 -2.252042,-2.72131 -0.209206,-1.08663 0.379375,-1.73401 1.844357,-2.02859 1.130337,-0.22728 2.002092,-0.15957 3.587613,0.27864 0.6672,0.18441 1.309784,0.25909 1.427958,0.16595 0.118183,-0.0931 0.493567,-0.69216 0.834233,-1.33121 0.724746,-1.35958 0.977236,-1.59488 1.701333,-1.58547 0.486324,0.006 0.658212,0.14501 1.865693,1.50537 1.69395,1.90842 1.91202,2.30152 1.64517,2.96517 -0.20235,0.50326 -0.16968,0.58488 0.80761,2.01748 0.5602,0.82114 1.39729,1.887 1.8603,2.3685 0.46293,0.48157 0.92695,1.06581 1.03099,1.29847 0.22057,0.49169 -0.25216,1.67463 -0.86086,2.15435 -0.24432,0.19252 -0.41713,0.54466 -0.44938,0.91563 -0.0538,0.6187 -0.40443,1.02834 -0.92648,1.0824 -0.17032,0.0176 -0.6224,-0.29656 -1.06654,-0.74121 -0.96373,-0.96484 -1.41641,-1.04636 -2.56233,-0.46134 -1.843662,0.94123 -5.46735,0.75767 -6.736435,-0.34124 -0.248033,-0.21465 -0.702306,-0.46652 -1.009666,-0.5596 -0.633053,-0.1917 -1.678546,-1.20637 -1.828748,-1.77479 z"
       id="path1-6-9-4"
       transform="rotate(4.8057326,526.0162,-171.7944)" />
    <path
       style="fill:none;fill-opacity:1;fill-rule:nonzero;stroke:#000000;stroke-width:1.665;stroke-dasharray:none;stroke-opacity:1"
       d="m 1.497458,141.22509 c 0.01746,-0.22203 0.226129,-0.4352 0.590472,-0.60311 0.459402,-0.2117 0.525354,-0.30488 0.35687,-0.50434 -0.113609,-0.1346 -0.620914,-0.72479 -1.127254,-1.31162 -1.159691,-1.34406 -1.510283,-2.36874 -1.147149,-3.3527 0.371669,-1.00709 0.822023,-1.10198 2.653888,-0.55922 1.603517,0.47513 2.634418,0.52517 3.004992,0.14589 0.424834,-0.43482 0.574691,-1.02177 0.473401,-1.85401 -0.171908,-1.41249 0.872918,-2.09987 1.920725,-1.26364 1.581464,1.26213 3.299238,3.74744 3.585883,5.18809 0.219792,1.10464 0.661751,1.75444 1.511449,2.22231 0.356163,0.1961 0.683661,0.43488 0.72777,0.53061 0.0446,0.0955 0.325113,0.15664 0.624418,0.13539 0.299326,-0.0213 0.750715,0.0905 1.003111,0.24835 0.42121,0.26344 0.458286,0.34009 0.451289,0.93344 -0.0093,0.78628 -1.107443,3.38683 -1.508215,3.57153 -0.158717,0.0731 -0.840306,-0.0716 -1.514667,-0.3216 -0.674332,-0.25004 -1.568597,-0.55895 -1.98724,-0.68647 -0.418642,-0.12752 -0.835711,-0.3115 -0.926832,-0.40882 -0.09116,-0.0973 -0.519478,-0.10127 -0.951933,-0.009 -0.624935,0.13375 -0.903384,0.28807 -1.357144,0.7522 -0.774883,0.79253 -1.27514,0.8459 -2.708838,0.289 -2.092497,-0.81284 -3.746857,-2.22749 -3.675002,-3.14256 z"
       id="path1-0-8-8-1" />
    <path
       inkscape:original-d="M 0,0"
       inkscape:path-effect="#path-effect5-8-3"
       d="m 56.006628,146.69252 c -0.184444,-0.69804 -0.0066,-1.07107 0.612373,-1.28448 0.732114,-0.2524 1.136745,-0.58185 1.249812,-1.0176 0.08473,-0.32632 0.02624,-0.39457 -0.775224,-0.90497 -1.049212,-0.66813 -2.101536,-1.93975 -2.252042,-2.72131 -0.209206,-1.08663 0.379375,-1.73401 1.844357,-2.02859 1.130337,-0.22728 2.002092,-0.15957 3.587613,0.27864 0.6672,0.18441 1.309784,0.25909 1.427958,0.16595 0.118183,-0.0931 0.493567,-0.69216 0.834233,-1.33121 0.724746,-1.35958 0.977236,-1.59488 1.701333,-1.58547 0.486324,0.006 0.658212,0.14501 1.865693,1.50537 1.69395,1.90842 1.91202,2.30152 1.64517,2.96517 -0.20235,0.50326 -0.16968,0.58488 0.80761,2.01748 0.5602,0.82114 1.39729,1.887 1.8603,2.3685 0.46293,0.48157 0.92695,1.06581 1.03099,1.29847 0.22057,0.49169 -0.25216,1.67463 -0.86086,2.15435 -0.24432,0.19252 -0.41713,0.54466 -0.44938,0.91563 -0.0538,0.6187 -0.40443,1.02834 -0.92648,1.0824 -0.17032,0.0176 -0.6224,-0.29656 -1.06654,-0.74121 -0.96373,-0.96484 -1.41641,-1.04636 -2.56233,-0.46134 -1.843662,0.94123 -5.46735,0.75767 -6.736435,-0.34124 -0.248033,-0.21465 -0.702306,-0.46652 -1.009666,-0.5596 -0.633053,-0.1917 -1.678546,-1.20637 -1.828748,-1.77479 z"
       id="path5-0-5"
       transform="rotate(4.8057326,627.42507,-518.60624)" />
    <path
       style="fill:#f3f3f3;fill-opacity:1;stroke:#000000;stroke-width:1.565;stroke-dasharray:none;stroke-opacity:1"
       d="m 67.217931,160.15554 c -0.184444,-0.69804 -0.0066,-1.07107 0.612373,-1.28448 0.732114,-0.2524 1.136745,-0.58185 1.249812,-1.0176 0.08473,-0.32632 0.02624,-0.39457 -0.775224,-0.90497 -1.049212,-0.66813 -2.101536,-1.93975 -2.252042,-2.72131 -0.209206,-1.08663 0.379375,-1.73401 1.844357,-2.02859 1.130337,-0.22728 2.002092,-0.15957 3.587613,0.27864 0.6672,0.18441 1.309784,0.25909 1.427958,0.16595 0.118183,-0.0931 0.493567,-0.69216 0.834233,-1.33121 0.724746,-1.35958 0.977236,-1.59488 1.701333,-1.58547 0.486324,0.006 0.658212,0.14501 1.865693,1.50537 1.69395,1.90842 1.91202,2.30152 1.64517,2.96517 -0.20235,0.50326 -0.16968,0.58488 0.80761,2.01748 0.5602,0.82114 1.39729,1.887 1.8603,2.3685 0.46293,0.48157 0.92695,1.06581 1.03099,1.29847 0.22057,0.49169 -0.25216,1.67463 -0.86086,2.15435 -0.24432,0.19252 -0.41713,0.54466 -0.44938,0.91563 -0.0538,0.6187 -0.40443,1.02834 -0.92648,1.0824 -0.17032,0.0176 -0.6224,-0.29656 -1.06654,-0.74121 -0.96373,-0.96484 -1.41641,-1.04636 -2.56233,-0.46134 -1.843662,0.94123 -5.46735,0.75767 -6.736435,-0.34124 -0.248033,-0.21465 -0.702306,-0.46652 -1.009666,-0.5596 -0.633053,-0.1917 -1.678546,-1.20637 -1.828748,-1.77479 z"
       id="path1-6-9-4-3"
       transform="rotate(4.8057326,793.44789,-645.46179)" />
    <path
       style="fill:none;fill-opacity:1;fill-rule:nonzero;stroke:#000000;stroke-width:1.665;stroke-dasharray:none;stroke-opacity:1"
       d="m 72.049037,184.83971 c 0.198772,0.10045 1.059101,-0.45039 1.076105,-0.0496 0.02143,0.50538 0.04135,0.0656 1.073422,0.0267 0.827507,-0.0952 -0.57841,1.02047 0.156713,0.77484 1.683718,-0.56256 2.764787,-0.49786 3.537198,0.21166 0.790572,0.7262 1.264629,-0.22085 2.355377,1.34778 0.848731,1.22058 -0.04262,1.82536 0.167577,2.31219 0.240965,0.55811 0.614644,1.85016 0.298219,2.62653 -0.607575,1.49075 -1.275649,3.66686 -2.447086,4.31872 -1.768052,0.98386 -3.49315,2.65964 -4.950611,2.47669 -1.064132,-0.13358 -1.994256,-0.15814 -2.959677,-0.0641 -1.347671,0.13131 0.767081,-0.53798 -0.740423,-0.57476 -1.260036,0.29369 -0.845716,0.0351 -0.939698,0.32006 -0.09394,0.285 -0.863646,-0.41213 -1.105496,-0.23856 -0.403636,0.28965 -0.48862,0.29485 -1.034888,0.0631 -0.723886,-0.3071 -2.712771,-2.31039 -2.731484,-2.75128 -0.0074,-0.1746 -1.099419,-1.32758 -0.612082,-1.85652 0.487335,-0.52891 0.246583,-1.52762 0.5235,-1.8665 0.276917,-0.33888 -0.270857,-0.30442 0.276441,-1.81573 0.124596,-0.0474 0.497128,-0.35965 0.575654,-0.79488 0.484707,-1.28877 0.365177,-1.02759 1.262823,-1.62359 0.839482,-1.059 0.856321,-0.13986 1.915851,-1.25477 1.546423,-1.62721 3.483255,-2.00199 4.302532,-1.58809 z"
       id="path1-0-8-0"
       sodipodi:nodetypes="sscssssssssccssssscccsss" />
    <path
       inkscape:original-d="M 0,0"
       inkscape:path-effect="#path-effect5-2"
       d="m 47.812635,156.82072 c -0.184444,-0.69804 -0.0066,-1.07107 0.612373,-1.28448 0.732114,-0.2524 1.136745,-0.58185 1.249812,-1.0176 0.08473,-0.32632 0.02624,-0.39457 -0.775224,-0.90497 -1.049212,-0.66813 -2.101536,-1.93975 -2.252042,-2.72131 -0.209206,-1.08663 0.379375,-1.73401 1.844357,-2.02859 1.130337,-0.22728 2.002092,-0.15957 3.587613,0.27864 0.6672,0.18441 1.309784,0.25909 1.427958,0.16595 0.118183,-0.0931 0.493567,-0.69216 0.834233,-1.33121 0.724746,-1.35958 0.977236,-1.59488 1.701333,-1.58547 0.486324,0.006 0.658212,0.14501 1.865693,1.50537 1.69395,1.90842 1.91202,2.30152 1.64517,2.96517 -0.20235,0.50326 -0.16968,0.58488 0.80761,2.01748 0.5602,0.82114 1.39729,1.887 1.8603,2.3685 0.46293,0.48157 0.92695,1.06581 1.03099,1.29847 0.22057,0.49169 -0.25216,1.67463 -0.86086,2.15435 -0.24432,0.19252 -0.41713,0.54466 -0.44938,0.91563 -0.0538,0.6187 -0.40443,1.02834 -0.92648,1.0824 -0.17032,0.0176 -0.6224,-0.29656 -1.06654,-0.74121 -0.96373,-0.96484 -1.41641,-1.04636 -2.56233,-0.46134 -1.843662,0.94123 -5.46735,0.75767 -6.736435,-0.34124 -0.248033,-0.21465 -0.702306,-0.46652 -1.009666,-0.5596 -0.633053,-0.1917 -1.678546,-1.20637 -1.828748,-1.77479 z"
       id="path5-3"
       transform="rotate(117.11884,49.647247,198.21023)" />
    <path
       style="fill:#f3f3f3;fill-opacity:1;stroke:#000000;stroke-width:1.565;stroke-dasharray:none;stroke-opacity:1"
       d="m 67.217931,160.15554 c -0.184444,-0.69804 -0.0066,-1.07107 0.612373,-1.28448 0.732114,-0.2524 1.136745,-0.58185 1.249812,-1.0176 0.08473,-0.32632 0.02624,-0.39457 -0.775224,-0.90497 -1.049212,-0.66813 -2.101536,-1.93975 -2.252042,-2.72131 -0.209206,-1.08663 0.379375,-1.73401 1.844357,-2.02859 1.130337,-0.22728 2.002092,-0.15957 3.587613,0.27864 0.6672,0.18441 1.309784,0.25909 1.427958,0.16595 0.118183,-0.0931 0.493567,-0.69216 0.834233,-1.33121 0.724746,-1.35958 0.977236,-1.59488 1.701333,-1.58547 0.486324,0.006 0.658212,0.14501 1.865693,1.50537 1.69395,1.90842 1.91202,2.30152 1.64517,2.96517 -0.20235,0.50326 -0.16968,0.58488 0.80761,2.01748 0.5602,0.82114 1.39729,1.887 1.8603,2.3685 0.46293,0.48157 0.92695,1.06581 1.03099,1.29847 0.22057,0.49169 -0.25216,1.67463 -0.86086,2.15435 -0.24432,0.19252 -0.41713,0.54466 -0.44938,0.91563 -0.0538,0.6187 -0.40443,1.02834 -0.92648,1.0824 -0.17032,0.0176 -0.6224,-0.29656 -1.06654,-0.74121 -0.96373,-0.96484 -1.41641,-1.04636 -2.56233,-0.46134 -1.843662,0.94123 -5.46735,0.75767 -6.736435,-0.34124 -0.248033,-0.21465 -0.702306,-0.46652 -1.009666,-0.5596 -0.633053,-0.1917 -1.678546,-1.20637 -1.828748,-1.77479 z"
       id="path1-6-9-9"
       transform="rotate(117.11884,60.369307,193.94568)" />
    <path
       inkscape:original-d="M 0,0"
       inkscape:path-effect="#path-effect5-2-1"
       d="m 47.812635,156.82072 c -0.184444,-0.69804 -0.0066,-1.07107 0.612373,-1.28448 0.732114,-0.2524 1.136745,-0.58185 1.249812,-1.0176 0.08473,-0.32632 0.02624,-0.39457 -0.775224,-0.90497 -1.049212,-0.66813 -2.101536,-1.93975 -2.252042,-2.72131 -0.209206,-1.08663 0.379375,-1.73401 1.844357,-2.02859 1.130337,-0.22728 2.002092,-0.15957 3.587613,0.27864 0.6672,0.18441 1.309784,0.25909 1.427958,0.16595 0.118183,-0.0931 0.493567,-0.69216 0.834233,-1.33121 0.724746,-1.35958 0.977236,-1.59488 1.701333,-1.58547 0.486324,0.006 0.658212,0.14501 1.865693,1.50537 1.69395,1.90842 1.91202,2.30152 1.64517,2.96517 -0.20235,0.50326 -0.16968,0.58488 0.80761,2.01748 0.5602,0.82114 1.39729,1.887 1.8603,2.3685 0.46293,0.48157 0.92695,1.06581 1.03099,1.29847 0.22057,0.49169 -0.25216,1.67463 -0.86086,2.15435 -0.24432,0.19252 -0.41713,0.54466 -0.44938,0.91563 -0.0538,0.6187 -0.40443,1.02834 -0.92648,1.0824 -0.17032,0.0176 -0.6224,-0.29656 -1.06654,-0.74121 -0.96373,-0.96484 -1.41641,-1.04636 -2.56233,-0.46134 -1.843662,0.94123 -5.46735,0.75767 -6.736435,-0.34124 -0.248033,-0.21465 -0.702306,-0.46652 -1.009666,-0.5596 -0.633053,-0.1917 -1.678546,-1.20637 -1.828748,-1.77479 z"
       id="path5-3-3"
       transform="rotate(9.2516722,6.443678,341.13461)" />
    <path
       style="fill:#f3f3f3;fill-opacity:1;stroke:#000000;stroke-width:1.565;stroke-dasharray:none;stroke-opacity:1"
       d="m 67.217931,160.15554 c -0.184444,-0.69804 -0.0066,-1.07107 0.612373,-1.28448 0.732114,-0.2524 1.136745,-0.58185 1.249812,-1.0176 0.08473,-0.32632 0.02624,-0.39457 -0.775224,-0.90497 -1.049212,-0.66813 -2.101536,-1.93975 -2.252042,-2.72131 -0.209206,-1.08663 0.379375,-1.73401 1.844357,-2.02859 1.130337,-0.22728 2.002092,-0.15957 3.587613,0.27864 0.6672,0.18441 1.309784,0.25909 1.427958,0.16595 0.118183,-0.0931 0.493567,-0.69216 0.834233,-1.33121 0.724746,-1.35958 0.977236,-1.59488 1.701333,-1.58547 0.486324,0.006 0.658212,0.14501 1.865693,1.50537 1.69395,1.90842 1.91202,2.30152 1.64517,2.96517 -0.20235,0.50326 -0.16968,0.58488 0.80761,2.01748 0.5602,0.82114 1.39729,1.887 1.8603,2.3685 0.46293,0.48157 0.92695,1.06581 1.03099,1.29847 0.22057,0.49169 -0.25216,1.67463 -0.86086,2.15435 -0.24432,0.19252 -0.41713,0.54466 -0.44938,0.91563 -0.0538,0.6187 -0.40443,1.02834 -0.92648,1.0824 -0.17032,0.0176 -0.6224,-0.29656 -1.06654,-0.74121 -0.96373,-0.96484 -1.41641,-1.04636 -2.56233,-0.46134 -1.843662,0.94123 -5.46735,0.75767 -6.736435,-0.34124 -0.248033,-0.21465 -0.702306,-0.46652 -1.009666,-0.5596 -0.633053,-0.1917 -1.678546,-1.20637 -1.828748,-1.77479 z"
       id="path1-6-9-9-6"
       transform="rotate(9.2516722,36.754018,222.88589)" />
    <path
       inkscape:original-d="M 0,0"
       inkscape:path-effect="#path-effect2"
       d="M 0,0"
       id="path3" />
    <path
       style="fill:#000000"
       d="m 38.405366,150.62498 c -4.122142,-0.4783 -4.876272,-0.80564 -7.333334,-3.18319 l -2.738698,-2.65007 -7.159481,-0.24577 -7.15948,-0.24576 -1.980158,-2.31676 C 10.945129,140.70921 9.8479332,138.61667 9.5960031,137.33334 9.344073,136.05 8.58191,133.95445 7.9023076,132.67654 c -1.444273,-2.71576 -1.702636,-9.47041 -0.4023074,-10.51792 0.4583334,-0.36923 1.7772257,-0.87297 2.9308718,-1.11942 3.476201,-0.74263 4.475968,-2.44191 4.3996,-7.47789 -0.06378,-4.20616 -0.191109,-4.54006 -2.727756,-7.15337 -2.5587014,-2.63603 -3.0039067,-3.87906 -2.8431764,-7.93824 0.1064493,-2.688333 2.8144094,-5.136364 5.6817364,-5.136364 1.906162,0 2.677279,0.449164 4.19697,2.444675 1.023965,1.344571 2.920333,3.621443 4.214151,5.059719 l 2.352397,2.61504 1.615628,-1.30826 c 1.516524,-1.228 1.564544,-1.4668 0.782849,-3.893046 -0.458028,-1.421637 -0.893639,-5.284794 -0.968024,-8.584795 -0.15645,-6.940688 0.886345,-9.170494 4.817382,-10.300996 3.271374,-0.940794 5.37271,0.284096 7.37849,4.300996 1.38144,2.766558 1.664828,4.295454 1.666667,8.991774 l 0.0022,5.658441 2,0.38882 c 2.218675,0.431332 4.333334,-0.867079 4.333334,-2.660689 0,-0.594918 0.463549,-1.743479 1.030109,-2.552357 0.56656,-0.808878 1.209839,-2.98823 1.42951,-4.843005 0.348107,-2.939219 0.784387,-3.711196 3.397084,-6.010984 4.006328,-3.526511 6.860392,-3.775437 10.598338,-0.924367 2.031928,1.549827 2.211626,1.984865 2.211626,5.354216 0,2.316187 -0.471649,4.575651 -1.280172,6.13274 C 63.047892,96.421152 61.36718,106.17349 60.618369,117 c -0.329684,4.76667 -0.790914,9.41667 -1.024955,10.33334 -0.23404,0.91666 -0.509149,3.31666 -0.611352,5.33333 -0.555473,10.96054 -0.959989,12.90717 -3.153043,15.17319 -3.318674,3.42909 -6.916836,4.00424 -17.423653,2.78512 z m 12.626265,-5.60827 c 1.589072,-0.93125 2.974285,-2.31061 3.18011,-3.16666 0.20057,-0.83419 0.393541,-5.56671 0.428826,-10.51671 0.07828,-10.98202 1.012779,-22.35326 2.26139,-27.5173 0.922518,-3.81537 0.915725,-3.862676 -0.742029,-5.166665 -0.920189,-0.723821 -1.912785,-1.316039 -2.205768,-1.316039 -0.292983,0 -1.388349,1.275 -2.434146,2.833334 -2.515273,3.74799 -4.681731,4.77712 -8.112001,3.85344 -1.44129,-0.3881 -3.600161,-1.62075 -4.797491,-2.73922 -2.672639,-2.496621 -5.277188,-2.28361 -5.277188,0.43159 0,4.82985 -3.626856,7.34664 -9.525032,6.60971 -4.567048,-0.57062 -4.808301,-0.23932 -4.808301,6.60294 0,4.4945 -0.186949,5.36619 -1.28679,6 -0.707735,0.40785 -2.348445,1.68498 -3.646023,2.83806 -2.349838,2.08818 -2.356318,2.10941 -1.627189,5.33334 0.791734,3.50073 1.923421,6.92922 3.158948,9.57014 0.747095,1.59691 1.0882,1.68062 8.149294,2 6.66738,0.30157 7.621446,0.50802 10.013161,2.16667 1.45398,1.00833 3.377475,1.84604 4.274433,1.86158 0.896958,0.0155 3.280833,0.44002 5.2975,0.9433 4.887013,1.21961 4.503892,1.25054 7.698296,-0.62151 z M 17.333334,100.66667 c 0,-1.432947 -1.612578,-1.768702 -3.317285,-0.690693 -0.803509,0.508113 -0.681252,0.743013 0.666666,1.280863 2.384144,0.95135 2.650619,0.89201 2.650619,-0.59017 z M 35.225877,87.311646 c -0.379304,-1.088071 -1.090369,-1.97831 -1.580145,-1.97831 -1.129939,0 -1.54897,3.177634 -0.690373,5.235303 l 0.65454,1.568636 1.15281,-1.42366 c 0.930066,-1.148583 1.019558,-1.805906 0.463168,-3.401969 z m 24.728635,3.400513 c 2.679497,-2.679497 -0.76238,-7.084748 -3.657872,-4.681702 -0.973389,0.807841 -1.339335,4.704627 -0.518861,5.525101 0.849903,0.849903 2.896746,0.436589 4.176733,-0.843399 z M 31.067419,74.351597 c -2.16292,-0.889217 -4.24792,-1.932097 -4.633333,-2.31751 -1.063602,-1.063602 -2.777765,-0.846352 -5.36456,0.679895 -3.232222,1.907058 -5.670184,1.483105 -7.547991,-1.312569 C 12.129544,69.329022 12,68.39092 12,60.383084 c 0,-11.229465 0.404327,-12.014931 5.496234,-10.677266 1.927072,0.506249 5.059078,1.705349 6.960014,2.664666 3.117143,1.573082 3.640414,1.65637 5.333333,0.848895 1.460178,-0.696463 1.914999,-1.41253 2.047784,-3.224014 0.09388,-1.280783 0.807124,-4.787327 1.584978,-7.79232 1.892263,-7.310161 3.191201,-8.536377 9.042636,-8.536377 4.336821,0 4.36987,0.01428 6.944487,3 1.422811,1.65 2.58774,3.338267 2.588732,3.751703 9.92e-4,0.413437 0.379456,1.065128 0.841031,1.448201 0.611141,0.507202 1.549359,0.167011 3.452093,-1.251703 4.678743,-3.488558 8.16325,-2.326921 11.00488,3.668717 2.654029,5.599813 3.472468,9.075238 3.779605,16.049749 0.311754,7.079343 -0.719063,9.839162 -4.398737,11.776796 -1.977266,1.041184 -3.936907,1.223205 -13.169084,1.223205 -9.572469,0 -11.138287,0.156575 -13.333862,1.333333 -3.172562,1.700392 -4.299122,1.661415 -9.106705,-0.315072 z m 7.932582,-5.018261 c 1.787992,-1.184141 3.143777,-1.325014 12.789934,-1.328941 5.934464,-0.0024 11.580919,-0.305125 12.547678,-0.672686 L 66.095358,66.663416 65.71036,58.498375 C 65.395286,51.8163 65.053858,49.818734 63.830493,47.500001 c -0.896524,-1.699248 -1.966061,-2.833333 -2.672069,-2.833333 -0.64746,0 -2.603486,1.518994 -4.346725,3.375543 -2.918725,3.10844 -3.312154,3.321316 -4.971993,2.690246 -1.053596,-0.400576 -1.975867,-1.37618 -2.219827,-2.348197 -0.696187,-2.773829 -1.926023,-3.336226 -4.428526,-2.025138 -1.205243,0.63144 -3.208704,1.333954 -4.452135,1.561143 -2.365323,0.43217 -2.534241,0.63266 -4.461065,5.29484 -0.655051,1.584974 -1.926068,3.459974 -2.824483,4.166667 -2.352804,1.850716 -7.297915,1.714922 -10.930014,-0.300141 -2.096661,-1.163214 -3.256182,-1.43506 -4.356989,-1.021483 -1.38197,0.519211 -1.5,0.979294 -1.5,5.847045 0,6.165825 0.05545,6.216881 6.157947,5.670282 4.088503,-0.366206 5.41508,-0.06143 9.175387,2.107992 2.302884,1.328598 4.639681,1.211046 7,-0.352131 z m 4.806658,-27.532805 c 1.306925,-0.726402 1.380329,-1.005422 0.649923,-2.470471 -1.12893,-2.264406 -2.449976,-2.33922 -4.678432,-0.264947 -2.195276,2.043387 -1.668218,2.873783 2.221851,3.500597 0.183333,0.02954 0.99633,-0.314789 1.806658,-0.765179 z"
       id="path1"
       transform="matrix(-0.23520835,0.1211667,-0.1211667,-0.23520835,75.407411,25.197445)" />
    <path
       style="fill:#000000;stroke-width:0.264583"
       d="m 93.558864,6.7410887 c -0.73418,0.8164 -0.82652,1.013345 -0.89789,1.915147 l -0.0796,1.005172 -1.37754,1.3018873 -1.37754,1.301887 0.0126,0.806268 c 0.007,0.443457 0.15546,1.050692 0.33018,1.3494 0.17464,0.298728 0.3902,0.847921 0.47902,1.22043 0.18826,0.791764 1.31978,2.177093 1.76113,2.157338 0.15557,-0.007 0.50543,-0.137854 0.77746,-0.290877 0.81973,-0.461092 1.31552,-0.298919 2.18181,0.71367 0.72355,0.845732 0.75673,0.934269 0.71083,1.896779 -0.0463,0.97088 0.0829,1.295441 0.8253,2.072714 0.49166,0.514776 1.45743,0.526532 2.02635,0.02466 0.37822,-0.333636 0.45261,-0.557725 0.40486,-1.219656 -0.0322,-0.446013 -0.0544,-1.229697 -0.0494,-1.741533 l 0.009,-0.930607 0.54955,-0.0232 c 0.515826,-0.02178 0.567156,0.0172 0.836716,0.635423 0.15793,0.362251 0.74769,1.204999 1.31053,1.872792 1.18378,1.404527 1.78097,1.664436 2.75883,1.200695 0.81376,-0.38592 1.01631,-0.996754 0.7112,-2.144841 -0.21009,-0.790731 -0.4215,-1.143682 -1.24313,-2.075827 l -0.98996,-1.123112 0.32878,-0.427206 c 0.36472,-0.473918 1.01156,-0.586422 1.3255,-0.23054 0.10409,0.118054 0.39713,0.264799 0.65113,0.326129 0.254,0.0613 0.76308,0.381155 1.13131,0.71072 0.58351,0.522262 0.8052,0.599071 1.72613,0.598087 1.41217,-0.0015 2.02203,-0.451663 2.26467,-1.671617 0.13194,-0.663153 0.0914,-0.78093 -0.49833,-1.449462 -0.4054,-0.459569 -0.89444,-0.825331 -1.32741,-0.992766 -0.89531,-0.346243 -2.93574,-1.987087 -4.97929,-4.0041743 -0.89972,-0.888078 -1.80512,-1.729983 -2.01201,-1.870901 -0.20687,-0.14092 -0.68153,-0.568962 -1.05479,-0.951213 -2.028626,-2.077522 -2.449616,-2.392962 -3.281376,-2.458726 -1.25866,-0.09952 -2.07327,0.41615 -3.94461,2.497049 z m 3.48687,-1.097204 c 0.47829,-0.09336 0.99457,-0.06213 1.18524,0.0717 0.18581,0.13041 1.05243,1.035641 1.925826,2.011624 1.93772,2.165306 4.11344,4.2579763 5.26504,5.0640613 0.85085,0.595562 0.85778,0.606137 0.75709,1.155027 -0.0559,0.304673 -0.14917,0.595914 -0.20731,0.647196 -0.0581,0.05127 -0.49863,-0.01 -0.97888,-0.136133 -1.15509,-0.30341 -1.76507,-0.128413 -2.28402,0.65526 -0.21806,0.329275 -0.43066,0.951719 -0.47246,1.38321 -0.0933,0.96316 -0.64738,1.37677 -1.12262,0.83803 -0.84537,-0.958318 -2.005496,-0.822883 -3.046806,0.355693 -0.8063,0.91259 -0.91215,0.88908 -2.10976,-0.468534 -0.78667,-0.891781 -0.97634,-1.032015 -1.3055,-0.965269 -0.21181,0.04293 -0.76089,0.07672 -1.22017,0.07505 -0.83174,-0.003 -0.83674,-0.0061 -1.25635,-0.773413 -0.45565,-0.833177 -0.83119,-1.711522 -1.04828,-2.451778 -0.13125,-0.447621 -0.0782,-0.523936 1.26689,-1.823202 1.27013,-1.226828 1.42329,-1.4347793 1.60754,-2.1825033 0.112,-0.454558 0.34703,-0.957444 0.52228,-1.117521 0.17526,-0.160071 0.57396,-0.661552 0.886,-1.114387 0.7562,-1.097364 0.67476,-1.036442 1.63625,-1.224115 z m 1.0763,14.6979643 c 0.25081,0.284319 -0.0104,0.633188 -0.5373,0.717668 -0.24837,0.03981 -0.26523,-0.02818 -0.0923,-0.370735 0.30654,-0.606059 0.3698,-0.640926 0.62922,-0.346837 z m 5.887696,-0.481881 c 0.11518,0.282281 0.13,0.583356 0.0327,0.669102 -0.2242,0.197774 -0.86352,-0.359378 -1.05331,-0.917933 l -0.14471,-0.4258 0.47791,0.0807 c 0.38557,0.06511 0.51838,0.179867 0.68735,0.593937 z m 4.31136,-5.002964 c 1.00064,0.06266 1.08878,1.539164 0.0937,1.569159 -0.33453,0.01008 -1.0892,-0.699048 -1.07001,-1.005451 0.0199,-0.317391 0.49834,-0.593642 0.97635,-0.563708 z m -2.86807,8.302298 c -0.27352,0.555011 -0.50468,1.126871 -0.5137,1.270805 -0.0249,0.397197 -0.40302,0.654121 -1.18341,0.804054 -0.97511,0.187341 -1.38465,0.698182 -1.2679,1.581559 0.0865,0.654842 0.22498,0.863654 1.62663,2.452527 1.9655,2.228103 2.1832,2.313184 2.95939,1.156534 0.29375,-0.437743 0.70531,-1.223858 0.91458,-1.746922 0.34316,-0.857719 0.4324,-0.965831 0.90964,-1.101928 0.41162,-0.117388 0.6272,-0.05491 0.9706,0.281279 0.24281,0.237694 0.99807,0.80861 1.67838,1.268701 1.65496,1.119248 2.12731,1.135196 3.28832,0.111021 0.8605,-0.759072 0.86456,-0.767692 0.85281,-1.810741 -0.006,-0.576421 -0.0709,-1.115296 -0.14301,-1.197502 -0.0721,-0.08221 -0.11114,-0.277755 -0.0866,-0.434558 0.0324,-0.207594 0.27818,-0.30432 0.90403,-0.355861 1.53895,-0.126735 2.027,-0.967116 1.54141,-2.654114 -0.45354,-1.575625 -0.89944,-2.408459 -2.05925,-3.846071 -1.17724,-1.45922 -1.86482,-1.826388 -2.93407,-1.566793 -0.57456,0.139534 -0.99525,0.446372 -2.82705,2.062279 -1.89934,1.675469 -2.23743,1.918467 -2.87903,2.06927 -0.92711,0.21791 -1.14381,0.422825 -1.75177,1.656461 z m 2.4523,-0.392735 c 0.56202,-0.078 0.85569,-0.287348 2.77032,-1.974937 1.17792,-1.038233 2.35125,-1.966466 2.60741,-2.062748 l 0.46573,-0.175056 1.35274,1.68746 c 1.10704,1.380978 1.38893,1.837087 1.55204,2.511285 0.11929,0.494136 0.10583,0.906298 -0.0343,1.02987 -0.12847,0.113328 -0.78245,0.154297 -1.45328,0.09105 -1.12319,-0.105899 -1.23852,-0.07928 -1.4574,0.336466 -0.13894,0.263892 -0.15117,0.618892 -0.0294,0.854457 0.34737,0.672224 0.20177,0.999076 -0.52422,1.176943 -0.34968,0.08562 -0.87014,0.29694 -1.15663,0.469501 -0.54495,0.328252 -0.61356,0.318038 -1.8119,-0.269761 -0.40739,-0.19983 -0.98776,-0.349394 -1.28971,-0.332368 -0.79077,0.0446 -1.74819,0.937085 -2.11616,1.972632 -0.2124,0.597779 -0.3949,0.854669 -0.6857,0.965281 -0.36509,0.138864 -0.46904,0.06824 -1.32103,-0.897601 -1.07921,-1.223399 -1.07714,-1.243234 0.22936,-2.2029 0.87532,-0.642948 1.08519,-0.93561 1.45158,-2.024225 0.22439,-0.666689 0.70862,-1.052375 1.45055,-1.15534 z m 5.77277,4.62164 c 0.38646,-0.08462 0.44987,-0.04211 0.56137,0.376423 0.17236,0.646885 -0.0767,0.892958 -0.88191,0.871436 -0.79323,-0.0212 -0.83399,-0.278214 -0.17189,-1.083457 0.0312,-0.03795 0.25279,-0.111931 0.4924,-0.164397 z"
       id="path1-6" />
    <path
       style="fill:#000000;stroke-width:0.264583"
       d="m 81.049054,48.493738 c 1.027517,-0.386966 1.244557,-0.401348 2.110558,-0.139843 l 0.965265,0.29148 1.713749,-0.809684 1.713748,-0.809685 0.746463,0.304992 c 0.410556,0.167746 0.922171,0.526985 1.136924,0.79831 0.214754,0.271326 0.647932,0.671869 0.962621,0.890098 0.668764,0.463772 1.547972,2.021217 1.369047,2.425157 -0.06307,0.142381 -0.312243,0.42067 -0.553729,0.618421 -0.727649,0.595872 -0.756906,1.116696 -0.128751,2.291947 0.524648,0.981596 0.595054,1.044704 1.508341,1.352019 0.921227,0.309987 1.176557,0.548414 1.630589,1.522642 0.300699,0.645217 -0.03962,1.549129 -0.714035,1.896553 -0.448345,0.230964 -0.684142,0.21875 -1.283376,-0.06648 -0.403762,-0.192184 -1.125685,-0.497946 -1.604273,-0.679473 l -0.870159,-0.330047 -0.221492,0.503474 c -0.207906,0.472588 -0.190266,0.534574 0.287575,1.010532 0.279987,0.278883 0.850533,1.134748 1.267879,1.901923 0.877779,1.613551 0.902683,2.264372 0.115049,3.006587 -0.655461,0.617664 -1.298129,0.584171 -2.25662,-0.117603 -0.660141,-0.483333 -0.912047,-0.808605 -1.481517,-1.912996 l -0.686132,-1.330646 -0.517529,0.15088 c -0.574114,0.167376 -0.914175,0.729 -0.69685,1.150872 0.07209,0.139929 0.102221,0.466247 0.06697,0.72515 -0.03525,0.258903 0.07751,0.849449 0.250578,1.312324 0.274258,0.733508 0.265179,0.967946 -0.07069,1.825448 -0.515026,1.314898 -1.156165,1.719265 -2.380815,1.501584 -0.665714,-0.11833 -0.760693,-0.198881 -1.168946,-0.991381 -0.280645,-0.544786 -0.443481,-1.133379 -0.441977,-1.597586 0.0031,-0.959927 -0.783235,-3.457405 -1.91892,-6.094621 -0.500018,-1.161108 -0.954958,-2.310712 -1.010979,-2.554678 -0.05602,-0.243964 -0.282113,-0.841799 -0.502427,-1.32852 -1.197401,-2.645315 -1.338122,-3.152193 -1.096863,-3.950905 0.365088,-1.208663 1.141717,-1.77992 3.760724,-2.76625 z m -2.290267,2.848995 c -0.260926,0.411581 -0.419608,0.903859 -0.364295,1.130149 0.0539,0.22051 0.581936,1.35702 1.173412,2.525577 1.312243,2.592548 2.470257,5.380388 2.802283,6.746304 0.245311,1.009185 0.252641,1.019489 0.800559,1.125333 0.304139,0.05875 0.609363,0.07778 0.678275,0.04228 0.06891,-0.0355 0.172064,-0.468112 0.229226,-0.961361 0.137481,-1.186326 0.522354,-1.690889 1.441101,-1.889266 0.386029,-0.08335 1.043169,-0.055 1.460313,0.06299 0.931134,0.263391 1.517936,-0.102296 1.188944,-0.740934 -0.585217,-1.136021 -0.0371,-2.167445 1.43949,-2.708775 1.143348,-0.41916 1.15995,-0.526316 0.330896,-2.135673 -0.544583,-1.057144 -0.606231,-1.284824 -0.424336,-1.567166 0.117047,-0.181684 0.34821,-0.680875 0.513697,-1.109312 0.299683,-0.775879 0.298635,-0.781658 -0.263495,-1.451607 -0.610395,-0.727469 -1.291996,-1.396756 -1.902593,-1.868218 -0.369216,-0.285083 -0.459589,-0.263442 -2.159116,0.517007 -1.604763,0.736932 -1.854183,0.803975 -2.617707,0.703642 -0.464164,-0.06099 -1.018089,-0.02497 -1.230944,0.08006 -0.21285,0.105036 -0.824995,0.294032 -1.360313,0.420009 -1.297242,0.305281 -1.210877,0.251584 -1.735397,1.078961 z m 13.299869,6.348389 c 0.173625,0.337041 0.5936,0.220622 0.863942,-0.239488 0.127426,-0.216871 0.07021,-0.257308 -0.312003,-0.220492 -0.676043,0.06511 -0.73153,0.111358 -0.551939,0.45998 z m -2.590291,5.309193 c 0.221053,0.209964 0.496169,0.333199 0.611368,0.273854 0.265771,-0.136911 -0.02069,-0.935089 -0.471963,-1.315037 l -0.344019,-0.289648 -0.09865,0.474539 c -0.07959,0.382849 -0.02099,0.548301 0.303264,0.856292 z m -6.228411,2.196458 c -0.305574,0.954906 1.037754,1.574017 1.427629,0.657963 0.131065,-0.307953 -0.255022,-1.26885 -0.547418,-1.362418 -0.302884,-0.09692 -0.734239,0.248299 -0.880211,0.704455 z m 8.776841,0.347987 c 0.61648,-0.05292 1.233252,-0.06026 1.370604,-0.01631 0.379041,0.121295 0.755903,-0.137503 1.179408,-0.809923 0.529174,-0.840193 1.153972,-1.035876 1.93439,-0.605838 0.578513,0.318781 0.72265,0.523734 1.692933,2.407244 1.360637,2.641264 1.360708,2.875003 9.69e-4,3.177342 -0.514604,0.114423 -1.396569,0.21188 -1.959922,0.216571 -0.923784,0.0077 -1.056953,0.0515 -1.357303,0.446555 -0.259058,0.340739 -0.279272,0.564273 -0.09101,1.006438 0.133106,0.312626 0.390222,1.223816 0.571369,2.024865 0.440672,1.948691 0.283728,2.394495 -1.092579,3.103494 -1.020056,0.525478 -1.02956,0.526124 -1.996901,0.135815 -0.534582,-0.215696 -1.013145,-0.47164 -1.063473,-0.568763 -0.05033,-0.09712 -0.218309,-0.20455 -0.373291,-0.238724 -0.205202,-0.04525 -0.384659,0.148448 -0.660297,0.712689 -0.677782,1.387446 -1.638119,1.536426 -3.032966,0.470513 -1.30276,-0.995543 -1.91637,-1.713825 -2.833689,-3.317073 -0.931108,-1.627347 -1.02305,-2.40138 -0.392336,-3.302981 0.338912,-0.484474 0.777781,-0.76473 2.949267,-1.883363 2.251524,-1.159864 2.600846,-1.386417 2.97468,-1.929231 0.540182,-0.784355 0.809881,-0.911689 2.180149,-1.029322 z m -1.257763,2.141502 c -0.277073,0.495165 -0.578895,0.692575 -2.847276,1.862292 -1.395545,0.719624 -2.686958,1.47499 -2.869812,1.678582 l -0.332461,0.370168 1.079886,1.873837 c 0.883753,1.533504 1.206098,1.961978 1.774797,2.359132 0.416762,0.291049 0.805739,0.428203 0.971798,0.342658 0.152288,-0.07845 0.42831,-0.672736 0.613383,-1.320634 0.309869,-1.084783 0.376613,-1.182524 0.843486,-1.235208 0.296351,-0.03344 0.631487,0.08428 0.806645,0.283346 0.499845,0.568073 0.857256,0.551338 1.287006,-0.06026 0.206973,-0.294556 0.593083,-0.702546 0.85802,-0.906645 0.503979,-0.388248 0.519418,-0.455872 0.407722,-1.785923 -0.03797,-0.452169 0.03379,-1.04719 0.159481,-1.322268 0.329154,-0.720385 1.508739,-1.287628 2.607197,-1.253758 0.634095,0.01955 0.939763,-0.057 1.14857,-0.287661 0.26214,-0.289571 0.234155,-0.412088 -0.355655,-1.557024 -0.747092,-1.450253 -0.766321,-1.455543 -2.135449,-0.587559 -0.917279,0.581525 -1.266229,0.670576 -2.413547,0.615934 -0.702639,-0.03346 -1.23803,0.277327 -1.603791,0.930991 z m 2.205493,7.058352 c -0.219384,0.329212 -0.202842,0.403734 0.146471,0.659825 0.539904,0.395818 0.859691,0.253348 1.132509,-0.504553 0.268757,-0.746616 0.04417,-0.87807 -0.946754,-0.554155 -0.0467,0.01527 -0.196203,0.194763 -0.332226,0.398883 z"
       id="path1-7" />
    <path
       style="fill:#000000;stroke-width:0.264583"
       d="m 102.15254,75.816598 c 1.02752,-0.386966 1.24456,-0.401348 2.11056,-0.139843 l 0.96526,0.29148 1.71375,-0.809684 1.71375,-0.809685 0.74646,0.304992 c 0.41056,0.167746 0.92218,0.526985 1.13693,0.79831 0.21475,0.271326 0.64793,0.671869 0.96262,0.890098 0.66876,0.463772 1.54797,2.021217 1.36905,2.425157 -0.0631,0.142381 -0.31225,0.42067 -0.55373,0.618421 -0.72765,0.595872 -0.75691,1.116696 -0.12875,2.291947 0.52464,0.981596 0.59505,1.044704 1.50834,1.352019 0.92122,0.309987 1.17655,0.548414 1.63059,1.522642 0.30069,0.645217 -0.0396,1.549129 -0.71404,1.896553 -0.44834,0.230964 -0.68414,0.21875 -1.28338,-0.06648 -0.40376,-0.192184 -1.12568,-0.497946 -1.60427,-0.679473 l -0.87016,-0.330047 -0.22149,0.503474 c -0.2079,0.472588 -0.19026,0.534574 0.28758,1.010532 0.27998,0.278883 0.85053,1.134748 1.26787,1.901923 0.87778,1.613551 0.90269,2.264372 0.11505,3.006587 -0.65546,0.617664 -1.29813,0.584171 -2.25662,-0.117603 -0.66014,-0.483333 -0.91204,-0.808605 -1.48151,-1.912996 l -0.68614,-1.330646 -0.51752,0.15088 c -0.57412,0.167376 -0.91418,0.729 -0.69685,1.150872 0.0721,0.139929 0.10222,0.466247 0.067,0.72515 -0.0353,0.258903 0.0775,0.849449 0.25057,1.312324 0.27426,0.733508 0.26518,0.967946 -0.0707,1.825448 -0.51502,1.314898 -1.15616,1.719265 -2.38081,1.501584 -0.66571,-0.11833 -0.76069,-0.198881 -1.16895,-0.991381 -0.28064,-0.544786 -0.44348,-1.133379 -0.44197,-1.597586 0.003,-0.959927 -0.78324,-3.457405 -1.91892,-6.094621 -0.50002,-1.161108 -0.95496,-2.310712 -1.010981,-2.554678 -0.056,-0.243964 -0.28212,-0.841799 -0.50243,-1.32852 -1.197401,-2.645315 -1.338122,-3.152193 -1.096863,-3.950905 0.365088,-1.208663 1.141713,-1.77992 3.760724,-2.76625 z m -2.290271,2.848995 c -0.26092,0.411581 -0.4196,0.903859 -0.36429,1.130149 0.0539,0.22051 0.581941,1.35702 1.173411,2.525577 1.31224,2.592548 2.47026,5.380388 2.80228,6.746304 0.24532,1.009185 0.25265,1.019489 0.80056,1.125333 0.30414,0.05875 0.60937,0.07778 0.67828,0.04228 0.0689,-0.0355 0.17206,-0.468112 0.22922,-0.961361 0.13749,-1.186326 0.52236,-1.690889 1.44111,-1.889266 0.38602,-0.08335 1.04316,-0.055 1.46031,0.06299 0.93113,0.263391 1.51793,-0.102296 1.18894,-0.740934 -0.58521,-1.136021 -0.0371,-2.167445 1.43949,-2.708775 1.14335,-0.41916 1.15995,-0.526316 0.3309,-2.135673 -0.54458,-1.057144 -0.60623,-1.284824 -0.42434,-1.567166 0.11705,-0.181684 0.34821,-0.680875 0.5137,-1.109312 0.29968,-0.775879 0.29863,-0.781658 -0.2635,-1.451607 -0.61039,-0.727469 -1.29199,-1.396756 -1.90259,-1.868218 -0.36921,-0.285083 -0.45959,-0.263442 -2.15911,0.517007 -1.60477,0.736932 -1.85419,0.803975 -2.61771,0.703642 -0.46417,-0.06099 -1.01809,-0.02497 -1.23095,0.08006 -0.21285,0.105036 -0.82499,0.294032 -1.36031,0.420009 -1.29724,0.305281 -1.21088,0.251584 -1.735401,1.078961 z m 13.299871,6.348389 c 0.17363,0.337041 0.5936,0.220622 0.86394,-0.239488 0.12743,-0.216871 0.0702,-0.257308 -0.312,-0.220492 -0.67604,0.06511 -0.73153,0.111358 -0.55194,0.45998 z m -2.59029,5.309193 c 0.22106,0.209964 0.49617,0.333199 0.61137,0.273854 0.26577,-0.136911 -0.0207,-0.935089 -0.47196,-1.315037 l -0.34402,-0.289648 -0.0986,0.474539 c -0.0796,0.382849 -0.021,0.548301 0.30326,0.856292 z m -6.22841,2.196458 c -0.30557,0.954906 1.03776,1.574017 1.42763,0.657963 0.13107,-0.307953 -0.25502,-1.26885 -0.54742,-1.362418 -0.30288,-0.09692 -0.73424,0.248299 -0.88021,0.704455 z m 8.77684,0.347987 c 0.61648,-0.05292 1.23325,-0.06026 1.37061,-0.01631 0.37904,0.121295 0.7559,-0.137503 1.1794,-0.809923 0.52918,-0.840193 1.15398,-1.035876 1.93439,-0.605838 0.57852,0.318781 0.72265,0.523734 1.69294,2.407244 1.36063,2.641264 1.36071,2.875003 9.7e-4,3.177342 -0.51461,0.114423 -1.39657,0.21188 -1.95993,0.216571 -0.92378,0.0077 -1.05695,0.0515 -1.3573,0.446551 -0.25906,0.34074 -0.27927,0.56428 -0.091,1.00644 0.13311,0.31263 0.39022,1.22382 0.57137,2.024873 0.44067,1.94869 0.28373,2.39449 -1.09258,3.10349 -1.02005,0.52548 -1.02956,0.52613 -1.9969,0.13582 -0.53458,-0.2157 -1.01314,-0.47164 -1.06347,-0.56877 -0.0503,-0.0971 -0.21831,-0.20455 -0.37329,-0.23872 -0.20521,-0.0452 -0.38466,0.14845 -0.6603,0.71269 -0.67778,1.38744 -1.63812,1.53642 -3.03297,0.47051 -1.30276,-0.99554 -1.91637,-1.71382 -2.83369,-3.31707 -0.9311,-1.627353 -1.02305,-2.401383 -0.39233,-3.302983 0.33891,-0.484477 0.77778,-0.764733 2.94927,-1.883366 2.25152,-1.159864 2.60084,-1.386417 2.97468,-1.929231 0.54018,-0.784355 0.80988,-0.911689 2.18014,-1.029322 z m -1.25776,2.141502 c -0.27707,0.495165 -0.5789,0.692575 -2.84728,1.862292 -1.39554,0.719623 -2.68695,1.474993 -2.86981,1.678583 l -0.33246,0.37017 1.07989,1.873833 c 0.88375,1.53351 1.20609,1.96198 1.77479,2.35914 0.41677,0.29105 0.80574,0.4282 0.9718,0.34265 0.15229,-0.0785 0.42831,-0.67273 0.61338,-1.32063 0.30987,-1.08478 0.37662,-1.18252 0.84349,-1.23521 0.29635,-0.0334 0.63149,0.0843 0.80665,0.28335 0.49984,0.56807 0.85725,0.55134 1.287,-0.0603 0.20697,-0.29456 0.59308,-0.70255 0.85802,-0.90665 0.50398,-0.388243 0.51942,-0.455873 0.40772,-1.785923 -0.038,-0.45217 0.0338,-1.04719 0.15948,-1.322268 0.32916,-0.720385 1.50874,-1.287628 2.6072,-1.253758 0.6341,0.01955 0.93976,-0.057 1.14857,-0.287661 0.26214,-0.289571 0.23416,-0.412088 -0.35565,-1.557024 -0.7471,-1.450253 -0.76632,-1.455543 -2.13545,-0.587559 -0.91728,0.581525 -1.26623,0.670576 -2.41355,0.615934 -0.70264,-0.03346 -1.23803,0.277327 -1.60379,0.930991 z m 2.20549,7.058358 c -0.21938,0.32921 -0.20284,0.40373 0.14647,0.65982 0.53991,0.39582 0.85969,0.25335 1.13251,-0.50455 0.26876,-0.74662 0.0442,-0.87807 -0.94675,-0.55416 -0.0467,0.0153 -0.1962,0.19477 -0.33223,0.39889 z"
       id="path1-7-8" />
    <path
       style="fill:#000000;stroke-width:0.264583"
       d="m 126.4845,60.812184 c -0.73418,0.8164 -0.82652,1.013345 -0.89789,1.915147 l -0.0796,1.005172 -1.37754,1.301887 -1.37754,1.301887 0.0126,0.806268 c 0.007,0.443457 0.15546,1.050692 0.33018,1.3494 0.17464,0.298728 0.3902,0.847921 0.47902,1.22043 0.18826,0.791764 1.31978,2.177093 1.76113,2.157338 0.15557,-0.007 0.50543,-0.137854 0.77746,-0.290877 0.81973,-0.461092 1.31552,-0.298919 2.18181,0.71367 0.72355,0.845732 0.75673,0.934269 0.71083,1.896779 -0.0463,0.97088 0.0829,1.295441 0.8253,2.072714 0.49166,0.514776 1.45743,0.526532 2.02635,0.02466 0.37822,-0.333636 0.45261,-0.557725 0.40486,-1.219656 -0.0322,-0.446013 -0.0544,-1.229697 -0.0494,-1.741533 l 0.009,-0.930607 0.54955,-0.0232 c 0.51582,-0.02178 0.56715,0.0172 0.83671,0.635423 0.15793,0.362251 0.74769,1.204999 1.31053,1.872792 1.18378,1.404527 1.78097,1.664436 2.75883,1.200695 0.81376,-0.38592 1.01631,-0.996754 0.7112,-2.144841 -0.21009,-0.790731 -0.4215,-1.143682 -1.24313,-2.075827 l -0.98996,-1.123112 0.32878,-0.427206 c 0.36472,-0.473918 1.01156,-0.586422 1.3255,-0.23054 0.10409,0.118054 0.39713,0.264799 0.65113,0.326129 0.254,0.0613 0.76308,0.381155 1.13131,0.71072 0.58351,0.522262 0.8052,0.599071 1.72613,0.598087 1.41217,-0.0015 2.02203,-0.451663 2.26467,-1.671617 0.13194,-0.663153 0.0914,-0.78093 -0.49833,-1.449462 -0.4054,-0.459569 -0.89444,-0.825331 -1.32741,-0.992766 -0.89531,-0.346243 -2.93574,-1.987087 -4.97929,-4.004174 -0.89972,-0.888078 -1.80512,-1.729983 -2.01201,-1.870901 -0.20687,-0.14092 -0.68153,-0.568962 -1.05479,-0.951213 -2.02862,-2.077522 -2.44961,-2.392962 -3.28137,-2.458726 -1.25866,-0.09952 -2.07327,0.41615 -3.94461,2.497049 z m 3.48687,-1.097204 c 0.47829,-0.09336 0.99457,-0.06213 1.18524,0.0717 0.18581,0.13041 1.05243,1.035641 1.92582,2.011624 1.93772,2.165306 4.11344,4.257976 5.26504,5.064061 0.85085,0.595562 0.85778,0.606137 0.75709,1.155027 -0.0559,0.304673 -0.14917,0.595914 -0.20731,0.647196 -0.0581,0.05127 -0.49863,-0.01 -0.97888,-0.136133 -1.15509,-0.30341 -1.76507,-0.128413 -2.28402,0.65526 -0.21806,0.329275 -0.43066,0.951719 -0.47246,1.38321 -0.0933,0.96316 -0.64738,1.37677 -1.12262,0.83803 -0.84537,-0.958318 -2.00549,-0.822883 -3.0468,0.355693 -0.8063,0.91259 -0.91215,0.88908 -2.10976,-0.468534 -0.78667,-0.891781 -0.97634,-1.032015 -1.3055,-0.965269 -0.21181,0.04293 -0.76089,0.07672 -1.22017,0.07505 -0.83174,-0.003 -0.83674,-0.0061 -1.25635,-0.773413 -0.45565,-0.833177 -0.83119,-1.711522 -1.04828,-2.451778 -0.13125,-0.447621 -0.0782,-0.523936 1.26689,-1.823202 1.27013,-1.226828 1.42329,-1.434779 1.60754,-2.182503 0.112,-0.454558 0.34703,-0.957444 0.52228,-1.117521 0.17526,-0.160071 0.57396,-0.661552 0.886,-1.114387 0.7562,-1.097364 0.67476,-1.036442 1.63625,-1.224115 z m 1.0763,14.697964 c 0.25081,0.284319 -0.0104,0.633188 -0.5373,0.717668 -0.24837,0.03981 -0.26523,-0.02818 -0.0923,-0.370735 0.30654,-0.606059 0.3698,-0.640926 0.62922,-0.346837 z m 5.88769,-0.481881 c 0.11518,0.282281 0.13,0.583356 0.0327,0.669102 -0.2242,0.197774 -0.86352,-0.359378 -1.05331,-0.917933 l -0.14471,-0.4258 0.47791,0.0807 c 0.38557,0.06511 0.51838,0.179867 0.68735,0.593937 z m 4.31136,-5.002964 c 1.00064,0.06266 1.08878,1.539164 0.0937,1.569159 -0.33453,0.01008 -1.0892,-0.699048 -1.07001,-1.005451 0.0199,-0.317391 0.49834,-0.593642 0.97635,-0.563708 z m -2.86807,8.302298 c -0.27352,0.555011 -0.50468,1.126871 -0.5137,1.270805 -0.0249,0.397197 -0.40302,0.654121 -1.18341,0.804054 -0.97511,0.187341 -1.38465,0.698182 -1.2679,1.581559 0.0865,0.654842 0.22498,0.863654 1.62663,2.452527 1.9655,2.228103 2.1832,2.313184 2.95939,1.156534 0.29375,-0.437743 0.70531,-1.223858 0.91458,-1.746922 0.34316,-0.857719 0.4324,-0.965831 0.90964,-1.101928 0.41162,-0.117388 0.6272,-0.05491 0.9706,0.281279 0.24281,0.237694 0.99807,0.80861 1.67838,1.268701 1.65496,1.119248 2.12731,1.135196 3.28832,0.111021 0.8605,-0.759072 0.86456,-0.767692 0.85281,-1.810741 -0.006,-0.576421 -0.0709,-1.115296 -0.14301,-1.197502 -0.0721,-0.08221 -0.11114,-0.277755 -0.0866,-0.434558 0.0324,-0.207594 0.27818,-0.30432 0.90403,-0.355861 1.53895,-0.126735 2.027,-0.967116 1.54141,-2.654114 -0.45354,-1.575625 -0.89944,-2.408459 -2.05925,-3.846071 -1.17724,-1.45922 -1.86482,-1.826388 -2.93407,-1.566793 -0.57456,0.139534 -0.99525,0.446372 -2.82705,2.062279 -1.89934,1.675469 -2.23743,1.918467 -2.87903,2.06927 -0.92711,0.21791 -1.14381,0.422825 -1.75177,1.656461 z m 2.4523,-0.392735 c 0.56202,-0.078 0.85569,-0.287348 2.77032,-1.974937 1.17792,-1.038233 2.35125,-1.966466 2.60741,-2.062748 l 0.46573,-0.175056 1.35274,1.68746 c 1.10704,1.380978 1.38893,1.837087 1.55204,2.511285 0.11929,0.494136 0.10583,0.906298 -0.0343,1.02987 -0.12847,0.113328 -0.78245,0.154297 -1.45328,0.09105 -1.12319,-0.105899 -1.23852,-0.07928 -1.4574,0.336466 -0.13894,0.263892 -0.15117,0.618892 -0.0294,0.854457 0.34737,0.672224 0.20177,0.999076 -0.52422,1.176943 -0.34968,0.08562 -0.87014,0.29694 -1.15663,0.469501 -0.54495,0.328252 -0.61356,0.318038 -1.8119,-0.269761 -0.40739,-0.19983 -0.98776,-0.349394 -1.28971,-0.332368 -0.79077,0.0446 -1.74819,0.937085 -2.11616,1.972632 -0.2124,0.597779 -0.3949,0.854669 -0.6857,0.965281 -0.36509,0.138864 -0.46904,0.06824 -1.32103,-0.897601 -1.07921,-1.223399 -1.07714,-1.243234 0.22936,-2.2029 0.87532,-0.642948 1.08519,-0.93561 1.45158,-2.024225 0.22439,-0.666689 0.70862,-1.052375 1.45055,-1.15534 z m 5.77277,4.62164 c 0.38646,-0.08462 0.44987,-0.04211 0.56137,0.376423 0.17236,0.646885 -0.0767,0.892958 -0.88191,0.871436 -0.79323,-0.0212 -0.83399,-0.278214 -0.17189,-1.083457 0.0312,-0.03795 0.25279,-0.111931 0.4924,-0.164397 z"
       id="path1-6-5" />
    <path
       style="fill:#000000;stroke-width:0.264583"
       d="m 129.24309,97.681554 c -0.64919,-0.88549 -0.72144,-1.09066 -0.70261,-1.99508 l 0.021,-1.00809 -1.24097,-1.43266 -1.24097,-1.43266 0.0929,-0.801 c 0.0511,-0.44056 0.2594,-1.02997 0.46293,-1.30981 0.20353,-0.27984 0.47274,-0.80483 0.59824,-1.16663 0.26671,-0.76889 1.53012,-2.03477 1.96731,-1.97114 0.15411,0.0225 0.48917,0.18753 0.74461,0.36689 0.76969,0.54047 1.27918,0.42851 2.24206,-0.49274 0.80421,-0.76942 0.84604,-0.85422 0.89626,-1.81651 0.0507,-0.97066 0.21159,-1.28073 1.02771,-1.98018 0.5405,-0.46322 1.50265,-0.37872 2.01874,0.17736 0.34308,0.36965 0.39477,0.60004 0.28129,1.25394 -0.0764,0.44058 -0.17667,1.21815 -0.22271,1.72793 l -0.0837,0.92688 0.5445,0.0778 c 0.5111,0.0731 0.56605,0.0394 0.89588,-0.5489 0.19325,-0.34469 0.86401,-1.1245 1.49059,-1.73289 1.31784,-1.27959 1.93795,-1.47871 2.86474,-0.91985 0.77125,0.46508 0.91193,1.09306 0.49396,2.20503 -0.28787,0.76585 -0.53336,1.09599 -1.44377,1.94163 l -1.09694,1.0189 0.28458,0.45783 c 0.31569,0.5079 0.94811,0.6843 1.29593,0.36146 0.11537,-0.10709 0.42155,-0.22391 0.68038,-0.25966 0.25886,-0.0357 0.79726,-0.30322 1.1965,-0.59446 0.63264,-0.46152 0.86088,-0.51586 1.77713,-0.42312 1.40499,0.1422 1.96697,0.65088 2.08686,1.88893 0.0652,0.673 0.0131,0.78615 -0.64026,1.39261 -0.44918,0.41688 -0.97224,0.7321 -1.41974,0.85556 -0.92533,0.25542 -3.11911,1.6847 -5.35346,3.48814 -0.98373,0.79402 -1.96851,1.54153 -2.1884,1.66113 -0.21989,0.11958 -0.73484,0.49824 -1.14432,0.84139 -2.22553,1.865056 -2.67585,2.136986 -3.51002,2.119546 -1.26233,-0.0264 -2.02149,-0.620636 -3.67619,-2.877626 z m 3.3602,1.43916 c 0.46661,0.14054 0.98343,0.1609 1.18649,0.0467 0.19788,-0.11125 1.15037,-0.92564 2.11666,-1.80974 2.14382,-1.96146 4.51722,-3.82695 5.74341,-4.51428 0.90594,-0.50783 0.9139,-0.51767 0.8684,-1.07385 -0.0253,-0.30871 -0.089,-0.60782 -0.14178,-0.66464 -0.0527,-0.0568 -0.49714,-0.0397 -0.98758,0.0379 -1.17957,0.18681 -1.76908,-0.0481 -2.20737,-0.87957 -0.1841,-0.34937 -0.33368,-0.98989 -0.33228,-1.4234 0.003,-0.96766 -0.50698,-1.43442 -1.03353,-0.94571 -0.93665,0.86931 -2.07752,0.61897 -2.99622,-0.65749 -0.71137,-0.98839 -0.81903,-0.97554 -2.14594,0.25599 -0.87161,0.80896 -1.0743,0.9296 -1.39517,0.8304 -0.20649,-0.0638 -0.74947,-0.15215 -1.20663,-0.19625 -0.82791,-0.0798 -0.83318,-0.0773 -1.32716,0.64439 -0.53638,0.78363 -0.99757,1.62019 -1.28734,2.33514 -0.17522,0.4323 -0.13005,0.51352 1.07893,1.94035 1.14158,1.34727 1.27327,1.56945 1.38209,2.33181 0.0662,0.46346 0.24988,0.98726 0.40838,1.16399 0.15844,0.17674 0.50518,0.71544 0.77057,1.19712 0.64309,1.16724 0.56813,1.09851 1.50614,1.38105 z m 2.53537,-14.5176 c 0.27788,-0.25792 0.0528,-0.63107 -0.46314,-0.76763 -0.24316,-0.0644 -0.2667,0.002 -0.1284,0.35983 0.24462,0.63358 0.3041,0.67458 0.59154,0.4078 z m 5.81038,1.0661 c 0.14273,-0.2694 0.1874,-0.56753 0.0992,-0.66251 -0.20338,-0.21913 -0.89503,0.27156 -1.13953,0.80841 l -0.18639,0.40928 0.48357,-0.0327 c 0.39014,-0.0264 0.53372,-0.12732 0.7431,-0.5225 z m 3.79145,5.40763 c 1.0019,0.0374 1.2367,-1.42303 0.24953,-1.55202 -0.33186,-0.0434 -1.15343,0.58705 -1.16486,0.89384 -0.0118,0.31778 0.43671,0.64034 0.91533,0.65818 z m -2.02662,-8.54674 c -0.21684,-0.57951 -0.38993,-1.17154 -0.38451,-1.31567 0.0148,-0.3977 -0.33584,-0.69102 -1.09742,-0.91796 -0.95159,-0.28357 -1.30818,-0.83267 -1.10401,-1.70001 0.15134,-0.64297 0.30996,-0.83693 1.8629,-2.27827 2.17771,-2.02118 2.4028,-2.08415 3.05988,-0.85592 0.24868,0.46484 0.57987,1.28804 0.73598,1.82936 0.25629,0.88755 0.33402,1.00411 0.79532,1.18707 0.39788,0.15782 0.61861,0.11713 0.9938,-0.18318 0.26528,-0.21232 1.07368,-0.70514 1.79644,-1.09516 1.75823,-0.94879 2.22982,-0.9176 3.28302,0.21716 0.78058,0.84102 0.78376,0.85001 0.66815,1.88669 -0.0639,0.57291 -0.18162,1.10269 -0.26162,1.1773 -0.08,0.0746 -0.13826,0.2653 -0.12947,0.42376 0.0117,0.2098 0.24649,0.33052 0.86409,0.44416 1.51865,0.27944 1.92055,1.16427 1.26929,2.79449 -0.60826,1.5226 -1.13493,2.30686 -2.4322,3.62176 -1.31677,1.33466 -2.03751,1.63151 -3.07558,1.26666 -0.5578,-0.19604 -0.94581,-0.54331 -2.60751,-2.33369 -1.72295,-1.85636 -2.03514,-2.13184 -2.65853,-2.34582 -0.90078,-0.3092 -1.09599,-0.53468 -1.57801,-1.82275 z m 2.40097,0.6351 c 0.55146,0.13361 0.8228,0.37119 2.55978,2.24114 1.0686,1.15042 2.14361,2.19094 2.3889,2.31227 l 0.44598,0.22058 1.51413,-1.54429 c 1.23914,-1.2638 1.56507,-1.68955 1.79455,-2.34414 0.16816,-0.47972 0.19559,-0.89125 0.0685,-1.02816 -0.11659,-0.12555 -0.76317,-0.23149 -1.43697,-0.23539 -1.12816,-0.007 -1.24025,-0.0445 -1.41663,-0.47999 -0.11191,-0.27644 -0.0887,-0.63089 0.0558,-0.85315 0.41261,-0.63426 0.30032,-0.97399 -0.4044,-1.2233 -0.33939,-0.12007 -0.83622,-0.38216 -1.10409,-0.5824 -0.50954,-0.38092 -0.57884,-0.37759 -1.82977,0.0879 -0.42527,0.15828 -1.01766,0.24924 -1.31641,0.20221 -0.78238,-0.12317 -1.64611,-1.1066 -1.90908,-2.17366 -0.15185,-0.61596 -0.30778,-0.88976 -0.58612,-1.0288 -0.34943,-0.17454 -0.4599,-0.11463 -1.40389,0.76152 -1.19572,1.10979 -1.19565,1.12972 0.009,2.21479 0.80691,0.72696 0.98657,1.03908 1.24268,2.15878 0.15681,0.68574 0.60023,1.11774 1.32821,1.29411 z m 6.20453,-4.02347 c 0.37611,0.1227 0.44342,0.0867 0.59607,-0.31862 0.23594,-0.6265 0.0127,-0.89615 -0.79068,-0.95497 -0.7914,-0.0579 -0.85757,0.19371 -0.27896,1.06095 0.0273,0.0409 0.24038,0.13655 0.47357,0.21264 z"
       id="path1-7-8-2" />
    <path
       style="fill:#000000;stroke-width:0.264583"
       d="m 108.24463,78.284614 c 0.98384,0.48742 1.19837,0.52335 2.08612,0.34943 l 0.98951,-0.19382 1.62455,0.9764 1.62455,0.97641 0.77314,-0.2291 c 0.42522,-0.12607 0.9701,-0.43245 1.21078,-0.68111 0.24071,-0.24858 0.71164,-0.60397 1.04651,-0.78975 0.7119,-0.39438 1.74165,-1.85694 1.60386,-2.27669 -0.0486,-0.14795 -0.26877,-0.4497 -0.48935,-0.67051 -0.66467,-0.66542 -0.64189,-1.18657 0.10024,-2.29338 0.61984,-0.92444 0.69618,-0.98022 1.63554,-1.19502 0.94753,-0.21666 1.22535,-0.42843 1.77418,-1.3526 0.36349,-0.61205 0.11494,-1.545358 -0.52152,-1.958245 -0.4231,-0.274491 -0.65894,-0.285837 -1.28361,-0.06173 -0.4209,0.151029 -1.1697,0.383292 -1.664,0.516207 l -0.89871,0.241747 -0.17022,-0.523035 c -0.15978,-0.490934 -0.13605,-0.550859 0.38684,-0.976834 0.30639,-0.249583 0.95935,-1.044365 1.45106,-1.766141 1.03418,-1.518061 1.1238,-2.163162 0.41403,-2.980166 -0.59066,-0.679897 -1.23346,-0.710607 -2.2571,-0.107812 -0.70503,0.415119 -0.98808,0.713707 -1.66475,1.755862 l -0.8153,1.255663 -0.49992,-0.201696 c -0.55458,-0.22374 -0.83699,-0.816448 -0.57871,-1.214573 0.0857,-0.132018 0.14817,-0.453736 0.13889,-0.714871 -0.009,-0.261126 0.16176,-0.837499 0.38008,-1.280829 0.34598,-0.702523 0.3603,-0.936704 0.11154,-1.823401 -0.38145,-1.359679 -0.97911,-1.82591 -2.21936,-1.731322 -0.6742,0.05137 -0.77672,0.122111 -1.2619,0.869985 -0.33353,0.514112 -0.55421,1.083536 -0.59896,1.545591 -0.0926,0.955458 -1.12381,3.362161 -2.5166,5.873113 -0.61322,1.105507 -1.18043,2.204056 -1.26048,2.441236 -0.0801,0.23716 -0.36458,0.8095 -0.6323,1.27185 -1.45501,2.51283 -1.64553,3.00318 -1.48505,3.82195 0.24285,1.23902 0.9587,1.88482 3.4664,3.12719 z m -1.99502,-3.06301 c -0.21862,-0.43552 -0.32747,-0.94116 -0.24988,-1.16081 0.0756,-0.21405 0.71424,-1.2923 1.41921,-2.3961 1.56401,-2.448908 2.99403,-5.107493 3.4605,-6.433526 0.34464,-0.979726 0.35296,-0.989246 0.9087,-1.039971 0.30847,-0.02815 0.61407,-0.01669 0.67911,0.02551 0.065,0.04216 0.12454,0.482929 0.13229,0.979406 0.0186,1.194129 0.35129,1.73452 1.2457,2.02345 0.37581,0.121413 1.0325,0.158677 1.45932,0.08283 0.95274,-0.169319 1.5002,0.253026 1.10921,0.855706 -0.69549,1.072063 -0.25287,2.15295 1.16244,2.83871 1.09589,0.53099 1.10173,0.63926 0.11646,2.15802 -0.6472,0.99762 -0.73123,1.21803 -0.57837,1.51709 0.0983,0.19244 0.27864,0.71218 0.40062,1.15496 0.22092,0.80187 0.21928,0.80752 -0.40682,1.41813 -0.67983,0.66305 -1.42472,1.26109 -2.07926,1.66937 -0.39579,0.24685 -0.48357,0.2163 -2.09686,-0.72956 -1.52335,-0.89315 -1.76485,-0.98471 -2.53457,-0.96096 -0.46793,0.0144 -1.01551,-0.0766 -1.21684,-0.2023 -0.20133,-0.12572 -0.7916,-0.37477 -1.3117,-0.55345 -1.26038,-0.43302 -1.17979,-0.37097 -1.61926,-1.2465 z m 13.86621,-4.99167 c 0.20634,-0.31807 0.61263,-0.16037 0.83578,0.32436 0.10517,0.2285 0.0442,0.26303 -0.33223,0.18866 -0.66619,-0.13215 -0.71679,-0.1837 -0.50336,-0.51268 z m -2.04843,-5.540858 c 0.24088,-0.186891 0.52686,-0.28218 0.63563,-0.211543 0.2508,0.162712 -0.11376,0.928375 -0.60064,1.261466 l -0.37116,0.253951 -0.0509,-0.481998 c -0.041,-0.388869 0.0337,-0.54766 0.38707,-0.82182 z m -5.97857,-2.806088 c -0.20891,-0.980592 1.18941,-1.462794 1.48607,-0.512489 0.0997,0.319479 -0.38017,1.237132 -0.68044,1.3011 -0.31104,0.06624 -0.70584,-0.320216 -0.80564,-0.788649 z m 8.76783,0.528216 c 0.60814,0.114084 1.22111,0.182836 1.36217,0.15279 0.38924,-0.0829 0.73844,0.212138 1.09284,0.923398 0.44282,0.888732 1.04502,1.145704 1.8644,0.795552 0.60741,-0.259521 0.77126,-0.449081 1.92436,-2.226583 1.61702,-2.492563 1.64038,-2.725127 0.31753,-3.161444 -0.50064,-0.165124 -1.36851,-0.349966 -1.92859,-0.410767 -0.91842,-0.0997 -1.04656,-0.156556 -1.30606,-0.57957 -0.22382,-0.364849 -0.22165,-0.589292 0.01,-1.010489 0.16358,-0.297814 0.51021,-1.178845 0.77026,-1.957867 0.63264,-1.895096 0.52089,-2.354316 -0.77792,-3.196905 -0.96263,-0.624502 -0.97202,-0.626093 -1.97344,-0.334102 -0.55354,0.160888 -1.05508,0.368401 -1.11485,0.45997 -0.0598,0.09156 -0.2376,0.181783 -0.39522,0.200342 -0.20866,0.02465 -0.36795,-0.18603 -0.586,-0.774927 -0.53618,-1.448081 -1.4769,-1.691991 -2.97099,-0.77036 -1.39547,0.860797 -2.0776,1.514357 -3.15009,3.018235 -1.08862,1.526479 -1.25722,2.287499 -0.71948,3.247455 0.289,0.51582 0.69772,0.838426 2.74695,2.167836 2.12476,1.378431 2.44977,1.638662 2.76766,2.216017 0.45935,0.834276 0.71502,0.987843 2.06674,1.241419 z m -1.03813,-2.256167 c -0.22636,-0.520301 -0.50701,-0.746805 -2.64756,-2.1367 -1.3169,-0.855094 -2.52663,-1.735368 -2.68829,-1.956171 l -0.29392,-0.401446 1.26121,-1.756922 c 1.03214,-1.437815 1.39557,-1.832042 2.00101,-2.170555 0.44382,-0.247858 0.8444,-0.345803 1.00112,-0.244093 0.14372,0.09324 0.35915,0.712069 0.4787,1.375189 0.20025,1.110257 0.2569,1.214176 0.71623,1.313103 0.29155,0.0628 0.63674,-0.02094 0.83085,-0.201609 0.55396,-0.515447 0.90793,-0.46317 1.2746,0.188179 0.17654,0.313748 0.52013,0.758141 0.76342,0.98763 0.46278,0.436521 0.47141,0.505347 0.22775,1.817658 -0.0828,0.446135 -0.0707,1.045346 0.0269,1.331576 0.25574,0.749601 1.37294,1.431549 2.46931,1.507291 0.63288,0.04371 0.92941,0.150351 1.11419,0.40066 0.23199,0.314256 0.1919,0.433388 -0.50902,1.513839 -0.88787,1.368609 -0.90752,1.371951 -2.18336,0.371879 -0.85478,-0.670023 -1.19312,-0.7934 -2.34016,-0.853341 -0.70248,-0.03671 -1.20425,-0.399298 -1.50306,-1.086156 z m 2.89778,-6.803479 c -0.18548,-0.34944 -0.16161,-0.421948 0.21147,-0.641955 0.57665,-0.340074 0.88067,-0.166415 1.07661,0.614885 0.19304,0.769677 -0.0435,0.878095 -0.99724,0.457099 -0.0449,-0.01985 -0.17582,-0.213347 -0.29084,-0.43 z"
       id="path1-6-5-2" />
    <path
       style="fill:#000000;stroke-width:0.264583"
       d="m 156.80379,66.755519 c -0.64919,-0.88549 -0.72144,-1.09066 -0.70261,-1.99508 l 0.021,-1.00809 -1.24097,-1.43266 -1.24097,-1.43266 0.0929,-0.801 c 0.0511,-0.44056 0.2594,-1.02997 0.46293,-1.30981 0.20353,-0.27984 0.47274,-0.80483 0.59824,-1.16663 0.26671,-0.76889 1.53012,-2.03477 1.96731,-1.97114 0.15411,0.0225 0.48917,0.18753 0.74461,0.36689 0.76969,0.54047 1.27918,0.42851 2.24206,-0.49274 0.80421,-0.76942 0.84604,-0.85422 0.89626,-1.81651 0.0507,-0.97066 0.21159,-1.28073 1.02771,-1.98018 0.5405,-0.46322 1.50265,-0.37872 2.01874,0.17736 0.34308,0.36965 0.39477,0.60004 0.28129,1.25394 -0.0764,0.44058 -0.17667,1.21815 -0.22271,1.72793 l -0.0837,0.92688 0.5445,0.0778 c 0.5111,0.0731 0.56605,0.0394 0.89588,-0.5489 0.19325,-0.34469 0.86401,-1.1245 1.49059,-1.73289 1.31784,-1.27959 1.93795,-1.47871 2.86474,-0.91985 0.77125,0.46508 0.91193,1.09306 0.49396,2.20503 -0.28787,0.76585 -0.53336,1.09599 -1.44377,1.94163 l -1.09694,1.0189 0.28458,0.45783 c 0.31569,0.5079 0.94811,0.6843 1.29593,0.36146 0.11537,-0.10709 0.42155,-0.22391 0.68038,-0.25966 0.25886,-0.0357 0.79726,-0.30322 1.1965,-0.59446 0.63264,-0.46152 0.86088,-0.51586 1.77713,-0.42312 1.40499,0.1422 1.96697,0.65088 2.08686,1.88893 0.0652,0.673 0.0131,0.78615 -0.64026,1.39261 -0.44918,0.41688 -0.97224,0.7321 -1.41974,0.85556 -0.92533,0.25542 -3.11911,1.6847 -5.35346,3.48814 -0.98373,0.79402 -1.96851,1.54153 -2.1884,1.66113 -0.21989,0.11958 -0.73484,0.49824 -1.14432,0.84139 -2.22553,1.865056 -2.67585,2.136986 -3.51002,2.119546 -1.26233,-0.0264 -2.02149,-0.620636 -3.67619,-2.877626 z m 3.3602,1.43916 c 0.46661,0.14054 0.98343,0.1609 1.18649,0.0467 0.19788,-0.11125 1.15037,-0.92564 2.11666,-1.80974 2.14382,-1.96146 4.51722,-3.82695 5.74341,-4.51428 0.90594,-0.50783 0.9139,-0.51767 0.8684,-1.07385 -0.0253,-0.30871 -0.089,-0.60782 -0.14178,-0.66464 -0.0527,-0.0568 -0.49714,-0.0397 -0.98758,0.0379 -1.17957,0.18681 -1.76908,-0.0481 -2.20737,-0.87957 -0.1841,-0.34937 -0.33368,-0.98989 -0.33228,-1.4234 0.003,-0.96766 -0.50698,-1.43442 -1.03353,-0.94571 -0.93665,0.86931 -2.07752,0.61897 -2.99622,-0.65749 -0.71137,-0.98839 -0.81903,-0.97554 -2.14594,0.25599 -0.87161,0.80896 -1.0743,0.9296 -1.39517,0.8304 -0.20649,-0.0638 -0.74947,-0.15215 -1.20663,-0.19625 -0.82791,-0.0798 -0.83318,-0.0773 -1.32716,0.64439 -0.53638,0.78363 -0.99757,1.62019 -1.28734,2.33514 -0.17522,0.4323 -0.13005,0.51352 1.07893,1.94035 1.14158,1.34727 1.27327,1.56945 1.38209,2.33181 0.0662,0.46346 0.24988,0.98726 0.40838,1.16399 0.15844,0.17674 0.50518,0.71544 0.77057,1.19712 0.64309,1.16724 0.56813,1.09851 1.50614,1.38105 z m 2.53537,-14.5176 c 0.27788,-0.25792 0.0528,-0.63107 -0.46314,-0.76763 -0.24316,-0.0644 -0.2667,0.002 -0.1284,0.35983 0.24462,0.63358 0.3041,0.67458 0.59154,0.4078 z m 5.81038,1.0661 c 0.14273,-0.2694 0.1874,-0.56753 0.0992,-0.66251 -0.20338,-0.21913 -0.89503,0.27156 -1.13953,0.80841 l -0.18639,0.40928 0.48357,-0.0327 c 0.39014,-0.0264 0.53372,-0.12732 0.7431,-0.5225 z m 3.79145,5.40763 c 1.0019,0.0374 1.2367,-1.42303 0.24953,-1.55202 -0.33186,-0.0434 -1.15343,0.58705 -1.16486,0.89384 -0.0118,0.31778 0.43671,0.64034 0.91533,0.65818 z m -2.02662,-8.54674 c -0.21684,-0.57951 -0.38993,-1.17154 -0.38451,-1.31567 0.0148,-0.3977 -0.33584,-0.69102 -1.09742,-0.91796 -0.95159,-0.28357 -1.30818,-0.83267 -1.10401,-1.70001 0.15134,-0.64297 0.30996,-0.83693 1.8629,-2.27827 2.17771,-2.02118 2.4028,-2.08415 3.05988,-0.85592 0.24868,0.46484 0.57987,1.28804 0.73598,1.82936 0.25629,0.88755 0.33402,1.00411 0.79532,1.18707 0.39788,0.15782 0.61861,0.11713 0.9938,-0.18318 0.26528,-0.21232 1.07368,-0.70514 1.79644,-1.09516 1.75823,-0.94879 2.22982,-0.9176 3.28302,0.21716 0.78058,0.84102 0.78376,0.85001 0.66815,1.88669 -0.0639,0.57291 -0.18162,1.10269 -0.26162,1.1773 -0.08,0.0746 -0.13826,0.2653 -0.12947,0.42376 0.0117,0.2098 0.24649,0.33052 0.86409,0.44416 1.51865,0.27944 1.92055,1.16427 1.26929,2.79449 -0.60826,1.5226 -1.13493,2.30686 -2.4322,3.62176 -1.31677,1.33466 -2.03751,1.63151 -3.07558,1.26666 -0.5578,-0.19604 -0.94581,-0.54331 -2.60751,-2.33369 -1.72295,-1.85636 -2.03514,-2.13184 -2.65853,-2.34582 -0.90078,-0.3092 -1.09599,-0.53468 -1.57801,-1.82275 z m 2.40097,0.6351 c 0.55146,0.13361 0.8228,0.37119 2.55978,2.24114 1.0686,1.15042 2.14361,2.19094 2.3889,2.31227 l 0.44598,0.22058 1.51413,-1.54429 c 1.23914,-1.2638 1.56507,-1.68955 1.79455,-2.34414 0.16816,-0.47972 0.19559,-0.89125 0.0685,-1.02816 -0.11659,-0.12555 -0.76317,-0.23149 -1.43697,-0.23539 -1.12816,-0.007 -1.24025,-0.0445 -1.41663,-0.47999 -0.11191,-0.27644 -0.0887,-0.63089 0.0558,-0.85315 0.41261,-0.63426 0.30032,-0.97399 -0.4044,-1.2233 -0.33939,-0.12007 -0.83622,-0.38216 -1.10409,-0.5824 -0.50954,-0.38092 -0.57884,-0.37759 -1.82977,0.0879 -0.42527,0.15828 -1.01766,0.24924 -1.31641,0.20221 -0.78238,-0.12317 -1.64611,-1.1066 -1.90908,-2.17366 -0.15185,-0.61596 -0.30778,-0.88976 -0.58612,-1.0288 -0.34943,-0.17454 -0.4599,-0.11463 -1.40389,0.76152 -1.19572,1.10979 -1.19565,1.12972 0.009,2.21479 0.80691,0.72696 0.98657,1.03908 1.24268,2.15878 0.15681,0.68574 0.60023,1.11774 1.32821,1.29411 z m 6.20453,-4.02347 c 0.37611,0.1227 0.44342,0.0867 0.59607,-0.31862 0.23594,-0.6265 0.0127,-0.89615 -0.79068,-0.95497 -0.7914,-0.0579 -0.85757,0.19371 -0.27896,1.06095 0.0273,0.0409 0.24038,0.13655 0.47357,0.21264 z"
       id="path1-7-8-2-4" />
    <path
       style="fill:#000000;stroke-width:0.264583"
       d="m 201.45475,23.312813 c -0.64919,-0.88549 -0.72144,-1.09066 -0.70261,-1.99508 l 0.021,-1.00809 -1.24097,-1.43266 -1.24097,-1.43266 0.0929,-0.801 c 0.0511,-0.44056 0.2594,-1.02997 0.46293,-1.30981 0.20353,-0.27984 0.47274,-0.80483 0.59824,-1.16663 0.26671,-0.76889 1.53012,-2.03477 1.96731,-1.97114 0.15411,0.0225 0.48917,0.18753 0.74461,0.36689 0.76969,0.54047 1.27918,0.42851 2.24206,-0.49274 0.80421,-0.76942 0.84604,-0.85422 0.89626,-1.81651 0.0507,-0.9706602 0.21159,-1.2807302 1.02771,-1.9801802 0.5405,-0.46322 1.50265,-0.37872 2.01874,0.17736 0.34308,0.36965 0.39477,0.60004 0.28129,1.25394 -0.0764,0.4405802 -0.17667,1.2181502 -0.22271,1.7279302 l -0.0837,0.92688 0.5445,0.0778 c 0.5111,0.0731 0.56605,0.0394 0.89588,-0.5489 0.19325,-0.34469 0.86401,-1.1245 1.49059,-1.73289 1.31784,-1.2795902 1.93795,-1.4787102 2.86474,-0.9198502 0.77125,0.46508 0.91193,1.0930602 0.49396,2.2050302 -0.28787,0.76585 -0.53336,1.09599 -1.44377,1.94163 l -1.09694,1.0189 0.28458,0.45783 c 0.31569,0.5079 0.94811,0.6843 1.29593,0.36146 0.11537,-0.10709 0.42155,-0.22391 0.68038,-0.25966 0.25886,-0.0357 0.79726,-0.30322 1.1965,-0.59446 0.63264,-0.46152 0.86088,-0.51586 1.77713,-0.42312 1.40499,0.1422 1.96697,0.65088 2.08686,1.88893 0.0652,0.673 0.0131,0.78615 -0.64026,1.39261 -0.44918,0.41688 -0.97224,0.7321 -1.41974,0.85556 -0.92533,0.25542 -3.11911,1.6847 -5.35346,3.48814 -0.98373,0.79402 -1.96851,1.54153 -2.1884,1.66113 -0.21989,0.11958 -0.73484,0.49824 -1.14432,0.84139 -2.22553,1.865056 -2.67585,2.136986 -3.51002,2.119546 -1.26233,-0.0264 -2.02149,-0.620636 -3.67619,-2.877626 z m 3.3602,1.43916 c 0.46661,0.14054 0.98343,0.1609 1.18649,0.0467 0.19788,-0.11125 1.15037,-0.92564 2.11666,-1.80974 2.14382,-1.96146 4.51722,-3.82695 5.74341,-4.51428 0.90594,-0.50783 0.9139,-0.51767 0.8684,-1.07385 -0.0253,-0.30871 -0.089,-0.60782 -0.14178,-0.66464 -0.0527,-0.0568 -0.49714,-0.0397 -0.98758,0.0379 -1.17957,0.18681 -1.76908,-0.0481 -2.20737,-0.87957 -0.1841,-0.34937 -0.33368,-0.98989 -0.33228,-1.4234 0.003,-0.96766 -0.50698,-1.43442 -1.03353,-0.94571 -0.93665,0.86931 -2.07752,0.61897 -2.99622,-0.65749 -0.71137,-0.98839 -0.81903,-0.97554 -2.14594,0.25599 -0.87161,0.80896 -1.0743,0.9296 -1.39517,0.8304 -0.20649,-0.0638 -0.74947,-0.15215 -1.20663,-0.19625 -0.82791,-0.0798 -0.83318,-0.0773 -1.32716,0.64439 -0.53638,0.78363 -0.99757,1.62019 -1.28734,2.33514 -0.17522,0.4323 -0.13005,0.51352 1.07893,1.94035 1.14158,1.34727 1.27327,1.56945 1.38209,2.33181 0.0662,0.46346 0.24988,0.98726 0.40838,1.16399 0.15844,0.17674 0.50518,0.71544 0.77057,1.19712 0.64309,1.16724 0.56813,1.09851 1.50614,1.38105 z m 2.53537,-14.5176 c 0.27788,-0.2579202 0.0528,-0.6310702 -0.46314,-0.7676302 -0.24316,-0.0644 -0.2667,0.002 -0.1284,0.35983 0.24462,0.6335802 0.3041,0.6745802 0.59154,0.4078002 z m 5.81038,1.0661 c 0.14273,-0.2694 0.1874,-0.56753 0.0992,-0.66251 -0.20338,-0.21913 -0.89503,0.27156 -1.13953,0.80841 l -0.18639,0.40928 0.48357,-0.0327 c 0.39014,-0.0264 0.53372,-0.12732 0.7431,-0.5225 z m 3.79145,5.40763 c 1.0019,0.0374 1.2367,-1.42303 0.24953,-1.55202 -0.33186,-0.0434 -1.15343,0.58705 -1.16486,0.89384 -0.0118,0.31778 0.43671,0.64034 0.91533,0.65818 z m -2.02662,-8.5467402 c -0.21684,-0.57951 -0.38993,-1.17154 -0.38451,-1.31567 0.0148,-0.3977 -0.33584,-0.69102 -1.09742,-0.91796 -0.95159,-0.28357 -1.30818,-0.83267 -1.10401,-1.70001 0.15134,-0.64297 0.30996,-0.83693 1.8629,-2.27827 2.17771,-2.02118001 2.4028,-2.08415001 3.05988,-0.85592 0.24868,0.46484 0.57987,1.28804 0.73598,1.82936 0.25629,0.88755 0.33402,1.00411 0.79532,1.18707 0.39788,0.15782 0.61861,0.11713 0.9938,-0.18318 0.26528,-0.21232 1.07368,-0.70514 1.79644,-1.09516 1.75823,-0.94879 2.22982,-0.9176 3.28302,0.21716 0.78058,0.84102 0.78376,0.85001 0.66815,1.88669 -0.0639,0.57291 -0.18162,1.10269 -0.26162,1.1773 -0.08,0.0746 -0.13826,0.2653 -0.12947,0.42376 0.0117,0.2098 0.24649,0.33052 0.86409,0.44416 1.51865,0.27944 1.92055,1.16427 1.26929,2.79449 -0.60826,1.5226002 -1.13493,2.3068602 -2.4322,3.6217602 -1.31677,1.33466 -2.03751,1.63151 -3.07558,1.26666 -0.5578,-0.19604 -0.94581,-0.54331 -2.60751,-2.33369 -1.72295,-1.85636 -2.03514,-2.13184 -2.65853,-2.3458202 -0.90078,-0.3092 -1.09599,-0.53468 -1.57801,-1.82275 z m 2.40097,0.6351 c 0.55146,0.13361 0.8228,0.37119 2.55978,2.2411402 1.0686,1.15042 2.14361,2.19094 2.3889,2.31227 l 0.44598,0.22058 1.51413,-1.54429 c 1.23914,-1.2638 1.56507,-1.68955 1.79455,-2.3441402 0.16816,-0.47972 0.19559,-0.89125 0.0685,-1.02816 -0.11659,-0.12555 -0.76317,-0.23149 -1.43697,-0.23539 -1.12816,-0.007 -1.24025,-0.0445 -1.41663,-0.47999 -0.11191,-0.27644 -0.0887,-0.63089 0.0558,-0.85315 0.41261,-0.63426 0.30032,-0.97399 -0.4044,-1.2233 -0.33939,-0.12007 -0.83622,-0.38216 -1.10409,-0.5824 -0.50954,-0.38092 -0.57884,-0.37759 -1.82977,0.0879 -0.42527,0.15828 -1.01766,0.24924 -1.31641,0.20221 -0.78238,-0.12317 -1.64611,-1.1066 -1.90908,-2.17366 -0.15185,-0.61596 -0.30778,-0.88976 -0.58612,-1.0288 -0.34943,-0.17454 -0.4599,-0.11463 -1.40389,0.76152 -1.19572,1.10979 -1.19565,1.12972 0.009,2.21479 0.80691,0.72696 0.98657,1.03908 1.24268,2.15878 0.15681,0.68574 0.60023,1.11774 1.32821,1.29411 z m 6.20453,-4.02347 c 0.37611,0.1227 0.44342,0.0867 0.59607,-0.31862 0.23594,-0.6265 0.0127,-0.89615 -0.79068,-0.95497 -0.7914,-0.0579 -0.85757,0.19371 -0.27896,1.06095 0.0273,0.0409 0.24038,0.13655 0.47357,0.21264 z"
       id="path1-7-8-2-4-7" />
    <path
       style="fill:#000000;stroke-width:0.264583"
       d="m 154.65013,27.521955 c 0.98384,0.48742 1.19837,0.52335 2.08612,0.34943 l 0.98951,-0.19382 1.62455,0.9764 1.62455,0.97641 0.77314,-0.2291 c 0.42522,-0.12607 0.9701,-0.43245 1.21078,-0.68111 0.24071,-0.24858 0.71164,-0.60397 1.04651,-0.78975 0.7119,-0.39438 1.74165,-1.85694 1.60386,-2.27669 -0.0486,-0.14795 -0.26877,-0.4497 -0.48935,-0.67051 -0.66467,-0.66542 -0.64189,-1.18657 0.10024,-2.29338 0.61984,-0.92444 0.69618,-0.98022 1.63554,-1.19502 0.94753,-0.21666 1.22535,-0.42843 1.77418,-1.3526 0.36349,-0.61205 0.11494,-1.545358 -0.52152,-1.958245 -0.4231,-0.274491 -0.65894,-0.285837 -1.28361,-0.06173 -0.4209,0.151029 -1.1697,0.383292 -1.664,0.516207 l -0.89871,0.241747 -0.17022,-0.523035 c -0.15978,-0.490934 -0.13605,-0.550859 0.38684,-0.976834 0.30639,-0.249583 0.95935,-1.044365 1.45106,-1.766141 1.03418,-1.518061 1.1238,-2.163162 0.41403,-2.980166 -0.59066,-0.679897 -1.23346,-0.710607 -2.2571,-0.107812 -0.70503,0.415119 -0.98808,0.713707 -1.66475,1.755862 l -0.8153,1.255663 -0.49992,-0.201696 c -0.55458,-0.22374 -0.83699,-0.816448 -0.57871,-1.214573 0.0857,-0.132018 0.14817,-0.453736 0.13889,-0.714871 -0.009,-0.261126 0.16176,-0.837499 0.38008,-1.280829 0.34598,-0.702523 0.3603,-0.936704 0.11154,-1.823401 -0.38145,-1.3596787 -0.97911,-1.8259097 -2.21936,-1.7313217 -0.6742,0.05137 -0.77672,0.122111 -1.2619,0.869985 -0.33353,0.514112 -0.55421,1.0835357 -0.59896,1.5455907 -0.0926,0.955458 -1.12381,3.362161 -2.5166,5.873113 -0.61322,1.105507 -1.18043,2.204056 -1.26048,2.441236 -0.0801,0.23716 -0.36458,0.8095 -0.6323,1.27185 -1.45501,2.51283 -1.64553,3.00318 -1.48505,3.82195 0.24285,1.23902 0.9587,1.88482 3.4664,3.12719 z m -1.99502,-3.06301 c -0.21862,-0.43552 -0.32747,-0.94116 -0.24988,-1.16081 0.0756,-0.21405 0.71424,-1.2923 1.41921,-2.3961 1.56401,-2.448908 2.99403,-5.107493 3.4605,-6.433526 0.34464,-0.979726 0.35296,-0.989246 0.9087,-1.039971 0.30847,-0.02815 0.61407,-0.01669 0.67911,0.02551 0.065,0.04216 0.12454,0.482929 0.13229,0.979406 0.0186,1.194129 0.35129,1.73452 1.2457,2.02345 0.37581,0.121413 1.0325,0.158677 1.45932,0.08283 0.95274,-0.169319 1.5002,0.253026 1.10921,0.855706 -0.69549,1.072063 -0.25287,2.15295 1.16244,2.83871 1.09589,0.53099 1.10173,0.63926 0.11646,2.15802 -0.6472,0.99762 -0.73123,1.21803 -0.57837,1.51709 0.0983,0.19244 0.27864,0.71218 0.40062,1.15496 0.22092,0.80187 0.21928,0.80752 -0.40682,1.41813 -0.67983,0.66305 -1.42472,1.26109 -2.07926,1.66937 -0.39579,0.24685 -0.48357,0.2163 -2.09686,-0.72956 -1.52335,-0.89315 -1.76485,-0.98471 -2.53457,-0.96096 -0.46793,0.0144 -1.01551,-0.0766 -1.21684,-0.2023 -0.20133,-0.12572 -0.7916,-0.37477 -1.3117,-0.55345 -1.26038,-0.43302 -1.17979,-0.37097 -1.61926,-1.2465 z m 13.86621,-4.99167 c 0.20634,-0.31807 0.61263,-0.16037 0.83578,0.32436 0.10517,0.2285 0.0442,0.26303 -0.33223,0.18866 -0.66619,-0.13215 -0.71679,-0.1837 -0.50336,-0.51268 z m -2.04843,-5.540858 c 0.24088,-0.186891 0.52686,-0.28218 0.63563,-0.211543 0.2508,0.162712 -0.11376,0.928375 -0.60064,1.261466 l -0.37116,0.253951 -0.0509,-0.481998 c -0.041,-0.388869 0.0337,-0.54766 0.38707,-0.82182 z m -5.97857,-2.806088 c -0.20891,-0.980592 1.18941,-1.4627937 1.48607,-0.512489 0.0997,0.319479 -0.38017,1.237132 -0.68044,1.3011 -0.31104,0.06624 -0.70584,-0.320216 -0.80564,-0.788649 z m 8.76783,0.528216 c 0.60814,0.114084 1.22111,0.182836 1.36217,0.15279 0.38924,-0.0829 0.73844,0.212138 1.09284,0.923398 0.44282,0.888732 1.04502,1.145704 1.8644,0.795552 0.60741,-0.259521 0.77126,-0.449081 1.92436,-2.226583 1.61702,-2.4925627 1.64038,-2.7251267 0.31753,-3.1614437 -0.50064,-0.165124 -1.36851,-0.349966 -1.92859,-0.410767 -0.91842,-0.0997 -1.04656,-0.156556 -1.30606,-0.57957 -0.22382,-0.364849 -0.22165,-0.589292 0.01,-1.010489 0.16358,-0.297814 0.51021,-1.178845 0.77026,-1.957867 0.63264,-1.895096 0.52089,-2.354316 -0.77792,-3.19690464 -0.96263,-0.624502 -0.97202,-0.626093 -1.97344,-0.334102 -0.55354,0.160888 -1.05508,0.36840104 -1.11485,0.45997004 -0.0598,0.09156 -0.2376,0.181783 -0.39522,0.200342 -0.20866,0.02465 -0.36795,-0.18603 -0.586,-0.77492704 -0.53618,-1.448081 -1.4769,-1.69199096 -2.97099,-0.77036 -1.39547,0.860797 -2.0776,1.51435704 -3.15009,3.01823464 -1.08862,1.526479 -1.25722,2.287499 -0.71948,3.247455 0.289,0.51582 0.69772,0.838426 2.74695,2.167836 2.12476,1.378431 2.44977,1.638662 2.76766,2.2160167 0.45935,0.834276 0.71502,0.987843 2.06674,1.241419 z m -1.03813,-2.2561667 c -0.22636,-0.520301 -0.50701,-0.746805 -2.64756,-2.1367 -1.3169,-0.855094 -2.52663,-1.735368 -2.68829,-1.956171 l -0.29392,-0.401446 1.26121,-1.756922 c 1.03214,-1.4378146 1.39557,-1.8320416 2.00101,-2.17055464 0.44382,-0.247858 0.8444,-0.345803 1.00112,-0.244093 0.14372,0.09324 0.35915,0.71206904 0.4787,1.37518864 0.20025,1.110257 0.2569,1.214176 0.71623,1.313103 0.29155,0.0628 0.63674,-0.02094 0.83085,-0.201609 0.55396,-0.515447 0.90793,-0.46317 1.2746,0.188179 0.17654,0.313748 0.52013,0.758141 0.76342,0.98763 0.46278,0.436521 0.47141,0.505347 0.22775,1.817658 -0.0828,0.446135 -0.0707,1.045346 0.0269,1.331576 0.25574,0.749601 1.37294,1.431549 2.46931,1.507291 0.63288,0.04371 0.92941,0.150351 1.11419,0.40066 0.23199,0.314256 0.1919,0.433388 -0.50902,1.5138387 -0.88787,1.368609 -0.90752,1.371951 -2.18336,0.371879 -0.85478,-0.670023 -1.19312,-0.7934 -2.34016,-0.853341 -0.70248,-0.03671 -1.20425,-0.399298 -1.50306,-1.0861557 z m 2.89778,-6.803479 c -0.18548,-0.34944 -0.16161,-0.421948 0.21147,-0.641955 0.57665,-0.3400736 0.88067,-0.166415 1.07661,0.614885 0.19304,0.769677 -0.0435,0.878095 -0.99724,0.457099 -0.0449,-0.01985 -0.17582,-0.213347 -0.29084,-0.43 z"
       id="path1-6-5-2-1" />
  </g>
</svg>
