<?xml version="1.0" encoding="UTF-8" standalone="no"?>
<!-- Created with Inkscape (http://www.inkscape.org/) -->

<svg
   width="36.481609mm"
   height="45.422031mm"
   viewBox="0 0 36.481609 45.422031"
   version="1.1"
   id="svg1"
   inkscape:version="1.3.2 (091e20e, 2023-11-25)"
   sodipodi:docname="ornithopodTracks.svg"
   inkscape:export-filename="ornithopodTracks.png"
   inkscape:export-xdpi="96"
   inkscape:export-ydpi="96"
   xmlns:inkscape="http://www.inkscape.org/namespaces/inkscape"
   xmlns:sodipodi="http://sodipodi.sourceforge.net/DTD/sodipodi-0.dtd"
   xmlns="http://www.w3.org/2000/svg"
   xmlns:svg="http://www.w3.org/2000/svg">
  <sodipodi:namedview
     id="namedview1"
     pagecolor="#ffffff"
     bordercolor="#000000"
     borderopacity="0.25"
     inkscape:showpageshadow="2"
     inkscape:pageopacity="0.0"
     inkscape:pagecheckerboard="0"
     inkscape:deskcolor="#d1d1d1"
     inkscape:document-units="mm"
     inkscape:zoom="1.0655813"
     inkscape:cx="109.79922"
     inkscape:cy="80.707122"
     inkscape:window-width="1272"
     inkscape:window-height="449"
     inkscape:window-x="171"
     inkscape:window-y="25"
     inkscape:window-maximized="0"
     inkscape:current-layer="layer1" />
  <defs
     id="defs1">
    <inkscape:path-effect
       effect="fill_between_many"
       method="originald"
       linkedpaths="#path1-82-63,0,1"
       id="path-effect5-5"
       is_visible="true"
       lpeversion="0"
       join="true"
       close="true"
       autoreverse="true" />
    <inkscape:path-effect
       effect="fill_between_many"
       method="originald"
       linkedpaths="#path1-82-64,0,1"
       id="path-effect5-4"
       is_visible="true"
       lpeversion="0"
       join="true"
       close="true"
       autoreverse="true" />
    <inkscape:path-effect
       effect="fill_between_many"
       method="originald"
       linkedpaths="#path1-82-6-0,0,1"
       id="path-effect6-8"
       is_visible="true"
       lpeversion="0"
       join="true"
       close="true"
       autoreverse="true" />
  </defs>
  <g
     inkscape:label="Layer 1"
     inkscape:groupmode="layer"
     id="layer1"
     transform="translate(-34.225636,-131.09289)">
    <path
       style="fill:none;stroke:#000000;stroke-width:0.9525;stroke-dasharray:none;stroke-opacity:1"
       d="m 47.23256,132.20604 c 0.123531,0.18531 0.09122,0.48188 -0.09142,0.83908 -0.230296,0.45036 -0.224552,0.56438 0.03119,0.61704 0.172511,0.0356 0.936086,0.186 1.69683,0.33436 1.742381,0.33981 2.651328,0.92863 2.974023,1.92659 0.33028,1.02141 0.0349,1.37437 -1.740633,2.07991 -1.554215,0.61759 -2.395553,1.21543 -2.452447,1.74264 -0.06521,0.60439 0.179753,1.15843 0.773771,1.75007 1.008165,1.00413 0.611669,2.19028 -0.728893,2.18052 -2.023304,-0.0147 -4.909791,-0.90674 -6.025564,-1.8621 -0.855532,-0.73253 -1.604576,-0.97019 -2.561729,-0.8128 -0.401194,0.066 -0.806225,0.0807 -0.90007,0.0327 -0.09393,-0.0478 -0.352393,0.0778 -0.574546,0.27951 -0.222153,0.20172 -0.64608,0.39286 -0.942062,0.42476 -0.493945,0.0533 -0.570467,0.0159 -0.931701,-0.45486 -0.478695,-0.62383 -1.222739,-3.34693 -1.021844,-3.73983 0.07957,-0.1556 0.704821,-0.46311 1.389482,-0.68337 0.684644,-0.22023 1.578577,-0.53011 1.986492,-0.68862 0.407924,-0.1585 0.849498,-0.27166 0.981283,-0.25148 0.131785,0.0202 0.470941,-0.2415 0.753691,-0.58154 0.408613,-0.49141 0.532119,-0.78482 0.601963,-1.43013 0.119303,-1.10197 0.479581,-1.45312 1.950846,-1.90146 2.147342,-0.65434 4.322224,-0.56477 4.831326,0.19899 z"
       id="path1-0-6" />
    <path
       style="fill:none;stroke:#000000;stroke-width:0.9525;stroke-dasharray:none;stroke-opacity:1"
       d="m 49.207288,162.63687 c 0.537986,0.48151 0.594642,0.89086 0.195103,1.40955 -0.472579,0.61348 -0.629289,1.11118 -0.484033,1.53728 0.10873,0.31914 0.195118,0.34396 1.145191,0.32937 1.243736,-0.0191 2.822016,0.46401 3.377601,1.03394 0.772412,0.79241 0.636953,1.6568 -0.424475,2.70862 -0.818969,0.81155 -1.584247,1.2345 -3.149406,1.74065 -0.658633,0.21299 -1.236357,0.50407 -1.283814,0.64684 -0.0475,0.14275 -0.03148,0.84954 0.03553,1.57061 0.142566,1.53408 0.06113,1.86946 -0.548763,2.25989 -0.409627,0.26222 -0.629461,0.24095 -2.386128,-0.23097 -2.464395,-0.66204 -2.862735,-0.87037 -3.004921,-1.5714 -0.107816,-0.53159 -0.179996,-0.58179 -1.784166,-1.24064 -0.919499,-0.37764 -2.204864,-0.80733 -2.856378,-0.95478 -0.651492,-0.14754 -1.360378,-0.38023 -1.575236,-0.51731 -0.454653,-0.2893 -0.710529,-1.53724 -0.466055,-2.27268 0.09815,-0.29516 0.04877,-0.6843 -0.128341,-1.01185 -0.295382,-0.54629 -0.22788,-1.08125 0.178367,-1.41356 0.132559,-0.10838 0.682909,-0.0947 1.298406,0.0324 1.335548,0.27568 1.758437,0.0948 2.393646,-1.02411 1.02199,-1.80015 4.149227,-3.64005 5.813535,-3.42036 0.325189,0.0428 0.843121,0.003 1.15101,-0.088 0.634123,-0.18811 2.065367,0.0842 2.503468,0.4763 z"
       id="path1-6-1-1" />
    <path
       inkscape:original-d="M 0,0"
       inkscape:path-effect="#path-effect5-5"
       d="M 0,0"
       id="path6-3"
       transform="translate(-25.886898,-72.92815)" />
    <path
       inkscape:original-d="M 0,0"
       inkscape:path-effect="#path-effect5-4"
       d="m 113.42394,250.61954 c 0.22834,-0.64614 0.18891,-1.67102 -0.0865,-2.24743 -0.11384,-0.23827 -0.31805,-0.88331 -0.45388,-1.43339 -0.2987,-1.21007 -1.1016,-2.33201 -2.35792,-3.295 -0.69094,-0.52961 -0.96631,-0.62072 -1.75266,-0.57993 -0.51311,0.0266 -1.28857,0.2183 -1.72323,0.42597 -1.75252,0.83727 -2.21558,2.32912 -1.39379,4.4904 0.61703,1.62282 1.1147,2.21142 2.16932,2.56569 0.67585,0.22704 0.87186,0.38881 1.13274,0.93486 0.46802,0.97962 0.84048,1.01857 2.70629,0.28302 1.48484,-0.58535 1.58516,-0.6506 1.7596,-1.14419 z"
       id="path6-4"
       transform="rotate(113.70585,113.92377,192.75058)"
       style="fill:none;stroke:#000000;stroke-width:0.9525;stroke-dasharray:none;stroke-opacity:1" />
    <path
       style="fill:none;stroke:#000000;stroke-width:0.9525;stroke-dasharray:none;stroke-opacity:1"
       d="m 113.42394,250.61954 c 0.22834,-0.64614 0.18891,-1.67102 -0.0865,-2.24743 -0.11384,-0.23827 -0.31805,-0.88331 -0.45388,-1.43339 -0.2987,-1.21007 -1.1016,-2.33201 -2.35792,-3.295 -0.69094,-0.52961 -0.96631,-0.62072 -1.75266,-0.57993 -0.51311,0.0266 -1.28857,0.2183 -1.72323,0.42597 -1.75252,0.83727 -2.21558,2.32912 -1.39379,4.4904 0.61703,1.62282 1.1147,2.21142 2.16932,2.56569 0.67585,0.22704 0.87186,0.38881 1.13274,0.93486 0.46802,0.97962 0.84048,1.01857 2.70629,0.28302 1.48484,-0.58535 1.58516,-0.6506 1.7596,-1.14419 z m -2.66375,-0.0876 c -0.26338,0.0192 -0.53764,-0.19945 -0.94738,-0.75543 -0.52521,-0.71271 -0.63248,-0.77506 -1.20208,-0.69881 -0.85355,0.11427 -1.2643,-0.15195 -1.7262,-1.11876 -0.78971,-1.65295 -0.53122,-2.60513 0.89177,-3.28497 0.82556,-0.39442 1.66605,-0.29712 2.59521,0.30044 0.54616,0.35126 0.73482,0.61582 1.27187,1.78356 0.34678,0.75414 0.64905,1.6007 0.67162,1.88129 0.0887,1.10275 -0.49665,1.81533 -1.55481,1.89268 z"
       id="path1-82-64"
       transform="rotate(113.70585,113.92377,192.75058)" />
    <path
       inkscape:original-d="M 0,0"
       inkscape:path-effect="#path-effect6-8"
       d="m 61.566188,251.762 c -0.665071,-0.16528 -1.498788,-0.76264 -1.828216,-1.30998 -0.136178,-0.22625 -0.562102,-0.75195 -0.946426,-1.16829 -0.845495,-0.91576 -1.339741,-2.20383 -1.451593,-3.78281 -0.06151,-0.86839 0.01411,-1.14841 0.481238,-1.78229 0.3048,-0.41362 0.891894,-0.9553 1.30462,-1.20372 1.664051,-1.00164 3.164281,-0.56649 4.515626,1.30976 1.014682,1.40879 1.231873,2.14836 0.946733,3.22373 -0.182724,0.68915 -0.155654,0.94185 0.156435,1.46034 0.559893,0.93017 0.387269,1.2625 -1.254275,2.41472 -1.306355,0.91697 -1.416068,0.96476 -1.924125,0.83852 z"
       id="path7-6"
       transform="rotate(113.70585,98.548271,191.58976)"
       style="fill:none;stroke:#000000;stroke-width:0.9525;stroke-dasharray:none;stroke-opacity:1" />
    <path
       style="fill:none;stroke:#000000;stroke-width:0.9525;stroke-dasharray:none;stroke-opacity:1"
       d="m 61.566188,251.762 c -0.665071,-0.16528 -1.498788,-0.76264 -1.828216,-1.30998 -0.136178,-0.22625 -0.562102,-0.75195 -0.946426,-1.16829 -0.845495,-0.91576 -1.339741,-2.20383 -1.451593,-3.78281 -0.06151,-0.86839 0.01411,-1.14841 0.481238,-1.78229 0.3048,-0.41362 0.891894,-0.9553 1.30462,-1.20372 1.664051,-1.00164 3.164281,-0.56649 4.515626,1.30976 1.014682,1.40879 1.231873,2.14836 0.946733,3.22373 -0.182724,0.68915 -0.155654,0.94185 0.156435,1.46034 0.559893,0.93017 0.387269,1.2625 -1.254275,2.41472 -1.306355,0.91697 -1.416068,0.96476 -1.924125,0.83852 z m 1.393956,-2.27159 c 0.161084,-0.20926 0.129634,-0.5586 -0.108758,-1.2068 -0.305614,-0.83091 -0.298576,-0.95478 0.07878,-1.38821 0.565474,-0.6495 0.569491,-1.13896 0.01692,-2.05697 -0.944726,-1.56951 -1.881844,-1.87818 -3.233003,-1.06488 -0.78389,0.47184 -1.165581,1.22696 -1.178557,2.33161 -0.0076,0.64931 0.109299,0.95249 0.788191,2.04389 0.438465,0.70479 0.978584,1.42333 1.200353,1.59671 0.871577,0.68138 1.788728,0.58526 2.436076,-0.25535 z"
       id="path1-82-6-0"
       transform="rotate(113.70585,98.548271,191.58976)" />
  </g>
</svg>
