<?xml version="1.0" encoding="UTF-8" standalone="no"?>
<!-- Created with Inkscape (http://www.inkscape.org/) -->

<svg
   width="22.036003mm"
   height="44.452015mm"
   viewBox="0 0 22.036003 44.452015"
   version="1.1"
   id="svg1"
   inkscape:version="1.3.2 (091e20e, 2023-11-25)"
   sodipodi:docname="tyrannosauridTracks.svg"
   inkscape:export-filename="tyrannosauridTracks.png"
   inkscape:export-xdpi="96"
   inkscape:export-ydpi="96"
   xmlns:inkscape="http://www.inkscape.org/namespaces/inkscape"
   xmlns:sodipodi="http://sodipodi.sourceforge.net/DTD/sodipodi-0.dtd"
   xmlns="http://www.w3.org/2000/svg"
   xmlns:svg="http://www.w3.org/2000/svg">
  <sodipodi:namedview
     id="namedview1"
     pagecolor="#ffffff"
     bordercolor="#000000"
     borderopacity="0.25"
     inkscape:showpageshadow="2"
     inkscape:pageopacity="0.0"
     inkscape:pagecheckerboard="0"
     inkscape:deskcolor="#d1d1d1"
     inkscape:document-units="mm"
     inkscape:zoom="0.64199847"
     inkscape:cx="193.14688"
     inkscape:cy="105.91926"
     inkscape:window-width="1272"
     inkscape:window-height="449"
     inkscape:window-x="171"
     inkscape:window-y="25"
     inkscape:window-maximized="0"
     inkscape:current-layer="layer1" />
  <defs
     id="defs1" />
  <g
     inkscape:label="Layer 1"
     inkscape:groupmode="layer"
     id="layer1"
     transform="translate(-18.126244,-68.188833)">
    <path
       style="fill:#000000"
       d="m 19.024147,74.853285 c 0.846336,-1.341082 4.132584,-3.43631 5.287915,-3.371451 0.14695,0.0082 0.728568,-0.390757 1.292481,-0.886689 0.869527,-0.764684 1.226202,-0.948523 2.3476,-1.209988 1.949604,-0.454559 2.818603,-0.737376 3.058337,-0.995325 0.294857,-0.317234 1.167917,-0.242679 1.280833,0.109364 0.510327,1.591346 -1.139028,4.779941 -2.434868,4.707194 -0.303421,-0.01703 -1.294037,0.665876 -1.204651,0.830465 0.04166,0.07675 1.365394,0.161685 2.941623,0.188776 6.048891,0.103986 6.414671,0.180779 7.774914,1.632253 1.079447,1.151844 1.07118,1.289086 -0.104806,1.742024 -0.521395,0.200811 -1.113788,0.486126 -1.316427,0.63404 -0.810871,0.5919 -1.535613,0.800677 -2.882747,0.830416 -0.773094,0.01709 -1.7664,0.08515 -2.20736,0.151286 -0.440973,0.06619 -1.58165,0.108548 -2.534856,0.09422 -2.43986,-0.03666 -2.559329,0.283434 -0.513407,1.375525 2.337656,1.247809 3.762207,3.887025 2.71888,5.037174 l -0.373004,0.411169 -1.277923,-0.402262 c -0.702854,-0.221242 -1.485906,-0.521324 -1.740119,-0.666842 -0.25423,-0.145496 -0.856735,-0.286741 -1.338925,-0.31381 -0.482201,-0.02707 -0.979719,-0.154357 -1.105583,-0.282893 -0.635347,-0.648751 -1.769833,-1.148612 -3.118789,-1.374181 -2.101537,-0.351394 -3.585862,-1.213627 -3.5386,-2.05553 0.0062,-0.110628 -0.139157,-0.353475 -0.32304,-0.539664 -0.431149,-0.43657 -0.384897,-1.179778 0.10477,-1.684276 l 0.385923,-0.397561 -0.474538,-0.384136 c -1.497296,-1.21209 -1.613574,-1.737443 -0.703636,-3.179297 z m 1.55756,2.231019 c 1.109736,0.803354 1.315194,1.350649 0.797728,2.124963 -0.866977,1.297305 0.102073,2.324637 2.52361,2.675406 0.889666,0.128868 1.436302,0.298595 1.618577,0.502542 0.151373,0.169382 0.487342,0.322689 0.746599,0.340691 0.259283,0.01756 0.663147,0.157096 0.897524,0.309122 0.234411,0.151978 0.842874,0.302609 1.352189,0.334647 0.772693,0.04839 1.069003,0.171217 1.789274,0.740373 0.891055,0.704113 1.31958,0.703029 1.138393,-0.0029 -0.08096,-0.315273 -0.359379,-0.652389 -1.596544,-1.932845 -0.171192,-0.177179 -0.522614,-0.387993 -0.780957,-0.468447 -0.548633,-0.17091 -2.25095,-1.94875 -2.221861,-2.320444 0.07248,-0.925383 1.357897,-1.335692 4.221695,-1.347522 3.382862,-0.01397 6.846354,-0.769487 6.884864,-1.501861 0.04673,-0.885933 -2.90203,-1.426793 -5.192627,-0.952456 -0.752112,0.155749 -1.372811,0.161147 -2.26222,0.01967 -0.674147,-0.107256 -1.450059,-0.187522 -1.72425,-0.178427 -2.613766,0.08685 -2.292853,-2.562714 0.407172,-3.361632 1.199591,-0.354961 2.027495,-1.331631 1.566258,-1.847735 -0.408534,-0.457124 -3.409652,0.464798 -4.469023,1.372837 -0.424816,0.364145 -0.962266,0.732797 -1.194327,0.819236 -0.232049,0.08643 -0.668242,0.296551 -0.969303,0.466903 -0.693206,0.392253 -2.376951,1.110848 -2.576577,1.099641 -0.140729,-0.0079 -0.432895,0.280207 -1.356064,1.337202 -0.608797,0.697064 -0.516024,1.107989 0.399863,1.771007 z"
       id="path1-8" />
    <path
       style="fill:#000000"
       d="m 18.781088,100.6733 c 0.916952,-1.293823 4.310704,-3.210023 5.460906,-3.083369 0.146296,0.0161 0.748455,-0.351177 1.338123,-0.816193 0.909237,-0.717006 1.275251,-0.881481 2.409035,-1.082503 1.971152,-0.34948 2.854055,-0.585349 3.107261,-0.830084 0.311406,-0.301002 1.179245,-0.179769 1.273133,0.177814 0.424359,1.616391 -1.393419,4.712069 -2.683478,4.570027 -0.302081,-0.03327 -1.327851,0.595608 -1.247411,0.764748 0.03751,0.0789 1.354777,0.23459 2.927286,0.34607 6.034639,0.42784 6.395782,0.52411 7.676325,2.04636 1.016205,1.20801 1.000597,1.34461 -0.19796,1.7339 -0.531406,0.1726 -1.13823,0.42577 -1.348495,0.56263 -0.841419,0.54761 -1.576299,0.71727 -2.923093,0.67481 -0.772903,-0.0243 -1.768425,-0.01 -2.212301,0.0328 -0.443879,0.0425 -1.585191,0.0237 -2.536255,-0.0417 -2.434397,-0.1673 -2.570842,0.14594 -0.586346,1.34605 2.267461,1.37123 3.5486,4.08297 2.445166,5.17557 l -0.394485,0.39062 -1.254539,-0.47014 c -0.689998,-0.25857 -1.455843,-0.60016 -1.701901,-0.75909 -0.245914,-0.15916 -0.840149,-0.33222 -1.320191,-0.38507 -0.480059,-0.0529 -0.970051,-0.20661 -1.088846,-0.34171 -0.599685,-0.68186 -1.705769,-1.24176 -3.040711,-1.53926 -2.079695,-0.46346 -3.515708,-1.40396 -3.423412,-2.24212 0.01212,-0.11013 -0.120027,-0.36042 -0.293674,-0.55619 -0.407143,-0.45905 -0.321153,-1.1987 0.194834,-1.67625 l 0.406662,-0.37632 -0.453276,-0.40901 c -1.430228,-1.29055 -1.518194,-1.82137 -0.532331,-3.21241 z m 1.435818,2.31125 c 1.065115,0.86164 1.240957,1.41915 0.68277,2.16463 -0.935225,1.24901 -0.02259,2.32677 2.376676,2.80675 0.881486,0.17632 1.418246,0.37509 1.589341,0.58851 0.142071,0.17726 0.469356,0.34833 0.727299,0.38016 0.257965,0.0314 0.653781,0.19239 0.87968,0.35675 0.2259,0.16436 0.825446,0.34732 1.332319,0.40659 0.76899,0.0897 1.058297,0.22824 1.747044,0.83515 0.852067,0.75084 1.280034,0.77271 1.136918,0.0581 -0.06395,-0.31916 -0.323919,-0.67071 -1.490724,-2.01559 -0.161473,-0.18606 -0.501086,-0.41542 -0.754733,-0.50962 -0.538694,-0.20004 -2.143345,-2.06651 -2.094383,-2.43612 0.121945,-0.92017 1.427493,-1.26104 4.287812,-1.11945 3.378752,0.16724 6.877739,-0.40168 6.955421,-1.13093 0.09412,-0.88216 -2.821438,-1.58019 -5.13415,-1.22923 -0.759381,0.11524 -1.379478,0.0874 -2.26003,-0.10153 -0.667431,-0.1432 -1.437937,-0.26492 -1.712219,-0.27052 -2.614661,-0.0533 -2.15229,-2.681848 0.586648,-3.334995 1.216881,-0.290204 2.095912,-1.221123 1.662984,-1.761189 -0.383458,-0.478356 -3.429655,0.281501 -4.536145,1.131482 -0.443708,0.34087 -1.000138,0.680206 -1.236493,0.754092 -0.236349,0.07388 -0.683165,0.260333 -0.992921,0.414318 -0.71322,0.354552 -2.43304,0.981932 -2.631777,0.960048 -0.140116,-0.01541 -0.447282,0.256624 -1.425742,1.262644 -0.645258,0.66346 -0.574616,1.07877 0.304432,1.78989 z"
       id="path1-3-5" />
  </g>
</svg>
