<?xml version="1.0" standalone="no"?>
<!DOCTYPE svg PUBLIC "-//W3C//DTD SVG 20010904//EN"
 "http://www.w3.org/TR/2001/REC-SVG-20010904/DTD/svg10.dtd">
<svg version="1.0" xmlns="http://www.w3.org/2000/svg"
 width="976.000000pt" height="858.000000pt" viewBox="0 0 976.000000 858.000000"
 preserveAspectRatio="xMidYMid meet">
<metadata>
Created by potrace 1.16, written by Peter Selinger 2001-2019
</metadata>
<g transform="translate(0.000000,858.000000) scale(0.100000,-0.100000)"
fill="#000000" stroke="none">
<path d="M3579 8525 c-218 -46 -269 -61 -460 -133 l-214 -82 -303 0 -302 0
-303 -184 c-167 -101 -413 -257 -548 -347 -134 -90 -389 -258 -567 -375 l-323
-211 -206 -294 c-113 -162 -212 -303 -219 -314 -15 -23 -124 -365 -124 -389 0
-8 52 -201 115 -427 l115 -411 103 -147 c81 -115 135 -208 251 -437 l148 -290
268 -290 267 -290 266 -186 265 -187 487 -141 488 -141 215 -177 c119 -97 360
-295 536 -440 l321 -263 477 -247 476 -247 99 -243 100 -242 -34 -228 -34
-227 48 -199 c26 -109 53 -204 59 -210 6 -7 96 -30 199 -51 l188 -40 51 -62
51 -62 -3 -143 c-2 -86 0 -139 5 -133 5 6 39 51 76 100 l66 91 21 124 c11 69
22 129 23 134 6 21 189 -212 267 -340 l85 -139 8 95 c5 52 6 202 3 333 l-5
238 92 -64 92 -65 30 -201 c16 -110 32 -201 35 -201 12 0 81 260 100 373 17
110 18 127 4 249 l-15 131 28 29 c15 15 31 28 37 28 6 0 46 -35 89 -77 l79
-78 -7 60 c-4 33 -38 195 -76 360 -62 271 -75 315 -134 455 -36 85 -84 214
-106 286 l-39 130 0 336 0 336 98 41 c53 23 103 41 111 41 8 0 38 -7 67 -17
51 -16 56 -15 191 11 103 21 174 43 281 86 l142 59 148 128 c81 70 225 202
319 293 l173 165 337 70 338 70 90 63 c86 60 94 69 153 167 l62 104 10 248 c6
136 15 293 20 348 16 169 24 145 -114 316 -101 125 -145 169 -227 234 l-103
79 -115 22 c-104 20 -237 61 -228 70 2 2 82 -12 178 -31 l175 -35 120 13 c65
8 122 13 126 11 3 -2 27 -43 53 -91 45 -82 142 -221 156 -222 4 -1 19 29 35
65 l28 65 -12 111 c-6 62 -10 114 -8 116 7 6 169 -30 183 -40 20 -16 130 -209
179 -315 l47 -103 59 0 58 0 -6 28 c-27 122 -89 349 -109 400 -14 34 -25 65
-25 68 0 9 66 -34 157 -101 99 -72 173 -172 210 -282 l25 -73 44 0 44 0 0 88
0 89 -84 179 c-120 256 -119 251 -124 445 l-4 167 -76 128 -77 129 -178 62
c-172 60 -181 65 -280 141 -56 43 -195 145 -308 225 l-206 147 -144 0 -144 0
-160 172 -160 171 -342 228 -343 229 -642 310 -642 311 -541 140 -540 141
-445 64 c-245 35 -456 65 -470 67 -14 2 -136 -20 -271 -48z m4276 -3082 c80
-36 144 -68 142 -69 -6 -7 -301 114 -305 125 -6 19 13 13 163 -56z"/>
</g>
</svg>
